<?xml version="1.0" standalone="no"?>
<!DOCTYPE svg PUBLIC "-//W3C//DTD SVG 20010904//EN"
 "http://www.w3.org/TR/2001/REC-SVG-20010904/DTD/svg10.dtd">
<svg version="1.0" xmlns="http://www.w3.org/2000/svg"
 width="700.000000pt" height="700.000000pt" viewBox="0 0 700.000000 700.000000"
 preserveAspectRatio="xMidYMid meet">
<metadata>
Created by potrace 1.14, written by Peter Selinger 2001-2017
</metadata>
<g transform="translate(0.000000,700.000000) scale(0.100000,-0.100000)"
fill="#000000" stroke="none">
<path d="M3314 6711 c-18 -4 -47 -17 -65 -28 -19 -11 -59 -34 -89 -50 -30 -17
-75 -41 -100 -55 -25 -14 -184 -103 -355 -198 -262 -145 -496 -286 -515 -310
-3 -3 -33 -27 -67 -53 -62 -47 -229 -208 -294 -282 -154 -177 -303 -423 -394
-650 -36 -90 -101 -300 -110 -359 -3 -17 -8 -42 -10 -56 -11 -55 -20 -114 -32
-210 -3 -19 -6 -261 -8 -538 -3 -382 -1 -501 8 -495 9 5 9 3 1 -8 -17 -20 -19
-1261 -3 -1309 31 -92 99 -140 194 -136 51 1 72 9 140 47 44 25 116 65 160 89
44 24 97 54 117 67 21 12 39 23 42 23 7 0 891 491 900 501 6 5 14 9 18 9 4 0
9 -510 10 -1134 l3 -1134 30 -43 c17 -24 50 -53 75 -66 72 -38 124 -28 261 47
132 73 746 414 1304 725 168 93 225 134 317 227 137 138 224 301 270 501 21
91 21 110 23 1302 1 967 -1 1223 -12 1275 -49 242 -272 420 -528 420 -60 0
-179 -31 -231 -61 -21 -11 -58 -32 -83 -46 -25 -13 -64 -35 -86 -47 -22 -12
-71 -40 -110 -61 -38 -21 -74 -41 -80 -45 -5 -4 -39 -23 -75 -42 -36 -20 -134
-75 -219 -122 -85 -47 -157 -84 -159 -81 -3 3 -6 510 -6 1127 -1 1225 3 1144
-55 1205 -45 47 -124 70 -187 54z m50 -598 c0 -225 -2 -411 -3 -415 0 -4 -10
-5 -20 -3 -33 6 -117 -21 -193 -63 -40 -21 -172 -94 -293 -162 -121 -68 -245
-137 -275 -153 -30 -16 -84 -47 -120 -67 -99 -57 -162 -92 -195 -108 -16 -9
-53 -31 -82 -49 -29 -18 -55 -33 -58 -33 -11 0 -157 -102 -238 -167 -104 -82
-277 -258 -346 -351 -30 -40 -56 -70 -59 -67 -4 4 4 66 25 185 2 14 15 66 28
117 90 343 284 681 534 933 182 182 312 273 646 456 28 14 79 43 115 64 36 20
90 51 120 67 30 16 112 62 182 101 71 40 130 72 133 72 4 0 23 11 43 25 20 14
41 25 47 25 8 0 10 -125 9 -407z m1388 -1505 c67 -31 119 -76 151 -131 47 -81
50 -106 51 -395 1 -149 -1 -272 -4 -272 -3 0 -25 7 -50 16 -70 25 -79 26 -185
30 -156 5 -220 -14 -412 -122 -63 -35 -117 -64 -118 -64 -2 0 -58 -31 -125
-70 -67 -38 -124 -70 -126 -70 -2 0 -21 -11 -42 -23 -20 -13 -71 -42 -112 -64
-41 -22 -169 -93 -285 -158 -295 -166 -367 -205 -372 -205 -3 0 -16 -9 -30
-20 -14 -11 -29 -20 -33 -20 -5 0 -7 35 -6 79 3 92 35 171 89 218 18 16 123
79 232 140 248 139 307 192 349 317 22 65 25 88 25 261 l1 150 83 45 c143 78
209 115 337 187 316 177 310 174 360 188 67 19 159 11 222 -17z"/>
</g>
</svg>
