<?xml version="1.0" encoding="utf-8"?>
<!-- Generator: Adobe Illustrator 26.0.3, SVG Export Plug-In . SVG Version: 6.00 Build 0)  -->
<svg version="1.1" id="Layer_1" xmlns="http://www.w3.org/2000/svg" xmlns:xlink="http://www.w3.org/1999/xlink" x="0px" y="0px"
	 viewBox="0 0 96.9 80" style="enable-background:new 0 0 96.9 80;" xml:space="preserve">
<g>
	<path d="M24.2,43.1c-1.5,0.6-2.7,1.1-3.4,1.6c-0.8,0.5-1.4,0.9-1.8,1.5h12.5v4.9H11.8v-2c0.1-1.8,0.6-3.3,1.5-4.4
		c0.9-1.2,2-2.2,3.1-2.9c1.3-0.7,2.7-1.5,4.6-2.3c1.1-0.5,2.1-0.9,2.7-1.3c1.5-0.7,2.2-1.7,2.2-2.6c0-0.5-0.3-0.9-1-1.3
		c-0.7-0.3-1.5-0.5-2.7-0.5c-1.3,0-2.2,0.2-2.9,0.7c-0.7,0.5-1,1.1-1,1.9h-6.3c0-2.5,0.9-4.4,2.7-5.8c1.8-1.4,4.3-2.1,7.6-2.1
		c3,0,5.4,0.6,7.1,1.8c1.7,1.2,2.6,2.8,2.6,4.9c0,1.4-0.3,2.6-1.1,3.5c-0.7,0.9-1.5,1.7-2.7,2.3C27.3,41.8,25.9,42.5,24.2,43.1z"/>
	<path d="M57.5,45c0,2.1-0.6,3.6-1.9,4.6c-1.3,1-3.3,1.5-5.9,1.5h-14V29h14c5.2,0,7.8,1.9,7.8,5.8c0,2.5-1.1,4.1-3.5,5v0.1
		C56.2,40.7,57.5,42.5,57.5,45z M51.2,44.2c0-0.7-0.2-1.3-0.7-1.7c-0.5-0.4-1.1-0.6-1.9-0.6h-7v4.2h7.2
		C50.5,46.2,51.2,45.5,51.2,44.2z M48.9,33.9h-7.1v3.8h6.9c0.7,0,1.4-0.2,1.8-0.5c0.5-0.3,0.7-0.8,0.7-1.4
		C51.1,34.5,50.4,33.9,48.9,33.9z"/>
	<path d="M84,46.4v4.9c-0.7,0.1-1.4,0.1-2.2,0.1c-2,0-3.5-0.5-4.6-1.4c-1.1-1-1.8-2.4-2-4.3c-0.2-1.1-0.5-1.8-0.8-2.1
		c-0.3-0.2-1.1-0.3-2.5-0.3h-4.9v7.9h-6.2V29h14c2.9,0,5.1,0.6,6.6,1.8c1.5,1.2,2.3,3,2.3,5.4c0,2.9-1.4,4.7-4.1,5.7v0.2
		c0.8,0.6,1.3,1.3,1.4,2.2C81.4,45.7,82.4,46.4,84,46.4z M67.1,33.8v4.5H75c0.9,0,1.5-0.2,2-0.6c0.5-0.4,0.7-0.9,0.7-1.7
		s-0.2-1.3-0.7-1.7c-0.5-0.4-1.1-0.6-2-0.6L67.1,33.8L67.1,33.8z"/>
</g>
</svg>
