<svg width="38" height="13" viewBox="0 0 38 13" fill="none" xmlns="http://www.w3.org/2000/svg">
<path d="M6.86406 7.98401C6.09606 8.29334 5.51473 8.56001 5.12006 8.78401C4.72539 9.00801 4.41606 9.25867 4.19206 9.53601H10.5121V12H0.560059V10.992C0.613392 10.096 0.864059 9.34934 1.31206 8.75201C1.78139 8.13334 2.31473 7.65334 2.91206 7.31201C3.54139 6.94934 4.31473 6.56534 5.23206 6.16001C5.81873 5.90401 6.27739 5.69067 6.60806 5.52001C7.36539 5.13601 7.74406 4.69334 7.74406 4.19201C7.74406 3.92534 7.57339 3.71734 7.23206 3.56801C6.90139 3.40801 6.44806 3.32801 5.87206 3.32801C5.24273 3.32801 4.75206 3.44534 4.40006 3.68001C4.04806 3.90401 3.87206 4.22401 3.87206 4.64001H0.720059C0.720059 3.38134 1.17873 2.40534 2.09606 1.71201C3.02406 1.00801 4.31473 0.656006 5.96806 0.656006C7.49339 0.656006 8.68806 0.960006 9.55206 1.56801C10.4267 2.16534 10.8641 2.99201 10.8641 4.04801C10.8641 4.75201 10.6774 5.35467 10.3041 5.85601C9.96273 6.32534 9.50939 6.72001 8.94406 7.04001C8.41072 7.32801 7.71739 7.64267 6.86406 7.98401Z" fill="#9068FC"/>
<path d="M23.6943 8.92801C23.6943 9.97334 23.3636 10.7467 22.7023 11.248C22.0516 11.7493 21.049 12 19.6943 12H12.6063V0.800006H19.6943C22.3183 0.800006 23.6303 1.77601 23.6303 3.72801C23.6303 4.97601 23.0383 5.81867 21.8543 6.25601V6.32001C23.081 6.77867 23.6943 7.64801 23.6943 8.92801ZM19.3743 3.29601H15.7423V5.21601H19.2303C19.6143 5.21601 19.9183 5.13067 20.1423 4.96001C20.3663 4.78934 20.4783 4.56001 20.4783 4.27201C20.4783 3.62134 20.1103 3.29601 19.3743 3.29601ZM20.5583 8.54401C20.5583 8.18134 20.4356 7.89867 20.1903 7.69601C19.9556 7.49334 19.6356 7.39201 19.2303 7.39201H15.7263V9.52001H19.3743C20.1636 9.52001 20.5583 9.19467 20.5583 8.54401Z" fill="#9068FC"/>
<path d="M37.1781 9.63201V12.096C36.8154 12.1173 36.4474 12.128 36.0741 12.128C35.0607 12.128 34.2821 11.888 33.7381 11.408C33.1941 10.9173 32.8527 10.1813 32.7141 9.20001C32.5861 8.61334 32.4527 8.27201 32.3141 8.17601C32.1861 8.06934 31.7701 8.00534 31.0661 7.98401H28.5861V12H25.4501V0.800006H32.5541C34.0154 0.800006 35.1354 1.10401 35.9141 1.71201C36.6927 2.32001 37.0821 3.22667 37.0821 4.43201C37.0821 5.87201 36.3941 6.82667 35.0181 7.29601V7.37601C35.4234 7.65334 35.6634 8.03201 35.7381 8.51201C35.8447 9.25867 36.3247 9.63201 37.1781 9.63201ZM28.5861 3.26401V5.55201H32.5541C32.9914 5.55201 33.3327 5.45601 33.5781 5.26401C33.8234 5.06134 33.9461 4.77867 33.9461 4.41601C33.9461 4.05334 33.8234 3.77067 33.5781 3.56801C33.3327 3.36534 32.9914 3.26401 32.5541 3.26401H28.5861Z" fill="#9068FC"/>
</svg>
