<svg width="309" height="108" viewBox="0 0 309 108" fill="none" xmlns="http://www.w3.org/2000/svg">
<path fill-rule="evenodd" clip-rule="evenodd" d="M249.4 47.8499C249.53 51.5058 248.703 55.1322 247 58.3699C245.487 61.1159 243.212 63.3662 240.45 64.8499C237.613 66.3339 234.452 67.0899 231.25 67.0499C228.029 67.1019 224.847 66.3382 222 64.8299C219.245 63.3386 216.978 61.0855 215.47 58.3399C213.769 55.1117 212.935 51.4971 213.05 47.8499C212.932 44.196 213.766 40.5742 215.47 37.3399C216.97 34.5905 219.239 32.3384 222 30.8599C224.855 29.4138 228.01 28.6602 231.21 28.6602C234.41 28.6602 237.565 29.4138 240.42 30.8599C243.198 32.3329 245.485 34.5852 247 37.3399C248.701 40.5747 249.528 44.1974 249.4 47.8499ZM238.96 47.8499C239.009 45.9249 238.707 44.0071 238.07 42.1899C237.577 40.7663 236.652 39.5317 235.424 38.658C234.196 37.7843 232.727 37.3148 231.22 37.3148C229.713 37.3148 228.244 37.7843 227.016 38.658C225.789 39.5317 224.864 40.7663 224.37 42.1899C223.737 44.0078 223.439 45.9256 223.49 47.8499C223.438 49.7776 223.736 51.6988 224.37 53.5199C224.864 54.9436 225.789 56.1781 227.016 57.0519C228.244 57.9256 229.713 58.3951 231.22 58.3951C232.727 58.3951 234.196 57.9256 235.424 57.0519C236.652 56.1781 237.577 54.9436 238.07 53.5199C238.722 51.702 239.037 49.7807 239 47.8499H238.96Z" fill="#16197A"/>
<path fill-rule="evenodd" clip-rule="evenodd" d="M104.31 66.5399V29.1699H130.59V37.3399H114.46V41.7199H118.25C121.072 41.661 123.875 42.1782 126.49 43.2399C128.689 44.121 130.598 45.6001 132 47.5099C133.341 49.3973 134.042 51.6649 134 53.9799C134.036 56.3189 133.337 58.6102 132 60.5299C130.613 62.502 128.706 64.0497 126.49 64.9999C123.888 66.1099 121.079 66.652 118.25 66.5899L104.31 66.5399ZM114.46 58.5399H118.25C119.309 58.5718 120.361 58.3668 121.33 57.9399C122.11 57.5858 122.768 57.0081 123.22 56.2799C123.661 55.5546 123.887 54.7187 123.87 53.8699C123.886 53.2655 123.765 52.6653 123.515 52.1145C123.266 51.5638 122.895 51.0767 122.43 50.6899C121.241 49.7659 119.752 49.3136 118.25 49.4199H114.46V58.5399Z" fill="#16197A"/>
<path d="M137.52 29.1699H147.66V48.7299H148L161.29 29.1699H169.9V66.5399H159.7V46.9099H159.49L146 66.5399H137.54L137.52 29.1699Z" fill="#16197A"/>
<path d="M174.66 29.1699V66.5399H184.81V51.9399H198.24V66.5399H208.38V29.1699H198.24V43.7699H184.81V29.1699H174.66Z" fill="#16197A"/>
<path d="M266.69 29.1699H254.07L254.08 66.5399H264V44.7899H264.27L272.59 66.2399H278.59L286.91 44.9299H287.2V66.5399H297.12V29.1699H284.5L275.81 50.3399H275.38L266.69 29.1699Z" fill="#16197A"/>
<path fill-rule="evenodd" clip-rule="evenodd" d="M118.85 75.59L118.36 75C118.186 75.167 117.967 75.2784 117.73 75.32C117.447 75.3419 117.163 75.3419 116.88 75.32H115.8C115.258 75.3076 114.722 75.4366 114.245 75.6944C113.768 75.9522 113.367 76.3298 113.08 76.79C112.404 78.0857 112.097 79.5417 112.19 81V81.84C112.17 82.6478 112.316 83.4512 112.62 84.2C112.868 84.7974 113.294 85.3038 113.84 85.65C114.389 85.99 115.024 86.1637 115.67 86.15C116.309 86.1633 116.938 85.9895 117.48 85.65C118.008 85.3074 118.427 84.8219 118.69 84.25C118.991 83.5778 119.138 82.8465 119.12 82.11C119.143 81.3828 118.996 80.6602 118.69 80C118.448 79.4467 118.048 78.9771 117.54 78.65C117.043 78.362 116.479 78.2104 115.905 78.2104C115.331 78.2104 114.767 78.362 114.27 78.65C113.774 78.9395 113.377 79.3716 113.13 79.89H113.03C113.057 79.2073 113.188 78.5328 113.42 77.89C113.589 77.3904 113.906 76.9543 114.33 76.64C114.778 76.3329 115.307 76.1658 115.85 76.16H117.06C117.397 76.155 117.733 76.1113 118.06 76.03C118.357 75.9546 118.629 75.803 118.85 75.59ZM117.01 84.93C116.614 85.1945 116.146 85.3306 115.67 85.32V85.27C115.32 85.2934 114.97 85.2361 114.645 85.1026C114.321 84.9691 114.032 84.7629 113.8 84.5C113.316 83.8343 113.075 83.022 113.12 82.2C113.124 81.783 113.188 81.3687 113.31 80.97C113.41 80.6055 113.584 80.2652 113.82 79.97C114.034 79.698 114.308 79.479 114.62 79.33C114.955 79.1743 115.321 79.0957 115.69 79.1C116.154 79.0853 116.611 79.2111 117.002 79.461C117.393 79.7108 117.699 80.073 117.88 80.5C118.105 81.0133 118.214 81.5698 118.2 82.13C118.209 82.705 118.104 83.2761 117.89 83.81C117.706 84.2577 117.401 84.6455 117.01 84.93Z" fill="#16197A"/>
<path fill-rule="evenodd" clip-rule="evenodd" d="M105.22 85.5899C105.763 85.9454 106.401 86.13 107.05 86.1199C107.706 86.1341 108.351 85.9493 108.9 85.5899C109.439 85.2296 109.868 84.7279 110.14 84.1399C110.437 83.4602 110.59 82.7265 110.59 81.9849C110.59 81.2433 110.437 80.5097 110.14 79.8299C109.865 79.241 109.437 78.7368 108.9 78.3699C108.353 78.0232 107.718 77.8391 107.07 77.8391C106.422 77.8391 105.787 78.0232 105.24 78.3699C104.701 78.7303 104.272 79.2319 104 79.8199C103.69 80.5005 103.536 81.242 103.55 81.9899C103.535 82.7314 103.689 83.4666 104 84.1399C104.267 84.7254 104.689 85.2268 105.22 85.5899ZM108.46 84.8199C108.055 85.1253 107.557 85.284 107.05 85.2699C106.542 85.2872 106.044 85.1283 105.64 84.8199C105.245 84.5094 104.941 84.0983 104.76 83.6299C104.555 83.1077 104.453 82.5508 104.46 81.9899C104.453 81.4258 104.555 80.8656 104.76 80.3399C104.938 79.8671 105.243 79.4522 105.64 79.1399C106.052 78.8466 106.545 78.689 107.05 78.689C107.556 78.689 108.048 78.8466 108.46 79.1399C108.854 79.4549 109.158 79.869 109.34 80.3399C109.545 80.8656 109.647 81.4258 109.64 81.9899C109.647 82.5508 109.545 83.1077 109.34 83.6299C109.155 84.0965 108.852 84.5067 108.46 84.8199Z" fill="#16197A"/>
<path fill-rule="evenodd" clip-rule="evenodd" d="M121.14 89.0001V78.0001H122.04V79.5301H122.16C122.283 79.2679 122.434 79.0198 122.61 78.7901C122.82 78.5262 123.082 78.3084 123.38 78.1501C123.759 77.9653 124.178 77.8761 124.6 77.8901C125.216 77.8816 125.82 78.0631 126.33 78.4101C126.845 78.7749 127.247 79.2774 127.49 79.8601C128.05 81.2491 128.05 82.8011 127.49 84.1901C127.244 84.7735 126.843 85.2784 126.33 85.6501C125.828 85.9973 125.23 86.1791 124.62 86.1701C124.198 86.1841 123.779 86.0949 123.4 85.9101C123.094 85.7517 122.824 85.5302 122.61 85.2601C122.426 85.0356 122.275 84.7865 122.16 84.5201H122.07V89.0001H121.14ZM122.06 82.0001C122.047 82.5834 122.145 83.1638 122.35 83.7101C122.512 84.1697 122.8 84.5749 123.18 84.8801C123.557 85.1711 124.024 85.323 124.5 85.3101C124.987 85.323 125.464 85.1676 125.85 84.8701C126.232 84.5565 126.522 84.1453 126.69 83.6801C126.895 83.1437 127 82.5743 127 82.0001C127.011 81.4342 126.916 80.8712 126.72 80.3401C126.555 79.879 126.268 79.4712 125.89 79.1601C125.496 78.8834 125.026 78.7349 124.545 78.7349C124.063 78.7349 123.594 78.8834 123.2 79.1601C122.823 79.4598 122.536 79.8577 122.37 80.3101C122.164 80.8496 122.059 81.4225 122.06 82.0001Z" fill="#16197A"/>
<path fill-rule="evenodd" clip-rule="evenodd" d="M130.85 85.8501C131.263 86.0424 131.714 86.1382 132.17 86.1301C132.584 86.1443 132.995 86.0728 133.38 85.9201C133.686 85.7915 133.965 85.6047 134.2 85.3701C134.403 85.1713 134.569 84.9376 134.69 84.6801H134.75V86.0001H135.68V80.5001C135.696 80.0417 135.603 79.5861 135.41 79.1701C135.249 78.8479 135.013 78.5699 134.72 78.3601C134.442 78.164 134.13 78.0216 133.8 77.9401C133.473 77.8594 133.137 77.8191 132.8 77.8201C132.393 77.8196 131.989 77.8803 131.6 78.0001C131.193 78.1138 130.818 78.3201 130.504 78.6029C130.19 78.8857 129.946 79.2372 129.79 79.6301L130.67 79.9501C130.836 79.5858 131.103 79.2769 131.44 79.0601C131.858 78.7869 132.352 78.6538 132.85 78.6801C133.101 78.6618 133.354 78.694 133.592 78.7747C133.831 78.8554 134.051 78.983 134.24 79.1501C134.408 79.3182 134.539 79.5201 134.624 79.7425C134.708 79.9648 134.744 80.2026 134.73 80.4401V80.6201C134.737 80.7088 134.718 80.7975 134.675 80.8756C134.633 80.9537 134.568 81.0178 134.49 81.0601C134.267 81.1683 134.027 81.236 133.78 81.2601L132.64 81.4001C132.222 81.4532 131.808 81.5334 131.4 81.6401C131.048 81.7265 130.711 81.8647 130.4 82.0501C130.137 82.2165 129.92 82.447 129.77 82.7201C129.611 83.0287 129.535 83.3733 129.55 83.7201C129.528 84.1645 129.641 84.6052 129.872 84.985C130.104 85.3648 130.445 85.6662 130.85 85.8501ZM133.58 84.9601C133.19 85.179 132.748 85.2895 132.3 85.2801C131.832 85.2968 131.372 85.1598 130.99 84.8901C130.82 84.7561 130.685 84.5839 130.594 84.3875C130.504 84.1911 130.461 83.9761 130.47 83.7601C130.461 83.4713 130.553 83.1883 130.73 82.9601C130.928 82.7399 131.179 82.5746 131.46 82.4801C131.835 82.3463 132.224 82.259 132.62 82.2201L133.18 82.1401C133.27 82.1315 133.36 82.1119 133.45 82.0923C133.57 82.0662 133.69 82.0401 133.81 82.0401C133.997 82.0089 134.181 81.9621 134.36 81.9001C134.487 81.8685 134.606 81.8105 134.71 81.7301V82.8801C134.714 83.2979 134.614 83.7102 134.42 84.0801C134.224 84.4438 133.934 84.7478 133.58 84.9601Z" fill="#16197A"/>
<path d="M137.58 83.91H138.58C138.587 84.1082 138.64 84.302 138.735 84.4758C138.831 84.6496 138.966 84.7983 139.13 84.91C139.529 85.1663 139.997 85.2921 140.47 85.27C140.976 85.2914 141.475 85.1551 141.9 84.88C142.082 84.7546 142.228 84.5851 142.326 84.3874C142.424 84.1898 142.47 83.9704 142.46 83.75C142.467 83.472 142.394 83.1979 142.25 82.96C142.108 82.7402 141.912 82.561 141.68 82.44C141.426 82.3107 141.145 82.2422 140.86 82.24H139.46V81.39H140.84C141.237 81.3978 141.624 81.263 141.93 81.01C142.051 80.8922 142.147 80.7505 142.211 80.5939C142.274 80.4372 142.305 80.269 142.3 80.1C142.301 79.9098 142.261 79.7217 142.181 79.5489C142.102 79.3761 141.985 79.2229 141.84 79.1C141.492 78.8233 141.054 78.6845 140.61 78.71C140.145 78.6917 139.688 78.829 139.31 79.1C139.145 79.2104 139.009 79.3589 138.913 79.5329C138.817 79.707 138.765 79.9014 138.76 80.1H137.76C137.772 79.6862 137.907 79.2854 138.15 78.95C138.411 78.6083 138.755 78.3397 139.15 78.17C139.594 77.9748 140.075 77.8792 140.56 77.89C141.046 77.88 141.528 77.9791 141.97 78.18C142.347 78.3531 142.668 78.6264 142.9 78.97C143.12 79.3091 143.235 79.7058 143.23 80.11C143.244 80.5047 143.117 80.8914 142.87 81.2C142.624 81.4824 142.301 81.6873 141.94 81.79V81.87C142.215 81.897 142.476 82.0049 142.69 82.18C142.914 82.3672 143.092 82.6033 143.21 82.87C143.334 83.1606 143.395 83.4741 143.39 83.79C143.383 84.2231 143.247 84.6443 143 85C142.748 85.362 142.402 85.6488 142 85.83C141.521 86.0376 141.002 86.1399 140.48 86.13C139.976 86.1355 139.477 86.0403 139.01 85.85C138.617 85.678 138.273 85.4097 138.01 85.07C137.748 84.7385 137.597 84.3324 137.58 83.91Z" fill="#16197A"/>
<path fill-rule="evenodd" clip-rule="evenodd" d="M146.58 85.5899C147.123 85.9454 147.761 86.13 148.41 86.1199C149.059 86.13 149.697 85.9454 150.24 85.5899C150.779 85.2296 151.208 84.7279 151.48 84.1399C151.776 83.4602 151.929 82.7265 151.929 81.9849C151.929 81.2433 151.776 80.5097 151.48 79.8299C151.205 79.241 150.777 78.7368 150.24 78.3699C149.693 78.0232 149.058 77.8391 148.41 77.8391C147.762 77.8391 147.127 78.0232 146.58 78.3699C146.041 78.7303 145.612 79.2319 145.34 79.8199C145.029 80.5005 144.876 81.242 144.89 81.9899C144.875 82.7314 145.029 83.4666 145.34 84.1399C145.612 84.7279 146.041 85.2296 146.58 85.5899ZM149.82 84.8199C149.414 85.1253 148.917 85.284 148.41 85.2699C147.903 85.2901 147.405 85.1347 147 84.8299C146.605 84.5194 146.301 84.1083 146.12 83.6399C145.915 83.1177 145.813 82.5608 145.82 81.9999C145.813 81.4358 145.915 80.8756 146.12 80.3499C146.298 79.8771 146.603 79.4622 147 79.1499C147.412 78.8566 147.904 78.699 148.41 78.699C148.915 78.699 149.408 78.8566 149.82 79.1499C150.214 79.4649 150.518 79.879 150.7 80.3499C150.905 80.8756 151.007 81.4358 151 81.9999C151.005 82.5574 150.903 83.1108 150.7 83.6299C150.515 84.0965 150.212 84.5067 149.82 84.8199Z" fill="#16197A"/>
<path fill-rule="evenodd" clip-rule="evenodd" d="M154 86V78H157.15C157.858 77.9692 158.557 78.1616 159.15 78.55C159.384 78.7198 159.573 78.9444 159.7 79.2042C159.828 79.4639 159.889 79.7509 159.88 80.04C159.893 80.2479 159.863 80.4563 159.793 80.6523C159.722 80.8484 159.612 81.0279 159.47 81.18C159.169 81.4847 158.788 81.6965 158.37 81.79C158.679 81.8388 158.973 81.9533 159.234 82.1258C159.494 82.2983 159.715 82.5249 159.88 82.79C160.046 83.0971 160.132 83.441 160.13 83.79C160.137 84.1868 160.025 84.5767 159.81 84.91C159.594 85.2434 159.289 85.51 158.93 85.68C158.512 85.8786 158.053 85.9746 157.59 85.96L154 86ZM154.89 81.45H157.21C157.531 81.4583 157.85 81.4039 158.15 81.29C158.394 81.1939 158.605 81.031 158.76 80.82C158.902 80.6072 158.975 80.3559 158.97 80.1C158.98 79.9191 158.941 79.7388 158.856 79.5786C158.771 79.4183 158.645 79.284 158.49 79.19C158.087 78.9472 157.62 78.8322 157.15 78.86H154.89V81.45ZM154.89 85.14H157.61C158.031 85.1673 158.447 85.0312 158.77 84.76C158.912 84.6366 159.025 84.4825 159.1 84.3093C159.174 84.1361 159.208 83.9483 159.2 83.76C159.215 83.5618 159.187 83.3628 159.118 83.1764C159.049 82.9901 158.94 82.8208 158.8 82.6803C158.659 82.5398 158.49 82.4312 158.304 82.3622C158.117 82.2931 157.918 82.2651 157.72 82.28H154.89V85.14Z" fill="#16197A"/>
<path fill-rule="evenodd" clip-rule="evenodd" d="M163.04 85.8499C163.456 86.0438 163.911 86.1395 164.37 86.1299C164.79 86.1469 165.209 86.0753 165.6 85.9199C165.906 85.7913 166.185 85.6045 166.42 85.3699C166.623 85.1712 166.789 84.9374 166.91 84.6799H166.97V85.9999H167.9V80.5599C167.916 80.1015 167.823 79.6459 167.63 79.2299C167.473 78.9056 167.235 78.6269 166.94 78.4199C166.663 78.2221 166.351 78.0795 166.02 77.9999C165.693 77.9193 165.357 77.879 165.02 77.8799C164.613 77.8794 164.209 77.9401 163.82 78.0599C163.425 78.1663 163.059 78.3612 162.75 78.6299C162.423 78.8976 162.165 79.2407 162 79.6299L162.88 79.9499C163.042 79.586 163.306 79.2768 163.64 79.0599C164.058 78.7867 164.552 78.6536 165.05 78.6799C165.301 78.6616 165.554 78.6938 165.792 78.7745C166.031 78.8552 166.251 78.9829 166.44 79.1499C166.608 79.318 166.739 79.5199 166.824 79.7423C166.908 79.9647 166.944 80.2024 166.93 80.4399V80.6199C166.937 80.7086 166.918 80.7974 166.875 80.8755C166.833 80.9536 166.768 81.0176 166.69 81.0599C166.467 81.1681 166.227 81.2359 165.98 81.2599L164.84 81.3999C164.422 81.453 164.008 81.5332 163.6 81.6399C163.247 81.7233 162.91 81.8617 162.6 82.0499C162.332 82.2132 162.111 82.4443 161.96 82.7199C161.801 83.0285 161.725 83.3731 161.74 83.7199C161.718 84.1643 161.831 84.605 162.062 84.9848C162.294 85.3646 162.635 85.666 163.04 85.8499ZM165.77 84.9599C165.379 85.1788 164.938 85.2893 164.49 85.2799C164.018 85.285 163.557 85.1338 163.18 84.8499C163.01 84.7159 162.875 84.5437 162.784 84.3473C162.694 84.1509 162.651 83.9359 162.66 83.7199C162.651 83.4311 162.743 83.1481 162.92 82.9199C163.118 82.6997 163.369 82.5344 163.65 82.4399C164.025 82.3061 164.414 82.2188 164.81 82.1799L165.37 82.0999C165.46 82.0913 165.55 82.0717 165.64 82.0521C165.76 82.026 165.88 81.9999 166 81.9999C166.189 81.9806 166.376 81.9471 166.56 81.8999C166.683 81.8655 166.799 81.8078 166.9 81.7299V82.8799C166.904 83.2977 166.804 83.71 166.61 84.0799C166.414 84.4436 166.124 84.7477 165.77 84.9599Z" fill="#16197A"/>
<path d="M169.18 78.83V78H175.42V78.88H172.78V86H171.85V78.83H169.18Z" fill="#16197A"/>
<path fill-rule="evenodd" clip-rule="evenodd" d="M178.296 85.6065C178.866 85.9626 179.529 86.1413 180.2 86.1201C180.702 86.1028 181.195 85.9837 181.65 85.7701C182.027 85.6107 182.367 85.3759 182.65 85.0801C182.912 84.8164 183.113 84.4991 183.24 84.1501L182.36 83.8701C182.261 84.1154 182.111 84.337 181.92 84.5201C181.713 84.7248 181.469 84.8877 181.2 85.0001C180.803 85.1479 180.378 85.2058 179.956 85.1695C179.534 85.1331 179.126 85.0036 178.76 84.7901C178.347 84.5223 178.02 84.1401 177.82 83.6901C177.617 83.2217 177.505 82.7193 177.491 82.2101H183.44V81.7501C183.455 81.1578 183.36 80.5679 183.16 80.0101C182.992 79.553 182.734 79.1346 182.4 78.7801C182.091 78.4663 181.72 78.221 181.31 78.0601C180.913 77.9009 180.488 77.8195 180.06 77.8201C179.409 77.8085 178.77 77.997 178.23 78.3601C177.694 78.7292 177.269 79.2374 177 79.8301C176.69 80.5037 176.536 81.2387 176.55 81.9801C176.535 82.7184 176.689 83.4503 177 84.1201C177.275 84.733 177.726 85.2504 178.296 85.6065ZM177.492 81.3901C177.507 80.9357 177.619 80.4891 177.82 80.0801C178.017 79.6456 178.328 79.2725 178.72 79.0001C179.11 78.7518 179.563 78.6199 180.025 78.6199C180.487 78.6199 180.94 78.7518 181.33 79.0001C181.7 79.2515 181.997 79.5966 182.19 80.0001C182.398 80.4337 182.504 80.9092 182.5 81.3901H177.492Z" fill="#16197A"/>
<path d="M184.69 86V85.13H184.94C185.18 85.1391 185.418 85.0838 185.63 84.97C185.822 84.8398 185.966 84.6501 186.04 84.43C186.153 84.1066 186.226 83.7709 186.26 83.43C186.31 82.99 186.35 82.43 186.37 81.79L186.55 78.04H191.63V86.04H190.7V78.83H187.43L187.27 82C187.27 82.6667 187.22 83.2367 187.12 83.71C187.07 84.1382 186.955 84.5562 186.78 84.95C186.638 85.2565 186.408 85.514 186.12 85.69C185.784 85.8982 185.395 86.0058 185 86H184.69Z" fill="#16197A"/>
<path fill-rule="evenodd" clip-rule="evenodd" d="M197.19 81H195V78H194.04V85.91H197.15C197.677 85.9271 198.201 85.821 198.68 85.6C199.093 85.4165 199.441 85.1134 199.68 84.73C199.907 84.335 200.021 83.8854 200.01 83.43C200.024 83.0997 199.966 82.7703 199.84 82.4647C199.714 82.159 199.523 81.8845 199.28 81.66C198.692 81.1843 197.945 80.9485 197.19 81ZM195 81.97V85.13H197.18C197.67 85.1521 198.153 85.0075 198.55 84.72C198.723 84.5825 198.861 84.4053 198.952 84.2034C199.042 84.0016 199.083 83.7809 199.07 83.56C199.083 83.3362 199.042 83.1127 198.952 82.9076C198.861 82.7025 198.724 82.5217 198.55 82.38C198.155 82.088 197.671 81.943 197.18 81.97H195Z" fill="#16197A"/>
<path d="M203 78V81.57H207.23V78H208.16V86H207.23V82.44H203V86H202V78H203Z" fill="#16197A"/>
<path fill-rule="evenodd" clip-rule="evenodd" d="M213.71 81H211.53V78H210.6V85.91H213.67C214.197 85.9271 214.721 85.821 215.2 85.6C215.613 85.4165 215.961 85.1134 216.2 84.73C216.427 84.335 216.541 83.8854 216.53 83.43C216.544 83.0997 216.486 82.7703 216.36 82.4647C216.234 82.159 216.043 81.8845 215.8 81.66C215.212 81.1843 214.465 80.9485 213.71 81ZM211.53 81.97V85.13H213.71C214.2 85.1521 214.683 85.0075 215.08 84.72C215.253 84.5825 215.391 84.4053 215.482 84.2034C215.572 84.0016 215.613 83.7809 215.6 83.56C215.613 83.3362 215.572 83.1127 215.482 82.9076C215.391 82.7025 215.254 82.5217 215.08 82.38C214.685 82.088 214.201 81.943 213.71 81.97H211.53Z" fill="#16197A"/>
<path d="M217.87 78V85.91L218.8 86V78H217.87Z" fill="#16197A"/>
<path d="M222.19 84.63L226.42 78H227.53V86H226.6V79.27L222.39 86H221.27V78H222.19V84.63Z" fill="#16197A"/>
<path d="M225.35 75.29H226.23C226.236 75.5146 226.196 75.738 226.111 75.9462C226.027 76.1545 225.901 76.343 225.74 76.5C225.368 76.8177 224.889 76.9821 224.4 76.96C223.914 76.9847 223.437 76.8198 223.07 76.5C222.907 76.3445 222.78 76.1562 222.695 75.9476C222.611 75.7391 222.571 75.5149 222.58 75.29H223.45C223.44 75.5374 223.522 75.7796 223.68 75.97C223.768 76.0716 223.88 76.1501 224.005 76.1989C224.131 76.2477 224.266 76.2652 224.4 76.25C224.535 76.262 224.671 76.243 224.797 76.1945C224.924 76.146 225.038 76.0692 225.13 75.97C225.285 75.7782 225.363 75.5361 225.35 75.29Z" fill="#16197A"/>
<path d="M240.16 85.12V78H239.19V85.13H235V78H234.07V86H240.07V88.59H241V85.12H240.16Z" fill="#16197A"/>
<path fill-rule="evenodd" clip-rule="evenodd" d="M246.13 86.12C245.449 86.1355 244.778 85.9513 244.2 85.59C243.648 85.2371 243.207 84.7341 242.93 84.14C242.627 83.4678 242.477 82.737 242.49 82C242.478 81.2598 242.628 80.5259 242.93 79.85C243.199 79.2544 243.628 78.7454 244.17 78.38C244.706 78.0159 245.342 77.8272 245.99 77.84C246.421 77.8393 246.849 77.9208 247.25 78.08C247.655 78.2437 248.023 78.4887 248.33 78.8C248.663 79.1451 248.925 79.553 249.1 80C249.296 80.5588 249.39 81.148 249.38 81.74V82.2H243.42C243.429 82.7229 243.541 83.2393 243.75 83.72C243.95 84.17 244.277 84.5522 244.69 84.82C245.122 85.0862 245.622 85.2217 246.13 85.21C246.472 85.2166 246.812 85.1554 247.13 85.03C247.401 84.9225 247.647 84.7589 247.85 84.55C248.044 84.3672 248.197 84.1458 248.3 83.9L249.18 84.18C249.053 84.5312 248.848 84.8491 248.58 85.11C248.299 85.4075 247.958 85.6426 247.58 85.8C247.124 86.0043 246.63 86.1132 246.13 86.12ZM243.75 80.11C243.555 80.507 243.444 80.9394 243.423 81.38H248.43C248.44 80.8985 248.333 80.4217 248.12 79.99C247.93 79.5843 247.633 79.2384 247.26 78.99C246.882 78.7468 246.44 78.6215 245.99 78.63C245.513 78.621 245.044 78.7608 244.65 79.03C244.263 79.3079 243.954 79.6795 243.75 80.11Z" fill="#16197A"/>
<path d="M252.34 81.57V78H251.41V86H252.34V82.44H256.57V86H257.49V78H256.57V81.57H252.34Z" fill="#16197A"/>
<path d="M258.84 78.83V78H265.09V78.88H262.44V86H261.52V78.83H258.84Z" fill="#16197A"/>
<path fill-rule="evenodd" clip-rule="evenodd" d="M267 78.0001V89.0001H268V84.5201H268.02C268.135 84.7865 268.286 85.0356 268.47 85.2601C268.684 85.5302 268.954 85.7517 269.26 85.9101C269.636 86.0937 270.052 86.1829 270.47 86.1701C271.084 86.1805 271.685 85.9987 272.19 85.6501C272.7 85.2755 273.1 84.7714 273.35 84.1901C273.897 82.7986 273.897 81.2517 273.35 79.8601C273.104 79.2796 272.702 78.778 272.19 78.4101C271.68 78.0631 271.076 77.8816 270.46 77.8901C270.038 77.8761 269.619 77.9653 269.24 78.1501C268.942 78.3084 268.68 78.5262 268.47 78.7901C268.29 79.0171 268.139 79.2657 268.02 79.5301H267.9V78.0001H267ZM268.21 83.7101C268.005 83.1638 267.907 82.5834 267.92 82.0001H268C267.963 81.4293 268.031 80.8566 268.2 80.3101C268.366 79.8577 268.653 79.4598 269.03 79.1601C269.424 78.8834 269.894 78.7349 270.375 78.7349C270.856 78.7349 271.326 78.8834 271.72 79.1601C272.098 79.4712 272.385 79.879 272.55 80.3401C272.746 80.8712 272.841 81.4342 272.83 82.0001C272.84 82.5725 272.745 83.1418 272.55 83.6801C272.382 84.1453 272.092 84.5565 271.71 84.8701C271.324 85.1676 270.847 85.323 270.36 85.3101C269.884 85.323 269.417 85.1711 269.04 84.8801C268.66 84.5749 268.372 84.1697 268.21 83.7101Z" fill="#16197A"/>
<path d="M31.0801 65.0001V96.2001C31.0788 96.6812 31.2034 97.1544 31.4415 97.5726C31.6795 97.9908 32.0228 98.3394 32.4372 98.584C32.8515 98.8286 33.3227 98.9606 33.8038 98.9669C34.285 98.9733 34.7594 98.8537 35.1801 98.6201L55.9301 87.0901C58.1944 85.8289 60.0807 83.9857 61.394 81.7512C62.7073 79.5167 63.3999 76.9719 63.4001 74.3801V57.8501C63.4027 56.7389 63.1147 55.6463 62.5645 54.6809C62.0144 53.7155 61.2212 52.9108 60.2639 52.3467C59.3065 51.7826 58.2183 51.4788 57.1072 51.4653C55.9961 51.4519 54.9008 51.7293 53.9301 52.2701L31.0801 65.0001Z" fill="#16197A"/>
<path d="M36.8299 25.8501L22.9999 33.5701C18.6457 35.9786 15.0158 39.5089 12.487 43.7943C9.95831 48.0798 8.62304 52.9641 8.61989 57.9401V72.7701C8.61839 73.2501 8.74258 73.7222 8.9801 74.1393C9.21763 74.5565 9.56021 74.9042 9.9738 75.1479C10.3874 75.3916 10.8575 75.5228 11.3376 75.5284C11.8176 75.5341 12.2907 75.414 12.7099 75.1801L31.0899 65.0001V59.0801C31.089 57.8828 31.4084 56.7071 32.015 55.675C32.6217 54.6428 33.4934 53.7917 34.5399 53.2101L39.2799 50.5701C39.7806 50.294 40.1979 49.8885 40.4882 49.3959C40.7785 48.9033 40.931 48.3418 40.9299 47.7701V28.2701C40.9311 27.7889 40.8065 27.3157 40.5685 26.8975C40.3304 26.4794 39.9872 26.1307 39.5728 25.8861C39.1584 25.6415 38.6873 25.5095 38.2061 25.5032C37.725 25.4968 37.2506 25.6164 36.8299 25.8501Z" fill="#16197A"/>
<path d="M40.9301 11.1199L40.9299 28.2701C40.9311 27.7889 40.8065 27.3157 40.5685 26.8975C40.3304 26.4794 39.9872 26.1307 39.5728 25.8861C39.1584 25.6415 38.6873 25.5095 38.2061 25.5032C37.725 25.4968 37.2506 25.6164 36.8299 25.8501L22.9999 33.5701C18.6457 35.9786 15.0158 39.5089 12.487 43.7943C9.97477 48.0519 8.64047 52.9006 8.62012 57.8429V43.4099C8.61922 37.648 10.1587 31.9906 13.0791 27.0236C15.9995 22.0566 20.1947 17.9606 25.2301 15.1599L36.8301 8.70991C37.25 8.4767 37.7236 8.35713 38.2039 8.363C38.6842 8.36887 39.1546 8.5 39.5687 8.74341C39.9828 8.98682 40.3262 9.33409 40.565 9.75088C40.8038 10.1677 40.9296 10.6396 40.9301 11.1199Z" fill="#05D2DD"/>
<path d="M31.0898 64.9946V59.0801C31.0889 57.8828 31.4084 56.7071 32.015 55.675C32.6216 54.6428 33.4934 53.7917 34.5398 53.2101L39.2798 50.5701C39.7806 50.294 40.1979 49.8885 40.4882 49.3959C40.7784 48.9033 40.931 48.3418 40.9298 47.7701V42.3387L52.3 35.9999C53.4372 35.3676 54.7198 35.0433 56.0209 35.0591C57.3219 35.075 58.5963 35.4303 59.7177 36.0901C60.8392 36.7498 61.7689 37.6911 62.4148 38.8206C63.0606 39.9501 63.4003 41.2287 63.4 42.5299V57.8154C63.3967 56.7162 63.1089 55.6363 62.5645 54.6809C62.0143 53.7155 61.2212 52.9108 60.2638 52.3467C59.3065 51.7826 58.2182 51.4788 57.1071 51.4653C55.996 51.4519 54.9008 51.7293 53.93 52.2701L31.0898 64.9946Z" fill="#05D2DD"/>
</svg>
