<svg width="71" height="71" viewBox="0 0 71 71" fill="none" xmlns="http://www.w3.org/2000/svg">
<path d="M16.4108 6.70436C19.178 0.857731 26.1609 -1.63861 32.0076 1.12864L64.2956 16.4108C70.1423 19.178 72.6386 26.1609 69.8714 32.0076L54.5892 64.2956C51.822 70.1423 44.8391 72.6386 38.9924 69.8714L6.70436 54.5892C0.857731 51.822 -1.63861 44.8391 1.12864 38.9924L16.4108 6.70436Z" fill="#9747FF"/>
<path d="M24.7603 50V45.5682L35.1154 35.9801C35.9961 35.1278 36.7347 34.3608 37.3313 33.679C37.9374 32.9972 38.3967 32.3295 38.7092 31.6761C39.0217 31.0133 39.1779 30.2983 39.1779 29.5312C39.1779 28.679 38.9838 27.9451 38.5955 27.3295C38.2073 26.7045 37.677 26.2263 37.0046 25.8949C36.3323 25.554 35.57 25.3835 34.7177 25.3835C33.8275 25.3835 33.051 25.5634 32.3881 25.9233C31.7253 26.2831 31.2139 26.7992 30.854 27.4716C30.4942 28.1439 30.3143 28.9441 30.3143 29.8722H24.4762C24.4762 27.9687 24.9071 26.3163 25.7688 24.9148C26.6306 23.5133 27.8379 22.429 29.391 21.6619C30.944 20.8949 32.7338 20.5114 34.7603 20.5114C36.8436 20.5114 38.6571 20.8807 40.2006 21.6193C41.7537 22.3485 42.9611 23.3617 43.8228 24.6591C44.6845 25.9564 45.1154 27.4432 45.1154 29.1193C45.1154 30.2178 44.8976 31.3021 44.462 32.3722C44.0359 33.4422 43.2736 34.6307 42.1751 35.9375C41.0766 37.2348 39.5283 38.7926 37.5302 40.6108L33.283 44.7727V44.9716H45.4989V50H24.7603Z" fill="white"/>
</svg>
