<svg width="66" height="66" viewBox="0 0 66 66" fill="none" xmlns="http://www.w3.org/2000/svg">
<path d="M66 33C66 51.2254 51.2254 66 33 66C14.7746 66 0 51.2254 0 33C0 14.7746 14.7746 0 33 0C51.2254 0 66 14.7746 66 33Z" fill="#FCAE17"/>
<path d="M33.4272 48.3977C31.306 48.3977 29.4168 48.0331 27.7596 47.304C26.1119 46.5653 24.8098 45.5521 23.8533 44.2642C22.9064 42.9669 22.4187 41.4706 22.3903 39.7756H28.5835C28.6213 40.4858 28.8533 41.1108 29.2795 41.6506C29.7151 42.1809 30.2927 42.5928 31.0124 42.8864C31.7321 43.1799 32.5418 43.3267 33.4414 43.3267C34.3789 43.3267 35.2075 43.161 35.9272 42.8295C36.6469 42.4981 37.2103 42.0388 37.6175 41.4517C38.0247 40.8646 38.2283 40.1875 38.2283 39.4205C38.2283 38.6439 38.0105 37.9574 37.5749 37.3608C37.1488 36.7547 36.5333 36.2812 35.7283 35.9403C34.9329 35.5994 33.9859 35.429 32.8874 35.429H30.1744V30.9119H32.8874C33.8155 30.9119 34.6346 30.7509 35.3448 30.429C36.0645 30.107 36.6232 29.6619 37.021 29.0938C37.4187 28.5161 37.6175 27.8438 37.6175 27.0767C37.6175 26.3475 37.4424 25.7083 37.092 25.1591C36.7511 24.6004 36.2681 24.1648 35.6431 23.8523C35.0276 23.5398 34.3079 23.3835 33.484 23.3835C32.6507 23.3835 31.8884 23.535 31.1971 23.8381C30.5058 24.1316 29.9518 24.553 29.5352 25.1023C29.1185 25.6515 28.896 26.2955 28.8675 27.0341H22.9727C23.0011 25.358 23.4793 23.8807 24.4073 22.6023C25.3353 21.3239 26.5853 20.3248 28.1573 19.6051C29.7388 18.8759 31.5238 18.5114 33.5124 18.5114C35.52 18.5114 37.2766 18.8759 38.7823 19.6051C40.288 20.3343 41.4575 21.3191 42.2908 22.5597C43.1336 23.7907 43.5503 25.1733 43.5408 26.7074C43.5503 28.3362 43.0437 29.6951 42.021 30.7841C41.0077 31.8731 39.6867 32.5644 38.0579 32.858V33.0852C40.198 33.3598 41.8268 34.1032 42.9442 35.3153C44.0711 36.518 44.6299 38.0237 44.6204 39.8324C44.6299 41.4896 44.1516 42.9621 43.1857 44.25C42.2293 45.5379 40.9083 46.5511 39.2227 47.2898C37.5371 48.0284 35.6052 48.3977 33.4272 48.3977Z" fill="white"/>
</svg>
