<?xml version="1.0" encoding="utf-8"?>
<!-- Generator: Adobe Illustrator 26.0.3, SVG Export Plug-In . SVG Version: 6.00 Build 0)  -->
<svg version="1.1" id="Layer_1" xmlns="http://www.w3.org/2000/svg" xmlns:xlink="http://www.w3.org/1999/xlink" x="0px" y="0px"
	 viewBox="0 0 150 80" style="enable-background:new 0 0 150 80;" xml:space="preserve">
<style type="text/css">
	.st0{fill-rule:evenodd;clip-rule:evenodd;}
</style>
<g>
	<path d="M54,8l2.1,6.8l4.2-4.5L54,8z"/>
	<path class="st0" d="M64.8,25.2c-0.2,0-0.4-0.1-0.5-0.2l-1.9-2c-0.1-0.2-0.2-0.4-0.2-0.6v-2.9c0-0.2,0.1-0.4,0.2-0.6l1.9-2
		c0.1-0.1,0.3-0.2,0.5-0.2h2.7c0.2,0,0.4,0.1,0.5,0.2l1.9,2c0.1,0.2,0.2,0.4,0.2,0.6v2.9c0,0.1,0,0.2-0.1,0.3c0,0.1-0.1,0.2-0.2,0.3
		L68,25c-0.1,0.1-0.3,0.2-0.5,0.2H64.8z M65.1,23.6h2.1l1.5-1.6v-2.2l-1.5-1.6h-2.1l-1.5,1.6v2.2L65.1,23.6z"/>
	<path class="st0" d="M68.7,28.3h-5.1c-0.2,0-0.4-0.1-0.5-0.2l-3.6-3.9c-0.1-0.1-0.2-0.2-0.2-0.3c0-0.1,0-0.1,0-0.2v-5.5
		c0-0.2,0.1-0.4,0.2-0.6l3.6-3.9c0.1-0.1,0.1-0.1,0.2-0.2c0.1-0.1,0.2-0.1,0.3-0.1h5.1c0.2,0,0.4,0.1,0.5,0.2l3.6,3.9
		c0.1,0.2,0.2,0.4,0.2,0.6v5.5c0,0.2-0.1,0.4-0.2,0.6L69.2,28c-0.1,0.1-0.2,0.1-0.3,0.2C68.8,28.3,68.8,28.3,68.7,28.3L68.7,28.3z
		 M63.9,26.7h4.5l3.2-3.4v-4.8l-3.2-3.4h-4.4l-3.2,3.4v4.8L63.9,26.7z"/>
	<path class="st0" d="M85.5,25.2h-2.7c-0.2,0-0.4-0.1-0.5-0.2l-1.9-2c0,0,0,0-0.1-0.1c0,0,0-0.1-0.1-0.1c0,0,0-0.1,0-0.1
		c0-0.1-0.1-0.2-0.1-0.3v-2.9c0-0.2,0.1-0.4,0.2-0.6l1.9-2c0.1-0.1,0.3-0.2,0.5-0.2h2.7c0.2,0,0.4,0.1,0.5,0.2l1.9,2
		c0.1,0.2,0.2,0.4,0.2,0.6v2.9c0,0.2-0.1,0.4-0.2,0.6L86,25C85.9,25.1,85.7,25.2,85.5,25.2z M83.2,23.6h2.1l1.5-1.6v-2.2l-1.5-1.6
		h-2.1l-1.5,1.6v2.2L83.2,23.6z"/>
	<path class="st0" d="M86.7,28.3h-5.1c-0.2,0-0.4-0.1-0.5-0.2l-3.6-3.9c-0.1-0.2-0.2-0.4-0.2-0.6v-5.5c0-0.2,0.1-0.4,0.2-0.6
		l3.6-3.9c0.1-0.1,0.3-0.2,0.5-0.2h5.1c0.2,0,0.4,0.1,0.5,0.2l3.6,3.9c0.2,0.1,0.2,0.3,0.3,0.6v5.5c0,0.2-0.1,0.4-0.2,0.6l-3.6,3.9
		C87.1,28.2,86.9,28.3,86.7,28.3L86.7,28.3z M81.9,26.7h4.5l3.1-3.4v-4.8l-3.2-3.4h-4.5l-3.2,3.4v4.8L81.9,26.7z"/>
	<path class="st0" d="M87.9,31.4h-7.5c0,0-0.1,0-0.1,0c0,0,0,0-0.1,0c0,0-0.1,0-0.1,0c-0.1,0-0.2-0.1-0.2-0.2l-4.8-5.1l-4.7,5.1
		c-0.1,0.1-0.2,0.1-0.2,0.2c0,0-0.1,0-0.1,0c0,0,0,0,0,0c0,0,0,0,0,0c0,0-0.1,0-0.1,0h-7.5c-0.1,0-0.2,0-0.3-0.1
		c-0.1,0-0.2-0.1-0.2-0.2l-5.3-5.7c-0.1-0.2-0.2-0.4-0.2-0.6v-8c0,0,0-0.1,0-0.1c0,0,0-0.1,0-0.1c0-0.1,0.1-0.2,0.2-0.3l5.3-5.6
		c0.1-0.1,0.3-0.2,0.5-0.2h7.5c0.2,0,0.4,0.1,0.5,0.2l4.7,5.1l4.8-5.1c0.1-0.1,0.3-0.2,0.5-0.2h7.5c0.1,0,0.2,0,0.3,0.1
		c0.1,0,0.2,0.1,0.2,0.2l5.3,5.7c0.1,0.2,0.2,0.4,0.2,0.6v8c0,0.2-0.1,0.4-0.2,0.6l-5.3,5.7c0,0-0.1,0.1-0.1,0.1c0,0-0.1,0-0.1,0.1
		C88.1,31.4,88,31.4,87.9,31.4z M62.7,29.8h6.9l4.8-5.2v-7.3l-4.8-5.2h-6.9l-4.9,5.2v7.3L62.7,29.8z M80.7,29.8h6.9l4.8-5.2v-7.3
		l-4.8-5.2h-6.9l-4.8,5.2v7.4L80.7,29.8z"/>
	<path d="M94.2,14.9L96.3,8l-6.4,2.3L94.2,14.9z"/>
	<path d="M75.2,27.8l-4.1,4.4l4.1,4.4l4.1-4.4L75.2,27.8z"/>
	<path d="M33.7,67.4l0.5,1.2l0.1,0l2.2-5.4h1.1v0.4H37v5.7h0.6v0.4h-1.7v-0.4h0.6v-5.2l-0.4,1.1l-1.6,3.8H34l-1.6-3.9l-0.4-1v5.2
		h0.6v0.4h-1.6v-0.4h0.5v-5.7h-0.5v-0.5H32L33.7,67.4z"/>
	<path d="M39.4,69.4h0.9v0.5h-2v-0.4h0.6v-5.7h-0.6v-0.5h4v1.3H42v-0.8h-2.5V69.4z"/>
	<path d="M42.7,63.3h4.4l0,1.4h-0.4v-1h-1.5v5.7h0.7v0.4h-1.8v-0.4h0.6v-5.7h-1.5v0.9h-0.4V63.3z"/>
	<path d="M47.3,63.3h1.6v0.5h-0.6l0.9,2.3l0.6,1.8l0.6-1.7l0.8-2.4h-0.6v-0.4h1.5v0.4h-0.5L49.9,69c-0.1,0.3-0.2,0.5-0.4,0.7
		c-0.2,0.2-0.4,0.2-0.6,0.2h-0.3c-0.2,0-0.4-0.1-0.6-0.1l0.1-0.4l0.4,0.1c0.1,0,0.2,0,0.3,0c0.1,0,0.3,0,0.4-0.1
		c0.1-0.1,0.2-0.3,0.3-0.5l0.2-0.5h-0.2l-1.6-4.6h-0.5V63.3z"/>
	<path d="M58.2,69.3V66l0,0l-0.5,0.9l-1.8,3h-0.4v-4.3h-0.7v-0.4h1.1V69l0.5-0.8l1.8-3h0.5v4.3h0.7v0.3c-0.1,0.1-0.2,0.1-0.3,0.1
		c-0.1,0-0.2,0-0.3,0c-0.1,0-0.2,0-0.4-0.1C58.2,69.6,58.2,69.5,58.2,69.3z"/>
	<path d="M64.4,66.2v3.2c0,0,0,0.1,0,0.1c0,0,0,0.1,0,0.1c0,0,0,0.1,0.1,0.1c0,0,0,0.1,0,0.1c0.1,0.1,0.2,0.1,0.3,0.1
		c0.1,0,0.2,0,0.3,0c0.1,0,0.2-0.1,0.3-0.1v-0.3h-0.7v-3.9h0.6v-0.4h-1.1l-1.2,2.7l-0.4,1.1l-0.5-1.1l-1.3-2.7h-1.2v0.4h0.7v4.3h0.4
		v-3.8l0.4,0.9l1.2,2.5h0.4l1.2-2.6L64.4,66.2z"/>
	<path d="M66.7,69.2c0,0,0.1,0.1,0.1,0.1c0,0,0.1,0.1,0.1,0.1c0,0,0,0.1,0,0.1l0,0c0,0,0,0,0,0c0,0.1,0,0.2-0.1,0.3
		c-0.1,0.1-0.2,0.1-0.3,0.1c0,0-0.1,0-0.1,0l0,0l0,0c0,0-0.1,0-0.1-0.1c0,0,0,0,0,0c0,0-0.1-0.1-0.1-0.1c0-0.1,0-0.1,0-0.2
		c0-0.1,0-0.1,0-0.2c0,0,0-0.1,0.1-0.1c0,0,0,0,0,0c0,0,0.1-0.1,0.1-0.1c0,0,0.1,0,0.1,0C66.6,69.1,66.6,69.1,66.7,69.2
		C66.7,69.1,66.7,69.2,66.7,69.2z"/>
	<path d="M75.4,69.4v0.4l-1.6,0v-0.4h0.6v-2.8h-3.1v2.8h0.6v0.4h-1.6v-0.4h0.6v-5.7h-0.6v-0.4h1.6v0.4h-0.6v2.4h3.1v-2.4h-0.6v-0.4
		h1.6v0.4h-0.6v5.7H75.4z"/>
	<path d="M76.8,69.2C76.8,69.2,76.8,69.2,76.8,69.2C76.8,69.2,76.8,69.2,76.8,69.2c0.1,0.1,0.1,0.1,0.1,0.1c0,0,0,0,0,0
		c0,0,0,0,0,0.1c0,0,0,0.1,0,0.2c0,0.1,0,0.1,0,0.2c0,0,0,0,0,0c0,0,0,0,0,0c0,0,0,0-0.1,0.1c0,0-0.1,0.1-0.1,0.1c0,0-0.1,0-0.1,0
		c-0.1,0-0.2-0.1-0.3-0.1c0,0-0.1-0.1-0.1-0.1c0,0,0,0,0,0c0,0,0,0,0,0c0,0,0-0.1,0-0.1c0-0.1,0-0.1,0-0.2c0,0,0,0,0,0l0,0
		c0,0,0-0.1,0.1-0.1c0,0,0.1-0.1,0.1-0.1c0,0,0.1,0,0.1,0C76.6,69.1,76.7,69.1,76.8,69.2C76.7,69.2,76.8,69.2,76.8,69.2z"/>
	<path d="M81.5,67.3c0-0.2,0-0.5,0-0.7l-2.6,0.1v-0.5l2.5,0.1c0-0.4,0-0.7-0.1-1.1c-0.1-0.3-0.2-0.6-0.3-0.8
		c-0.2-0.2-0.4-0.4-0.6-0.5c-0.1-0.1-0.3-0.1-0.4-0.1c-0.1,0-0.3,0-0.4,0c-0.1,0-0.2,0-0.3,0h-0.3l-0.3,0.1l-0.2,0.1v1h-0.4v-1.4
		c0.2-0.1,0.5-0.2,0.7-0.2c0.3-0.1,0.6-0.1,0.9-0.1c0.4,0,0.9,0.1,1.3,0.3c0.3,0.2,0.6,0.4,0.8,0.8c0.2,0.3,0.3,0.7,0.4,1.1
		c0,0.2,0.1,0.4,0.1,0.6c0,0.1,0,0.2,0,0.3l0,0.1c0,0.1,0,0.1,0,0.2c0,0.5,0,0.9-0.1,1.4c-0.1,0.4-0.2,0.8-0.5,1.1
		c-0.2,0.3-0.5,0.6-0.8,0.7c-0.4,0.2-0.8,0.3-1.2,0.3h-0.4l-0.4-0.1l-0.4-0.1c-0.1,0-0.1,0-0.2-0.1c0,0-0.1,0-0.1-0.1l0.1-0.4
		l0.4,0.1l0.4,0.1l0.4,0h0.3c0.4,0,0.7-0.1,1.1-0.2c0.1-0.1,0.2-0.2,0.3-0.2c0.1-0.1,0.1-0.1,0.2-0.2c0,0,0.1-0.1,0.1-0.1
		c0,0,0.1-0.1,0.1-0.1c0.2-0.3,0.3-0.6,0.4-0.9c0,0,0-0.1,0-0.1C81.4,67.5,81.4,67.4,81.5,67.3L81.5,67.3z"/>
	<path d="M83.3,69.2c0,0,0.1,0.1,0.1,0.1c0,0,0.1,0.1,0.1,0.1c0,0,0,0.1,0,0.2c0,0.1,0,0.1,0,0.2c0,0.1,0,0.1-0.1,0.1c0,0,0,0,0,0
		l0,0c0,0-0.1,0-0.1,0.1c0,0-0.1,0-0.1,0c-0.1,0-0.1,0-0.2,0c0,0,0,0-0.1,0c0,0-0.1,0-0.1-0.1c0,0,0,0-0.1-0.1c0,0,0,0,0,0l0,0
		c0-0.1,0-0.1,0-0.2c0,0,0,0,0-0.1c0,0,0-0.1,0-0.1c0,0,0-0.1,0.1-0.1c0,0,0.1-0.1,0.1-0.1c0,0,0.1,0,0.1,0h0l0,0
		C83.2,69.1,83.2,69.1,83.3,69.2C83.3,69.1,83.3,69.2,83.3,69.2z"/>
	<path class="st0" d="M86.8,63.7v-0.5l4,0v1.3h-0.4v-0.8h-2.4v2.3h1.5c0.3,0,0.6,0,0.9,0.2c0.2,0.1,0.4,0.3,0.6,0.4
		c0.1,0.2,0.3,0.4,0.3,0.6c0.1,0.2,0.1,0.4,0.1,0.7c0,0.1,0,0.2,0,0.3c0,0.1,0,0.1,0,0.2c0,0.1-0.1,0.3-0.1,0.4
		c-0.1,0.2-0.2,0.4-0.4,0.6c-0.2,0.2-0.4,0.3-0.6,0.4c-0.2,0.1-0.5,0.1-0.7,0.1h-2.8v-0.4h0.5v-5.7H86.8z M89.7,66.5
		c-0.1,0-0.2,0-0.4,0l-1.5,0v2.9h1.6c0.2,0,0.3,0,0.5-0.1c0.1,0,0.2-0.1,0.3-0.2c0,0,0.1-0.1,0.1-0.1c0.1-0.1,0.2-0.3,0.3-0.5
		c0,0,0-0.1,0-0.1c0-0.1,0-0.1,0-0.2c0-0.1,0-0.2,0-0.3c0-0.2,0-0.4-0.1-0.7c0-0.1-0.1-0.2-0.1-0.2c-0.1-0.1-0.1-0.1-0.2-0.2
		c-0.1-0.1-0.3-0.2-0.5-0.2C89.8,66.5,89.7,66.5,89.7,66.5z"/>
	<path class="st0" d="M95.1,66c0.1,0.2,0.1,0.4,0.1,0.6l0,2.8h0.6l0,0.3c-0.1,0-0.2,0.1-0.2,0.1c0,0-0.1,0-0.1,0c-0.1,0-0.2,0-0.3,0
		c-0.1,0-0.2,0-0.4-0.1c-0.1-0.1-0.1-0.3-0.1-0.5c-0.2,0.1-0.3,0.3-0.5,0.4c-0.1,0.1-0.3,0.1-0.4,0.2c-0.1,0-0.2,0.1-0.3,0.1h-0.3
		c-0.2,0-0.4,0-0.6-0.1c-0.1-0.1-0.3-0.2-0.4-0.3C92.1,69.3,92,69.2,92,69c0-0.1-0.1-0.3-0.1-0.4c0-0.2,0-0.4,0.1-0.6
		c0.1-0.2,0.2-0.3,0.3-0.4c0.2-0.1,0.3-0.2,0.5-0.3c0.2-0.1,0.4-0.1,0.6-0.1l1.2-0.1v-0.4c0-0.2,0-0.4,0-0.6c0,0,0-0.1,0-0.1
		c0,0,0-0.1,0-0.1c0-0.1-0.1-0.1-0.1-0.2c0,0-0.1-0.1-0.1-0.1c-0.1,0-0.1-0.1-0.2-0.1c-0.2,0-0.3-0.1-0.5-0.1
		c-0.5,0-0.9,0.1-1.4,0.3l-0.1-0.4c0.1,0,0.2-0.1,0.3-0.1c0.1,0,0.1,0,0.2-0.1c0.1,0,0.2-0.1,0.3-0.1c0.1,0,0.3-0.1,0.4-0.1
		c0.1,0,0.1,0,0.2,0c0.1,0,0.1,0,0.2,0c0.2,0,0.4,0,0.5,0.1c0.2,0.1,0.3,0.1,0.5,0.3C95,65.6,95.1,65.8,95.1,66z M94.7,68.9v-1.3
		l-1.2,0.1c-0.1,0-0.1,0-0.2,0c-0.1,0-0.1,0-0.2,0c-0.1,0-0.3,0.1-0.4,0.2c0,0.1-0.1,0.1-0.1,0.2c0,0,0,0.1,0,0.1c0,0,0,0,0,0.1
		c0,0.1-0.1,0.2-0.1,0.3c0,0,0,0,0,0s0,0,0,0c0,0.3,0.1,0.5,0.2,0.7c0.1,0.1,0.2,0.2,0.3,0.2c0.1,0,0.2,0.1,0.4,0
		c0.2,0,0.4-0.1,0.6-0.1c0.1,0,0.2-0.1,0.2-0.1c0,0,0.1,0,0.1-0.1C94.5,69.1,94.6,69,94.7,68.9z"/>
	<path d="M98.1,69.5L98.1,69.5l0.4-1.1l0.9-2.8h-0.6v-0.4h1.5v0.5h-0.5L98.2,71c-0.1,0.3-0.2,0.5-0.4,0.7c-0.2,0.2-0.4,0.2-0.6,0.2
		h-0.3c-0.1,0-0.2,0-0.3-0.1c0,0-0.1,0-0.1,0c-0.1,0-0.1,0-0.2-0.1l0.1-0.4l0.4,0.1c0.1,0,0.2,0,0.3,0c0.1,0,0.3,0,0.4-0.1
		c0.1-0.1,0.2-0.3,0.3-0.5l0.3-1h-0.2l-1.3-4.3h-0.4v-0.4h0.8l0.9,3.2L98.1,69.5z"/>
	<path d="M105.4,69.4v-3.2l0,0l-0.3,0.8l-1.1,2.6h-0.4l-1.2-2.5l-0.4-0.9v3.8h-0.4v-4.3h-0.7v-0.4h1.2l1.3,2.7l0.5,1.1l1.6-3.8h1.1
		v0.4h-0.6v3.9h0.7v0.3c-0.1,0.1-0.2,0.1-0.3,0.1c-0.1,0-0.2,0-0.3,0c-0.1,0-0.2,0-0.4-0.1c-0.1-0.1-0.1-0.2-0.1-0.2
		C105.4,69.5,105.4,69.4,105.4,69.4z"/>
	<path class="st0" d="M110.3,66c0.1,0.2,0.1,0.4,0.1,0.6l0,2.8h0.6v0.3c-0.1,0.1-0.2,0.1-0.3,0.1c-0.1,0-0.1,0-0.2,0
		c-0.1,0-0.1,0-0.2,0c-0.1,0-0.3,0-0.4-0.1c-0.1-0.1-0.1-0.3-0.1-0.5c-0.1,0.1-0.1,0.1-0.2,0.2c-0.1,0.1-0.2,0.1-0.3,0.2
		c-0.1,0-0.1,0.1-0.2,0.1c-0.1,0-0.2,0.1-0.2,0.1c-0.1,0-0.2,0.1-0.3,0.1h-0.3c-0.1,0-0.1,0-0.2,0c-0.1,0-0.3-0.1-0.4-0.1
		c-0.1-0.1-0.3-0.2-0.4-0.3c-0.1-0.1-0.2-0.3-0.2-0.4c0-0.1-0.1-0.3-0.1-0.4c0-0.2,0-0.4,0.1-0.6c0.1-0.1,0.1-0.2,0.2-0.3
		c0,0,0.1-0.1,0.1-0.1c0.1-0.1,0.2-0.1,0.2-0.2c0.1,0,0.2-0.1,0.3-0.1c0.1,0,0.1,0,0.2,0c0.1,0,0.2,0,0.3,0c0,0,0.1,0,0.1,0l1.2-0.1
		v-0.4c0-0.2,0-0.4,0-0.6c0-0.1-0.1-0.3-0.2-0.4c-0.1-0.1-0.2-0.2-0.3-0.2c-0.2,0-0.3-0.1-0.5-0.1c-0.5,0-0.9,0.1-1.4,0.3l-0.1-0.4
		c0.2-0.1,0.5-0.2,0.8-0.3c0.3-0.1,0.5-0.1,0.8-0.1c0.4,0,0.7,0.1,1,0.3c0.1,0.1,0.1,0.1,0.2,0.2C110.2,65.8,110.3,65.9,110.3,66z
		 M109.9,68.9v-1.3l-1.2,0.1c-0.3,0-0.6,0.1-0.8,0.3c-0.1,0.1-0.1,0.2-0.2,0.3c0,0.1-0.1,0.2-0.1,0.4c0,0.1,0,0.3,0,0.4
		c0,0.1,0.1,0.2,0.2,0.3c0.1,0.1,0.2,0.2,0.3,0.2c0,0,0,0,0.1,0c0.1,0,0.2,0,0.3,0c0,0,0,0,0,0c0.2,0,0.4-0.1,0.6-0.1
		C109.5,69.2,109.7,69.1,109.9,68.9z"/>
	<path d="M115.6,69.8c-0.1,0-0.1,0-0.2,0l0,0c-0.1,0-0.2,0-0.3,0c-0.1,0-0.3,0-0.4-0.1c0,0,0,0,0,0c0,0,0-0.1-0.1-0.1c0,0,0,0,0,0
		l0,0l0,0c0-0.1,0-0.2,0-0.2v-1.8h-2.3v2.3h-0.5v-4.3h-0.6v-0.4h1.1v2h2.3v-2h0.5v4.3h0.7v0.3C115.7,69.8,115.7,69.8,115.6,69.8z"/>
	<path class="st0" d="M119.4,66c0.1,0.2,0.1,0.4,0.1,0.6v2.8h0.6l0,0.3c-0.1,0.1-0.2,0.1-0.3,0.1c-0.1,0-0.1,0-0.2,0l0,0l0,0
		c0,0,0,0-0.1,0c-0.1,0-0.1,0-0.2,0c0,0-0.1,0-0.1,0c0,0-0.1-0.1-0.1-0.1c0,0,0-0.1-0.1-0.1c0,0,0-0.1,0-0.1c0-0.1,0-0.2,0-0.2
		c-0.2,0.1-0.3,0.3-0.5,0.4c-0.1,0-0.2,0.1-0.3,0.1c0,0-0.1,0-0.1,0c0,0-0.1,0-0.1,0c-0.1,0-0.2,0.1-0.3,0.1h-0.3
		c-0.2,0-0.4,0-0.6-0.1c0,0-0.1-0.1-0.1-0.1c0,0-0.1,0-0.1-0.1c0,0-0.1-0.1-0.1-0.1c0,0,0,0-0.1-0.1c0,0,0-0.1-0.1-0.1
		c0,0,0-0.1,0-0.1c0-0.1-0.1-0.2-0.1-0.3c0-0.1-0.1-0.3-0.1-0.4c0-0.1,0-0.1,0-0.2c0-0.1,0-0.1,0-0.2c0-0.1,0-0.1,0.1-0.2
		c0.1-0.2,0.2-0.3,0.3-0.4c0.1-0.1,0.2-0.1,0.3-0.2c0.1,0,0.1-0.1,0.2-0.1c0.2-0.1,0.4-0.1,0.6-0.1l1.2-0.1v-0.4c0-0.2,0-0.4,0-0.6
		c0-0.1-0.1-0.3-0.2-0.4c0-0.1-0.1-0.1-0.2-0.1c0,0-0.1,0-0.1-0.1c-0.2,0-0.3-0.1-0.5-0.1c-0.5,0-0.9,0.1-1.4,0.3l-0.1-0.4
		c0.2-0.1,0.5-0.2,0.8-0.3c0.3-0.1,0.5-0.1,0.8-0.1c0.4,0,0.7,0.1,1,0.3C119.2,65.6,119.3,65.8,119.4,66z M118.9,68.8v-1.3l-1.2,0.1
		c-0.1,0-0.1,0-0.2,0c0,0-0.1,0-0.1,0c-0.2,0-0.3,0.1-0.5,0.2c-0.1,0.1-0.1,0.2-0.2,0.3c0,0.1-0.1,0.2-0.1,0.4c0,0,0,0.1,0,0.1
		c0,0,0,0,0,0.1c0,0.1,0,0.2,0,0.2c0,0.1,0.1,0.2,0.1,0.2c0,0,0.1,0.1,0.1,0.1c0.1,0.1,0.2,0.2,0.3,0.2c0.1,0,0.2,0,0.4,0
		c0.2,0,0.4-0.1,0.6-0.1C118.5,69.2,118.7,69,118.9,68.8z"/>
	<path d="M21.9,48.8v3.7c0,0.2,0,0.5,0.1,0.7c0,0.2,0.1,0.5,0.3,0.7c0.1,0.2,0.3,0.4,0.5,0.5c0.3,0.1,0.6,0.2,0.9,0.2
		c0.1,0,0.3,0,0.4,0c0.2,0,0.3,0,0.5-0.1c0.3-0.1,0.7-0.2,1-0.3v-1.6h-1.2V45H22l-2.2,3.5c-0.2,0.3-0.4,0.6-0.6,0.9
		c-0.2,0.3-0.3,0.5-0.5,0.7l-0.3,0.5c-0.1,0.1-0.1,0.1-0.1,0.2h-0.1V45h-3.6v1.7h1.2v7.7h2.4l2.5-3.7l0.3-0.4
		c0.2-0.3,0.4-0.6,0.5-0.8c0.1-0.2,0.2-0.3,0.2-0.4c0-0.1,0.1-0.1,0.1-0.1C21.8,48.9,21.8,48.9,21.9,48.8
		C21.8,48.8,21.8,48.8,21.9,48.8L21.9,48.8z"/>
	<path d="M33.5,45v3.7H30v-3.8h-3.6v1.7h1.2v7.8H30v-4.1h3.4v2.5c0,0.2,0,0.5,0.1,0.7c0.1,0.2,0.2,0.4,0.3,0.6
		c0.4,0.3,0.9,0.5,1.4,0.4c0.3,0,0.6,0,1-0.1c0.3-0.1,0.7-0.2,1-0.3v-1.6H36v-7.6L33.5,45z"/>
	<path d="M43.2,54.4h4.4v-1.7h-1v-6h1v-1.7h-4.4v1.7h0.9v6h-0.9V54.4z"/>
	<path d="M49.2,49.4l2-2.7l1-0.1l0.1-1.4c-0.2-0.1-0.5-0.2-0.8-0.3c-0.3-0.1-0.6-0.1-0.9-0.1c-0.3,0-0.6,0-0.8,0.2
		c-0.1,0.1-0.2,0.2-0.3,0.3c-0.1,0.1-0.2,0.2-0.3,0.4l-2.4,3.7v0.6l2.6,4c0.1,0.2,0.4,0.4,0.6,0.6c0.3,0.1,0.6,0.2,0.9,0.2
		c0.1,0,0.1,0,0.2,0c0.1,0,0.1,0,0.2,0l0.4-0.1l0.4-0.1l0.4-0.1v-1.4l-1.2-0.2L49.2,49.4z"/>
	<path d="M41.4,49.4l-2.2,3.3L38,52.9v1.4c0.3,0.1,0.6,0.2,0.9,0.2c0.3,0.1,0.6,0.1,0.8,0.1c0.3,0,0.6,0,0.9-0.2
		c0.2-0.1,0.5-0.3,0.6-0.6l2.5-4v-0.6l-2.4-3.7c-0.2-0.3-0.4-0.5-0.6-0.6c-0.3-0.1-0.6-0.2-0.8-0.2c-0.3,0-0.6,0-0.9,0.1
		c-0.3,0.1-0.5,0.2-0.8,0.3l0.1,1.4l1,0.1L41.4,49.4z"/>
	<path d="M61,48.8v3.7c0,0.1,0,0.2,0,0.3c0,0.1,0,0.3,0,0.4c0,0.1,0,0.2,0.1,0.3c0,0.1,0.1,0.2,0.2,0.4c0.1,0.2,0.3,0.4,0.5,0.5
		c0.3,0.1,0.6,0.2,0.9,0.2c0.3,0,0.6,0,0.9-0.1c0.3-0.1,0.7-0.2,1-0.3v-1.6h-1.2V45h-2.4l-2.2,3.5l-0.6,0.9
		c-0.1,0.1-0.1,0.2-0.2,0.3L58,49.8c-0.1,0.1-0.1,0.2-0.2,0.3l-0.3,0.5c-0.1,0.1-0.1,0.1-0.1,0.2h-0.1V45h-3.7v1.7h1.1v7.7h2.4
		l2.5-3.7c0.3-0.4,0.6-0.8,0.8-1.2l0.4-0.7L61,48.8z"/>
	<path d="M72.6,45v3.7h-3.4v-3.8h-3.6v1.7h1.1v7.8h2.5v-4.1h3.4v2.5c0,0.2,0,0.5,0.1,0.7c0.1,0.2,0.2,0.4,0.3,0.6
		c0.4,0.3,0.9,0.5,1.4,0.4c0.3,0,0.6,0,0.9-0.1c0.3-0.1,0.7-0.2,1-0.3v-1.6h-1.2v-7.6L72.6,45z"/>
	<path d="M84.4,48.8v3.7c0,0.2,0,0.5,0.1,0.7c0,0.1,0,0.1,0,0.2c0,0,0,0.1,0,0.1c0,0.1,0.1,0.3,0.2,0.4c0.1,0.1,0.1,0.2,0.2,0.2
		c0.1,0.1,0.2,0.2,0.4,0.2c0.3,0.1,0.6,0.2,0.9,0.2c0.3,0,0.6,0,0.9-0.1c0.2,0,0.4-0.1,0.6-0.2c0.1,0,0.3-0.1,0.4-0.2v-1.6h-1.2V45
		h-2.4l-2.2,3.5l-0.6,0.9c-0.1,0.1-0.2,0.2-0.2,0.4c-0.1,0.1-0.2,0.3-0.2,0.4l-0.3,0.5c-0.1,0.1-0.1,0.1-0.1,0.2h-0.1V45H77v1.7h1.2
		v7.7h2.4l2.5-3.7c0.2-0.2,0.3-0.5,0.4-0.7c0.1-0.2,0.2-0.4,0.3-0.5L84.4,48.8L84.4,48.8z"/>
	<path class="st0" d="M88.9,58.5h5v-1.8h-1.3V54c0.1,0.1,0.3,0.1,0.4,0.2c0.3,0.1,0.6,0.2,0.9,0.3c0.4,0.1,0.7,0.1,1.1,0.1
		c0.6,0,1.2-0.1,1.8-0.4c0.5-0.2,0.9-0.6,1.2-1.1c0.3-0.5,0.5-1.1,0.6-1.7c0.1-0.7,0.2-1.3,0.2-2c0-0.6-0.1-1.2-0.2-1.8
		c-0.1-0.5-0.3-1-0.6-1.5c-0.3-0.4-0.7-0.8-1.1-1c-0.5-0.3-1.1-0.4-1.7-0.4c-0.2,0-0.4,0-0.6,0.1c-0.2,0-0.3,0.1-0.4,0.1
		c-0.1,0-0.2,0.1-0.3,0.1c-0.2,0.1-0.5,0.2-0.7,0.3c0,0-0.1,0-0.1,0.1l-0.1,0c-0.2,0.1-0.3,0.2-0.5,0.4h0V45h-3.6v1.8h1.2v9.9h-1.2
		L88.9,58.5z M93.5,52.5c-0.3-0.1-0.6-0.2-0.8-0.4v-4.5c0.3-0.2,0.6-0.4,0.9-0.5c0.3-0.1,0.5-0.2,0.8-0.2c0.1,0,0.1,0,0.2,0
		c0.2,0,0.5,0,0.7,0.1c0.1,0,0.1,0.1,0.2,0.1c0.1,0.1,0.3,0.2,0.3,0.3c0.1,0.1,0.2,0.2,0.2,0.4c0.1,0.1,0.1,0.3,0.2,0.4
		c0,0.1,0.1,0.3,0.1,0.4c0,0.1,0,0.2,0,0.3c0,0.2,0,0.5,0,0.7c0,0.5,0,1.1-0.2,1.6c-0.1,0.3-0.2,0.7-0.4,0.9
		c-0.1,0.1-0.2,0.2-0.3,0.3c0,0-0.1,0.1-0.1,0.1c-0.1,0-0.1,0.1-0.2,0.1c-0.2,0.1-0.4,0.1-0.7,0.1c-0.2,0-0.3,0-0.5,0
		C93.8,52.5,93.6,52.5,93.5,52.5L93.5,52.5z"/>
	<path d="M107.3,48.8v3.7c0,0.2,0,0.5,0.1,0.7c0,0.2,0.1,0.5,0.3,0.7c0.1,0.1,0.1,0.2,0.2,0.2c0.1,0.1,0.2,0.2,0.3,0.2
		c0.2,0.1,0.3,0.1,0.5,0.2c0.1,0,0.3,0,0.4,0c0.3,0,0.6,0,0.9-0.1c0.3-0.1,0.7-0.2,1-0.3v-1.6h-1.2V45h-2.4l-2.2,3.5
		c-0.2,0.3-0.4,0.6-0.6,0.9l-0.5,0.7c-0.1,0.2-0.2,0.4-0.3,0.5c0,0.1-0.1,0.1-0.1,0.2h-0.1V45h-3.7v1.7h1.2v7.7h2.4l2.5-3.7
		c0.2-0.2,0.3-0.4,0.4-0.6c0.1-0.2,0.2-0.4,0.4-0.6l0.4-0.7L107.3,48.8z"/>
	<path d="M116.7,52.7L116.7,52.7l-0.9-2.7l-1.4-5h-2.8v1.9h0.9l2.3,7.3h1.2c-0.1,0.3-0.2,0.6-0.3,0.8l0,0l-0.1,0.2
		c-0.1,0.3-0.2,0.5-0.3,0.8c-0.1,0.2-0.3,0.3-0.5,0.5c-0.1,0.1-0.3,0.1-0.4,0.1c-0.1,0-0.2,0-0.3,0c-0.1,0-0.2,0-0.3,0
		c-0.1,0-0.3,0-0.4,0c-0.1,0-0.2,0-0.3,0c-0.1,0-0.1,0-0.2,0c-0.1,0-0.1,0-0.2,0c0,0.2-0.1,0.4-0.1,0.5c0,0.1,0,0.2-0.1,0.3
		c0,0.2-0.1,0.6-0.1,0.8c0.4,0.2,0.9,0.3,1.4,0.3c0.1,0,0.3,0,0.4,0c0.2,0,0.3,0,0.4,0c0.1,0,0.3,0,0.4,0c0.3,0,0.5-0.1,0.8-0.2
		c0.2-0.1,0.3-0.1,0.4-0.2c0.1-0.1,0.2-0.2,0.3-0.3c0.1-0.1,0.2-0.2,0.2-0.3c0-0.1,0.1-0.1,0.1-0.2c0.1-0.1,0.1-0.2,0.2-0.3
		c0.1-0.3,0.3-0.6,0.4-0.9c0.2-0.7,0.5-1.4,0.7-2.1c0.3-0.9,0.6-1.8,0.9-2.7c0.5-1.6,1.1-3.2,1.6-4.8h0.9v-1.7h-4.2v1.8h1l-1,3.3
		l-0.4,1.3L116.7,52.7L116.7,52.7z"/>
	<path d="M129.3,50.3c0-0.1-0.1-0.2-0.2-0.3c-0.1-0.2-0.2-0.3-0.3-0.6c-0.1-0.1-0.1-0.2-0.2-0.3c-0.1-0.1-0.1-0.2-0.2-0.3l-0.1-0.1
		c-0.1-0.2-0.2-0.3-0.3-0.5c-0.1-0.1-0.2-0.4-0.4-0.7l-0.1-0.2c-0.2-0.3-0.3-0.7-0.5-1c-0.2-0.3-0.3-0.6-0.4-0.8l-0.3-0.5h-4v1.7
		h1.2v7.7h2.4v-5.7h0.1l0.1,0.3l0.2,0.5c0.1,0.2,0.2,0.4,0.3,0.6c0,0.1,0.1,0.2,0.1,0.3l0,0.1l0.1,0.2l0.4,0.8
		c0.1,0.3,0.3,0.6,0.4,0.8l0.3,0.7c0.1,0.2,0.2,0.3,0.2,0.4h1.4c0.2-0.5,0.4-0.9,0.7-1.4c0.2-0.5,0.5-0.9,0.7-1.3
		c0-0.1,0.1-0.2,0.2-0.4c0-0.1,0.1-0.1,0.1-0.2l0,0c0-0.1,0.1-0.1,0.1-0.2l0.2-0.5c0.1-0.1,0.1-0.3,0.2-0.4h0.1v3.6
		c0,0.3,0,0.6,0.1,0.8c0,0.1,0,0.2,0.1,0.3c0,0.1,0.1,0.2,0.1,0.3c0.1,0.2,0.3,0.4,0.5,0.5c0.3,0.1,0.6,0.2,0.9,0.2
		c0.3,0,0.6,0,0.9-0.1c0.1,0,0.3-0.1,0.4-0.1c0.2-0.1,0.4-0.1,0.5-0.2v-1.6h-1.2v-5.9h1.1v-1.7h-3.8l-0.3,0.5l-0.4,0.8
		c-0.1,0.3-0.3,0.6-0.5,1c-0.2,0.3-0.3,0.6-0.4,0.9l0,0c-0.1,0.1-0.1,0.2-0.2,0.3c0,0.1-0.1,0.1-0.1,0.2c0,0,0,0.1-0.1,0.1l-0.3,0.7
		c0,0.1-0.1,0.2-0.1,0.2l0,0c0,0.1-0.1,0.2-0.1,0.3c0,0.1-0.1,0.1-0.1,0.2C129.3,50.2,129.3,50.3,129.3,50.3L129.3,50.3z"/>
	<path class="st0" d="M138.4,39.5v2.6l0.4,0V41h0.2c0.1,0,0.2,0,0.3,0.1c0.2,0.2,0.3,0.4,0.4,0.6l0.2,0.4h0.5l-0.3-0.5
		c0-0.1-0.1-0.2-0.1-0.2c-0.1-0.1-0.1-0.2-0.2-0.3c-0.1-0.1-0.1-0.1-0.2-0.1c0.2,0,0.4-0.1,0.5-0.2c0.1-0.1,0.2-0.3,0.2-0.5
		c0-0.1,0-0.2,0-0.2c0-0.1,0-0.1-0.1-0.2c-0.1-0.1-0.2-0.2-0.3-0.2c-0.2-0.1-0.4-0.1-0.6-0.1H138.4z M139.3,40.6h-0.5v-0.7h0.4
		c0.1,0,0.1,0,0.2,0c0.1,0,0.1,0,0.2,0c0.1,0,0.1,0.1,0.2,0.1c0,0.1,0.1,0.2,0,0.3c0,0.1-0.1,0.2-0.1,0.2
		C139.6,40.6,139.5,40.7,139.3,40.6z"/>
	<path class="st0" d="M140.6,38.7c-0.3-0.2-0.7-0.3-1.1-0.3h0c-0.4,0-0.8,0.1-1.1,0.3c-0.4,0.2-0.6,0.5-0.8,0.9
		c-0.2,0.4-0.3,0.8-0.3,1.2c0,0.4,0.1,0.8,0.3,1.2c0.2,0.4,0.5,0.7,0.8,0.9c0.3,0.2,0.7,0.3,1.1,0.3c0.4,0,0.8-0.1,1.1-0.3
		c0.4-0.2,0.7-0.5,0.9-0.9c0.2-0.4,0.3-0.8,0.3-1.2c0-0.4-0.1-0.8-0.3-1.2C141.2,39.2,140.9,38.9,140.6,38.7z M138.5,39
		c0.3-0.2,0.6-0.3,0.9-0.3c0.3,0,0.6,0.1,0.9,0.3c0.3,0.2,0.5,0.4,0.7,0.7c0.1,0.1,0.1,0.3,0.2,0.4c0,0.2,0.1,0.4,0.1,0.6
		c0,0.3-0.1,0.7-0.2,1c-0.1,0.1-0.2,0.3-0.3,0.4c-0.1,0.1-0.3,0.2-0.4,0.3c-0.3,0.2-0.6,0.3-0.9,0.3c-0.3,0-0.6-0.1-0.9-0.3
		c-0.3-0.2-0.5-0.4-0.7-0.7c-0.2-0.3-0.2-0.6-0.2-1c0-0.4,0.1-0.7,0.2-1C138,39.5,138.2,39.2,138.5,39z"/>
</g>
</svg>
