<svg width="243" height="123" viewBox="0 0 243 123" fill="none" xmlns="http://www.w3.org/2000/svg">
<path d="M75.3237 0L79.3853 13.0449L87.4937 4.35352L75.3237 0Z" fill="black"/>
<path fill-rule="evenodd" clip-rule="evenodd" d="M96.0005 32.8337C95.6255 32.8281 95.2666 32.6697 94.9966 32.3904L91.3481 28.4802C91.0879 28.1907 90.9399 27.8059 90.9346 27.4038V21.8787C90.9365 21.4709 91.0845 21.0798 91.3481 20.7864L94.9966 16.876C95.2666 16.5969 95.6255 16.4385 96.0005 16.4329H101.155C101.536 16.4343 101.9 16.5933 102.174 16.876L105.808 20.7864C106.077 21.0771 106.23 21.4688 106.236 21.8787V27.4038C106.236 27.6047 106.198 27.804 106.125 27.989C106.051 28.1741 105.943 28.3411 105.808 28.4802L102.174 32.3904C101.9 32.6733 101.536 32.832 101.155 32.8337H96.0005ZM96.5322 29.7783H100.505L103.312 26.7705V22.5593L100.505 19.5515H96.5322L93.7261 22.5593V26.8179L96.5322 29.7783Z" fill="black"/>
<path fill-rule="evenodd" clip-rule="evenodd" d="M103.385 38.7388H93.6821C93.3066 38.7332 92.9478 38.5747 92.6777 38.2954L85.8101 30.9341C85.6421 30.7473 85.521 30.5208 85.4546 30.2756C85.418 30.1409 85.3984 30.0002 85.3965 29.8574V19.3931C85.4014 18.991 85.5493 18.6062 85.8101 18.3167L92.6777 10.9551C92.7925 10.8364 92.9233 10.7395 93.0649 10.667C93.2563 10.5688 93.4663 10.5151 93.6821 10.512H103.385C103.76 10.5176 104.12 10.676 104.39 10.9551L111.257 18.3167C111.518 18.6062 111.666 18.991 111.671 19.3931V29.8101C111.666 30.2122 111.518 30.5969 111.257 30.8865L104.39 38.248C104.24 38.4028 104.062 38.5205 103.871 38.5955C103.716 38.6558 103.552 38.6887 103.385 38.6912V38.7388ZM94.2134 35.6833H102.75L108.776 29.2085V20.074L102.75 13.6147H94.2725L88.2466 20.074V29.2085L94.2134 35.6833Z" fill="black"/>
<path fill-rule="evenodd" clip-rule="evenodd" d="M135.568 32.8337H130.413C130.033 32.832 129.668 32.6733 129.394 32.3904L125.761 28.4802C125.723 28.4409 125.687 28.3994 125.653 28.3557C125.607 28.2964 125.565 28.2334 125.528 28.1672C125.497 28.1101 125.468 28.0505 125.444 27.989C125.37 27.804 125.333 27.6047 125.333 27.4038V21.8787C125.338 21.4688 125.492 21.0771 125.761 20.7864L129.394 16.876C129.668 16.5933 130.033 16.4343 130.413 16.4329H135.568C135.943 16.4385 136.302 16.5969 136.572 16.876L140.22 20.7864C140.484 21.0798 140.632 21.4709 140.634 21.8787V27.4038C140.628 27.8059 140.48 28.1907 140.22 28.4802L136.572 32.3904C136.302 32.6697 135.943 32.8281 135.568 32.8337ZM131.063 29.7783H135.036L137.842 26.7705V22.5593L135.036 19.5515H131.004L128.183 22.5593V26.8179L131.063 29.7783Z" fill="black"/>
<path fill-rule="evenodd" clip-rule="evenodd" d="M137.842 38.6912H128.124C127.749 38.6855 127.39 38.5271 127.12 38.248L120.252 30.8865C119.992 30.5969 119.844 30.2122 119.838 29.8101V19.3931C119.844 18.991 119.992 18.6062 120.252 18.3167L127.12 10.9551C127.39 10.676 127.749 10.5176 128.124 10.512H137.842C138.217 10.5176 138.577 10.676 138.847 10.9551L145.714 18.3167C146.007 18.5906 146.188 18.9775 146.216 19.3931V29.8101C146.211 30.2122 146.063 30.5969 145.803 30.8865L138.832 38.2954C138.562 38.5747 138.203 38.7332 137.828 38.7388L137.842 38.6912ZM128.729 35.6357H137.251L143.263 29.2085V20.074L137.237 13.6147H128.715L122.674 20.074V29.2085L128.729 35.6357Z" fill="black"/>
<path fill-rule="evenodd" clip-rule="evenodd" d="M140.146 44.7229H125.864C125.811 44.7236 125.757 44.7209 125.704 44.7151C125.658 44.71 125.613 44.7024 125.568 44.6924C125.48 44.6729 125.394 44.6443 125.31 44.6067C125.135 44.5278 124.977 44.4111 124.845 44.2637L115.762 34.5435L106.694 44.2637C106.562 44.4111 106.404 44.5278 106.229 44.6067C106.155 44.6399 106.079 44.6663 106.001 44.6853C105.978 44.6912 105.954 44.6963 105.931 44.7007C105.9 44.7065 105.869 44.7112 105.837 44.7148C105.783 44.7209 105.729 44.7236 105.675 44.7229H91.3926C91.2051 44.7231 91.019 44.6826 90.8467 44.6035C90.6738 44.5247 90.5181 44.4092 90.3882 44.2637L80.2861 33.4512C80.022 33.1577 79.874 32.7664 79.8726 32.3589V16.9868C79.8735 16.9023 79.8809 16.8186 79.8945 16.7363C79.9102 16.6423 79.9331 16.5503 79.9639 16.4614C80.0337 16.2576 80.1431 16.0696 80.2861 15.9104L90.3882 5.14526C90.6582 4.86597 91.0176 4.70752 91.3926 4.7019H105.675C106.055 4.70361 106.42 4.8623 106.694 5.14526L115.762 14.8813L124.845 5.14526C125.119 4.8623 125.484 4.70361 125.864 4.7019H140.146C140.35 4.70483 140.549 4.75293 140.731 4.84082C140.885 4.91504 141.027 5.01758 141.15 5.14526L151.253 15.9736C151.513 16.2632 151.661 16.6479 151.667 17.05V32.3589C151.665 32.7664 151.517 33.1577 151.253 33.4512L141.15 44.2637C141.078 44.345 140.998 44.4167 140.91 44.478C140.841 44.5266 140.769 44.5686 140.692 44.6035C140.52 44.6826 140.334 44.7231 140.146 44.7229ZM91.9834 41.5566H105.084L114.33 31.6465V17.6042L105.084 7.69409H91.9834L82.7085 17.6201V31.6624L91.9834 41.5566ZM126.455 41.5566H139.556L148.816 31.6306V17.6201L139.556 7.69409H126.455L117.209 17.6042V31.678L126.455 41.5566Z" fill="black"/>
<path d="M152.154 13.0449L156.215 0L144.045 4.35352L152.154 13.0449Z" fill="black"/>
<path d="M115.784 37.7446L107.952 46.1404L115.784 54.5361L123.617 46.1404L115.784 37.7446Z" fill="black"/>
<path d="M36.5693 113.398L37.5293 115.757L37.6328 115.836L41.8418 105.609H44.0132V106.464H42.9351V117.388H44.0132V118.242H40.8228V117.388H41.9307V107.525L41.0737 109.63L38.061 116.928H37.1011L33.9697 109.409L33.1426 107.525V117.388H34.2651V118.242H31.1489V117.388H32.1978V106.464H31.1489V105.483H33.3198L36.5693 113.398Z" fill="black"/>
<path d="M47.4985 117.34H49.1675V118.227H45.3716V117.372H46.5093V106.464H45.4458V105.562H53.1699V108.047H52.3579V106.464H47.4985V117.34Z" fill="black"/>
<path d="M53.7905 105.562H62.1938L62.2827 108.301H61.4263V106.464H58.5903V117.388H59.8604V118.242H56.3604V117.388H57.6006V106.464H54.647V108.253H53.7905V105.562Z" fill="black"/>
<path d="M62.5483 105.562H65.5908V106.464H64.4688L66.1523 110.913L67.3188 114.38L68.5151 111.055L69.9922 106.464H68.8403V105.609H71.7939V106.464H70.8931L67.5703 116.517C67.415 117.042 67.1528 117.523 66.8022 117.926C66.4629 118.214 66.0381 118.36 65.606 118.337H65.0444C64.6274 118.292 64.2163 118.196 63.8188 118.052L63.981 117.293L64.7642 117.451C64.9805 117.465 65.1973 117.465 65.4136 117.451C65.6909 117.457 65.9614 117.362 66.1816 117.182C66.4546 116.905 66.6533 116.555 66.7578 116.169L67.0679 115.25H66.625L63.5088 106.464H62.5483V105.562Z" fill="black"/>
<path d="M83.3145 117.134V110.802L83.2993 110.77L82.2803 112.512L78.8984 118.163H78.0562V109.979H76.8008V109.156H78.9575V116.454L79.8433 114.966L83.2847 109.156H84.1855V117.293H85.5146V117.91C85.3018 118.01 85.0786 118.084 84.8501 118.132C84.6523 118.185 84.4487 118.211 84.2446 118.211C84.0049 118.227 83.7671 118.16 83.5654 118.021C83.3804 117.77 83.2905 117.453 83.3145 117.134Z" fill="black"/>
<path d="M95.1299 111.117V117.182C95.1216 117.26 95.1201 117.339 95.126 117.417C95.1318 117.496 95.145 117.574 95.1655 117.65C95.1904 117.745 95.2266 117.835 95.272 117.919C95.2998 117.971 95.3311 118.021 95.3662 118.068C95.5615 118.21 95.7954 118.277 96.0308 118.258C96.2349 118.259 96.438 118.232 96.6362 118.179C96.8555 118.134 97.0688 118.06 97.2715 117.958V117.34H96.001V109.979H97.2271V109.156H95.1147L92.7812 114.38L91.9248 116.39L91.0093 114.38L88.6162 109.156H86.2534V109.979H87.5381V118.163H88.395V110.897L89.207 112.686L91.4375 117.435H92.2793L94.5244 112.559L95.1299 111.117Z" fill="black"/>
<path d="M99.7017 116.846C99.793 116.886 99.876 116.947 99.9443 117.023C100.012 117.093 100.066 117.176 100.102 117.269C100.123 117.324 100.138 117.382 100.146 117.441L100.149 117.48C100.151 117.507 100.152 117.534 100.151 117.562C100.155 117.773 100.082 117.978 99.9463 118.132C99.811 118.286 99.625 118.377 99.4277 118.385C99.3584 118.384 99.2896 118.373 99.2231 118.351L99.1807 118.336L99.1377 118.317C99.083 118.291 99.0322 118.258 98.9854 118.219C98.9536 118.193 98.9238 118.164 98.896 118.132C98.8247 118.058 98.7681 117.969 98.73 117.871C98.6919 117.773 98.6729 117.668 98.6743 117.562C98.6743 117.46 98.6938 117.36 98.7319 117.268C98.7578 117.206 98.791 117.148 98.8306 117.097C98.8506 117.071 98.8726 117.046 98.896 117.023C98.9604 116.946 99.0405 116.884 99.1299 116.843C99.2192 116.802 99.3159 116.783 99.4126 116.786C99.4614 116.785 99.5103 116.79 99.5581 116.8C99.6074 116.81 99.6553 116.825 99.7017 116.846Z" fill="black"/>
<path d="M116.309 117.34V118.195L113.237 118.163V117.308H114.3V111.958H108.393V117.388H109.485V118.242H106.34V117.388H107.418V106.464H106.34V105.609H109.426V106.464H108.333V111.103H114.241V106.464H113.178V105.609H116.309V106.464H115.231V117.34H116.309Z" fill="black"/>
<path d="M118.867 116.89C118.883 116.9 118.898 116.91 118.913 116.921C118.954 116.951 118.992 116.985 119.026 117.023C119.05 117.047 119.072 117.072 119.093 117.098C119.111 117.121 119.127 117.146 119.143 117.171C119.161 117.202 119.177 117.234 119.19 117.268C119.229 117.36 119.248 117.46 119.248 117.562C119.25 117.668 119.23 117.773 119.192 117.871C119.183 117.895 119.173 117.918 119.162 117.94C119.151 117.962 119.139 117.983 119.126 118.004C119.097 118.05 119.064 118.093 119.026 118.132C118.963 118.209 118.887 118.271 118.8 118.314C118.714 118.358 118.62 118.382 118.524 118.385C118.318 118.379 118.123 118.289 117.978 118.132C117.907 118.058 117.85 117.969 117.812 117.871C117.8 117.841 117.79 117.81 117.782 117.778C117.776 117.756 117.771 117.734 117.768 117.711C117.76 117.662 117.756 117.612 117.756 117.562C117.756 117.46 117.776 117.36 117.814 117.268C117.821 117.249 117.83 117.231 117.839 117.213L117.858 117.177C117.892 117.121 117.932 117.069 117.978 117.023C118.045 116.949 118.125 116.89 118.214 116.849C118.303 116.808 118.398 116.787 118.495 116.786C118.594 116.784 118.692 116.805 118.784 116.846C118.812 116.859 118.84 116.874 118.867 116.89Z" fill="black"/>
<path d="M127.813 113.258C127.865 112.827 127.89 112.392 127.888 111.958L122.985 112.163V111.166L127.829 111.277C127.829 110.6 127.754 109.925 127.607 109.266C127.487 108.696 127.261 108.158 126.943 107.683C126.644 107.251 126.248 106.908 125.791 106.686C125.52 106.557 125.236 106.462 124.946 106.405C124.68 106.352 124.409 106.329 124.137 106.337C123.935 106.323 123.733 106.323 123.531 106.337H122.896L122.305 106.448L121.833 106.575V108.57H120.991V105.91C121.417 105.74 121.857 105.613 122.305 105.53C122.9 105.418 123.503 105.365 124.107 105.372C124.952 105.333 125.792 105.529 126.544 105.942C127.147 106.288 127.656 106.795 128.021 107.414C128.365 108.049 128.595 108.747 128.7 109.472C128.762 109.867 128.808 110.264 128.837 110.662C128.849 110.823 128.858 110.984 128.865 111.146L128.872 111.361C128.875 111.491 128.877 111.621 128.877 111.752C128.887 112.626 128.792 113.499 128.597 114.348C128.431 115.102 128.124 115.813 127.696 116.438C127.276 117.022 126.735 117.494 126.116 117.815C125.382 118.163 124.584 118.331 123.782 118.306H122.94L122.099 118.195L121.316 118.021C121.199 117.99 121.083 117.956 120.968 117.917C120.876 117.885 120.785 117.852 120.695 117.815L120.917 117.008L121.655 117.229L122.423 117.372L123.147 117.467H123.723C124.417 117.49 125.107 117.333 125.732 117.008C125.955 116.875 126.165 116.72 126.357 116.543C126.48 116.43 126.597 116.308 126.707 116.179C126.764 116.111 126.818 116.041 126.871 115.969C126.922 115.9 126.97 115.83 127.017 115.757C127.349 115.225 127.58 114.628 127.696 114C127.712 113.918 127.728 113.836 127.742 113.754C127.762 113.634 127.78 113.514 127.796 113.393L127.813 113.258Z" fill="black"/>
<path d="M131.367 116.846C131.458 116.886 131.541 116.947 131.61 117.023C131.68 117.092 131.735 117.175 131.774 117.268C131.812 117.36 131.832 117.46 131.832 117.562C131.833 117.668 131.814 117.773 131.776 117.871C131.738 117.969 131.681 118.058 131.61 118.132C131.597 118.147 131.584 118.162 131.57 118.177L131.543 118.203C131.495 118.248 131.441 118.285 131.384 118.314C131.297 118.358 131.203 118.382 131.108 118.385C131.005 118.385 130.904 118.362 130.81 118.319C130.773 118.302 130.737 118.281 130.704 118.258C130.652 118.222 130.604 118.18 130.562 118.132C130.521 118.091 130.486 118.045 130.457 117.995C130.44 117.968 130.425 117.94 130.412 117.911L130.396 117.871C130.357 117.773 130.338 117.668 130.34 117.562C130.34 117.525 130.342 117.489 130.347 117.453C130.356 117.389 130.373 117.327 130.397 117.268C130.436 117.175 130.492 117.092 130.562 117.023C130.626 116.946 130.706 116.884 130.795 116.843C130.885 116.802 130.981 116.783 131.078 116.786L131.103 116.786L131.143 116.788C131.17 116.79 131.198 116.794 131.225 116.8C131.274 116.81 131.321 116.825 131.367 116.846Z" fill="black"/>
<path fill-rule="evenodd" clip-rule="evenodd" d="M137.946 106.464V105.594L145.508 105.562V108.047H144.651V106.464H140.058V110.913H143.012C143.601 110.889 144.188 110.991 144.74 111.213C145.18 111.409 145.577 111.7 145.907 112.068C146.186 112.388 146.393 112.773 146.512 113.192C146.642 113.605 146.707 114.039 146.704 114.475C146.706 114.639 146.698 114.803 146.683 114.966C146.673 115.064 146.66 115.161 146.645 115.258C146.6 115.531 146.531 115.798 146.438 116.058C146.275 116.502 146.029 116.906 145.715 117.245C145.402 117.567 145.03 117.815 144.622 117.973C144.188 118.147 143.727 118.233 143.263 118.227H137.946V117.372H138.995V106.464H137.946ZM143.541 111.796C143.317 111.756 143.091 111.736 142.864 111.736L139.984 111.704V117.34H143.115C143.448 117.343 143.779 117.278 144.09 117.15C144.289 117.063 144.474 116.946 144.642 116.804C144.724 116.735 144.801 116.661 144.873 116.58C145.104 116.308 145.284 115.991 145.405 115.646C145.427 115.58 145.448 115.513 145.466 115.446C145.501 115.32 145.529 115.192 145.55 115.062C145.586 114.843 145.602 114.619 145.597 114.396C145.609 113.966 145.533 113.54 145.375 113.145C145.312 112.993 145.233 112.85 145.139 112.718C145.033 112.57 144.909 112.436 144.77 112.322C144.516 112.102 144.217 111.95 143.898 111.878C143.78 111.845 143.661 111.818 143.541 111.796Z" fill="black"/>
<path fill-rule="evenodd" clip-rule="evenodd" d="M153.931 110.764C154.048 111.16 154.087 111.577 154.044 111.989L154.03 117.34H155.241L155.315 117.942C155.168 118.012 155.016 118.069 154.861 118.113C154.792 118.132 154.721 118.149 154.65 118.163C154.452 118.216 154.249 118.243 154.044 118.242C153.805 118.259 153.567 118.192 153.365 118.052C153.18 117.802 153.09 117.485 153.114 117.166C152.824 117.435 152.507 117.668 152.169 117.863C151.916 118.006 151.648 118.118 151.372 118.195C151.16 118.263 150.942 118.306 150.722 118.322H150.234C149.832 118.34 149.431 118.253 149.067 118.068C148.786 117.909 148.54 117.688 148.344 117.419C148.174 117.166 148.049 116.882 147.975 116.58C147.913 116.311 147.878 116.035 147.871 115.757C147.863 115.374 147.938 114.994 148.093 114.649C148.25 114.331 148.466 114.051 148.728 113.826C149.018 113.598 149.342 113.427 149.688 113.319C150.087 113.199 150.499 113.13 150.914 113.113L153.144 112.987V112.242C153.15 111.876 153.121 111.51 153.055 111.15C153.041 111.074 153.021 111 152.997 110.928C152.979 110.875 152.959 110.823 152.937 110.773C152.885 110.659 152.821 110.552 152.745 110.454C152.676 110.374 152.599 110.305 152.515 110.246C152.405 110.169 152.283 110.11 152.154 110.074C151.859 109.999 151.557 109.962 151.253 109.963C150.37 109.976 149.496 110.153 148.668 110.485L148.417 109.757C148.582 109.674 148.749 109.597 148.919 109.528C149.028 109.484 149.138 109.442 149.25 109.404C149.461 109.331 149.677 109.269 149.895 109.219C150.175 109.158 150.458 109.113 150.743 109.083C150.844 109.073 150.945 109.065 151.046 109.059C151.179 109.051 151.312 109.046 151.445 109.045C151.791 109.023 152.134 109.069 152.458 109.178C152.785 109.289 153.093 109.462 153.365 109.694C153.622 110.004 153.814 110.369 153.931 110.764ZM153.129 116.248V113.778L150.825 113.905C150.698 113.9 150.571 113.907 150.447 113.926C150.321 113.944 150.197 113.974 150.076 114.014C149.814 114.102 149.567 114.241 149.348 114.427C149.258 114.523 149.178 114.63 149.112 114.746C149.082 114.798 149.054 114.852 149.029 114.908C149.015 114.941 149.001 114.974 148.989 115.008C148.929 115.168 148.892 115.337 148.879 115.509C148.877 115.539 148.875 115.57 148.875 115.601C148.875 115.632 148.875 115.663 148.875 115.694C148.847 116.175 148.99 116.65 149.274 117.023C149.458 117.188 149.669 117.311 149.897 117.387C150.125 117.463 150.366 117.49 150.604 117.467C151.03 117.46 151.452 117.364 151.844 117.182C152.007 117.104 152.165 117.015 152.318 116.917C152.379 116.878 152.439 116.837 152.498 116.795C152.723 116.634 152.935 116.451 153.129 116.248Z" fill="black"/>
<path d="M159.716 117.404H159.805L160.484 115.361L162.124 110.01H160.986V109.156H163.94V110.09H162.965L159.79 120.364C159.664 120.9 159.409 121.391 159.051 121.789C158.713 122.079 158.288 122.226 157.855 122.2H157.294C157.072 122.176 156.851 122.137 156.633 122.085C156.553 122.066 156.474 122.045 156.396 122.022C156.285 121.99 156.176 121.954 156.068 121.915L156.23 121.14L157.013 121.298C157.229 121.319 157.447 121.319 157.663 121.298C157.945 121.304 158.22 121.209 158.446 121.029C158.723 120.759 158.918 120.406 159.007 120.016L159.568 118.195H159.096L156.629 110.042H155.772V109.187H157.353L159.155 115.345L159.716 117.404Z" fill="black"/>
<path d="M173.511 117.213V111.071L173.452 110.976L172.802 112.559L170.63 117.435H169.774L167.559 112.686L166.731 110.897V118.163H165.89V109.979H164.59V109.156H166.894L169.375 114.38L170.291 116.39L173.422 109.156H175.578V109.979H174.353V117.372H175.667V117.989C175.459 118.091 175.241 118.166 175.017 118.211C174.824 118.264 174.625 118.29 174.426 118.29C174.187 118.306 173.949 118.24 173.747 118.1C173.648 117.96 173.578 117.801 173.54 117.633C173.509 117.497 173.499 117.355 173.511 117.213Z" fill="black"/>
<path fill-rule="evenodd" clip-rule="evenodd" d="M182.982 110.796C183.1 111.191 183.138 111.609 183.096 112.021L183.14 117.372H184.381V117.973C184.168 118.075 183.945 118.149 183.716 118.195C183.618 118.221 183.518 118.241 183.417 118.254C183.316 118.268 183.213 118.274 183.111 118.274C182.871 118.29 182.633 118.224 182.431 118.084C182.246 117.833 182.156 117.517 182.18 117.198C182.064 117.308 181.943 117.412 181.817 117.509C181.632 117.652 181.438 117.781 181.235 117.894C181.122 117.958 181.006 118.016 180.888 118.067C180.742 118.131 180.591 118.184 180.438 118.227C180.226 118.295 180.008 118.337 179.788 118.353H179.3C179.187 118.358 179.074 118.355 178.961 118.344C178.675 118.315 178.395 118.233 178.133 118.1C177.852 117.941 177.605 117.719 177.41 117.451C177.24 117.198 177.115 116.913 177.041 116.612C176.979 116.342 176.944 116.066 176.937 115.789C176.924 115.417 176.995 115.047 177.145 114.71C177.245 114.484 177.379 114.277 177.541 114.098C177.619 114.011 177.704 113.93 177.794 113.857C177.941 113.741 178.098 113.64 178.262 113.554C178.42 113.471 178.584 113.403 178.754 113.351C178.871 113.315 178.989 113.285 179.108 113.258C179.304 113.215 179.501 113.184 179.7 113.164C179.793 113.155 179.886 113.149 179.979 113.145L182.21 113.018V112.274C182.216 111.908 182.187 111.542 182.121 111.182C182.073 110.926 181.966 110.687 181.811 110.485C181.651 110.301 181.447 110.17 181.22 110.105C180.925 110.031 180.623 109.994 180.319 109.995C179.436 110.007 178.562 110.184 177.735 110.517L177.469 109.789C177.941 109.553 178.437 109.372 178.946 109.25C179.456 109.139 179.976 109.081 180.497 109.076C181.189 109.032 181.873 109.263 182.417 109.725C182.529 109.862 182.63 110.01 182.717 110.166C182.828 110.364 182.917 110.575 182.982 110.796ZM182.18 116.28V113.81L179.876 113.937C179.341 113.914 178.816 114.099 178.399 114.459C178.244 114.624 178.122 114.822 178.04 115.039C177.958 115.257 177.92 115.491 177.927 115.725C177.895 115.973 177.918 116.226 177.995 116.462C178.072 116.698 178.2 116.912 178.369 117.084C178.537 117.258 178.742 117.385 178.965 117.457C179.005 117.47 179.044 117.481 179.084 117.49C179.241 117.525 179.402 117.533 179.562 117.513C179.593 117.51 179.624 117.505 179.655 117.499C180.082 117.492 180.503 117.395 180.896 117.213C181.372 116.986 181.807 116.669 182.18 116.28Z" fill="black"/>
<path d="M193.139 118.124C193.033 118.16 192.924 118.189 192.814 118.211L192.799 118.147C192.596 118.2 192.388 118.226 192.179 118.227C191.939 118.243 191.701 118.176 191.5 118.037C191.479 118.011 191.459 117.984 191.44 117.956C191.402 117.899 191.368 117.837 191.34 117.773C191.33 117.749 191.32 117.725 191.311 117.7L191.3 117.669L191.286 117.622C191.243 117.469 191.23 117.309 191.249 117.15V113.794H186.818V118.163H185.902V109.979H184.75V109.156H186.833V112.955H191.263V109.156H192.179V117.372H193.464V117.989C193.358 118.041 193.25 118.086 193.139 118.124Z" fill="black"/>
<path fill-rule="evenodd" clip-rule="evenodd" d="M200.263 110.733C200.38 111.128 200.418 111.545 200.376 111.958V117.308H201.587L201.661 117.91C201.448 118.01 201.225 118.084 200.997 118.132C200.869 118.166 200.739 118.189 200.608 118.201L200.572 118.204L200.515 118.208C200.474 118.21 200.432 118.211 200.391 118.211C200.256 118.241 200.116 118.234 199.984 118.189C199.935 118.173 199.888 118.151 199.843 118.125C199.768 118.081 199.699 118.023 199.641 117.956C199.599 117.907 199.562 117.853 199.532 117.796C199.495 117.726 199.467 117.65 199.45 117.57C199.418 117.427 199.421 117.276 199.46 117.134C199.17 117.403 198.853 117.637 198.515 117.831C198.358 117.918 198.196 117.994 198.03 118.058C197.981 118.077 197.932 118.095 197.883 118.112C197.828 118.13 197.773 118.147 197.718 118.163C197.506 118.231 197.288 118.273 197.068 118.29H196.581C196.178 118.308 195.777 118.221 195.414 118.037C195.329 117.99 195.247 117.938 195.169 117.879C195.11 117.835 195.053 117.788 194.998 117.738C194.928 117.674 194.862 117.605 194.801 117.531C194.762 117.485 194.725 117.437 194.69 117.388C194.655 117.336 194.623 117.283 194.592 117.229C194.562 117.176 194.533 117.122 194.507 117.066C194.428 116.902 194.365 116.728 194.321 116.549C194.252 116.28 194.218 116.003 194.217 115.725C194.214 115.592 194.222 115.459 194.239 115.328C194.256 115.199 194.282 115.073 194.318 114.949C194.351 114.835 194.391 114.725 194.439 114.617C194.586 114.292 194.804 114.01 195.074 113.794C195.243 113.661 195.424 113.547 195.614 113.454C195.75 113.388 195.89 113.332 196.034 113.287C196.433 113.167 196.845 113.097 197.26 113.082L199.49 112.955V112.211C199.497 111.844 199.467 111.478 199.401 111.118C199.343 110.866 199.238 110.629 199.091 110.422C198.999 110.316 198.892 110.227 198.774 110.159C198.688 110.108 198.596 110.069 198.5 110.042C198.205 109.968 197.903 109.93 197.6 109.931C196.716 109.944 195.842 110.121 195.015 110.454L194.749 109.725C195.222 109.489 195.717 109.309 196.226 109.187C196.736 109.076 197.256 109.018 197.777 109.013C198.469 108.969 199.153 109.2 199.697 109.662C199.953 109.973 200.146 110.338 200.263 110.733ZM199.46 116.216V113.747L197.156 113.873C197.05 113.869 196.945 113.872 196.841 113.884C196.764 113.892 196.688 113.905 196.612 113.922C196.273 113.998 195.953 114.159 195.679 114.396C195.524 114.561 195.401 114.758 195.32 114.976C195.239 115.194 195.2 115.427 195.207 115.662C195.2 115.712 195.196 115.762 195.194 115.812C195.192 115.857 195.192 115.902 195.194 115.946C195.2 116.1 195.228 116.252 195.275 116.399C195.325 116.552 195.397 116.697 195.488 116.826C195.536 116.896 195.59 116.961 195.648 117.021C195.817 117.194 196.021 117.322 196.245 117.394C196.469 117.466 196.705 117.48 196.935 117.435C197.357 117.43 197.774 117.333 198.161 117.15C198.64 116.92 199.08 116.604 199.46 116.216Z" fill="black"/>
<path d="M14.0161 77.968V85.092C14.0176 85.554 14.0571 86.0149 14.1343 86.4695C14.2114 86.9216 14.3828 87.3491 14.6362 87.72C14.9062 88.0999 15.2622 88.3997 15.6704 88.5908C16.2266 88.8379 16.8262 88.9514 17.4277 88.9231C17.7061 88.918 17.9839 88.9026 18.2607 88.877C18.5752 88.8477 18.8887 88.8049 19.2002 88.749C19.8506 88.6306 20.4854 88.4287 21.0908 88.1475V85.1238H18.8013V70.6067H14.1934L9.95459 77.2083C9.55566 77.7939 9.20117 78.3481 8.86182 78.8862C8.52197 79.4246 8.24121 79.8835 7.97559 80.2795L7.34033 81.2769C7.24414 81.4072 7.16455 81.551 7.104 81.7043H6.95654V70.6226H0V73.8521H2.24512V88.6382H6.82324L11.5938 81.5142L12.0752 80.7998C12.4521 80.2385 12.7876 79.7246 13.0708 79.2188C13.2427 78.9124 13.3979 78.6616 13.5273 78.46C13.5913 78.3601 13.6489 78.2725 13.6992 78.196C13.75 78.1191 13.793 78.0537 13.8271 77.9993C13.8496 77.9631 13.8687 77.9316 13.8833 77.9048L14.0161 77.968Z" fill="black"/>
<path d="M36.1699 70.6226V77.7781H29.5386V70.5591H22.5972V73.8044H24.8125V88.6382H29.5386V80.7227H36.1108V85.5671C36.0801 86.0334 36.1362 86.5017 36.2759 86.9446C36.415 87.3875 36.6353 87.7964 36.9233 88.1475C37.6602 88.7795 38.5991 89.0752 39.5376 88.9707C40.1475 88.9568 40.7549 88.8879 41.354 88.7649C41.9956 88.6406 42.6206 88.4333 43.2153 88.1475V85.092H40.9556V70.5591L36.1699 70.6226Z" fill="black"/>
<path d="M54.6465 88.6382H63.0649V85.3455H61.2188V73.8521H63.0356V70.5591H54.6465V73.8521H56.4336V85.3455H54.6465V88.6382Z" fill="black"/>
<path d="M66.2109 79.0447L70.0659 73.8044L72.0303 73.6621L72.2368 70.9707C71.7686 70.72 71.272 70.5337 70.7598 70.4167C70.2231 70.2749 69.6733 70.2004 69.1206 70.1951C68.5752 70.1709 68.0327 70.2905 67.54 70.5432C67.3042 70.6934 67.0854 70.8713 66.8882 71.073C66.6821 71.2834 66.4995 71.52 66.3438 71.7781L61.6621 78.823V79.9312L66.6538 87.6409C66.9399 88.1069 67.3452 88.4751 67.8208 88.7017C68.3818 88.9282 68.9795 89.0305 69.5786 89.0024C69.6982 89.0127 69.8184 89.0178 69.9385 89.0178C70.0596 89.0178 70.1812 89.0127 70.3022 89.0024L71.144 88.8757L72.0005 88.6858L72.7686 88.4009V85.7571L70.5386 85.3928L66.2109 79.0447Z" fill="black"/>
<path d="M51.1758 79.0447L46.9814 85.377L44.751 85.7412V88.3215C45.2793 88.5415 45.8296 88.6956 46.3906 88.7808C47.0405 88.8916 47.5723 88.9548 47.9854 88.9866C48.5698 89.0132 49.1528 88.9106 49.6987 88.6858C50.1743 88.4592 50.5796 88.0911 50.8657 87.625L55.7246 79.9153V78.8071L51.1758 71.7622C50.8848 71.2512 50.4785 70.8267 49.9941 70.5276C49.4912 70.2749 48.9395 70.1555 48.3843 70.1792C47.832 70.187 47.2822 70.2615 46.7451 70.4009C46.2319 70.5144 45.7354 70.7009 45.2681 70.9548L45.5044 73.6462L47.439 73.7886L51.1758 79.0447Z" fill="black"/>
<path d="M88.7046 77.968V85.092C88.7051 85.2935 88.7129 85.4946 88.728 85.6953C88.7476 85.9548 88.7793 86.2131 88.8228 86.4695C88.856 86.6641 88.9067 86.8542 88.9736 87.0371C89.0625 87.2793 89.1807 87.5088 89.3252 87.72C89.5947 88.0999 89.9507 88.3997 90.3589 88.5908C90.9102 88.8367 91.5049 88.95 92.1016 88.9231C92.7056 88.9133 93.3076 88.8552 93.9033 88.749C94.5532 88.6284 95.188 88.4265 95.7939 88.1475V85.1238H93.4751V70.6067H88.8818L84.6284 77.2083L83.5503 78.8862C83.4062 79.1172 83.2686 79.3389 83.1362 79.5486L82.9946 79.7725C82.8799 79.9526 82.7695 80.1223 82.6641 80.2795L82.0288 81.2769C81.9326 81.4072 81.853 81.551 81.7925 81.7043H81.645V70.6226H74.6294V73.8521H76.8008V88.6382H81.394L86.1646 81.5142C86.7402 80.6594 87.2275 79.9312 87.6411 79.2188L88.4536 77.9048L88.7046 77.968Z" fill="black"/>
<path d="M110.859 70.6226V77.7781H104.286V70.5591H97.3301V73.8044H99.501V88.6382H104.286V80.7227H110.859V85.5671C110.82 86.0291 110.867 86.4949 110.996 86.9375C111.125 87.3804 111.334 87.7915 111.612 88.1475C112.348 88.781 113.288 89.0771 114.226 88.9707C114.831 88.9575 115.434 88.8887 116.028 88.7649C116.674 88.6404 117.304 88.4331 117.904 88.1475V85.092H115.644V70.5591L110.859 70.6226Z" fill="black"/>
<path d="M133.426 77.968V85.092C133.428 85.554 133.467 86.0149 133.544 86.4695C133.562 86.5747 133.585 86.6785 133.614 86.7808C133.637 86.8645 133.663 86.947 133.692 87.0281C133.782 87.2734 133.9 87.5061 134.046 87.72C134.154 87.8708 134.274 88.009 134.406 88.1328C134.607 88.3208 134.834 88.4756 135.081 88.5908C135.632 88.8367 136.227 88.95 136.823 88.9231C137.427 88.9133 138.029 88.8552 138.625 88.749C139.004 88.6799 139.378 88.5825 139.744 88.4575C140.006 88.3682 140.263 88.2646 140.516 88.1475V85.1238H138.211V70.6067H133.648L129.394 77.2083L128.316 78.8862C128.168 79.1243 128.026 79.3525 127.89 79.5679C127.728 79.8252 127.575 80.064 127.43 80.2795L126.795 81.2769C126.699 81.4072 126.619 81.551 126.559 81.7043H126.411V70.6226H119.396V73.8521H121.64V88.6382H126.219L130.989 81.5142C131.297 81.0571 131.58 80.6362 131.839 80.2349C132.065 79.8853 132.274 79.5503 132.466 79.2188L133.278 77.9048L133.426 77.968Z" fill="black"/>
<path fill-rule="evenodd" clip-rule="evenodd" d="M142.052 96.4746H151.696V92.9917H149.17V87.8943C149.431 88.0374 149.697 88.1658 149.969 88.2791C150.498 88.4993 151.047 88.6621 151.607 88.7649C152.309 88.9075 153.02 88.9868 153.734 89.0024C154.905 89.0364 156.067 88.7817 157.131 88.2583C158.031 87.8032 158.805 87.1047 159.376 86.2319C159.991 85.2808 160.414 84.2024 160.617 83.0657C160.868 81.8066 160.991 80.5222 160.986 79.2346C160.99 78.0691 160.876 76.9067 160.646 75.7676C160.435 74.7505 160.049 73.7844 159.509 72.918C158.964 72.0979 158.238 71.4346 157.397 70.9866C156.365 70.481 155.238 70.2373 154.104 70.2742C153.692 70.2737 153.281 70.3162 152.877 70.4009C152.589 70.4551 152.304 70.5225 152.021 70.6025C151.848 70.6519 151.675 70.7061 151.504 70.7649C151.034 70.9243 150.579 71.1311 150.145 71.3823C150.085 71.4158 150.026 71.45 149.968 71.4851L149.861 71.55C149.542 71.7485 149.237 71.9729 148.949 72.2214H148.875V70.6382H142.022V74.0737H144.37V93.071H142.022L142.052 96.4746ZM150.78 84.9338C150.216 84.739 149.676 84.4734 149.17 84.1423V75.4985C149.678 75.1106 150.229 74.7915 150.81 74.5486C151.302 74.324 151.823 74.1826 152.354 74.1289C152.484 74.1157 152.614 74.1079 152.745 74.1052C153.2 74.0979 153.653 74.1675 154.088 74.311C154.233 74.3589 154.372 74.4219 154.503 74.4985C154.756 74.6465 154.981 74.8457 155.167 75.0869C155.336 75.3132 155.482 75.5579 155.602 75.8164C155.728 76.0874 155.825 76.3738 155.891 76.6699C155.949 76.9353 155.998 77.2029 156.037 77.4719C156.06 77.634 156.08 77.7966 156.095 77.9595C156.138 78.4036 156.154 78.8506 156.142 79.2979C156.174 80.3062 156.069 81.314 155.832 82.29C155.69 82.9385 155.424 83.5481 155.048 84.0789C154.91 84.2722 154.748 84.4441 154.568 84.5903C154.489 84.6548 154.407 84.7141 154.321 84.7681C154.2 84.8447 154.073 84.9109 153.941 84.9653C153.534 85.1235 153.104 85.2039 152.671 85.2029C152.344 85.2004 152.019 85.1707 151.697 85.114C151.382 85.0586 151.07 84.9773 150.766 84.8704L150.78 84.9338Z" fill="black"/>
<path d="M177.144 77.968V85.092C177.142 85.5549 177.187 86.0166 177.276 86.4695C177.348 86.9207 177.515 87.3484 177.764 87.72C177.876 87.8743 178.001 88.0154 178.139 88.1418C178.337 88.324 178.559 88.4753 178.798 88.5908C179.111 88.7292 179.438 88.8257 179.772 88.8787C180.03 88.9197 180.292 88.9348 180.555 88.9231C181.154 88.9138 181.751 88.8555 182.342 88.749C182.993 88.6328 183.628 88.4307 184.233 88.1475V85.1238H181.929V70.6067H177.365L173.111 77.2083C172.728 77.7939 172.358 78.3481 172.033 78.8862L171.132 80.2795C170.881 80.6909 170.66 81.0234 170.497 81.2769C170.408 81.4119 170.329 81.5549 170.261 81.7043H170.128V70.6226H163.113V73.8521H165.343V88.6382H169.848L174.603 81.5142C174.891 81.0879 175.16 80.6929 175.406 80.3157C175.654 79.9368 175.88 79.5757 176.08 79.2188L176.893 77.9048L177.144 77.968Z" fill="black"/>
<path d="M195.28 85.4087H195.103L193.626 80.2161L190.909 70.6226H185.577V74.2478H187.334L191.765 88.29H194.025C193.855 88.8574 193.686 89.3701 193.531 89.8413L193.52 89.875L193.39 90.2688C193.224 90.7783 193.006 91.2668 192.74 91.7253C192.519 92.0901 192.22 92.3938 191.869 92.6118C191.63 92.7285 191.379 92.8105 191.123 92.856C190.935 92.8892 190.745 92.9028 190.554 92.8967C190.394 92.896 190.233 92.8906 190.073 92.8811C189.819 92.8657 189.565 92.8391 189.313 92.8018C189.11 92.8018 188.9 92.7695 188.684 92.7258C188.574 92.7036 188.463 92.6785 188.351 92.6531C188.216 92.6226 188.079 92.5916 187.94 92.5645C187.867 92.9155 187.806 93.2605 187.749 93.5808C187.713 93.7808 187.679 93.9712 187.645 94.1475C187.556 94.6064 187.482 95.2397 187.394 95.7305C188.251 96.0459 189.137 96.2634 190.037 96.3796C190.312 96.4048 190.56 96.425 190.779 96.4402C191.111 96.4631 191.38 96.4746 191.588 96.4746C191.84 96.4834 192.093 96.4761 192.343 96.4529C192.844 96.4067 193.339 96.2974 193.818 96.1265C194.115 96.022 194.399 95.8818 194.665 95.7097C194.889 95.5647 195.1 95.397 195.295 95.2083C195.458 95.0522 195.61 94.885 195.751 94.7075C195.844 94.5906 195.932 94.4692 196.015 94.344C196.13 94.1699 196.235 93.988 196.329 93.7991C196.608 93.2214 196.85 92.6238 197.053 92.0103C197.501 90.6958 197.949 89.3826 198.396 88.0701C198.979 86.3582 199.56 84.6477 200.139 82.939C201.164 79.9207 202.188 76.8811 203.211 73.8203H204.851V70.5591H196.742V73.9153H198.663L196.698 80.2478L195.945 82.8125L195.191 85.3613L195.28 85.4087Z" fill="black"/>
<path d="M219.177 80.7544C219.103 80.6277 219 80.4219 218.852 80.1052C218.705 79.7886 218.527 79.4563 218.32 79.0447C218.218 78.8406 218.123 78.6365 218.027 78.4324C217.931 78.2249 217.834 78.0173 217.729 77.8098L217.623 77.5969C217.457 77.2627 217.298 76.9448 217.139 76.6699C216.989 76.4106 216.723 75.8625 216.466 75.3337L216.253 74.897C215.942 74.2637 215.618 73.6462 215.308 73.0762C214.998 72.5063 214.717 71.968 214.495 71.4932L214.008 70.5432H206.446V73.8521H208.706V88.6382H213.358V77.7148H213.535L213.786 78.2688L214.214 79.1711C214.377 79.5037 214.554 79.8521 214.731 80.2319C214.817 80.4163 214.903 80.5896 214.988 80.7554L215.083 80.9409L215.249 81.261L216.061 82.844C216.341 83.3982 216.607 83.9048 216.873 84.4272L217.538 85.7253C217.729 86.0894 217.848 86.3428 217.892 86.4536H220.58C220.979 85.5669 221.393 84.6646 221.85 83.7463C222.308 82.8281 222.736 81.9893 223.135 81.261C223.224 81.0552 223.327 80.8176 223.475 80.5327C223.544 80.3999 223.606 80.2671 223.668 80.1343L223.681 80.1079C223.748 79.9646 223.814 79.8213 223.889 79.6777L224.287 78.8071C224.394 78.5476 224.512 78.2939 224.642 78.0474H224.774V84.9812C224.798 85.5115 224.848 86.0398 224.922 86.5645C224.948 86.791 224.997 87.0132 225.066 87.2275C225.138 87.4492 225.233 87.6624 225.351 87.8625C225.594 88.2437 225.932 88.5452 226.325 88.7332C226.886 88.96 227.484 89.0623 228.083 89.0339C228.682 89.0269 229.28 88.9685 229.87 88.8599C230.13 88.8118 230.388 88.7488 230.641 88.6714C230.999 88.5623 231.348 88.4243 231.687 88.2583V85.1238H229.383V73.8521H231.495V70.5591H224.228L223.741 71.509L222.973 73.092C222.692 73.678 222.382 74.2952 222.057 74.9285C221.734 75.5579 221.455 76.156 221.205 76.6921L221.201 76.7017C221.07 76.9805 220.972 77.1785 220.878 77.3665C220.825 77.4749 220.772 77.5798 220.717 77.6951C220.683 77.7654 220.647 77.8396 220.61 77.9207L220.034 79.1711C219.961 79.3215 219.895 79.4651 219.832 79.6011L219.803 79.6648C219.712 79.8613 219.629 80.0408 219.546 80.2002C219.486 80.3157 219.438 80.4182 219.402 80.5037C219.349 80.6289 219.319 80.7168 219.31 80.7544H219.177Z" fill="black"/>
<path fill-rule="evenodd" clip-rule="evenodd" d="M236.738 60.1738V65.0815L237.491 65.0974V63.0078H237.919C238.133 62.9961 238.345 63.0571 238.525 63.1819C238.84 63.5115 239.101 63.897 239.293 64.3218L239.707 65.0974H240.607L240.046 64.1318C239.962 63.9744 239.87 63.8223 239.771 63.6763C239.647 63.4963 239.513 63.3259 239.367 63.166C239.255 63.0515 239.125 62.9602 238.983 62.897C239.337 62.8757 239.673 62.7183 239.928 62.4536C240.162 62.2009 240.295 61.8599 240.297 61.5037C240.297 61.3591 240.272 61.2168 240.225 61.0833C240.188 60.9797 240.138 60.8813 240.076 60.7913C239.942 60.5654 239.738 60.3972 239.5 60.3164C239.115 60.2026 238.717 60.1545 238.318 60.1738H236.738ZM238.392 62.311H237.491V60.9338H238.333C238.467 60.9136 238.602 60.9045 238.736 60.9065C238.849 60.908 238.96 60.9172 239.071 60.9338C239.201 60.9902 239.313 61.0833 239.396 61.2029C239.481 61.3501 239.515 61.5251 239.49 61.6963C239.466 61.8674 239.386 62.0237 239.263 62.137C238.999 62.2966 238.692 62.3579 238.392 62.311Z" fill="black"/>
<path fill-rule="evenodd" clip-rule="evenodd" d="M240.785 58.575C240.137 58.1941 239.411 57.9927 238.673 57.9893H238.614C237.88 57.9954 237.159 58.1968 236.516 58.575C235.845 58.9648 235.291 59.5527 234.921 60.269C234.551 60.9695 234.353 61.7593 234.345 62.5645C234.351 63.3628 234.543 64.147 234.906 64.844C235.275 65.5562 235.823 66.1428 236.487 66.5381C237.133 66.9397 237.866 67.1528 238.614 67.1555C239.361 67.1572 240.096 66.9441 240.74 66.5381C241.433 66.1616 242.003 65.5715 242.38 64.844C242.754 64.1514 242.953 63.3652 242.956 62.5645C242.948 61.7593 242.75 60.9695 242.38 60.269C242.01 59.5527 241.456 58.9648 240.785 58.575ZM236.871 59.24C237.403 58.9194 238.003 58.7505 238.614 58.7493C239.229 58.7507 239.833 58.9194 240.371 59.24C240.934 59.5598 241.396 60.0498 241.7 60.6489C241.846 60.9155 241.959 61.1987 242.041 61.4919C242.136 61.8386 242.186 62.1997 242.188 62.5645C242.185 63.2307 242.022 63.885 241.715 64.4641C241.569 64.7483 241.389 65.0088 241.18 65.2393C240.948 65.4956 240.681 65.7148 240.386 65.8889C239.846 66.2183 239.235 66.3926 238.614 66.3955C237.993 66.3884 237.383 66.2144 236.841 65.8889C236.289 65.5532 235.834 65.0601 235.527 64.4641C235.22 63.885 235.057 63.2307 235.054 62.5645C235.059 61.8936 235.222 61.2346 235.527 60.6489C235.841 60.0525 236.308 59.564 236.871 59.24Z" fill="black"/>
</svg>
