<svg width="1103" height="336" viewBox="0 0 1103 336" fill="none" xmlns="http://www.w3.org/2000/svg">
<path d="M624.46 282.163C630.347 276.985 637 272.246 643.652 267.536L643.054 266.366C640.193 260.837 637.066 255.425 633.74 250.13C628.363 241.481 622.224 233.216 615.379 225.41C613.816 223.859 612.319 222.25 610.922 220.554C609.525 218.857 613.084 215.931 614.913 217.862C616.743 219.793 618.04 221.197 619.537 222.923C623.991 227.151 629.044 230.857 634.572 233.952C644.591 239.384 655.184 243.95 666.205 247.585C667.169 246.385 668.101 245.186 668.965 243.928C674.448 235.307 679.368 226.419 683.701 217.306C683.682 217.019 683.745 216.732 683.884 216.471C684.024 216.211 684.235 215.985 684.499 215.814C688.952 206.598 695.338 198.202 703.326 191.065C705.721 189.076 709.28 192.235 706.918 194.195C699.246 201.101 693.109 209.207 688.823 218.096C689.569 226.806 688.807 235.565 686.561 244.074C685.796 247.321 684.931 250.539 684.067 253.786C698.074 258.237 711.239 264.519 723.117 272.421C724.714 273.562 723.583 275.61 721.986 276.137C713.974 278.501 705.59 279.745 697.139 279.823C691.118 280.057 685.065 280.116 679.044 280.584C679.044 283.509 679.044 286.668 679.044 289.74C679.842 304.367 682.836 319.901 677.281 334.148C677.095 334.709 676.668 335.184 676.091 335.474C675.514 335.763 674.831 335.844 674.188 335.699C666.737 333.651 663.078 326.22 660.616 320.34C657.767 313.077 655.543 305.635 653.964 298.078C653.099 294.479 652.367 290.793 651.469 287.166C637.948 293.244 624.991 300.247 612.718 308.112C612.333 308.307 611.897 308.41 611.453 308.41C611.008 308.409 610.572 308.306 610.187 308.111C609.803 307.915 609.484 307.633 609.262 307.295C609.041 306.956 608.925 306.572 608.926 306.181C609.924 296.79 617.042 288.862 624.46 282.163ZM654.829 280.788C661.015 278.605 667.483 277.102 674.088 276.312C674.531 271.962 675.242 267.636 676.217 263.353C676.749 260.983 677.348 258.614 677.98 256.273L668.001 252.733C662.934 258.09 657.273 262.99 651.103 267.361L649.773 268.355C651.498 271.597 652.998 274.929 654.263 278.331C654.363 279.238 654.596 280.115 654.829 280.935L654.829 280.788ZM673.223 330.111C675.151 322.919 675.824 315.511 675.219 308.141C674.853 300.711 673.955 293.28 673.755 285.82C673.755 284.123 673.755 282.456 673.755 280.788C667.655 281.569 661.688 283.014 655.993 285.089C656.991 289.009 657.789 292.958 658.72 296.79C660.315 304.268 662.539 311.631 665.373 318.819C666.521 321.779 668.109 324.592 670.096 327.186C670.94 328.354 671.996 329.391 673.223 330.257L673.223 330.111ZM682.736 257.97C681.971 260.895 681.239 263.821 680.607 266.746C679.971 269.746 679.516 272.773 679.244 275.815C691.418 274.967 703.958 275.815 715.833 272.89C709.669 269.127 703.134 265.857 696.307 263.119C691.784 261.422 687.293 259.754 682.736 258.116L682.736 257.97ZM670.961 249.018L679.144 251.943C681.556 243.874 683.137 235.63 683.867 227.311C680.301 234.914 675.982 242.226 670.961 249.164L670.961 249.018ZM647.511 264.318C653.043 260.262 658.173 255.799 662.845 250.978C658.321 249.34 653.798 247.672 649.374 245.859C642.882 243.271 636.632 240.238 630.68 236.79C633.851 241.178 636.822 245.654 639.594 250.218C642.422 254.986 645.016 259.696 647.511 264.464L647.511 264.318ZM627.221 286.054C622.177 290.264 618.12 295.303 615.279 300.886C620.834 297.551 626.389 294.216 632.077 291.086C637.883 287.892 643.916 285.029 650.139 282.514C649.806 281.403 649.473 280.291 649.074 279.179C648.127 276.515 647.016 273.898 645.748 271.339C639.278 276.002 633.094 280.962 627.221 286.2L627.221 286.054Z" fill="white"/>
<path d="M1.28055 180.007C9.89023 174.553 19.5967 170.582 29.8866 168.305C32.8802 167.574 35.8738 166.96 38.9007 166.404C37.8031 161.46 36.8052 156.457 36.273 151.455C35.8351 144.04 36.0464 136.607 36.905 129.221C37.2043 125.418 37.5037 121.586 37.6035 117.754C30.5517 107.719 25.9282 96.4859 27.9573 84.7256C28.0852 84.3574 28.3184 84.0242 28.6344 83.7578C28.9505 83.4914 29.3389 83.3008 29.7625 83.204C30.1862 83.1071 30.631 83.1073 31.0545 83.2047C31.4781 83.3021 31.8661 83.4933 32.1817 83.7602C38.3524 90.0147 41.9288 97.9248 42.3268 106.198C42.6647 109.573 42.7868 112.962 42.6927 116.35C47.8789 123.364 53.8277 129.918 60.4551 135.921C67.1076 142.21 74.758 147.798 81.843 153.795C84.1714 155.784 86.4333 157.861 88.4956 159.968L89.2605 159.968C107.788 157.247 126.881 152.683 140.352 140.484C142.647 138.437 146.206 141.596 143.945 143.644C136.343 150.268 127.163 155.324 117.068 158.447C109.108 160.965 100.902 162.835 92.5536 164.034L94.3166 165.819C100.707 164.548 107.287 164.182 113.808 164.736C117.135 164.97 117.135 169.446 113.808 169.212C108.556 168.754 103.258 168.881 98.042 169.593C108.021 179.773 118 190.071 131.105 197.004C131.594 197.297 131.952 197.731 132.119 198.231C132.285 198.73 132.25 199.265 132.019 199.744C131.787 200.224 131.374 200.618 130.85 200.859C130.326 201.101 129.722 201.176 129.143 201.07C119.164 199.257 109.185 197.911 98.94 196.975C88.2627 196.009 77.5189 195.395 66.775 194.576C61.8904 202.15 55.9331 209.149 49.0459 215.405C48.6864 215.705 48.2356 215.907 47.7481 215.986C47.2607 216.066 46.7575 216.019 46.2997 215.852C45.8419 215.684 45.4492 215.404 45.1691 215.044C44.889 214.684 44.7336 214.261 44.7217 213.825C45.1329 206.678 44.8435 199.514 43.8569 192.411C29.5023 191.139 15.3745 188.35 1.77947 184.103C1.30721 183.969 0.889114 183.719 0.57587 183.38C0.262626 183.042 0.0676598 182.631 0.0148245 182.198C-0.0380108 181.764 0.0534673 181.326 0.278141 180.937C0.502816 180.548 0.851088 180.225 1.28055 180.007ZM61.3531 194.108C57.2951 193.786 53.2037 193.406 49.1456 192.967C49.7829 197.959 50.1049 202.979 50.1103 208.004C53.4686 204.557 56.537 200.901 59.2908 197.062C59.9894 196.097 60.6546 195.102 61.3531 194.108ZM92.6534 170.704L91.4892 170.997C81.7432 174.185 75.7559 181.704 70.5337 189.222C70.3427 189.535 70.1317 189.837 69.9017 190.129C86.3668 191.416 102.865 192.469 119.197 194.781C111.75 189.352 104.891 183.33 98.7073 176.789L92.6534 170.704ZM86.7326 164.853C77.2528 166.111 67.7063 166.989 58.2929 168.13C53.8357 168.656 49.312 169.271 44.9878 169.973C45.9524 174.215 46.9171 178.427 47.7154 182.669C48.0813 184.571 48.4139 186.443 48.68 188.345C53.9023 188.9 59.1578 189.368 64.38 189.807C68.0612 183.699 72.7587 178.108 78.3172 173.22C81.57 170.704 85.3104 168.722 89.3603 167.369L86.7326 164.853ZM37.2043 105.759C36.7516 100.818 35.1556 96.0094 32.5143 91.6296C32.8922 97.3029 34.5546 102.853 37.4039 107.954C37.3374 107.251 37.3041 106.637 37.2043 105.789L37.2043 105.759ZM43.8569 165.614C56.663 163.537 69.6355 162.484 82.5082 160.846C79.8139 158.359 76.9866 155.901 74.0262 153.59C66.3683 147.684 59.1049 141.394 52.2724 134.75C48.9461 131.386 45.6198 127.817 42.2935 123.985C42.2935 126.12 41.9942 128.227 41.8279 130.333C40.8969 137.795 40.7633 145.317 41.4288 152.801C42.0607 157.13 42.9255 161.372 43.8569 165.643L43.8569 165.614ZM8.09938 181.265C14.5874 183.062 21.1976 184.498 27.8908 185.565C33.0132 186.443 38.1689 187.145 43.3247 187.759C42.8922 184.834 42.3601 182.201 41.7946 179.451C41.2291 176.701 40.5638 173.6 39.8986 170.821C28.6707 172.607 17.8995 176.155 8.09938 181.294L8.09938 181.265Z" fill="white"/>
<path d="M823.271 119.509C827.196 116.584 831.154 113.395 835.079 110.294C841.612 105.456 847.109 99.631 851.311 93.0925C853.673 89.1432 855.569 85.0183 857.964 81.2153C859.361 75.1596 860.958 69.1333 862.887 63.1654C863.108 62.6456 863.542 62.2172 864.103 61.9644C864.665 61.7117 865.314 61.653 865.923 61.7996C866.531 61.9463 867.055 62.2876 867.392 62.7569C867.729 63.2261 867.854 63.7892 867.743 64.3355C866.745 67.5144 865.814 70.7326 864.949 73.9895C865.469 73.9377 865.995 74.0273 866.455 74.2463C866.916 74.4653 867.289 74.8029 867.524 75.2141C867.76 75.6252 867.847 76.09 867.773 76.5457C867.699 77.0015 867.468 77.4264 867.111 77.7633C865.463 79.2738 864.013 80.942 862.787 82.7366C862.022 86.0423 861.29 89.3772 860.658 92.7122C858.03 106.462 856.434 120.358 854.771 134.224C865.104 138.827 875.516 143.313 886.004 147.681C888.2 148.588 887.202 152.099 884.74 151.835C877.423 151.045 870.105 150.285 862.754 149.817C859.472 149.583 856.145 149.407 852.775 149.29C851.777 155.697 850.613 162.074 850.147 168.539C849.968 171.841 850.124 175.15 850.613 178.427C850.933 179.842 850.903 181.301 850.524 182.705C850.145 184.108 849.426 185.423 848.417 186.56C848.02 186.903 847.506 187.123 846.954 187.187C846.402 187.25 845.841 187.153 845.357 186.911C838.621 182.473 832.899 176.954 828.493 170.646C824.235 164.795 820.643 158.769 816.984 152.684C807.271 155.346 797.825 158.944 787.48 159.237C786.926 159.24 786.386 159.08 785.947 158.783C785.507 158.487 785.192 158.07 785.052 157.598C783.888 150.519 789.476 145.487 795.297 141.362C798.623 139.11 801.583 136.74 804.644 134.341C795.164 122.815 781.36 113.395 776.071 99.6455C775.95 99.2198 775.973 98.7725 776.138 98.3583C776.302 97.9441 776.601 97.5811 776.996 97.3139C777.392 97.0467 777.868 96.8869 778.365 96.8541C778.862 96.8214 779.36 96.9172 779.796 97.1297C787.38 101.313 795.064 105.379 802.781 109.358C809.788 112.81 816.618 116.194 823.271 119.509ZM808.502 131.211L813.924 126.794L819.246 122.522C807.537 116.808 795.962 110.879 784.52 104.736C787.991 109.585 791.954 114.148 796.361 118.368C800.619 122.698 804.876 126.852 808.635 131.328L808.502 131.211ZM849.515 136.711C840.933 132.849 832.451 128.9 824.003 124.833C821.84 126.53 819.645 128.227 817.516 129.982L811.429 134.926C814.423 138.934 817.051 143.117 819.579 147.359C822.031 146.764 824.518 146.286 827.029 145.926C833.306 145.106 839.644 144.696 845.989 144.697L848.417 144.697C848.95 142.152 849.315 139.49 849.648 136.828L849.515 136.711ZM814.722 148.588C812.494 144.961 810.165 141.421 807.637 137.94C805.043 140.017 802.415 142.035 799.654 143.966C795.995 146.511 790.607 150.051 790.041 154.527C796.503 153.827 802.853 152.483 808.968 150.519L814.722 148.588ZM845.956 161.372C846.521 157.277 847.153 153.152 847.785 149.056C839.972 148.873 832.161 149.472 824.501 150.841L822.073 151.338L822.306 151.718C828.626 162.162 835.179 173.922 845.923 181.499C846.031 179.102 845.785 176.703 845.191 174.361C844.968 170.055 845.269 165.74 846.089 161.489L845.956 161.372ZM854.438 138.817C854.272 140.251 854.105 141.742 853.906 143.117L853.706 144.785C859.294 144.96 864.882 145.312 870.338 145.809C866.845 144.288 863.319 142.884 859.827 141.245L854.438 138.817ZM828.127 121.645C835.445 125.155 842.807 128.578 850.214 131.913C851.012 125.185 851.843 118.485 852.775 111.757C853.473 106.55 854.305 101.342 855.203 96.1642L854.205 97.7441C849.757 103.828 844.297 109.291 838.006 113.951L828.127 121.645Z" fill="white"/>
<path d="M210.603 55.2371C209.173 53.16 211.934 51.3755 214.096 52.3116C222.944 55.7344 231.925 58.9817 241.039 61.9072C249.088 64.4815 257.204 66.734 265.453 68.7233C270.894 59.4182 275.801 49.8792 280.156 40.1419C279.923 31.1023 279.989 22.092 279.989 13.0816C279.989 12.492 280.256 11.9264 280.73 11.5095C281.204 11.0925 281.847 10.8583 282.517 10.8583C283.188 10.8583 283.831 11.0925 284.305 11.5095C284.779 11.9264 285.045 12.492 285.045 13.0816L285.045 27.7088C285.286 27.4259 285.597 27.1946 285.954 27.0324C286.311 26.8703 286.706 26.7816 287.107 26.7726C288.126 26.6953 289.148 26.8743 290.055 27.2887C290.962 27.7031 291.716 28.3358 292.23 29.113C293.107 31.1487 293.047 33.405 292.064 35.4027C291.9 35.8214 291.603 36.1899 291.208 36.4644C290.812 36.7389 290.336 36.9076 289.835 36.9508C289.334 36.9939 288.829 36.9096 288.381 36.7078C287.933 36.5059 287.56 36.195 287.307 35.8121C286.642 37.5089 285.943 39.1472 285.245 40.8147C285.444 48.7719 285.91 56.7291 286.875 64.6278C287.241 67.5532 287.673 70.4787 288.139 73.4041L291.265 73.96C298.749 75.3565 306.326 76.3336 313.951 76.8854C319.339 77.1487 326.191 77.4705 329.85 81.4783C330.109 81.7276 330.303 82.0235 330.418 82.3456C330.532 82.6677 330.566 83.008 330.515 83.3426C330.464 83.6773 330.331 83.9982 330.124 84.2825C329.917 84.5669 329.642 84.8079 329.318 84.9887C322.964 88.5341 316.152 91.4018 309.028 93.5311C303.14 95.3742 297.086 96.9831 291.132 98.7676C291.672 106.987 294.334 114.991 298.916 122.171C299.196 122.595 299.31 123.09 299.237 123.577C299.165 124.064 298.912 124.516 298.517 124.862C294.592 128.11 287.906 121.937 285.211 119.801C280.056 115.706 275.233 111.318 270.41 106.871C260.93 112.02 251.583 119.304 240.041 119.977C239.484 119.976 238.942 119.816 238.498 119.521C238.054 119.225 237.731 118.81 237.579 118.339C236.685 112.566 238.171 106.702 241.77 101.81C244.75 97.2633 248.084 92.9038 251.749 88.7626C246.793 84.199 241.571 79.9863 236.315 75.5396C231.9 72.0444 227.282 68.7538 222.478 65.6809C217.803 62.8928 213.773 59.3486 210.603 55.2371ZM267.15 103.273C263.325 99.6159 259.566 95.9007 255.807 92.2439L255.342 91.805C252.161 95.5479 249.24 99.4555 246.593 103.507C244.038 107.01 242.591 111.05 242.402 115.209C248.041 113.952 253.35 111.747 258.036 108.714C260.963 106.637 263.957 104.969 267.017 103.273L267.15 103.273ZM267.383 75.3055C264.771 79.7905 261.757 84.0851 258.368 88.1482C258.901 88.6456 259.433 89.1136 259.932 89.611C263.824 93.414 267.715 97.1878 271.674 100.932L272.871 100.347C277.104 98.473 281.471 96.8412 285.943 95.4618C285.511 91.7465 285.178 88.002 284.779 84.2866C284.546 81.8585 284.18 79.4305 283.814 77.0316C278.659 76.0955 273.503 75.0423 268.381 73.8721C267.782 74.4572 267.549 74.8375 267.25 75.3055L267.383 75.3055ZM286.509 99.9669C282.652 101.205 278.886 102.651 275.233 104.297C279.457 108.275 283.781 112.166 288.338 115.852C289.303 116.613 290.267 117.403 291.232 118.105C289.271 113.615 287.899 108.943 287.141 104.18C286.775 102.775 286.575 101.371 286.376 99.9669L286.509 99.9669ZM289.003 77.9385C289.369 80.3959 289.702 82.8824 289.968 85.369C290.234 87.8557 290.467 91.0737 290.766 93.9698L291.099 93.9698C302.209 90.6641 313.651 87.8557 323.796 82.6191C319.638 80.6883 313.452 81.2735 309.194 80.8639C302.309 80.1618 295.556 79.1087 288.87 77.9385L289.003 77.9385ZM270.576 69.7473C274.734 70.6835 278.892 71.5318 283.083 72.3217C282.584 69.1622 282.085 65.9735 281.752 62.7848C281.287 58.8062 280.987 54.7982 280.721 50.8196C280.189 51.9021 279.69 52.9846 279.124 54.067C276.297 59.3621 273.403 64.5693 270.443 69.7473L270.576 69.7473ZM223.443 60.4735L228.199 63.399C233.578 66.9353 238.689 70.7759 243.5 74.8961C247.325 78.1141 251.15 81.3613 254.843 84.6962C257.967 80.8231 260.769 76.7559 263.225 72.5265L258.734 71.4148C246.715 68.3185 234.891 64.6662 223.31 60.4735L223.443 60.4735Z" fill="white"/>
<path d="M929.08 245.42C927.65 243.343 930.411 241.559 932.406 242.495C941.254 245.918 950.235 249.165 959.349 252.09C967.399 254.665 975.515 256.917 983.764 258.907C989.205 249.602 994.112 240.063 998.466 230.325C998.233 221.286 998.466 212.275 998.466 203.265C998.466 202.675 998.733 202.11 999.207 201.693C999.681 201.276 1000.32 201.042 1000.99 201.042C1001.66 201.042 1002.31 201.276 1002.78 201.693C1003.26 202.11 1003.52 202.675 1003.52 203.265L1003.52 217.892C1003.76 217.609 1004.07 217.378 1004.43 217.216C1004.79 217.054 1005.18 216.965 1005.58 216.956C1006.6 216.879 1007.63 217.058 1008.53 217.472C1009.44 217.886 1010.19 218.519 1010.71 219.296C1011.14 220.305 1011.35 221.379 1011.32 222.458C1011.28 223.538 1011.01 224.6 1010.51 225.586C1010.35 226.006 1010.06 226.377 1009.67 226.653C1009.27 226.93 1008.8 227.1 1008.3 227.144C1007.8 227.187 1007.29 227.102 1006.85 226.898C1006.4 226.694 1006.03 226.38 1005.78 225.995C1005.12 227.692 1004.42 229.331 1003.72 230.998C1003.92 238.955 1004.39 246.912 1005.35 254.811C1005.72 257.737 1006.15 260.662 1006.62 263.587L1009.74 264.114C1017.23 265.51 1024.8 266.487 1032.43 267.039C1037.78 267.303 1044.67 267.625 1048.29 271.632C1048.56 271.877 1048.76 272.171 1048.88 272.493C1049 272.814 1049.04 273.156 1048.99 273.492C1048.94 273.828 1048.81 274.15 1048.61 274.436C1048.4 274.722 1048.12 274.963 1047.79 275.143C1041.44 278.688 1034.63 281.556 1027.5 283.685C1021.62 285.528 1015.56 287.137 1009.61 288.922C1010.15 297.141 1012.81 305.145 1017.39 312.325C1017.67 312.75 1017.79 313.244 1017.71 313.731C1017.64 314.218 1017.39 314.67 1016.99 315.016C1013.07 318.264 1006.38 312.091 1003.69 309.926C998.533 305.86 993.71 301.472 988.887 296.996C979.407 302.174 970.06 309.458 958.518 310.131C957.961 310.131 957.419 309.97 956.975 309.675C956.531 309.379 956.208 308.964 956.056 308.493C955.162 302.72 956.649 296.856 960.247 291.964C963.227 287.417 966.561 283.058 970.226 278.917C965.237 274.353 960.048 270.14 954.792 265.694C950.377 262.198 945.759 258.908 940.955 255.835C936.283 253.056 932.254 249.521 929.08 245.42ZM985.627 293.456C981.802 289.799 978.043 286.084 974.284 282.427L973.819 281.988C970.637 285.679 967.715 289.538 965.07 293.544C962.515 297.047 961.068 301.087 960.879 305.246C966.519 303.989 971.828 301.784 976.513 298.751C979.44 296.967 982.434 295.153 985.494 293.456L985.627 293.456ZM985.86 265.489C983.248 269.974 980.234 274.268 976.845 278.332C977.378 278.829 977.91 279.297 978.409 279.794C982.301 283.597 986.192 287.371 990.151 291.116L991.348 290.531C995.581 288.656 999.948 287.025 1004.42 285.645C1003.99 281.93 1003.66 278.185 1003.26 274.47C1003.02 272.042 1002.66 269.614 1002.29 267.215C997.136 266.279 991.98 265.226 986.858 264.055C986.259 264.611 986.026 265.021 985.727 265.489L985.86 265.489ZM1004.99 290.15C1001.13 291.388 997.364 292.834 993.71 294.48C997.934 298.459 1002.26 302.349 1006.82 306.035L1009.71 308.288C1007.75 303.798 1006.38 299.126 1005.62 294.363C1005.25 292.959 1005.02 291.554 1004.85 290.15L1004.99 290.15ZM1007.45 268.122C1007.85 270.579 1008.18 273.066 1008.45 275.552C1008.71 278.039 1008.94 281.403 1009.24 284.153L1009.58 284.153C1020.69 280.847 1032.13 278.039 1042.27 272.802C1038.12 270.872 1031.93 271.457 1027.67 271.047C1020.79 270.462 1014.03 269.292 1007.31 268.122L1007.45 268.122ZM989.053 259.931C993.211 260.867 997.369 261.715 1001.56 262.505C1001.06 259.346 1000.56 256.157 1000.2 252.968C999.764 248.989 999.431 244.982 999.198 241.003C998.666 242.085 998.167 243.168 997.601 244.25C994.774 249.545 991.88 254.753 988.92 259.931L989.053 259.931ZM941.92 250.657L946.676 253.582C952.055 257.119 957.166 260.959 961.977 265.079C965.802 268.297 969.627 271.545 973.32 274.88C976.444 271.006 979.246 266.939 981.702 262.71L977.211 261.598C965.192 258.502 953.368 254.85 941.787 250.657L941.92 250.657Z" fill="white"/>
<path d="M519.25 179.773C525.347 183.59 530.356 188.596 533.885 194.4C534.102 194.751 534.228 195.14 534.253 195.539C534.278 195.938 534.202 196.337 534.03 196.706C533.858 197.076 533.595 197.407 533.259 197.676C532.923 197.945 532.524 198.145 532.089 198.262C522.961 200.691 513.513 202.068 503.982 202.357C495.567 202.738 487.351 202.562 478.769 202.357C478.07 204.083 477.339 205.78 476.673 207.448C472.948 217.014 472.515 228.745 464.3 236.439C463.973 236.717 463.58 236.926 463.149 237.052C462.719 237.178 462.261 237.218 461.811 237.167C461.36 237.116 460.929 236.977 460.548 236.76C460.166 236.543 459.846 236.253 459.61 235.912C454.81 228.329 450.802 220.378 447.635 212.158C446.271 208.735 445.007 205.283 443.776 201.802C439.286 202.065 434.829 202.445 430.471 202.65C423.533 203.376 416.499 202.777 409.848 200.895C409.295 200.74 408.803 200.45 408.43 200.059C408.057 199.668 407.818 199.191 407.742 198.685C407.665 198.179 407.753 197.664 407.997 197.201C408.24 196.737 408.629 196.344 409.117 196.068C416.735 190.999 424.799 186.47 433.232 182.523L436.558 180.972C434.962 176.672 433.232 172.372 431.403 168.13C427.943 160.329 424.451 152.528 420.925 144.726C419.328 141.274 417.599 137.91 415.769 134.634C414.831 133.269 414.209 131.755 413.941 130.178C413.673 128.602 413.763 126.994 414.206 125.448C414.331 125.061 414.555 124.706 414.861 124.407C415.166 124.109 415.546 123.876 415.969 123.726C416.393 123.577 416.85 123.514 417.305 123.544C417.761 123.574 418.202 123.694 418.597 123.897C429.207 130.392 439.685 137.033 450.363 143.468C459.244 148.822 468.191 154.146 477.538 158.798L482.328 161.138C495.95 155.116 508.464 147.325 519.449 138.027C520.031 137.672 520.736 137.51 521.441 137.57C522.145 137.629 522.803 137.906 523.298 138.351C523.792 138.796 524.091 139.381 524.142 140.002C524.192 140.623 523.991 141.24 523.574 141.742C516.677 147.767 509.073 153.131 500.889 157.744C496.93 159.997 492.839 162.103 488.714 164.093C491.808 165.497 494.868 167.018 497.928 168.305C505.365 171.632 512.494 175.466 519.25 179.773ZM481.363 167.311C468.99 172.898 456.183 177.842 443.743 183.371C444.708 186.092 445.672 188.813 446.604 191.563C447.136 193.055 447.635 194.488 448.167 196.097C450.728 196.097 453.256 196.097 455.818 196.097C462.137 196.097 468.457 196.477 474.777 196.741C478.569 187.964 482.128 178.72 480.765 169.212C480.717 168.899 480.746 168.581 480.849 168.278C480.952 167.975 481.127 167.695 481.363 167.457L481.363 167.311ZM441.847 178.222C453.057 173.308 464.599 168.773 475.809 163.8C474.345 163.098 472.915 162.367 471.518 161.635C454.055 152.479 437.423 141.742 420.592 131.503C421.391 133.083 422.555 134.633 423.32 136.184C425.349 140.338 427.212 144.58 429.108 148.793C432.434 156.165 435.76 163.42 439.086 170.938C439.984 173.396 440.949 175.882 441.847 178.369L441.847 178.222ZM442.014 196.36C440.783 192.85 439.585 189.31 438.321 185.799C431.09 189.122 424.092 192.825 417.366 196.887C423.103 197.443 428.892 197.443 434.629 196.887L442.014 196.36ZM472.549 201.802C465.73 201.538 458.878 201.275 452.026 201.217L449.997 201.217C453.306 210.873 457.535 220.268 462.636 229.301C464.5 226.124 465.897 222.753 466.794 219.266C468.225 214.469 469.356 209.671 471.218 205.02C471.651 204.142 472.083 203.03 472.549 201.948L472.549 201.802ZM511.899 181.558C503.808 176.912 495.398 172.711 486.719 168.978C488.082 178.574 484.723 187.759 480.964 196.711C496.232 197.209 511.832 197.267 526.667 193.786C522.649 188.98 517.639 184.882 511.899 181.704L511.899 181.558Z" fill="white"/>
<path d="M572.436 100.201C580.175 93.4343 588.469 87.1766 597.25 81.4784C603.537 77.295 609.923 73.17 616.177 68.8989C613.848 65.7004 611.454 62.541 608.992 59.4205C601.342 49.6788 594.257 39.235 583.879 31.4533C581.683 29.8151 584.644 26.4508 586.939 27.9721C593.591 32.3017 600.244 36.3681 607.429 40.1127C616.691 45.0165 626.227 49.5078 636.001 53.5696C637.897 51.8436 639.76 50.0592 641.556 48.2162C643.792 45.8209 645.848 43.2996 647.71 40.6685C648.507 27.3255 651.44 14.1481 656.425 1.52619C657.522 -1.16521 662.412 0.0048609 661.314 2.69626C658.118 10.4834 655.801 18.5281 654.396 26.7142C654.13 28.2646 653.897 29.8152 653.664 31.3364C658.82 22.7356 663.643 13.7837 671.227 6.76266C673.455 4.65635 677.048 7.81587 674.819 9.92218C667.634 16.6799 663.044 25.1637 658.188 33.3257C656.392 36.2511 654.529 39.1765 652.533 42.102C652.067 47.9529 651.901 53.8037 651.835 59.8301C663.144 64.1013 674.62 68.0505 686.162 71.8243C688.69 72.6727 688.49 76.3003 685.463 76.2125C676.283 75.9199 667.036 75.7152 657.855 76.2125C655.859 76.3295 653.864 76.4758 651.868 76.6514C652.184 88.9303 651.751 101.215 650.571 113.453C650.338 115.472 647.244 116.671 645.847 114.565C641.656 107.749 637.498 100.933 633.241 94.087C630.679 90.0792 628.085 86.1298 625.424 82.1805C621.061 83.7042 616.854 85.554 612.851 87.7096C600.843 94.1748 588.802 102.951 574.232 103.946C573.75 103.926 573.283 103.786 572.887 103.543C572.491 103.3 572.181 102.963 571.993 102.571C571.805 102.18 571.747 101.749 571.825 101.33C571.904 100.911 572.116 100.519 572.436 100.201ZM646.978 77.2072C641.332 77.95 635.768 79.1147 630.347 80.6885C635.835 88.9382 641.091 97.305 646.246 105.73C646.679 99.8793 646.878 94.2918 646.945 88.5579C646.978 84.7841 646.978 81.0103 646.978 77.2072ZM627.719 76.6514C630.746 75.7445 633.839 74.9547 636.966 74.3111C640.093 73.6675 643.619 73.1117 646.945 72.7021C646.945 69.3866 646.945 66.0808 646.945 62.7848C643.619 61.5269 640.292 60.2397 637.199 58.9232C632.654 62.788 627.892 66.4494 622.929 69.8936C624.426 71.9707 625.89 74.0185 627.32 76.1248L627.719 76.6514ZM661.647 68.1968L651.901 64.6572C651.901 67.1438 651.901 69.6595 651.901 72.1754C658.254 71.6195 664.641 71.444 670.994 71.444L661.647 68.1968ZM640.958 55.5298C642.987 56.3489 644.982 57.1679 647.045 57.9578C647.045 55.0324 647.045 51.9606 647.278 48.9767C645.781 50.7319 644.184 52.458 642.488 54.1255L640.958 55.5298ZM620.268 66.1199C624.426 63.1944 628.451 60.2689 632.309 56.8754C621.783 52.4906 611.534 47.6077 601.608 42.2482C602.073 42.804 602.506 43.3599 602.972 43.8865C608.892 51.1025 614.625 58.5137 620.168 66.1199L620.268 66.1199ZM582.415 97.8608C587.235 96.2387 591.85 94.1799 596.186 91.7174C602.373 88.3824 608.294 84.6671 614.647 81.5954C617.275 80.3374 620.002 79.1966 622.763 78.1727C621.499 76.3004 620.168 74.4573 618.838 72.585C606.63 81.0102 593.758 88.7919 582.415 97.8608Z" fill="white"/>
<path d="M1101.88 112.489C1102.15 112.733 1102.35 113.027 1102.47 113.349C1102.59 113.671 1102.63 114.012 1102.58 114.348C1102.53 114.684 1102.4 115.007 1102.19 115.292C1101.98 115.578 1101.71 115.819 1101.38 115.999C1093.56 120.007 1084.75 116.496 1076.63 115.18L1060 112.605C1057.81 117.842 1055.25 123.02 1053.65 128.374C1052.25 133.084 1051.29 138.525 1046.33 141.421C1045.85 141.668 1045.29 141.767 1044.73 141.704C1044.18 141.64 1043.67 141.418 1043.27 141.07C1039.18 137.56 1038.15 131.972 1037.18 127.233C1035.88 120.973 1034.15 114.789 1031.99 108.715L1027.87 108.276C1024.29 111.023 1020.3 113.317 1016 115.092C1011.17 116.935 1005.25 117.667 1001.46 113.776C1001.08 113.421 1000.84 112.97 1000.76 112.487C1000.69 112.004 1000.8 111.513 1001.06 111.084C1002.53 108.938 1004.59 107.143 1007.03 105.858C1009.48 104.572 1012.25 103.835 1015.1 103.712C1018.78 103.355 1022.49 103.355 1026.17 103.712L1029.13 101.46C1027.87 98.1538 1026.54 94.8481 1025.18 91.6009C1019.79 78.7582 1012.77 66.4714 1008.05 53.5702C1007.93 53.1898 1007.93 52.7899 1008.05 52.4103C1008.17 52.0307 1008.4 51.6846 1008.71 51.4065C1009.03 51.1284 1009.42 50.928 1009.85 50.8251C1010.29 50.7223 1010.74 50.7206 1011.17 50.8203C1014.8 52.0385 1018.07 53.9696 1020.72 56.4664C1024.04 59.187 1027.37 61.9663 1030.5 64.7747C1037.15 70.6255 1044.1 76.1253 1051.25 81.3911C1055.16 77.8221 1059.09 74.2921 1063.06 70.8011C1067.21 67.1156 1071.65 63.7031 1076.37 60.5913C1078.3 59.3919 1080.19 58.1925 1082.06 56.9638C1084.27 53.1607 1086.49 49.3576 1088.71 45.5545C1090.17 42.9801 1094.53 45.2328 1093.07 47.8072C1092.53 48.7726 1091.97 49.7087 1091.4 50.7326C1091.82 50.8591 1092.2 51.0717 1092.5 51.3526C1092.8 51.6334 1093.03 51.9743 1093.15 52.3468C1093.28 52.7192 1093.3 53.1122 1093.21 53.4931C1093.13 53.8739 1092.94 54.2315 1092.67 54.5356C1090.68 56.5426 1088.45 58.3481 1086.01 59.9185L1080.36 69.6894C1076 77.3833 1071.81 85.1064 1068.05 93.0929C1073.62 96.6851 1079.45 99.9493 1085.51 102.864C1091.58 105.187 1097.12 108.447 1101.88 112.489ZM1055.31 84.1411C1058.17 86.1889 1061.1 88.1782 1064.09 89.9919C1065.19 87.6223 1066.36 85.2235 1067.42 82.8831C1070.48 77.0323 1073.71 71.1814 1077.03 65.3305C1071.74 69.0458 1066.77 73.104 1062.16 77.4711C1060.04 79.87 1057.74 82.0348 1055.41 84.1996L1055.31 84.1411ZM1035.62 104.619C1040.01 105.146 1044.34 105.731 1048.69 106.287C1051.32 106.638 1053.95 106.989 1056.54 107.398C1058.34 103.01 1060.2 98.6221 1062.13 94.2924L1061.6 93.9412C1058.27 91.8056 1054.95 89.5823 1051.82 87.359C1046.3 92.537 1040.74 97.715 1034.89 102.571L1035.62 104.619ZM1033.13 98.0369C1037.48 94.2923 1041.61 90.2845 1045.63 86.3351C1046.3 85.6623 1047.03 85.0187 1047.73 84.3751C1046.16 83.2342 1044.6 82.0933 1043.07 80.9231C1037.28 76.535 1031.86 71.7957 1026.44 67.0857C1023.65 64.6868 1020.89 62.288 1018.02 59.9476C1017.09 59.1578 1016.16 58.3386 1015.16 57.578C1017.36 62.9316 1019.85 68.1389 1022.35 73.3755C1026.17 81.7422 1029.97 89.9041 1033.23 98.2124L1033.13 98.0369ZM1017.49 109.183L1019.79 107.837C1018.66 107.837 1017.53 107.837 1016.46 107.837C1012.72 107.908 1009.16 109.226 1006.48 111.523C1007.51 111.977 1008.68 112.111 1009.81 111.903C1012.56 111.491 1015.2 110.628 1017.59 109.358L1017.49 109.183ZM1054.78 111.728C1048.95 110.889 1043.12 110.09 1037.28 109.329C1037.48 109.943 1037.72 110.558 1037.92 111.172C1039.58 116.095 1040.94 121.096 1041.97 126.15C1042.39 129.615 1043.52 132.985 1045.3 136.097C1046.42 134.452 1047.22 132.652 1047.66 130.773C1048.45 127.882 1049.42 125.031 1050.56 122.23C1052.05 118.895 1053.45 115.414 1054.88 111.903L1054.78 111.728ZM1095.36 113.103C1090.57 109.881 1085.42 107.097 1079.99 104.795C1075.25 102.408 1070.67 99.7906 1066.26 96.9545C1064.59 100.641 1062.93 104.385 1061.6 108.159C1066.22 108.861 1070.85 109.622 1075.47 110.382C1079.53 111.055 1083.49 111.903 1087.51 112.693C1090.08 113.379 1092.79 113.578 1095.46 113.278L1095.36 113.103Z" fill="white"/>
<path d="M282.318 199.432C282.318 198.842 282.584 198.277 283.058 197.86C283.532 197.443 284.175 197.209 284.846 197.209C285.516 197.209 286.159 197.443 286.633 197.86C287.107 198.277 287.374 198.842 287.374 199.432L287.374 201.538C287.39 201.616 287.39 201.695 287.374 201.773C286.618 208.542 284.595 215.155 281.386 221.344C279.058 226.258 276.464 231.056 273.669 235.795L276.264 236.293C285.145 237.96 294.026 239.774 303.041 240.827C308.862 241.529 317.31 242.085 320.869 246.853C321.168 247.351 321.241 247.929 321.075 248.471C320.908 249.014 320.514 249.481 319.971 249.779C312.72 252.704 305.469 255.63 298.284 258.555C291.099 261.481 284.214 264.582 277.428 267.887L277.827 268.707C283.116 278.916 286.576 290.004 293.394 299.541C294.891 301.676 291.332 304.133 289.403 302.261C282.451 295.386 275.133 288.804 267.616 282.398L260.963 276.722C250.062 282.999 240.075 290.427 231.226 298.838C229.297 300.681 225.538 298.166 227.235 296.118C233.009 289.234 238.382 282.096 243.334 274.733C245.163 272.042 246.959 269.321 248.722 266.6C241.637 260.749 234.519 255.103 227.434 249.311C220.981 244.045 213.93 239.364 207.31 234.245C204 231.87 200.867 229.309 197.93 226.58C195.419 223.641 192.503 220.988 189.249 218.681C188.785 218.423 188.429 218.041 188.231 217.591C188.033 217.141 188.005 216.647 188.15 216.182C188.295 215.717 188.607 215.305 189.038 215.008C189.469 214.71 189.998 214.541 190.546 214.527C200.885 214.357 211.15 216.091 220.682 219.618C229.763 222.543 238.544 226.258 247.558 229.359C250.885 230.559 254.51 231.553 258.069 232.46C257.447 228.419 257.224 224.337 257.404 220.261C257.404 217.336 262.593 217.336 262.46 220.261C262.253 224.76 262.531 229.266 263.292 233.718L268.281 234.771C271.594 229.401 274.592 223.884 277.262 218.243C280.261 212.303 281.975 205.924 282.318 199.432ZM264.456 238.487C264.437 238.593 264.437 238.702 264.456 238.808C264.456 239.335 264.755 239.832 264.921 240.33C265.221 239.832 265.52 239.306 265.853 238.808L264.456 238.487ZM251.151 262.739C254.71 257.18 258.169 251.563 261.595 245.947C260.597 243.08 259.766 240.154 259.1 237.17C253.381 235.778 247.761 234.088 242.269 232.109C228 226.931 212.965 219.852 197.265 218.886C198.762 220.32 200.159 221.812 201.656 223.304C205.02 226.549 208.631 229.589 212.466 232.402C219.119 237.521 226.303 242.407 232.856 247.79C238.81 252.909 244.93 257.795 251.151 262.739ZM263.89 251.71L259.333 258.965C257.903 261.276 256.439 263.558 254.976 265.869L261.129 271.105C264.223 269.35 267.35 267.683 270.543 266.103C268.314 261.685 266.086 257.327 264.09 252.763C263.971 252.416 263.871 252.065 263.79 251.71L263.89 251.71ZM257.005 273.592L252.415 269.818C249.754 273.894 247.015 277.921 244.199 281.9L244.897 281.403C248.722 278.624 252.747 276.049 256.905 273.592L257.005 273.592ZM272.871 270.228C270.31 271.544 267.749 272.919 265.221 274.294C270.742 278.916 276.197 283.597 281.52 288.424C280.821 286.961 280.189 285.498 279.557 284.036C277.395 279.238 275.1 274.791 272.771 270.228L272.871 270.228ZM271.241 239.862C269.878 242.114 268.514 244.338 267.117 246.561C269.5 252.451 272.22 258.231 275.266 263.879C287.806 257.853 300.912 252.617 313.951 247.409C312.115 246.783 310.208 246.332 308.263 246.063C304.937 245.449 301.444 245.127 298.051 244.718C293.66 244.191 289.303 243.226 284.979 242.436C280.655 241.646 275.699 240.739 271.108 239.862L271.241 239.862Z" fill="white"/>
</svg>
