<svg width="641" height="356" viewBox="0 0 641 356" fill="none" xmlns="http://www.w3.org/2000/svg">
<path d="M611.361 25.4903C608.79 28.1453 605.666 30.2024 602.212 31.5159C598.757 32.8294 595.056 33.3671 591.37 33.091C589.117 32.8771 586.935 32.1833 584.972 31.0563C583.009 29.9292 581.31 28.395 579.989 26.5567C578.323 28.3308 576.242 29.6634 573.934 30.435C571.626 31.2066 569.163 31.393 566.765 30.9775C565.224 30.6291 563.788 29.9202 562.575 28.909C561.361 27.8978 560.405 26.6131 559.785 25.1606C556.717 28.9378 552.582 31.7018 547.918 33.091C545.186 34.0765 542.188 34.0291 539.488 32.9577C536.788 31.8863 534.573 29.865 533.26 27.2741C532.927 26.65 532.642 26.0018 532.407 25.3352C529.147 28.4232 524.872 30.2157 520.385 30.3764C517.932 30.4586 515.522 29.7193 513.538 28.2755C511.553 26.8318 510.107 24.7664 509.43 22.4073C507.394 24.8577 504.824 26.8097 501.917 28.1136C499.009 29.4176 495.843 30.039 492.658 29.9305C490.687 29.9056 488.74 29.4842 486.935 28.6914C485.129 27.8986 483.502 26.7506 482.149 25.3157C481.823 25.651 481.518 26.0072 481.238 26.3821C480.365 27.5261 480.016 29.0579 479.047 30.26C477.986 31.5329 476.722 32.6206 475.305 33.4788C472.668 35.0947 469.583 35.822 466.502 35.5535C462.597 35.1261 458.841 33.8121 455.521 31.7119C452.2 29.6116 449.404 26.7807 447.345 23.435C443.785 27.1675 439.695 30.3557 435.207 32.8971C429.778 35.8637 423.884 37.9577 419.017 33.5951C417.094 35.6006 414.786 37.1966 412.231 38.2873C405.328 41.1182 396.99 41.8162 390.495 37.7638C388.508 36.5346 386.782 34.9272 385.415 33.0327L385.221 33.3236C381.731 38.4618 376.69 43.4255 369.709 43.3285C360.015 43.1928 356.137 35.5728 354.973 27.2547C354.023 28.9803 353.034 30.6479 351.91 32.2766C348.187 37.8414 342.448 42.7275 335.002 40.7498C332.541 40.1347 330.349 38.732 328.759 36.7556C326.317 39.6154 322.947 41.5238 319.238 42.1458C316.401 42.631 313.483 42.1897 310.916 40.8871C308.35 39.5845 306.271 37.49 304.987 34.9135C304.452 33.8529 304.042 32.7337 303.766 31.5785C302.171 33.1115 300.329 34.3637 298.317 35.2819C289.088 39.4701 277.377 36.93 271.657 28.8058C271.502 28.5871 271.402 28.3344 271.366 28.069C270.319 26.8862 269.252 25.7229 268.225 24.5014C265.762 33.0909 259.616 40.8467 250.483 42.8438C248.05 43.4407 245.501 43.3627 243.109 42.6178C240.717 41.873 238.574 40.4896 236.911 38.6169C235.548 39.7213 234.041 40.6346 232.432 41.3314C227.229 43.6857 221.342 44.0446 215.892 42.3397C213.373 41.4955 211.074 40.0977 209.165 38.2489C207.255 36.4002 205.785 34.1475 204.86 31.6561C204.424 32.688 203.878 33.6697 203.231 34.5839C201.644 36.7111 199.771 38.6096 197.666 40.2262C195.156 42.2509 191.987 43.2776 188.767 43.1094C185.546 42.9413 182.501 41.5901 180.216 39.315C178.17 41.6386 175.465 43.2824 172.46 44.0266C169.986 44.5699 167.427 44.6024 164.94 44.1223C162.452 43.6423 160.089 42.6596 157.995 41.2345C157.317 40.8079 156.638 40.362 156.056 39.8966C154.347 42.315 151.997 44.2086 149.27 45.3645C145.556 46.8812 141.453 47.1627 137.567 46.1676C133.68 45.1724 130.217 42.9534 127.69 39.8384C126.25 41.7308 124.422 43.2931 122.328 44.4202C120.235 45.5473 117.924 46.213 115.552 46.3727C112.057 46.4906 108.584 45.7771 105.418 44.2905C102.253 42.8039 99.486 40.5869 97.3449 37.8219C95.4426 40.2401 93.0484 42.2268 90.3209 43.6507C87.5934 45.0746 84.5947 45.9033 81.5231 46.0819C78.9019 46.2294 76.2991 45.5634 74.0709 44.1751C71.8427 42.7868 70.0978 40.744 69.075 38.3261C65.4359 40.5786 61.2884 41.8789 57.0147 42.107C54.2774 42.299 51.5409 41.7239 49.1124 40.4463C46.684 39.1687 44.6599 37.2392 43.2676 34.8747C41.1929 39.9159 38.0518 44.8216 32.4094 45.6165C26.0497 46.5278 21.4156 41.409 18.0224 35.9218C15.8201 40.0737 12.358 43.4204 8.13379 45.4808C6.19483 46.3921 4.2559 43.5418 6.33058 42.6887C10.6652 40.522 14.0978 36.8971 16.0253 32.451C15.2304 30.9774 14.5323 29.6008 13.9119 28.3986C12.2444 25.2188 9.68495 20.9918 10.1309 17.2884C10.4605 14.5157 13.2332 11.4716 15.017 9.33872C16.8009 7.20588 19.5736 4.80155 22.0361 7.01196C23.259 8.53703 23.849 10.4738 23.6842 12.4217C23.7507 19.1949 22.4379 25.9107 19.8257 32.1602C23.0831 37.6281 29.3653 46.7993 35.8026 40.5171C38.0712 38.3067 39.4866 34.4093 40.6306 31.5978L41.0378 30.5509C40.24 28.5993 39.5918 26.59 39.0988 24.5402C37.7416 18.607 35.6475 8.29168 40.8439 3.38613C41.3868 2.41666 42.7829 1.97069 43.7136 1.56351C43.9567 1.48215 44.216 1.46087 44.4692 1.50138C44.7224 1.5419 44.9621 1.643 45.1678 1.79618C45.401 1.94624 45.5994 2.14457 45.7494 2.37784C45.7965 2.47127 45.8354 2.56862 45.8658 2.66873C48.1866 11.2594 47.9643 20.3389 45.2259 28.8057C45.032 29.4068 44.8381 30.0467 44.6249 30.7447C45.4071 32.6857 46.567 34.452 48.0374 35.9411C49.5483 37.2295 51.3418 38.1434 53.2723 38.6083C55.2028 39.0732 57.2158 39.0762 59.1476 38.6168C62.1756 38.0279 65.0848 36.9403 67.7565 35.3982C67.4085 34.2973 67.1555 33.1686 67.0003 32.0245C66.3734 27.4057 66.1528 22.7408 66.3411 18.0834C66.3184 14.0194 67.6335 10.0608 70.0833 6.81812C70.1589 6.67436 70.2647 6.54867 70.3935 6.44971C70.5472 6.27293 70.7441 6.13898 70.965 6.06083C71.1858 5.98269 71.4231 5.96292 71.6538 6.00367L71.7702 6.00367L72.061 6.00367C72.3035 6.06683 72.5245 6.19408 72.7008 6.37208C78.033 12.0338 82.7834 20.3326 79.526 28.0302C77.7715 31.4802 75.0844 34.3687 71.7702 36.3677C72.43 38.3142 73.7168 39.9869 75.429 41.1237C77.1413 42.2606 79.1823 42.7973 81.2323 42.6499C83.9941 42.4389 86.6744 41.6162 89.079 40.2412C91.4835 38.8663 93.552 36.9735 95.1345 34.7002C95.0182 34.487 94.9019 34.2736 94.8049 34.0604C93.0454 30.6806 92.151 26.9175 92.2018 23.1075C92.2525 19.2975 93.2468 15.5594 95.0958 12.2278C95.1624 12.1056 95.2474 11.9945 95.3478 11.8982C95.6808 11.5916 96.1167 11.4214 96.5693 11.4214C97.0219 11.4214 97.4579 11.5916 97.7909 11.8982C98.6052 12.5962 99.7298 13.5657 99.7298 14.6903C101.417 17.7631 102.268 21.2252 102.197 24.7302C102.125 28.2352 101.134 31.6599 99.3227 34.6614C100.908 37.2431 103.137 39.3676 105.793 40.8261C108.448 42.2846 111.437 43.0267 114.466 42.9795C116.699 42.9352 118.887 42.3404 120.835 41.2479C122.783 40.1554 124.432 38.599 125.634 36.7167C125.556 36.5851 125.484 36.4491 125.421 36.3095C123.028 31.393 121.737 26.013 121.64 20.5458C121.291 18.0549 121.537 15.5169 122.357 13.1391C123.321 11.3287 124.737 9.79884 126.468 8.69885C126.798 8.50903 127.18 8.42758 127.559 8.46583C127.938 8.50409 128.296 8.66011 128.581 8.91211C134.146 14.38 133.72 23.6289 131.994 30.5897C131.464 32.7409 130.656 34.8137 129.59 36.7555C133.933 43.3286 144.151 45.7135 150.744 40.4977C151.779 39.6503 152.687 38.6576 153.439 37.5505C150.906 35.1967 148.961 32.2805 147.762 29.0371C146.563 25.7937 146.143 22.3139 146.536 18.8783C146.924 16.0087 148.96 10.1725 152.702 9.8623C157.297 9.51329 158.984 17.3854 159.508 20.4102C160.549 25.9422 159.922 31.6589 157.704 36.8331C159.322 38.0888 161.095 39.1314 162.978 39.9353C165.031 40.851 167.284 41.2282 169.523 41.0314C171.762 40.8347 173.914 40.0704 175.775 38.8108C176.624 38.2272 177.382 37.5216 178.025 36.7167C176.601 34.8137 175.609 32.6237 175.116 30.2988C173.665 24.8571 173.698 19.1258 175.213 13.7014C176.241 10.7154 178.82 4.87913 183.202 6.39151C188.049 8.05901 187.409 15.7567 186.886 19.5182C186.427 24.6705 185.192 29.7238 183.221 34.5063C182.899 35.1741 182.536 35.8216 182.135 36.4452C183.232 37.6483 184.597 38.5743 186.121 39.1473C187.644 39.7203 189.282 39.9239 190.899 39.7415C194.331 39.121 196.91 36.4453 199.062 34.0604C201.022 31.6012 202.496 28.7914 203.406 25.781C202.674 20.6191 203.172 15.3574 204.86 10.4246C204.956 10.1201 205.133 9.84751 205.372 9.6358C205.611 9.42409 205.903 9.28124 206.217 9.22242C206.482 9.14356 206.764 9.13988 207.031 9.21177C207.298 9.28367 207.54 9.42836 207.729 9.62964C209.668 11.6849 209.494 13.5075 209.378 16.2414C209.252 19.3746 208.528 22.4548 207.245 25.3157C207.128 25.5678 207.031 25.8198 206.934 26.0719C208.001 32.1602 211.297 37.5504 218.103 39.3343C220.981 40.0891 223.998 40.1488 226.904 39.5082C229.81 38.8677 232.522 37.5454 234.817 35.6503C231.069 29.6847 229.763 22.5046 231.171 15.6015C232.238 11.2971 236.639 4.16178 241.622 9.4745C246.605 14.7872 245.306 22.6594 243.348 28.6313C242.49 31.3809 241.115 33.9411 239.296 36.1739C240.061 37.0694 240.949 37.8526 241.932 38.5005C246.256 41.2732 252.054 39.4312 255.874 36.6779C260.995 32.8333 264.462 27.1833 265.568 20.8755C265.138 20.2188 264.756 19.5319 264.424 18.8203C262.97 15.7373 261.826 10.3082 265.917 8.7958C266.185 8.72768 266.465 8.72768 266.732 8.7958C267.137 8.71328 267.558 8.78224 267.915 8.98953C268.272 9.19682 268.541 9.52805 268.671 9.92043C269.464 13.248 269.615 16.6962 269.117 20.0805C269.386 20.4843 269.677 20.8728 269.989 21.244C272.083 23.9197 274.526 26.324 276.582 28.9998C276.702 29.157 276.794 29.3341 276.853 29.5232C279.646 31.8468 283.049 33.3182 286.655 33.7617C290.262 34.2052 293.919 33.6021 297.193 32.0245C299.562 30.8605 301.611 29.1368 303.165 27.0026C303.408 21.8515 304.267 16.7481 305.724 11.8013C305.789 11.4558 305.975 11.1447 306.248 10.9242C306.522 10.7038 306.866 10.5885 307.217 10.5991L307.391 10.5991C307.758 10.5538 308.129 10.6426 308.436 10.8493C308.742 11.056 308.963 11.3665 309.059 11.7236C309.059 11.84 309.059 11.9563 309.195 12.092C309.363 12.5445 309.518 12.9904 309.66 13.4299C309.714 13.6791 309.714 13.937 309.66 14.1861C309.718 14.6497 309.718 15.1186 309.66 15.5821C309.986 19.9314 308.883 24.2681 306.519 27.9334C306.635 29.5797 307.014 31.1967 307.644 32.7225C308.207 34.0384 309.04 35.2213 310.09 36.1945C311.139 37.1677 312.381 37.9095 313.736 38.372C315.09 38.8345 316.527 39.0073 317.953 38.8791C319.378 38.751 320.761 38.3248 322.011 37.6281C323.844 36.6255 325.459 35.2676 326.762 33.6338C324.714 28.5036 324.123 22.9075 325.055 17.463C325.521 14.2249 326.839 8.69894 331.415 8.98978C335.991 9.28062 336.611 14.8067 336.185 18.2192C335.572 23.7224 333.745 29.0207 330.833 33.7308C331.643 35.0655 332.808 36.148 334.199 36.857C335.589 37.566 337.15 37.8734 338.706 37.7445C344.522 37.4924 347.819 32.1797 350.339 28.0497C351.846 25.577 353.143 22.9827 354.217 20.2939C354.267 20.1357 354.325 19.9803 354.392 19.8285C354.475 16.7469 354.826 13.6784 355.439 10.6573C355.54 10.3424 355.728 10.0625 355.981 9.84944C356.234 9.63637 356.542 9.49877 356.87 9.45227C357.197 9.40577 357.531 9.45227 357.834 9.58648C358.136 9.72068 358.395 9.93724 358.58 10.2113C360.228 13.333 359.103 17.017 357.901 20.2163C357.727 30.0661 360.247 42.107 371.745 39.7221C377 38.6363 380.412 34.1573 382.952 30.0274L383.224 29.562C382.237 27.32 381.54 24.9613 381.149 22.543C380.257 17.5018 380.548 10.9093 385.299 7.47735C390.049 4.04541 393.19 10.2501 392.725 14.0504C391.882 19.6235 389.959 24.9784 387.063 29.8141C392.88 39.5089 408.256 39.2374 415.915 31.501L416.535 30.8418C413.995 26.9639 413.956 22.0002 414.073 17.3855C414.189 11.8983 415.624 6.85698 420.432 3.44442C420.759 3.25329 421.138 3.17093 421.514 3.20927C421.891 3.24761 422.245 3.40464 422.526 3.65768C427.665 8.66017 427.897 15.5628 425.745 21.942C424.642 25.1786 423.025 28.2165 420.956 30.9387C421.175 31.1604 421.408 31.3676 421.654 31.5592C426.075 35.1657 433.288 30.1437 437.165 27.5068C440.302 25.2851 443.183 22.723 445.755 19.8673C445.085 17.3746 445.152 14.7412 445.949 12.286C446.938 9.2225 452.192 1.75749 455.644 7.14777C458.164 11.2196 452.852 16.8426 450.428 19.7898C450.215 20.0418 449.982 20.2938 449.769 20.5653C449.841 20.7578 449.925 20.9456 450.021 21.1277C453.782 28.7089 465.843 35.9412 474.102 30.0856C476.332 28.5344 476.817 26.5373 478.213 24.482C478.849 23.7456 479.378 22.9231 479.784 22.0389C478.512 19.583 477.907 16.8364 478.03 14.0735C478.152 11.3107 478.998 8.6284 480.482 6.29464C479.9 4.95676 481.374 3.59952 483.216 3.77402C483.576 3.76556 483.93 3.87443 484.224 4.0842C484.518 4.29398 484.735 4.59329 484.844 4.93735C484.854 5.04702 484.854 5.15738 484.844 5.26705C484.844 5.26705 484.844 5.26705 484.844 5.38339C485.174 9.83881 484.861 14.3185 483.914 18.6846C483.758 19.6346 483.603 20.6235 483.371 21.5736C484.538 23.2587 486.131 24.6054 487.987 25.477C489.842 26.3487 491.895 26.7144 493.938 26.5373C496.81 26.3656 499.599 25.5085 502.072 24.0377C504.544 22.5669 506.629 20.5252 508.15 18.0835C507.017 12.9955 507.855 7.66702 510.497 3.17296C510.65 2.89864 510.881 2.67531 511.16 2.53059C511.439 2.38586 511.754 2.32612 512.067 2.35863C512.426 2.32141 512.787 2.41734 513.08 2.62822C513.373 2.8391 513.578 3.15019 513.657 3.50255C513.993 4.31347 514.209 5.16921 514.297 6.04257C514.288 6.10689 514.288 6.17222 514.297 6.23653C514.327 6.40971 514.327 6.58679 514.297 6.75997C514.306 6.85021 514.306 6.94121 514.297 7.03145C514.578 11.0793 513.676 15.1217 511.699 18.6652C512.959 24.3075 516.721 28.6701 523.643 26.421C526.601 25.3797 529.262 23.6365 531.399 21.3409C531.142 18.3509 531.325 15.3394 531.941 12.4024C532.523 9.39701 533.531 3.58018 537.758 3.21178C542.354 2.82399 542.121 7.92334 541.365 10.7542C540.137 15.0331 538.009 18.9998 535.121 22.3879C535.289 23.989 535.861 25.5211 536.784 26.8404C537.707 28.1597 538.949 29.223 540.395 29.9305C545.107 31.8694 551.001 28.6507 554.394 25.6647C555.866 24.365 557.168 22.8865 558.272 21.2634C557.972 20.0613 557.732 18.8446 557.555 17.6182C557.015 14.9002 557.057 12.0986 557.678 9.39811C558.3 6.6976 559.487 4.15954 561.161 1.95142C561.52 1.20544 562.122 0.603688 562.868 0.245133C563.07 0.126474 563.294 0.0489069 563.526 0.0168474C563.759 -0.0152121 563.995 -0.00116629 564.222 0.058268C564.449 0.117702 564.662 0.221386 564.849 0.363241C565.035 0.505096 565.193 0.682401 565.311 0.88502C565.435 1.08257 565.502 1.31073 565.505 1.5442C566.907 8.53158 565.634 15.7909 561.937 21.8838C562.235 23.2815 562.903 24.5735 563.872 25.6242C564.841 26.6748 566.075 27.4456 567.444 27.8558C569.441 28.1565 571.482 27.9157 573.354 27.1586C575.227 26.4015 576.862 25.1558 578.088 23.5514C576.785 20.4928 576.245 17.1629 576.515 13.8492C576.785 10.5354 577.857 7.33715 579.64 4.53026C580.519 2.99597 581.724 1.67246 583.168 0.652359L583.498 0.400286C583.707 0.244728 583.954 0.148164 584.214 0.120876C584.473 0.0935866 584.735 0.136542 584.972 0.245137C585.238 0.294027 585.485 0.4218 585.678 0.611886C585.872 0.801972 586.004 1.04563 586.058 1.31154C587.089 4.95593 587.33 8.7785 586.765 12.5236C586.2 16.2687 584.841 19.8499 582.781 23.0278L582.063 24.0748C583.088 25.7182 584.482 27.0997 586.135 28.1095C587.788 29.1193 589.654 29.7295 591.584 29.8917C594.636 30.1091 597.699 29.6715 600.568 28.6081C603.438 27.5447 606.047 25.88 608.22 23.7258C608.763 23.2023 609.305 22.6206 609.829 22.0195C609.829 21.8256 609.829 21.6318 609.693 21.4379C608.763 15.0298 610.234 8.50415 613.823 3.11475C613.988 2.87082 614.211 2.67116 614.471 2.53309C614.732 2.39502 615.022 2.32279 615.316 2.32279C615.611 2.32279 615.901 2.39502 616.161 2.53309C616.422 2.67116 616.644 2.87082 616.809 3.11475C620.687 9.37756 618.011 16.9201 613.726 22.6206C615.025 26.8475 618.438 29.8723 625.011 29.4457C625.241 29.4207 625.474 29.4444 625.694 29.5153C625.915 29.5862 626.118 29.7028 626.29 29.8573C626.462 30.0119 626.6 30.201 626.694 30.4124C626.789 30.6238 626.838 30.8527 626.838 31.0842C626.838 31.3157 626.789 31.5445 626.694 31.7559C626.6 31.9673 626.462 32.1565 626.29 32.3111C626.118 32.4657 625.915 32.5822 625.694 32.6531C625.474 32.724 625.241 32.7476 625.011 32.7226C622.283 32.947 619.547 32.3851 617.128 31.1034C614.709 29.8217 612.707 27.8739 611.361 25.4903ZM17.6346 28.3404C18.2984 26.3731 18.836 24.3655 19.244 22.3297C19.8786 19.2232 20.1776 16.0575 20.1359 12.887C20.1359 11.9757 19.8257 10.948 19.8451 10.153C19.8451 9.82343 19.5349 9.57143 19.6124 9.49387C18.3133 9.78471 15.9478 13.5074 15.2885 14.4963C13.8149 16.6485 13.1557 17.7149 13.9506 20.3131C14.8887 23.1127 16.1238 25.8038 17.6346 28.3404ZM42.841 24.8891C42.9767 24.3269 43.1318 23.7646 43.2482 23.2023C44.4019 17.6124 44.4019 11.8456 43.2482 6.25574C43.0936 6.27442 42.9374 6.27442 42.7828 6.25574C41.1929 8.3692 41.251 11.7236 41.3092 14.0115C41.392 17.7104 41.9061 21.387 42.841 24.9667L42.841 24.8891ZM70.917 33.343C73.5171 31.5482 75.5384 29.0352 76.7339 26.1107C78.285 21.5154 76.3849 16.6292 73.5734 12.538C73.0338 12.8125 72.4334 12.9458 71.8283 12.9257C71.4242 12.9409 71.0199 12.9018 70.6262 12.8094C68.9393 17.9089 69.87 24.133 70.2384 29.1355C70.3492 30.5542 70.5762 31.9614 70.917 33.343ZM97.3837 30.9968C98.475 28.7331 99.0191 26.2448 98.9719 23.7322C98.9248 21.2197 98.2877 18.7534 97.1122 16.5323L96.9959 16.5323C95.3816 21.2436 95.5193 26.3788 97.3837 30.9968ZM127.573 32.9357C128.038 31.7718 128.407 30.5722 128.678 29.3487C129.803 24.1717 130.52 16.9976 127.127 12.4023C124.219 15.4077 124.839 19.9448 125.305 23.9003C125.648 27.0259 126.432 30.0873 127.631 32.994L127.573 32.9357ZM155.009 34.3705C156.673 29.7369 156.969 24.7227 155.862 19.9255C155.533 18.51 154.874 14.8647 153.536 13.934C152.198 13.0034 152.314 13.7208 151.597 14.8066C151.223 15.3692 150.905 15.9666 150.647 16.5904C149.666 19.3668 149.551 22.3756 150.317 25.2188C151.057 28.6552 152.697 31.8334 155.067 34.4288L155.009 34.3705ZM179.886 33.5174C180.421 32.3366 180.887 31.126 181.282 29.8916C182.3 26.3722 183.013 22.7719 183.415 19.1304C183.731 17.3586 183.816 15.5532 183.667 13.7595C183.667 12.9839 183.047 8.9316 180.817 10.095C180.39 10.3276 179.925 11.4329 179.634 11.937C177.627 16.0217 176.949 20.6322 177.695 25.1218C177.897 28.0577 178.661 30.9274 179.944 33.5756L179.886 33.5174ZM234.312 24.6565C234.817 27.6294 235.792 30.5027 237.201 33.1684C238.249 31.8251 239.068 30.3184 239.625 28.7089C241.293 23.9584 243.309 16.319 239.354 11.9951C236.697 9.12547 235.166 13.9341 234.584 15.873C233.863 18.7686 233.79 21.7877 234.371 24.7146L234.312 24.6565ZM329.321 29.911C331.069 26.3952 332.253 22.6263 332.831 18.7426C333.238 17.0607 333.238 15.3059 332.831 13.6239C332.326 12.1891 331.182 11.685 330.135 13.0228C328.526 14.9618 328.468 18.6069 328.352 21.0306C328.182 24.0407 328.497 27.0585 329.282 29.9692L329.321 29.911ZM385.551 25.6453C387.089 22.4749 388.297 19.1548 389.157 15.7373C389.671 14.3555 389.785 12.8571 389.487 11.4135C389.118 10.3664 388.924 10.1725 387.916 10.3083C385.628 10.5991 384.717 14.6515 384.523 16.4353C384.229 19.5624 384.579 22.7167 385.551 25.7035L385.551 25.6453ZM419.133 27.8752C423.496 21.7093 426.191 13.0422 421.402 7.07025C418.203 10.095 417.757 14.5352 417.795 18.704C417.598 21.8398 418.054 24.9825 419.133 27.9334L419.133 27.8752ZM449.012 16.3384C450.154 15.0587 451.137 13.646 451.94 12.1309C452.336 11.4408 452.605 10.6857 452.735 9.90105C452.735 8.66012 452.58 8.73777 451.611 9.51335C450.674 10.381 449.952 11.4543 449.501 12.6489C449.05 13.8434 448.883 15.1264 449.012 16.3966L449.012 16.3384ZM534.966 16.9008C536.288 14.8004 537.318 12.5304 538.03 10.1531C538.185 9.61023 539.096 6.8182 538.398 6.4498C537.7 6.08139 536.459 8.9122 536.459 9.3C535.628 11.7764 535.126 14.3515 534.966 16.9589L534.966 16.9008ZM561.026 16.3578C562.417 12.97 563.021 9.31006 562.79 5.65476C561.148 8.77894 560.511 12.3343 560.968 15.8343L561.026 16.3578ZM580.628 20.0612C580.764 19.8091 580.9 19.5571 581.016 19.3051C582.887 15.6654 583.852 11.6279 583.828 7.53561C583.225 7.83151 582.534 7.89361 581.889 7.71005C579.991 11.5605 579.543 15.9659 580.628 20.1194L580.628 20.0612ZM613.261 17.211C614.93 14.4398 615.646 11.1979 615.297 7.98154C614.068 10.9104 613.379 14.037 613.261 17.211Z" fill="#2384C2"/>
<path d="M9.0448 117.261C9.45198 116.35 9.83978 115.322 10.2082 114.43C8.2851 110.878 7.2108 106.929 7.06952 102.892C6.92823 98.8553 7.72376 94.8407 9.3938 91.1628C11.0225 87.8666 15.0362 87.5564 16.6261 91.1628C17.6731 93.5477 16.9557 96.5531 16.8006 99.0349C16.7327 101.64 16.4407 104.235 15.9281 106.791C15.4045 109.098 14.8035 111.619 13.9891 114.062C14.9986 115.734 16.3702 117.158 18.0027 118.23C23.0828 121.43 27.3485 118.444 29.9661 113.984C30.3927 113.247 30.7998 112.472 31.1876 111.696C31.115 111.558 31.0503 111.415 30.9937 111.27C29.4614 107.489 28.7207 103.433 28.8175 99.3547C28.9142 95.276 29.8462 91.2606 31.556 87.5564C31.7462 87.227 32.0377 86.9678 32.3871 86.8176C32.7365 86.6673 33.1251 86.634 33.4949 86.7225C38.8465 88.1574 39.1179 93.1793 38.6138 97.7746C38.1224 102.575 36.8929 107.271 34.9686 111.696C37.8188 117.125 43.1703 122.419 49.627 120.286C53.059 119.142 55.2306 116.078 57.2665 113.286L57.9646 112.317C56.8648 109.262 56.0406 106.115 55.5021 102.913C54.473 97.8047 55.119 92.5009 57.3441 87.7891C57.4451 87.5615 57.5617 87.3412 57.6931 87.1298C57.9064 86.742 58.1196 86.3542 58.3523 85.9664C58.4767 85.7435 58.6524 85.5534 58.8648 85.4118C59.0772 85.2702 59.3203 85.1811 59.5739 85.152C59.8355 85.0912 60.1083 85.0985 60.3663 85.1732C60.6243 85.2479 60.8588 85.3875 61.0475 85.5786C67.6593 90.9883 68.3573 98.7441 65.255 106.267C64.3151 108.5 63.1728 110.641 61.8425 112.666C62.4256 114.083 63.1328 115.445 63.9559 116.738C70.6647 127.111 84.5863 120.79 92.9238 116.156C96.8343 114.118 100.416 111.503 103.549 108.4C102.907 106.581 102.44 104.704 102.153 102.797C101.693 100.003 101.819 97.1436 102.522 94.4008C103.009 91.9755 104.172 89.7373 105.876 87.9441C106.646 87.5263 107.534 87.3812 108.397 87.5326C109.259 87.684 110.045 88.1229 110.626 88.7778C111.639 90.2015 112.23 91.8813 112.333 93.6252C112.694 96.3895 112.447 99.1992 111.61 101.858C110.772 104.517 109.365 106.962 107.485 109.02C108.917 112.599 111.252 115.746 114.263 118.152C117.274 120.558 120.858 122.142 124.664 122.748C126.841 123.107 129.07 122.965 131.183 122.333C133.296 121.702 135.238 120.597 136.86 119.103C137.516 118.442 138.101 117.714 138.606 116.931C135.474 112.605 133.718 107.437 133.564 102.099C133.564 98.6278 133.836 93.509 135.93 90.4648C138.295 87.1298 142.464 88.5258 144.384 91.6087C145.974 94.1488 145.78 97.1542 145.799 100.024C145.838 102.93 145.643 105.835 145.217 108.71C144.775 111.482 143.912 114.169 142.658 116.679C143.83 118.107 145.344 119.214 147.059 119.898C153.186 122.128 158.906 118.424 163.114 113.752C162.901 113.306 162.687 112.879 162.513 112.452C161.026 108.72 160.356 104.712 160.546 100.699C160.737 96.6859 161.784 92.7599 163.618 89.1851C163.813 88.8614 164.106 88.6081 164.455 88.4617C164.803 88.3154 165.189 88.2835 165.557 88.3707C167.714 88.7774 169.67 89.9041 171.103 91.5666C172.537 93.2291 173.364 95.3289 173.448 97.5225C174.108 103.145 171.742 107.877 168.62 112.414C168.194 113.015 167.767 113.616 167.283 114.217C169.764 118.289 173.623 121.818 178.722 121.41C185.334 120.906 189.794 115.419 192.567 109.932C190.725 104.651 190.911 98.8736 193.09 93.7223C193.592 92.0459 194.568 90.5508 195.902 89.4177C196.137 89.1809 196.436 89.0175 196.762 88.9472C197.089 88.8769 197.429 88.9029 197.741 89.022C198.053 89.141 198.323 89.348 198.52 89.6179C198.717 89.8877 198.831 90.2089 198.849 90.5424C199.879 97.1118 199.011 103.839 196.347 109.932C197.354 112.415 198.912 114.636 200.904 116.427C206.721 121.546 218.025 125.521 224.579 119.51C222.502 117.612 220.825 115.319 219.643 112.766C218.461 110.213 217.799 107.45 217.695 104.639C217.426 100.168 218.76 95.7471 221.457 92.171C222.119 91.4092 222.96 90.8236 223.905 90.4664C224.849 90.1092 225.867 89.9916 226.868 90.1241C227.868 90.2567 228.821 90.6352 229.639 91.2259C230.458 91.8166 231.118 92.6009 231.559 93.5089C232.877 95.7969 232.509 98.7635 232.625 101.265C232.8 104.017 232.761 106.778 232.509 109.525C232.216 112.893 231.14 116.146 229.368 119.026C238.19 124.455 251.317 120.732 260.061 113.868C259.437 112.63 258.943 111.33 258.588 109.99C257.155 104.554 257.384 98.8131 259.247 93.5089C259.635 92.4231 260.139 92.3068 260.721 91.5699C261.05 91.0852 261.108 90.2515 261.516 89.631C262.044 88.9431 262.741 88.4032 263.539 88.0635C264.338 87.7239 265.21 87.5959 266.072 87.692C270.726 88.1186 272.761 94.5753 272.781 98.3757C272.528 103.696 270.31 108.732 266.557 112.511C265.898 113.209 265.219 113.907 264.502 114.566C265.487 115.945 266.583 117.242 267.778 118.444C273.77 124.61 284.628 127.169 291.802 121.43C293.284 120.219 294.533 118.747 295.486 117.087C293.612 114.301 292.399 111.124 291.938 107.799C290.968 101.614 292.558 93.5671 300.081 92.7334C300.453 92.722 300.818 92.8338 301.119 93.0512C301.421 93.2685 301.642 93.5794 301.749 93.9355C303.278 101.61 302.468 109.568 299.422 116.776C301.006 118.294 302.886 119.47 304.944 120.231C307.002 120.991 309.195 121.32 311.385 121.197C313.617 121.137 315.801 120.542 317.755 119.463C319.708 118.383 321.374 116.85 322.612 114.993C320.121 110.943 318.781 106.291 318.734 101.536C318.502 98.2917 319.295 95.0562 321.003 92.2874C322.282 90.5811 324.299 88.7974 326.626 89.2433C329.515 89.825 330.872 93.509 331.298 96.0102C331.672 99.2899 331.267 102.611 330.116 105.705C329.262 108.933 328.08 112.064 326.587 115.051C327.715 116.705 329.239 118.05 331.021 118.965C332.802 119.879 334.784 120.333 336.786 120.286C339.049 120.096 341.234 119.369 343.16 118.165C345.085 116.961 346.696 115.315 347.857 113.364C348.843 111.652 349.605 109.821 350.126 107.915C348.585 104.446 347.805 100.687 347.838 96.8908C347.872 93.0948 348.718 89.3499 350.32 85.9083C350.377 85.5903 350.533 85.2985 350.766 85.0745C350.984 84.8376 351.267 84.6692 351.58 84.5898L351.871 84.5898L352.259 84.5898L352.491 84.5898L352.627 84.5898L352.879 84.7061C352.991 84.7709 353.096 84.849 353.189 84.9388C353.755 85.4834 354.268 86.0807 354.721 86.7226C354.854 86.8929 354.945 87.0927 354.985 87.3052C355.026 87.5177 355.015 87.7367 354.954 87.9441C356.069 90.2149 356.468 92.7709 356.098 95.2734C355.497 99.0156 354.721 102.835 353.868 106.519C353.868 106.868 353.693 107.217 353.596 107.547C353.935 108.147 354.304 108.729 354.702 109.292C358.948 115.109 367.014 116.602 373.82 115.38C380.572 114.074 386.813 110.872 391.813 106.151C390.673 102.11 390.163 97.9183 390.301 93.7223C390.475 88.5453 392.24 81.2548 399.026 81.8171C404.843 82.3212 404.843 89.4371 403.699 93.6447C402.163 98.6799 399.444 103.274 395.769 107.043C398.561 114.256 404.319 120.073 413.219 117.28C415.832 116.401 418.23 114.981 420.258 113.114C422.285 111.246 423.897 108.973 424.989 106.442C423.367 103.608 422.369 100.461 422.062 97.2111C421.754 93.961 422.144 90.6826 423.205 87.5952C423.298 87.2771 423.48 86.9922 423.729 86.7737C423.978 86.5552 424.284 86.4123 424.612 86.3614C424.939 86.3106 425.274 86.354 425.578 86.4866C425.882 86.6193 426.141 86.8356 426.326 87.1104C428.344 89.7949 429.63 92.9575 430.059 96.2885C430.487 99.6194 430.043 103.004 428.769 106.112C429.978 107.99 431.568 109.593 433.435 110.819C435.301 112.045 437.405 112.865 439.608 113.228C446.143 114.256 451.959 110.979 456.419 106.287C455.682 103.3 455.35 100.229 455.43 97.1542C455.546 92.617 456.225 83.407 462.158 82.4763C469.08 81.4293 468.848 91.1823 467.393 95.1765C465.746 99.5469 463.336 103.591 460.277 107.12C462.449 113.112 467.238 117.494 474.606 114.876C479.997 112.937 483.778 107.954 486.492 103.243C485.455 100.815 484.921 98.2035 484.921 95.5642C484.921 92.925 485.455 90.3131 486.492 87.8861C486.347 87.6606 486.27 87.398 486.27 87.1298C486.27 86.8616 486.347 86.5991 486.492 86.3736C487.218 85.2402 488.137 84.2427 489.207 83.4265C489.435 83.146 489.757 82.9579 490.114 82.8973C490.471 82.8366 490.837 82.9075 491.146 83.0968C491.365 83.1952 491.562 83.337 491.726 83.5136C491.889 83.6902 492.015 83.898 492.096 84.1245C494.694 90.6006 493.472 97.1542 490.486 103.087C493.821 108.904 500.588 112.782 508.111 109.118C510.636 107.898 512.845 106.113 514.568 103.902C511.401 99.8387 509.706 94.8213 509.759 89.6699C509.759 85.2491 511.698 78.327 517.205 77.8035C519.765 77.5514 521.703 81.1191 522.479 83.1356C523.354 85.7156 523.613 88.4648 523.235 91.1629C522.685 95.6235 521.155 99.9073 518.756 103.708C522.041 106.949 526.419 108.844 531.03 109.021C534.164 109.092 537.274 108.458 540.13 107.166C542.986 105.874 545.515 103.957 547.53 101.556C546.595 98.7859 546.092 95.8889 546.037 92.9661C545.824 87.1493 546.328 81.1773 551.854 77.7841C552.244 77.5517 552.709 77.4805 553.151 77.5855C553.593 77.6905 553.976 77.9635 554.22 78.3465C555.942 82.1866 556.601 86.4191 556.127 90.6011C555.652 94.7831 554.063 98.7608 551.524 102.118C552.463 104.015 553.783 105.699 555.402 107.062C557.191 108.671 559.417 109.714 561.798 110.059C564.179 110.404 566.609 110.036 568.781 109.001C569.917 108.394 570.961 107.631 571.883 106.733C569.219 102.324 568.106 97.15 568.723 92.0355C569.285 88.3902 573.183 81.3712 577.933 82.7672C580.047 83.3877 580.609 85.5981 581.016 87.4207C581.959 91.0101 581.837 94.796 580.667 98.3176C579.672 101.393 578.186 104.287 576.265 106.888C580.24 112.453 586.639 116.02 594.084 114.101C597.457 113.131 600.483 111.221 602.81 108.594C601.909 107.023 601.255 105.323 600.871 103.553C599.998 99.6749 601.452 94.9826 602.596 91.2016C602.897 89.6396 603.708 88.2214 604.901 87.1689C606.093 86.1164 607.602 85.4889 609.189 85.3848C609.486 85.3721 609.781 85.4392 610.044 85.579C610.306 85.7187 610.527 85.9262 610.682 86.1798C615.277 93.6254 612.737 101.556 607.657 108.071L607.25 108.594C608.725 110.327 610.781 111.463 613.034 111.788C615.287 112.113 617.58 111.604 619.485 110.358C619.867 110.153 620.312 110.1 620.732 110.211C621.151 110.323 621.512 110.589 621.741 110.957C621.971 111.325 622.052 111.767 621.968 112.192C621.884 112.618 621.64 112.995 621.288 113.248C619.483 114.372 617.432 115.042 615.312 115.2C613.191 115.359 611.064 115.002 609.111 114.159C607.514 113.496 606.069 112.512 604.865 111.27C602.913 113.554 600.462 115.358 597.7 116.542C594.939 117.725 591.942 118.257 588.942 118.096C585.942 117.935 583.019 117.085 580.4 115.612C577.782 114.139 575.538 112.082 573.842 109.602C572.197 111.13 570.248 112.293 568.122 113.015C565.329 113.8 562.375 113.821 559.571 113.073C556.768 112.326 554.216 110.84 552.184 108.768C551.04 107.65 550.049 106.385 549.236 105.007C545.747 108.69 541.177 111.168 536.187 112.084C532.764 112.737 529.234 112.566 525.889 111.585C522.545 110.603 519.482 108.841 516.953 106.442C512.668 111.696 506.502 115.089 499.153 113.635C494.86 112.803 491.061 110.326 488.567 106.733C488.16 107.353 487.752 107.974 487.326 108.575C483.138 114.391 476.894 119.724 469.1 119.045C463.283 118.521 459.773 114.682 457.757 109.874C452.347 114.896 445.425 118.017 437.999 116.33C433.782 115.352 430.015 112.99 427.296 109.622C423.418 116.563 416.341 121.759 408.042 121.372C400.538 121.003 395.827 115.962 393.19 109.738C386.387 115.882 377.538 119.27 368.371 119.239C365.322 119.201 362.316 118.51 359.557 117.213C356.797 115.915 354.348 114.04 352.375 111.716C351.515 114.132 350.16 116.342 348.397 118.205C346.634 120.068 344.502 121.543 342.137 122.535C339.128 123.795 335.787 124.027 332.633 123.196C329.478 122.366 326.685 120.518 324.687 117.94C323.532 119.45 322.137 120.76 320.557 121.818C317.941 123.425 314.98 124.387 311.92 124.627C308.859 124.866 305.785 124.375 302.951 123.194C300.987 122.419 299.19 121.273 297.658 119.82C295.292 123.523 291.637 126.217 287.401 127.382C277.706 130.078 267.235 124.959 261.709 116.951C254.089 122.768 243.794 126.51 234.448 124.707C231.868 124.194 229.409 123.201 227.196 121.779C226.45 122.523 225.617 123.174 224.714 123.718C215.621 129.283 202.804 124.28 196.367 116.99C195.546 116.066 194.825 115.059 194.215 113.984C190.511 120.073 184.636 125.521 176.88 124.998C174.402 124.696 172.027 123.826 169.941 122.453C167.855 121.081 166.116 119.244 164.859 117.087C161.969 120.271 158.218 122.548 154.059 123.64C151.701 124.244 149.224 124.203 146.887 123.521C144.55 122.839 142.44 121.54 140.777 119.762C139.704 121.23 138.394 122.508 136.899 123.543C134.699 124.899 132.248 125.797 129.693 126.183C127.137 126.57 124.53 126.437 122.027 125.792C118.327 124.868 114.878 123.135 111.927 120.717C108.977 118.3 106.599 115.259 104.965 111.813C101.734 114.842 98.1311 117.449 94.2423 119.568C84.5476 124.939 70.0636 130.582 61.8036 119.879C60.9314 118.733 60.1717 117.506 59.5351 116.214L59.0115 116.912C56.5103 120.131 53.9315 123.039 49.7434 124.028C42.6662 125.734 36.7718 121.216 33.1459 115.594C31.207 119.045 28.667 122.244 24.5176 123.136C22.3782 123.432 20.1986 123.176 18.1861 122.392C16.1735 121.608 14.395 120.322 13.0196 118.657L12.5155 118.075C12.1539 118.894 11.7326 119.684 11.2552 120.441C9.43256 123.369 6.77623 126.975 3.11161 127.673C0.939985 128.08 -0.0488983 124.842 2.12273 124.435C5.18627 123.66 7.82326 119.976 9.0448 117.261ZM604.303 102.448C604.502 103.612 604.868 104.742 605.389 105.802C605.893 105.123 606.377 104.425 606.823 103.727C609.771 99.0932 610.953 94.0325 608.472 89.0688C606.397 89.825 605.99 92.3844 605.544 94.4203C604.943 97.0185 603.799 99.8106 604.245 102.525L604.303 102.448ZM572.775 99.1902C573.205 100.818 573.803 102.397 574.559 103.902C576.233 101.342 577.44 98.506 578.127 95.5255C578.702 92.8932 578.561 90.1548 577.72 87.5952C577.002 85.4623 575.374 86.9553 574.21 88.2932C571.573 91.2792 571.806 95.6225 572.717 99.1902L572.775 99.1902ZM550.303 98.2207C551.765 95.8394 552.696 93.1702 553.03 90.3958C553.365 87.6214 553.096 84.8074 552.242 82.1467C549.275 85.2684 549.624 90.0964 549.799 94.2458C549.82 95.5819 549.969 96.9131 550.245 98.2207L550.303 98.2207ZM516.778 101.187C517.701 99.5607 518.443 97.8375 518.989 96.049C520.424 91.2404 521.238 85.4042 517.535 81.5457C512.047 83.8918 513.056 92.4813 514.665 97.0573C515.183 98.5108 515.873 99.8973 516.72 101.187L516.778 101.187ZM488.993 98.7635C490.242 95.5852 490.611 92.1288 490.06 88.7586C488.517 91.8567 488.119 95.4003 488.935 98.7635L488.993 98.7635ZM459.502 103.049C461.194 100.759 462.637 98.2956 463.806 95.7C464.776 93.5089 466.017 90.3291 465.008 87.9442C462.837 82.8641 460.2 89.5147 459.735 91.8221C458.986 95.519 458.888 99.318 459.444 103.049L459.502 103.049ZM426.753 101.497C427.249 98.5474 426.934 95.5182 425.842 92.7334C425.484 95.682 425.775 98.6731 426.695 101.497L426.753 101.497ZM394.334 100.528C394.47 101.459 394.644 102.467 394.877 103.339C397.433 100.376 399.366 96.9268 400.558 93.1987C401.323 91.1842 401.439 88.9805 400.887 86.8972C399.86 84.2796 396.641 85.249 395.42 87.2267C393.132 90.775 393.713 96.5725 394.276 100.586L394.334 100.528ZM351.677 101.323L351.677 101.051C352.246 98.7304 352.693 96.381 353.015 94.0131C353.071 93.2726 353.018 92.528 352.86 91.8026C352.559 91.8622 352.249 91.8622 351.948 91.8026C351.216 94.9238 351.104 98.1586 351.619 101.323L351.677 101.323ZM324.532 111.755C326.103 108.404 327.212 104.856 327.828 101.207C328.196 99.1513 328.7 93.8385 325.889 93.1405C323.077 92.4425 322.515 97.1735 322.321 98.9574C321.811 103.349 322.586 107.794 324.551 111.755L324.532 111.755ZM297.115 113.364C297.41 112.414 297.656 111.45 297.852 110.475C298.864 105.888 299.145 101.17 298.685 96.495C293.217 98.6472 294.885 108.342 297.095 113.364L297.115 113.364ZM262.757 111.58C264.218 110.184 265.518 108.63 266.634 106.946C267.851 105.255 268.679 103.317 269.061 101.269C269.443 99.2213 269.37 97.1147 268.845 95.0989C268.495 93.8618 267.827 92.7384 266.906 91.8414C265.297 90.4648 264.599 91.4343 263.881 92.8885C263.323 93.6891 262.805 94.5174 262.33 95.3703C260.938 99.3579 260.677 103.653 261.574 107.78C261.834 109.087 262.237 110.361 262.776 111.58L262.757 111.58ZM226.653 117.028C228.646 113.287 229.553 109.062 229.271 104.832C229.271 102.021 230.24 93.8773 226.149 93.3926C222.562 92.966 221.205 100.722 221.108 103.087C221.005 105.664 221.446 108.233 222.401 110.628C223.357 113.024 224.806 115.191 226.653 116.99L226.653 117.028ZM194.816 104.115C195.502 101.449 195.835 98.7046 195.805 95.952C194.83 98.5555 194.498 101.356 194.835 104.115L194.816 104.115ZM165.518 110.785C166.297 109.721 167.015 108.614 167.67 107.469C170.21 103.087 172.072 94.3039 166.1 92.0741C163.448 97.9919 163.246 104.719 165.538 110.785L165.518 110.785ZM140.312 113.499C141.155 111.318 141.716 109.037 141.979 106.713C142.238 104.363 142.341 101.999 142.29 99.636C142.29 97.4256 142.6 94.6336 140.932 92.8885C138.101 89.8831 137.52 96.0489 137.248 97.8909C136.611 101.903 137.053 106.011 138.528 109.796C139.064 111.071 139.686 112.309 140.389 113.499L140.312 113.499ZM106.089 105.084C107.708 102.632 108.682 99.8114 108.92 96.8827C109.185 95.2188 109.011 93.5146 108.416 91.9383C107.233 90.2321 106.089 94.1099 105.798 95.1958C105.037 98.4659 105.165 101.88 106.167 105.084L106.089 105.084ZM60.2913 108.575C60.8342 107.624 61.3189 106.636 61.7649 105.666C64.2274 100.14 64.3437 94.5753 60.6984 90.1545C60.4067 90.5415 60.045 90.8703 59.632 91.124C58.3065 94.9316 58.0582 99.0312 58.9146 102.971C59.3412 104.755 59.8065 106.674 60.3688 108.575L60.2913 108.575ZM33.1459 107.062C33.6736 105.505 34.1138 103.919 34.4644 102.312C35.0849 99.4033 36.9075 93.0048 33.9991 90.6781C31.9891 95.9118 31.6904 101.648 33.1459 107.062ZM11.8175 109.292C12.2053 107.838 12.5349 106.403 12.8258 105.007C13.2001 102.548 13.4202 100.067 13.485 97.5807C13.6839 96.5398 13.749 95.4777 13.6789 94.4202C14.0085 93.6059 13.7952 93.1793 13.039 93.1212C12.2053 92.5589 11.7981 92.9466 11.8175 94.3039C10.331 98.5206 10.1419 103.086 11.2746 107.411C11.4297 108.032 11.6042 108.671 11.8175 109.292Z" fill="#2384C2"/>
<path d="M638.758 195.362C635.013 195.317 631.425 193.855 628.714 191.271C626.775 195.459 623.789 199.667 619.33 200.287C616.802 200.627 614.23 200.227 611.925 199.136C609.619 198.046 607.679 196.31 606.339 194.141C604.343 194.924 602.195 195.243 600.058 195.071C597.921 194.9 595.852 194.244 594.007 193.152C592.494 192.276 591.175 191.102 590.129 189.7C588.479 192.433 586 194.567 583.054 195.795C580.108 197.022 576.847 197.278 573.745 196.526C569.964 195.529 566.714 193.112 564.671 189.778C561.352 193.465 556.882 195.918 551.99 196.739C549.498 197.035 546.972 196.79 544.583 196.021C541.389 198.434 537.603 199.941 533.625 200.385C529.646 200.828 525.622 200.192 521.975 198.542C519.847 197.545 517.966 196.088 516.468 194.276C515.693 195.486 514.753 196.583 513.676 197.534C505.649 204.417 493.763 200.791 487.209 193.869C486.822 193.462 486.453 193.035 486.085 192.589C484.345 194.649 482.079 196.197 479.528 197.068C476.976 197.939 474.237 198.1 471.601 197.534C469.039 197.093 466.635 195.998 464.621 194.354L464.621 194.451C463.286 196.21 461.499 197.575 459.451 198.402C457.403 199.228 455.169 199.484 452.987 199.143C448.691 198.672 444.616 196.991 441.237 194.296C437.464 191.464 434.436 187.758 432.415 183.496C432.415 183.496 432.415 183.321 432.415 183.244C432.114 184.656 431.706 186.043 431.193 187.393C428.944 193.21 423.612 198.542 416.903 199.182C415.134 199.388 413.341 199.231 411.634 198.721C409.927 198.211 408.342 197.358 406.976 196.215C403.612 198.397 399.808 199.806 395.835 200.343C391.863 200.879 387.82 200.529 383.999 199.318C379.105 197.87 374.781 194.936 371.629 190.922C366.219 197.98 356.718 202.73 348.128 198.542C347.902 198.424 347.682 198.295 347.469 198.154C343.955 201.462 339.5 203.596 334.72 204.259C329.939 204.923 325.071 204.083 320.789 201.858C318.973 200.846 317.341 199.535 315.961 197.98C313.272 200.759 309.625 202.41 305.762 202.594C302.826 202.654 299.91 202.089 297.209 200.935C294.508 199.782 292.083 198.067 290.096 195.905C288.683 197.717 286.987 199.288 285.074 200.559C279.583 204.053 273.008 205.432 266.576 204.437C263.769 203.897 261.181 202.55 259.131 200.559C257.466 202.338 255.568 203.884 253.488 205.154C243.619 211.223 228.282 210.428 221.069 200.753L220.313 199.686C217.695 202.656 214.184 204.697 210.308 205.503C203.547 206.631 196.603 205.543 190.511 202.401C188.081 201.056 185.861 199.364 183.919 197.379C181.522 200.01 178.338 201.794 174.843 202.465C171.348 203.136 167.73 202.657 164.529 201.101C162.57 200.163 160.882 198.742 159.624 196.971C157.079 200.204 153.703 202.685 149.857 204.146C146.012 205.608 141.841 205.997 137.791 205.27C135.307 205.008 132.905 204.224 130.744 202.971C128.582 201.719 126.709 200.024 125.246 197.999C114.97 207.5 97.868 209.749 88.755 197.107C88.5805 196.855 88.4253 196.603 88.2702 196.351C87.1777 198.424 85.6966 200.267 83.9076 201.78C80.948 204.259 77.2106 205.617 73.35 205.617C69.4895 205.617 65.752 204.259 62.7924 201.78C61.2316 200.48 59.8204 199.011 58.5849 197.398C53.6018 202.459 45.2255 207.733 38.3422 202.885C37.4314 202.233 36.5871 201.493 35.8216 200.675C35.4532 206.492 25.4676 208.78 21.008 209.691C18.8558 210.118 17.8476 206.918 20.0192 206.472C23.5572 205.95 26.9687 204.78 30.0824 203.021C32.952 201.082 32.1182 200.016 31.6529 197.088C31.5056 196.041 31.4536 194.983 31.4977 193.927C29.935 190.181 29.2199 186.135 29.4037 182.08C29.5588 179.133 29.9078 173.801 32.5642 171.901C35.2206 170.001 37.334 172.386 37.7412 174.964C38.1022 179.01 37.6067 183.086 36.287 186.928C35.6817 188.95 35.2472 191.018 34.9879 193.113C37.5667 198.639 42.608 203.622 49.2198 200.307C52.0421 198.848 54.5673 196.875 56.6654 194.49C53.5294 189.539 52.0428 183.721 52.4191 177.873C52.7293 174.829 53.214 170.621 57.0144 170.117C60.8147 169.613 62.9475 172.327 64.2273 175.43C66.8836 181.886 64.9834 189.138 60.8923 194.625C65.4294 201.063 72.5259 204.979 80.146 200.19C82.9583 198.329 85.0938 195.608 86.2344 192.434C85.1401 189.806 84.3529 187.061 83.8882 184.252C83.4401 181.738 83.271 179.183 83.3841 176.632C83.2748 174.571 83.5443 172.507 84.1791 170.544C85.2455 168.43 88.9683 166.491 91.0817 168.12C93.932 170.291 93.0207 176.768 92.5747 179.754C92.0782 183.895 91.235 187.988 90.0541 191.988C93.4085 198.542 99.3998 203.234 108.261 202.401C114.137 201.754 119.579 198.998 123.579 194.645C123.131 193.532 122.774 192.384 122.512 191.213C120.993 184.852 120.868 178.237 122.144 171.823C122.4 170.662 122.924 169.576 123.675 168.654C124.426 167.731 125.382 166.997 126.468 166.511C130.093 165.328 131.974 169.109 133.06 171.959C135.775 179.172 132.944 188.072 128.503 194.082C128.116 194.606 127.709 195.11 127.282 195.614C128.15 197.182 129.388 198.513 130.888 199.492C133.909 201.213 137.309 202.159 140.784 202.243C144.259 202.328 147.701 201.549 150.801 199.977C153.581 198.54 155.899 196.349 157.491 193.656C156.738 192.072 156.09 190.439 155.552 188.77C153.66 182.715 153.314 176.282 154.544 170.059C154.52 169.362 154.619 168.667 154.834 168.004C154.904 167.761 155.002 167.526 155.125 167.306C155.116 167.189 155.116 167.073 155.125 166.957C155.186 166.719 155.299 166.497 155.457 166.309C155.614 166.121 155.813 165.971 156.037 165.871C156.275 165.723 156.551 165.645 156.832 165.645C157.112 165.645 157.388 165.723 157.627 165.871L157.84 166.026C158.21 166.092 158.569 166.21 158.906 166.375C159.132 166.47 159.329 166.621 159.479 166.815C159.628 167.009 159.725 167.238 159.759 167.48C161.825 169.468 163.112 172.13 163.385 174.984C164.702 181.265 163.996 187.801 161.369 193.656C161.671 194.152 162.001 194.631 162.358 195.091C163.97 196.94 166.092 198.272 168.458 198.92C170.824 199.569 173.329 199.504 175.659 198.736C177.938 197.953 179.989 196.621 181.631 194.858C176.279 188.285 173.216 179.347 175.814 171.92C177.288 167.635 181.243 162.575 186.032 166.356C190.821 170.137 190.705 176.845 190.356 182.507C190.046 186.83 188.535 190.98 185.993 194.49C190.894 199.296 197.435 202.068 204.297 202.246C206.945 202.481 209.608 202.032 212.032 200.943C214.457 199.853 216.56 198.158 218.141 196.021C213.74 187.471 212.828 176.36 218.742 168.585C220.293 166.646 221.98 165.095 224.443 166.84C226.905 168.585 226.653 171.145 227.138 173.976C228.301 180.646 226.595 187.16 223.939 193.365C223.473 194.432 222.929 195.462 222.31 196.448C224.028 199.275 226.489 201.576 229.426 203.099C233.507 205.035 238.064 205.742 242.54 205.132C247.016 204.523 251.217 202.624 254.632 199.667C255.371 199.031 256.064 198.344 256.707 197.611C255.488 195.843 254.589 193.874 254.051 191.795C252.441 185.726 251.743 176.806 255.602 171.319C259.072 166.394 263.164 170.931 264.463 174.945C265.253 177.875 265.458 180.933 265.064 183.942C264.998 186.739 264.568 189.516 263.784 192.202C263.117 194.05 262.211 195.804 261.089 197.417C268.069 204.456 282.553 200.384 287.75 192.9C285.211 189.202 283.859 184.82 283.872 180.335C283.872 176.826 285.811 167.732 291.162 169.962C296.514 172.192 295.428 180.374 294.691 184.524C294.204 187.348 293.254 190.074 291.879 192.589C294.262 195.43 297.466 197.462 301.051 198.406C303.286 199.081 305.666 199.113 307.918 198.499C310.171 197.885 312.205 196.651 313.79 194.936C312.368 192.636 311.388 190.091 310.901 187.432C309.931 182.255 310.396 174.208 314.274 169.981C315.729 168.43 318.462 167.267 320.324 168.818C322.185 170.369 322.806 173.607 323.155 175.779C323.902 181.945 322.438 188.176 319.025 193.365C318.734 193.869 318.404 194.335 318.075 194.8C320.427 197.37 323.468 199.212 326.837 200.106C330.205 200.999 333.759 200.907 337.076 199.841C339.875 199.028 342.45 197.582 344.6 195.614C341.319 192.172 339.209 187.781 338.569 183.069C338.13 179.761 338.648 176.397 340.062 173.375C340.916 171.436 342.273 168.547 344.289 167.558C348.982 165.095 352.86 172.696 353.693 175.973C355.144 181.644 354.293 187.659 351.328 192.706C350.847 193.525 350.31 194.309 349.718 195.052C350.381 195.399 351.084 195.659 351.812 195.828C354.187 196.25 356.625 196.14 358.952 195.506C361.279 194.873 363.436 193.731 365.269 192.163C366.935 190.774 368.38 189.14 369.554 187.316C369.321 186.85 369.108 186.404 368.914 185.92C367.82 183.344 367.256 180.574 367.256 177.776C367.256 174.978 367.82 172.208 368.914 169.632C369.423 168.44 370.074 167.314 370.853 166.278C370.913 166.185 370.985 166.101 371.066 166.026C371.286 165.788 371.567 165.615 371.878 165.526C372.189 165.438 372.519 165.436 372.831 165.522C373.076 165.562 373.307 165.663 373.504 165.815C373.7 165.968 373.855 166.167 373.955 166.394C377.678 171.455 376.883 177.621 375.177 183.321C374.75 184.731 374.171 186.089 373.451 187.374C375.125 189.785 377.272 191.83 379.763 193.383C382.253 194.937 385.034 195.966 387.935 196.409C393.626 197.538 399.532 196.382 404.377 193.191C402.444 190.474 401.13 187.366 400.527 184.087C399.924 180.807 400.047 177.435 400.887 174.208C401.818 170.97 406.258 164.378 410.427 167.286C412.488 169.166 413.996 171.573 414.79 174.247C415.627 177.675 415.566 181.26 414.611 184.657C413.657 188.054 411.842 191.147 409.341 193.637C409.757 193.94 410.198 194.206 410.66 194.432C415.526 196.7 421.285 194.606 424.698 190.864C429.603 185.493 429.7 177.64 430.514 170.544C430.173 168.845 430.441 167.081 431.271 165.561C431.263 165.503 431.263 165.444 431.271 165.386C431.474 165.085 431.765 164.854 432.104 164.725C432.443 164.595 432.814 164.573 433.166 164.662C433.518 164.751 433.834 164.947 434.071 165.222C434.308 165.497 434.454 165.839 434.489 166.2C434.755 167.584 434.702 169.009 434.334 170.369C434.018 173.517 434.181 176.694 434.819 179.792C435.963 183.347 438.015 186.542 440.772 189.061C445.638 193.889 455.43 198.755 461.208 192.609C461.557 192.221 461.887 191.814 462.216 191.387C459.374 187.07 458.013 181.946 458.338 176.787C458.338 173.123 458.203 167.538 462.216 165.619C465.958 163.854 468.033 167.344 468.305 170.389C469.08 177.291 469.701 184.756 466.366 191.019C468.349 192.774 470.858 193.824 473.501 194.005C475.486 194.224 477.493 193.895 479.305 193.055C481.117 192.214 482.664 190.893 483.778 189.235C482.494 187.149 481.551 184.871 480.985 182.488C480.074 178.61 479.492 172.599 482.343 169.303C482.72 168.709 483.291 168.264 483.958 168.042C484.625 167.819 485.349 167.833 486.007 168.081C487.19 168.702 487.442 170.408 487.81 171.513C489.467 176.053 489.882 180.953 489.013 185.706C488.746 186.887 488.343 188.032 487.81 189.119C489.386 191.272 491.361 193.101 493.627 194.509C498.998 197.883 506.638 198.988 511.601 194.218C512.662 193.161 513.539 191.936 514.2 190.593C511.98 185.552 511.834 179.84 513.792 174.693C513.814 174.463 513.88 174.239 513.986 174.034C514.092 173.861 514.183 173.679 514.258 173.491C514.258 173.374 514.258 173.258 514.413 173.161C514.599 172.6 514.846 172.06 515.15 171.552C515.349 171.232 515.643 170.983 515.99 170.837C516.337 170.691 516.721 170.656 517.089 170.738C522.304 171.823 521.083 178.144 520.462 181.925C520.004 184.855 519.197 187.719 518.058 190.457C519.45 192.643 521.481 194.349 523.875 195.343C526.667 196.5 529.697 196.962 532.707 196.688C535.716 196.415 538.614 195.414 541.151 193.772C540.01 192.818 539.091 191.627 538.456 190.282C537.095 187.175 536.658 183.742 537.196 180.394C537.545 177.64 537.738 174.577 539.929 172.638C543.458 169.419 547.937 172.638 549.818 175.992C550.753 177.938 551.246 180.066 551.263 182.225C551.28 184.383 550.819 186.519 549.915 188.479C549.229 190.113 548.294 191.63 547.142 192.977C550.665 193.513 554.26 192.733 557.244 190.786C559.332 189.496 561.242 187.938 562.925 186.152C562.415 184.714 562.096 183.214 561.975 181.693C561.819 178.132 562.482 174.583 563.914 171.319C564.478 169.623 565.295 168.021 566.338 166.569C567.249 165.541 568.277 165.716 569.537 165.677C569.906 165.675 570.267 165.788 570.569 166C570.871 166.212 571.1 166.512 571.224 166.86C573.784 173.413 571.961 180.18 567.773 185.706L566.881 186.811C567.608 188.364 568.688 189.724 570.035 190.785C571.381 191.845 572.957 192.576 574.637 192.919C580.764 194.47 585.708 190.825 588.364 185.687C586.833 180.587 588.365 174.441 590.013 169.128C590.195 168.196 590.495 167.29 590.905 166.433C591.036 166.085 591.265 165.782 591.564 165.561C591.766 165.373 592.015 165.243 592.284 165.185C592.554 165.127 592.834 165.143 593.095 165.231C593.355 165.302 593.589 165.443 593.774 165.638C596.721 167.926 596.372 171.785 595.849 175.217C595.1 178.958 593.792 182.566 591.971 185.92C592.978 188.098 594.803 189.791 597.051 190.631C599.426 191.617 602.076 191.713 604.516 190.903C602.146 186.094 601.509 180.615 602.713 175.391C603.566 172.308 607.017 165.386 611.302 168.198C613.316 169.614 614.907 171.551 615.904 173.802C616.902 176.052 617.268 178.532 616.964 180.975C616.602 183.293 615.731 185.502 614.413 187.443C613.096 189.385 611.364 191.01 609.344 192.202C610.8 194.152 612.836 195.591 615.161 196.312C616.523 196.817 618.018 196.83 619.389 196.349C620.759 195.867 621.918 194.921 622.664 193.675C624.027 191.808 625.197 189.807 626.155 187.704C625.66 186.863 625.226 185.988 624.856 185.086C622.723 179.909 622.917 174.189 627.88 170.699C628.146 170.546 628.447 170.465 628.753 170.465C629.059 170.465 629.36 170.546 629.625 170.699C634.473 172.909 631.797 182.604 630.401 186.424L630.033 187.413C631.027 188.722 632.311 189.784 633.785 190.514C635.258 191.244 636.881 191.622 638.525 191.62C640.891 192.124 640.968 195.479 638.758 195.362ZM32.7581 186.268C33.5044 183.81 34.0045 181.283 34.2511 178.726C34.3095 177.749 34.2706 176.768 34.1348 175.798C33.999 174.809 34.1348 172.851 33.9603 175.585C33.8439 177 33.0877 178.474 32.855 179.909C32.5222 182.013 32.4895 184.155 32.7581 186.268ZM58.7594 191.659C59.7204 190.18 60.4709 188.575 60.9892 186.889C61.9686 183.804 61.9686 180.492 60.9892 177.407C60.6015 176.322 59.8259 174.092 58.4492 173.704C56.3939 173.122 55.9867 175.798 55.7541 177.194C55.2216 182.23 56.2721 187.306 58.7594 191.717L58.7594 191.659ZM87.6886 186.54C87.6976 186.476 87.6976 186.41 87.6886 186.346C88.4716 182.939 88.9966 179.478 89.2591 175.992C89.2978 175.314 89.2978 174.634 89.2591 173.956C89.0656 173.018 88.9617 172.064 88.9489 171.106C89.3754 170.796 89.2203 170.834 88.5223 171.242L87.8631 171.591C87.481 171.992 87.1856 172.468 86.9955 172.988C86.8053 173.508 86.7244 174.062 86.7579 174.615C86.3632 178.614 86.6783 182.651 87.6886 186.54ZM125.905 191.814C128.308 188.435 129.876 184.534 130.481 180.432C131.093 177.153 130.494 173.763 128.794 170.893C128.155 169.884 127.728 169.225 126.642 170.195C125.928 170.976 125.45 171.944 125.265 172.987C124.503 177.113 124.398 181.334 124.955 185.493C125.066 187.626 125.385 189.743 125.905 191.814ZM159.41 189.507C159.803 188.328 160.107 187.123 160.322 185.9C160.748 183.001 160.748 180.055 160.322 177.155C160.138 175.776 159.866 174.409 159.507 173.064C159.395 172.632 159.245 172.211 159.061 171.804C158.923 172.101 158.712 172.358 158.448 172.551C158.183 172.745 157.874 172.868 157.549 172.909C157.048 176.677 157.159 180.501 157.879 184.233C158.267 186.026 158.785 187.789 159.43 189.507L159.41 189.507ZM181.359 188.091C182.074 189.5 182.911 190.843 183.861 192.105C186.92 186.836 187.999 180.648 186.905 174.654C186.556 172.89 184.966 168.391 182.503 168.527C181.146 168.527 179.886 171.28 179.44 172.405C179.057 173.308 178.777 174.251 178.606 175.216C178.094 179.693 179.061 184.215 181.359 188.091ZM220.313 192.803C221.795 189.812 222.914 186.655 223.648 183.399C224.287 180.782 224.366 178.06 223.88 175.41C223.648 174.15 223.784 169.477 222.039 170.117C220.293 170.757 219.305 174.596 218.917 175.934C218.333 177.89 218.045 179.923 218.064 181.964C218.132 185.685 218.895 189.362 220.313 192.803ZM258.956 194.742C260 193.028 260.735 191.144 261.128 189.177C262.05 185.14 262.143 180.958 261.399 176.884C261.135 175.74 260.648 174.659 259.964 173.704C259.169 172.638 259.228 172.793 258.433 173.51C256.707 175.081 256.494 179.928 256.377 181.964C256.048 186.41 256.94 190.862 258.956 194.839L258.956 194.742ZM289.669 189.681C291.096 186.324 291.796 182.703 291.724 179.056C291.724 178.202 291.414 173.064 289.688 173.239C287.963 173.413 287.381 178.455 287.323 179.637C287.108 183.173 287.923 186.696 289.669 189.778L289.669 189.681ZM314.701 188.906C315.026 190.007 315.461 191.072 316 192.085C317.789 189.234 319.019 186.069 319.626 182.759C320.095 180.301 320.049 177.772 319.49 175.333C319.335 174.732 318.986 172.773 318.463 172.463C317.939 172.153 316.349 173.336 316.019 173.762C315.748 174.212 315.533 174.694 315.38 175.197C313.694 179.61 313.457 184.445 314.701 189.002L314.701 188.906ZM342.389 185.125C343.181 188.215 344.749 191.052 346.946 193.365C349.696 189.773 351.071 185.317 350.824 180.801C350.707 178.862 348.361 168.915 345.239 171.474C343.595 173.401 342.491 175.73 342.04 178.222C341.596 180.55 341.716 182.95 342.389 185.222L342.389 185.125ZM371.629 183.69C373.469 179.804 373.787 175.37 372.521 171.261L371.939 171.843C370.433 175.664 370.323 179.893 371.629 183.787L371.629 183.69ZM406.917 191.446C410.005 188.452 411.788 184.363 411.881 180.064C412.051 177.588 411.499 175.116 410.291 172.948C409.955 172.242 409.518 171.588 408.992 171.009C408.042 170.156 407.441 170.641 406.433 171.552C403.427 174.344 403.466 179.133 404.009 182.817C404.32 185.917 405.313 188.91 406.917 191.581L406.917 191.446ZM464.117 188.324C465.499 184.49 466.009 180.397 465.609 176.341C465.609 175.042 465.377 173.743 465.222 172.463C465.212 171.81 465.134 171.161 464.989 170.524C465.144 169.71 464.756 169.516 463.864 169.943L462.798 169.943C461.615 170.97 461.945 174.325 461.867 175.759C461.761 177.535 461.761 179.316 461.867 181.092C462.053 183.686 462.822 186.204 464.117 188.459L464.117 188.324ZM485.736 185.474C485.893 184.921 486.01 184.357 486.085 183.787C486.434 180.104 485.964 176.389 484.708 172.909L484.34 173.258C484.298 173.411 484.266 173.567 484.243 173.723C483.936 175.321 483.89 176.958 484.107 178.571C484.227 180.995 484.779 183.379 485.736 185.609L485.736 185.474ZM516.197 185.9C516.41 185.144 516.604 184.388 516.759 183.67C517.089 182.255 518.233 177.853 517.496 175.624L517.186 176.031C515.985 179.175 515.644 182.581 516.197 185.9ZM543.846 192.027C544.768 191.078 545.557 190.008 546.192 188.847C547.036 187.396 547.576 185.788 547.779 184.121C547.983 182.455 547.845 180.764 547.375 179.153C547.137 178.329 546.736 177.562 546.197 176.896C545.657 176.23 544.99 175.679 544.234 175.275C541.636 174.228 541.209 177.737 540.899 179.56C540.259 183.709 540.259 189.352 543.904 191.989L543.846 192.027ZM565.756 183.05C567.08 181.196 568.005 179.088 568.472 176.859C568.94 174.629 568.939 172.327 568.471 170.098C566.393 174.068 565.472 178.543 565.815 183.011L565.756 183.05ZM592.902 171.61C591.984 174.329 591.392 177.147 591.137 180.006C591.389 179.288 591.622 178.571 591.835 177.834C592.498 175.809 592.877 173.701 592.96 171.571L592.902 171.61ZM607.657 189.875C613.047 186.366 615.995 178.939 611.535 173.355C610.527 172.095 609.829 171.261 608.355 172.269C607.501 173.062 606.895 174.086 606.61 175.217C605.725 177.446 605.329 179.84 605.447 182.236C605.718 184.871 606.488 187.43 607.715 189.778L607.657 189.875ZM627.9 183.67C628.331 182.118 628.61 180.527 628.733 178.92C628.897 177.63 628.865 176.322 628.636 175.042C628.804 174.94 628.938 174.792 629.024 174.616C626.581 176.981 626.833 180.549 627.958 183.632L627.9 183.67Z" fill="#2384C2"/>
<path d="M626.077 264.408C618.321 270.225 607.657 270.729 600.657 265.183C599.307 267.337 597.422 269.104 595.186 270.313C592.951 271.523 590.44 272.133 587.899 272.086C585.714 272.087 583.578 271.443 581.757 270.236C579.936 269.029 578.512 267.312 577.661 265.3C577.332 265.532 577.002 265.765 576.653 265.978C574.421 267.166 571.93 267.785 569.401 267.782C566.675 268.124 563.927 268.254 561.18 268.169C556.132 268.197 551.219 266.539 547.22 263.458L546.425 262.702C544.592 265.319 542.005 267.315 539.008 268.424C536.011 269.533 532.748 269.701 529.653 268.906C528.068 268.586 526.574 267.919 525.276 266.954C523.979 265.988 522.911 264.748 522.149 263.322C520.644 265.226 518.669 266.705 516.418 267.613C514.167 268.521 511.718 268.826 509.313 268.499C506.639 268.122 504.082 267.152 501.831 265.659C499.579 264.166 497.691 262.188 496.303 259.871C495.727 260.738 495.078 261.556 494.364 262.314C492.032 264.745 489.189 266.627 486.04 267.824C482.891 269.022 479.515 269.504 476.157 269.236C472.207 268.912 468.493 267.226 465.648 264.466C462.968 267.85 459.292 270.306 455.139 271.485C448.469 273.056 444.688 269.779 442.865 264.893L442.749 265.028C440.503 267.634 437.715 269.717 434.581 271.134C431.446 272.551 428.04 273.266 424.601 273.23C421.313 273.297 418.053 272.609 415.072 271.221C412.091 269.833 409.467 267.781 407.402 265.222C406.965 264.648 406.576 264.038 406.239 263.399C404.577 265.795 402.36 267.752 399.777 269.103C397.193 270.454 394.321 271.158 391.406 271.155C388.243 271.2 385.171 270.098 382.758 268.053C379.888 274.006 375.002 278.931 367.828 279.687C357.765 280.773 348.691 273.133 345.608 264.059C342.906 268.398 338.96 271.824 334.284 273.889C332.547 274.633 330.672 274.998 328.784 274.961C326.895 274.924 325.036 274.486 323.329 273.676C321.893 275.446 320.161 276.955 318.21 278.135C312.393 281.703 304.211 282.867 298.162 279.202C295.881 277.821 293.903 275.994 292.345 273.831C291.202 275.112 289.899 276.239 288.467 277.185C281.584 281.626 273.808 285.581 265.471 282.149C262.582 280.997 260.132 278.961 258.471 276.332C255.187 278.938 251.334 280.732 247.225 281.567C244.679 281.98 242.077 281.88 239.57 281.274C237.063 280.668 234.702 279.568 232.625 278.039C230.553 280.231 228.032 281.952 225.235 283.083C222.438 284.214 219.43 284.729 216.415 284.592C212.538 284.437 207.593 283.371 204.782 280.598C203.281 279.14 201.93 277.536 200.749 275.809L200.206 276.449C193.73 284.321 181.883 290.021 173.584 281.296C172.784 280.449 172.052 279.542 171.393 278.582C168.205 281.007 164.361 282.419 160.36 282.634C153.089 283.002 146.788 277.825 143.026 271.776C142.011 272.975 140.888 274.078 139.672 275.072C133.099 280.423 123.035 282.207 116.521 275.731C115.446 274.635 114.568 273.363 113.922 271.97C112.024 274.37 109.625 276.326 106.892 277.703C104.159 279.079 101.159 279.842 98.1006 279.939C94.6714 279.894 91.3069 278.999 88.3087 277.334C85.3105 275.669 82.7723 273.286 80.9215 270.399C74.823 276.119 67.5417 280.428 59.5931 283.022C52.8649 285.329 46.8348 284.689 41.9098 279.338L41.522 278.911C35.0265 284.495 26.3206 287.093 18.3709 282.013C16.7954 281.068 15.3868 279.869 14.2022 278.465C13.7486 277.682 13.446 276.82 13.3103 275.925C13.1 275.323 12.854 274.734 12.5735 274.161C10.9448 275.402 9.31605 276.643 7.84245 278.039C6.36885 279.435 3.75127 277.224 5.3606 275.751C6.96993 274.277 9.2385 272.532 11.1774 270.981C11.0989 270.694 11.0406 270.403 11.003 270.108C10.7799 268.572 10.7799 267.011 11.003 265.474C11.4194 262.448 12.1872 259.481 13.2909 256.632C13.6778 255.485 14.4286 254.494 15.4294 253.812C16.4303 253.129 17.6264 252.792 18.8363 252.852C19.2059 252.847 19.5676 252.959 19.8703 253.171C20.173 253.383 20.4013 253.685 20.5232 254.034C22.4621 258.61 23.005 263.38 19.8252 267.607C18.4517 269.309 16.8907 270.85 15.1717 272.202C15.5789 273.055 16.1024 273.85 16.4514 274.781C16.6664 275.79 17.1409 276.726 17.828 277.496C20.1514 279.738 23.1508 281.149 26.3594 281.509C28.7769 281.625 31.1923 281.24 33.4544 280.379C35.7164 279.519 37.7764 278.2 39.5055 276.507C36.5444 272.423 35.0235 267.472 35.1817 262.43C35.3042 259.55 36.2459 256.766 37.8962 254.403C39.2728 252.58 42.1231 250.04 44.6631 250.098C47.2031 250.156 49.6462 253.491 50.48 255.644C51.532 258.584 51.6203 261.783 50.732 264.776C49.4307 269.243 47.0769 273.332 43.8681 276.701C45.2039 278.348 46.894 279.674 48.8125 280.578C53.9119 282.808 60.2135 279.667 64.8476 277.496C69.8977 275.145 74.5234 271.974 78.5366 268.111L79.1958 267.433C79.0601 267.103 78.9438 266.773 78.8274 266.424C76.7333 260.433 76.365 253.046 82.3176 248.974C82.5847 248.826 82.8848 248.749 83.1901 248.749C83.4953 248.749 83.7955 248.826 84.0626 248.974C91.2755 253.065 87.5139 262.721 83.2482 267.995C84.8099 270.755 87.1019 273.031 89.8725 274.573C92.6431 276.116 95.7851 276.866 98.9537 276.739C101.711 276.442 104.365 275.523 106.716 274.052C109.066 272.581 111.053 270.596 112.526 268.247C112.228 266.969 112.008 265.674 111.867 264.369C111.523 260.47 111.811 256.542 112.72 252.735C112.553 251.101 112.95 249.459 113.845 248.082C113.89 247.841 114.005 247.619 114.175 247.442C114.363 247.216 114.607 247.042 114.882 246.937C115.157 246.832 115.454 246.799 115.745 246.841L116.055 246.841C116.325 246.899 116.57 247.042 116.753 247.248C122.822 252.212 120.069 260.588 117.277 266.638C116.947 267.336 116.579 268.034 116.172 268.712C116.561 269.965 117.143 271.149 117.897 272.222C122.648 278.717 131.703 277.108 137.287 272.629C138.758 271.437 140.092 270.085 141.262 268.596C140.833 267.664 140.463 266.705 140.156 265.726C138.935 261.848 137.791 255.721 139.342 251.766C139.728 250.994 140.301 250.332 141.01 249.841C141.719 249.35 142.54 249.044 143.397 248.954C144.255 248.863 145.121 248.99 145.917 249.322C146.713 249.654 147.412 250.181 147.951 250.854C150.433 254.306 149.231 260.549 147.699 264.136C147.004 265.771 146.167 267.341 145.198 268.829C145.489 269.371 145.818 269.914 146.167 270.438C150.278 276.642 156.831 280.986 164.51 278.194C166.332 277.555 168.046 276.64 169.59 275.479C168.49 273.153 167.601 270.732 166.933 268.247C165.634 263.671 164.762 257.912 167.321 253.55C167.748 252.839 168.342 252.242 169.051 251.811C169.76 251.38 170.563 251.128 171.391 251.077C172.219 251.025 173.047 251.176 173.804 251.515C174.561 251.855 175.224 252.373 175.736 253.026C177.147 254.721 178.189 256.691 178.797 258.811C179.405 260.931 179.564 263.154 179.265 265.338C178.69 269.443 176.814 273.255 173.914 276.216C176.046 279.706 179.071 282.517 183.453 282.537C189.522 282.537 195.087 277.534 198.965 272.842C198.693 272.319 198.422 271.815 198.189 271.291C194.874 264.078 195.688 254.519 203.269 250.079C203.597 249.891 203.975 249.81 204.351 249.848C204.726 249.887 205.081 250.042 205.363 250.292C212.266 257.195 208 266.056 202.978 272.9C204.49 275.618 206.681 277.896 209.338 279.512C212.839 281.147 216.76 281.662 220.565 280.986C224.289 280.307 227.692 278.436 230.259 275.654C229.656 274.894 229.13 274.075 228.689 273.211C227.283 269.873 226.932 266.186 227.681 262.643C228.243 260.006 230.318 256.245 233.498 256.264C236.677 256.284 237.628 261.131 237.899 263.477C238.252 266.893 237.577 270.336 235.96 273.366C235.613 274.032 235.231 274.679 234.816 275.305C236.843 276.854 239.22 277.88 241.738 278.291C247.555 279.318 252.635 276.352 256.92 273.017C256.015 270.469 255.626 267.766 255.776 265.067C256.028 260.084 257.25 249.555 264.54 249.963C267.953 250.176 269.562 253.705 269.95 256.574C270.236 260.438 269.128 264.276 266.828 267.394C265.212 269.851 263.297 272.098 261.128 274.083C261.893 275.442 262.922 276.635 264.152 277.593C269.62 281.839 277.163 280.249 282.708 277.05C285.646 275.392 288.271 273.233 290.464 270.671C289.101 268.061 288.389 265.161 288.389 262.217C288.389 259.017 289.533 255.12 292.616 253.472C296.126 251.533 297.58 254.17 298.181 257.35C298.764 262.197 297.497 267.085 294.633 271.039C295.881 273.055 297.539 274.785 299.499 276.119C301.626 277.326 304.008 278.014 306.451 278.125C308.894 278.236 311.329 277.768 313.557 276.759C316.039 275.795 318.267 274.276 320.072 272.319C320.285 272.067 320.479 271.834 320.653 271.582C319.152 269.775 318.09 267.645 317.551 265.358C316.446 260.859 316.698 249.846 323.368 248.954C326.082 248.567 328.351 251.979 328.991 254.131C329.679 257.356 329.478 260.707 328.409 263.826C328.164 265.19 327.685 266.502 326.994 267.704C326.606 268.266 326.393 268.305 326.102 268.945C325.811 269.585 325.578 270.244 325.307 270.884C326.34 271.474 327.492 271.829 328.678 271.922C329.865 272.016 331.057 271.847 332.171 271.427C337.427 269.394 341.678 265.385 344.018 260.258C344.231 259.832 344.425 259.367 344.619 258.921C344.535 257.527 344.606 256.129 344.832 254.752C344.567 254.513 344.387 254.195 344.321 253.845C344.254 253.494 344.304 253.132 344.464 252.813C344.549 252.607 344.646 252.406 344.755 252.212C345.186 250.479 346.251 248.971 347.741 247.985C347.84 247.829 347.97 247.696 348.123 247.592C348.277 247.488 348.449 247.417 348.631 247.383C348.812 247.348 348.999 247.351 349.179 247.391C349.359 247.431 349.53 247.508 349.679 247.616L350.125 247.83C350.369 247.98 350.56 248.203 350.672 248.467C350.783 248.731 350.809 249.024 350.746 249.303C350.736 250.2 350.658 251.094 350.513 251.979C350.694 252.989 350.661 254.027 350.416 255.023C350.215 255.458 349.954 255.863 349.641 256.225C349.137 256.982 349.117 256.691 348.768 257.815C348.613 258.339 348.439 258.862 348.225 259.386C349.098 268.072 356.834 276.681 366.044 276.701C373.335 276.701 377.988 271.446 380.451 265.435C378.8 262.625 377.773 259.494 377.439 256.252C377.104 253.01 377.47 249.735 378.512 246.647C378.59 246.399 378.722 246.171 378.897 245.979C379.073 245.788 379.288 245.637 379.528 245.537C379.768 245.437 380.028 245.391 380.287 245.402C380.547 245.413 380.801 245.481 381.032 245.6C388.206 248.722 386.616 257.602 384.91 263.497C384.755 264.001 384.6 264.485 384.425 264.99C385.35 265.971 386.469 266.748 387.711 267.272C388.953 267.796 390.291 268.056 391.638 268.034C394.439 268.04 397.185 267.262 399.566 265.788C401.948 264.315 403.87 262.205 405.114 259.696C404.332 254.642 404.956 249.47 406.917 244.747C407.037 244.4 407.262 244.099 407.561 243.886C407.86 243.674 408.218 243.559 408.585 243.559C408.952 243.559 409.31 243.674 409.608 243.886C409.907 244.099 410.132 244.4 410.252 244.747C411.613 249.874 411.076 255.321 408.74 260.084C409.111 261.281 409.667 262.413 410.388 263.438C412.1 265.621 414.296 267.374 416.804 268.558C419.311 269.743 422.061 270.327 424.833 270.263C428.206 270.164 431.512 269.305 434.507 267.751C437.501 266.196 440.106 263.987 442.129 261.286C441.354 256.394 441.692 251.39 443.118 246.647C443.227 246.291 443.444 245.978 443.74 245.752C444.035 245.526 444.394 245.399 444.766 245.387L445.91 245.387C446.279 245.382 446.641 245.494 446.944 245.706C447.246 245.919 447.475 246.221 447.596 246.57C448.503 249.098 448.801 251.805 448.464 254.47C448.127 257.135 447.165 259.683 445.658 261.906C446.608 266.482 449.148 269.895 454.519 268.654C458.668 267.724 461.208 264.99 463.864 262.023C463.452 261.307 463.108 260.554 462.837 259.774C461.872 257.321 461.816 254.605 462.68 252.115C463.545 249.626 465.271 247.528 467.548 246.201C467.883 246.034 468.258 245.967 468.63 246.008C469.001 246.049 469.353 246.197 469.642 246.434C474.664 250.06 471.678 257.622 468.615 261.616L468.149 262.197C469.662 263.701 471.492 264.849 473.504 265.557C475.517 266.264 477.662 266.514 479.783 266.289C482.941 266.086 485.99 265.06 488.627 263.311C491.264 261.562 493.395 259.152 494.81 256.322C494.355 255.044 494.1 253.703 494.054 252.348C493.737 252.539 493.366 252.621 492.998 252.584C492.63 252.546 492.284 252.389 492.013 252.137C491.741 251.886 491.559 251.553 491.494 251.188C491.428 250.824 491.483 250.448 491.65 250.118C493.202 247.443 495.165 245.028 497.466 242.963C497.631 242.754 497.853 242.599 498.106 242.517C498.427 242.41 498.774 242.41 499.095 242.517C499.463 242.587 499.797 242.781 500.04 243.067C500.283 243.353 500.422 243.713 500.433 244.088C500.983 248.377 500.374 252.736 498.669 256.71C499.719 259.22 501.454 261.383 503.676 262.954C505.898 264.524 508.516 265.438 511.233 265.591C513.269 265.65 515.281 265.136 517.04 264.107C518.798 263.079 520.233 261.577 521.18 259.774C520.394 255.533 520.701 251.163 522.072 247.074C522.291 246.282 522.576 245.51 522.925 244.766C523.084 244.456 523.342 244.208 523.658 244.06C523.974 243.913 524.33 243.875 524.67 243.952C525.069 243.985 525.442 244.165 525.717 244.456C525.717 244.456 525.717 244.456 525.717 244.572C525.855 244.71 525.949 244.885 525.988 245.077C526.167 245.592 526.29 246.125 526.357 246.666C527.211 251.215 526.607 255.918 524.631 260.103C525.024 261.547 525.807 262.853 526.895 263.88C527.983 264.906 529.333 265.612 530.797 265.92C537.234 267.471 541.636 264.466 544.68 260.103C543.33 257.058 542.731 253.733 542.935 250.409C542.824 249.274 542.959 248.13 543.33 247.052C543.701 245.975 544.301 244.99 545.087 244.165C545.686 243.529 546.443 243.062 547.281 242.814C548.119 242.565 549.008 242.543 549.857 242.75C554.025 244.107 552.707 250.932 551.641 253.918C550.87 256.099 549.896 258.202 548.732 260.2C552.61 265.086 560.502 265.591 566.377 265.183C569.595 264.97 573.124 264.951 575.819 263.109L576.866 262.372C576.421 260.073 576.421 257.71 576.866 255.411C577.467 252.27 578.805 247.655 582.683 247.287C587.724 246.841 587.492 252.755 586.387 255.935C585.183 258.998 583.173 261.678 580.57 263.69C581.034 264.868 581.745 265.932 582.654 266.812C583.563 267.692 584.65 268.368 585.841 268.794C587.033 269.22 588.302 269.386 589.563 269.282C590.824 269.177 592.048 268.805 593.154 268.189C595.331 267.094 597.143 265.39 598.369 263.283C597.314 262.014 596.427 260.612 595.732 259.115C593.793 254.926 592.494 247.481 596.527 243.894C600.56 240.307 603.701 248.489 604.147 251.184C604.72 255.098 604.141 259.093 602.48 262.682L602.926 263.07C609.363 268.402 618.205 266.773 624.429 262.042C626.019 260.239 627.803 263.089 626.077 264.408ZM14.2991 268.131L15.6952 266.831C17.1184 265.485 18.0825 263.726 18.4513 261.802C18.8201 259.877 18.5749 257.886 17.7505 256.109C16.1217 256.846 16.0054 259.366 15.5983 260.956C14.8277 263.274 14.3902 265.69 14.2991 268.131ZM39.7382 269.216C40.3246 270.791 41.065 272.305 41.9486 273.734C45.3709 270.097 47.462 265.409 47.8818 260.433C47.8818 258.494 47.3195 254.461 45.0315 253.569C43.0926 252.832 40.9985 255.372 40.1454 256.846C39.1628 258.758 38.6167 260.865 38.5463 263.014C38.4758 265.163 38.8829 267.302 39.7382 269.274L39.7382 269.216ZM81.7358 264.001C82.5252 262.867 83.1762 261.643 83.6748 260.355C84.5861 257.97 85.2454 254.209 83.2095 252.173C80.049 255.101 80.4949 260.026 81.7358 264.001ZM116.637 252.832C116.468 253.056 116.273 253.257 116.055 253.433C115.497 255.929 115.198 258.476 115.163 261.034C115.163 261.577 115.163 262.139 115.163 262.721C116.462 259.58 117.548 255.896 116.598 252.832L116.637 252.832ZM143.588 264.912C145.599 261.738 146.295 257.906 145.527 254.228C144.926 252.115 143.239 250.99 142.444 253.627C142.303 254.407 142.257 255.202 142.309 255.993C142.279 257.607 142.377 259.221 142.6 260.821C142.79 262.211 143.108 263.58 143.55 264.912L143.588 264.912ZM170.54 268.169C171.02 269.767 171.596 271.334 172.265 272.862C174.817 269.965 176.138 266.188 175.949 262.333C175.814 259.871 172.265 250.215 169.745 256.516C168.271 260.123 169.435 264.621 170.501 268.169L170.54 268.169ZM201.195 269.546C204.355 264.931 207.399 258.416 203.793 253.55C198.81 257.369 198.848 264.136 201.156 269.546L201.195 269.546ZM232.373 272.532C233.04 271.402 233.573 270.198 233.963 268.945C234.831 266.231 234.742 263.302 233.711 260.646C232.877 258.707 232.373 260.064 231.772 261.208C231.401 261.844 231.146 262.54 231.016 263.264C230.803 264.879 230.803 266.515 231.016 268.131C231.079 269.685 231.532 271.199 232.334 272.532L232.373 272.532ZM259.673 270.418C263.551 266.754 267.701 261.306 266.324 256.051C265.8 254.112 263.9 252.173 262.02 254.112C261.314 255.11 260.832 256.247 260.604 257.447C259.906 259.608 259.445 261.837 259.227 264.097C259.011 266.212 259.148 268.349 259.635 270.418L259.673 270.418ZM292.752 267.122C293.219 266.309 293.621 265.459 293.954 264.582C294.59 262.991 294.919 261.294 294.924 259.58C294.912 258.415 294.729 257.259 294.381 256.148C292.131 256.148 291.724 261.848 291.841 263.109C291.976 264.476 292.269 265.822 292.713 267.122L292.752 267.122ZM322.398 267.82C322.631 267.277 322.883 266.735 323.174 266.192C323.465 265.649 324.085 265.28 324.357 264.815C324.727 263.924 324.994 262.994 325.152 262.042C325.826 259.893 326.005 257.62 325.675 255.392C325.501 254.577 324.589 252.251 323.736 252.173C322.883 252.096 322.127 253.627 321.797 254.248C320.721 256.622 320.261 259.23 320.459 261.829C320.544 263.952 321.178 266.017 322.301 267.82L322.398 267.82ZM381.032 249.459C380.255 253.21 380.503 257.101 381.75 260.724C382.758 256.982 383.592 252.154 380.994 249.459L381.032 249.459ZM465.861 258.63C467.8 255.741 469.623 251.94 467.897 249.459C466.625 250.57 465.735 252.055 465.355 253.702C464.976 255.349 465.126 257.073 465.784 258.63L465.861 258.63ZM546.677 255.896C547.006 255.198 547.317 254.519 547.588 253.821C548.332 252.094 548.765 250.25 548.868 248.373C548.965 247.775 548.965 247.167 548.868 246.57C547.452 244.456 546.425 247.364 546.27 248.101C545.833 250.696 545.958 253.354 546.638 255.896L546.677 255.896ZM579.639 259.328C580.599 258.376 581.427 257.3 582.102 256.128C582.644 255.12 584.157 251.843 583.284 250.641C582.063 248.954 580.841 252.58 580.608 253.181C579.933 255.158 579.618 257.24 579.678 259.328L579.639 259.328ZM599.804 259.328C601.203 255.504 601.043 251.284 599.358 247.578L598.854 246.705C598.272 245.736 598.117 245.639 598.389 246.395C597.687 247.477 597.298 248.732 597.264 250.021C597.137 251.655 597.315 253.299 597.788 254.868C598.249 256.442 598.941 257.939 599.843 259.308L599.804 259.328Z" fill="#2384C2"/>
<path d="M621.075 336.575C613.745 342.082 602.577 343.536 595.093 337.506C594.739 337.23 594.402 336.932 594.084 336.614C591.352 340.821 587.497 344.18 582.955 346.309C578.84 348.252 574.222 348.862 569.744 348.052C565.266 347.242 561.154 345.053 557.981 341.791C556.791 342.711 555.488 343.474 554.103 344.06C550.76 345.013 547.24 345.166 543.827 344.506C540.332 344.117 536.957 343 533.919 341.229C530.555 339.298 527.822 336.436 526.047 332.988C523.192 336.536 519.444 339.26 515.188 340.88C512.143 341.951 508.889 342.289 505.689 341.868C502.489 341.447 499.433 340.278 496.768 338.456C493.375 342.548 488.082 344.991 483.196 343.536C481.553 343.043 480.055 342.157 478.831 340.954C477.608 339.751 476.697 338.268 476.177 336.634C470.883 343.808 462.216 348.461 453.918 347.821C450.099 347.36 446.508 345.757 443.616 343.221C440.723 340.685 438.664 337.335 437.708 333.609C435.686 335.913 433.516 338.082 431.212 340.104C426.249 344.68 419.036 349.799 412.211 349.799C410.304 349.716 408.46 349.099 406.887 348.019C405.313 346.939 404.075 345.44 403.311 343.691C402.235 345.39 400.766 346.806 399.028 347.818C397.29 348.83 395.334 349.41 393.325 349.508C386.287 349.76 381.498 344.874 379.152 338.573C376.703 342.144 373.597 345.217 370 347.628C367.598 349.18 364.873 350.162 362.033 350.498C359.193 350.834 356.313 350.516 353.616 349.567C351.609 348.983 349.76 347.955 348.206 346.558C346.652 345.162 345.432 343.433 344.638 341.5C342.311 344.326 339.32 346.531 335.932 347.918C333.572 348.828 330.984 348.962 328.543 348.299C326.102 347.637 323.936 346.213 322.36 344.234C318.753 348.655 313.654 351.156 307.856 348.849C304.259 347.387 301.349 344.615 299.713 341.093C297.93 343.318 295.69 345.135 293.144 346.419C290.598 347.704 287.806 348.427 284.957 348.539C278.908 348.752 272.412 345.766 270.202 339.29C269.804 338.134 269.538 336.938 269.407 335.722C265.529 340.473 261.651 345.417 256.261 348.326C251.161 351.021 244.763 351.99 240.381 347.375C239.179 346.109 238.202 344.647 237.492 343.052C236.639 343.459 235.786 343.827 234.952 344.137C226.731 347.104 215.562 346.464 208.311 340.764C207.393 340.024 206.561 339.185 205.829 338.262C201.04 345.688 194.466 351.447 185.741 352.708C177.016 353.968 166.836 350.885 162.125 342.16L161.776 341.5C161.601 341.733 161.407 341.966 161.213 342.179C156.89 346.988 150.995 349.741 144.926 347.143C142.795 346.213 140.92 344.783 139.458 342.974C136.149 346.368 131.773 348.523 127.065 349.077C122.356 349.631 117.6 348.551 113.593 346.018C111.9 344.882 110.401 343.481 109.153 341.869C105.965 344.716 102.25 346.91 98.2169 348.326C93.7051 349.906 88.8558 350.268 84.1596 349.373C81.7046 348.889 79.342 348.018 77.16 346.794C75.7389 346.055 74.5408 344.951 73.6892 343.594C69.4891 348.9 63.5848 352.592 56.9755 354.045C53.6656 354.633 50.2569 354.27 47.145 352.998C44.5974 351.788 42.3268 350.065 40.475 347.938C39.6219 348.926 38.73 349.877 37.7799 350.807C32.5641 355.965 26.7472 358.04 20.5038 353.483C17.7233 351.368 15.3792 348.734 13.6012 345.727C10.6361 347.89 7.2869 349.469 3.73191 350.381C3.50003 350.408 3.26573 350.408 3.03385 350.381C2.79532 350.557 2.54239 350.712 2.27769 350.846C1.88303 350.916 1.47637 350.862 1.11366 350.691C0.750957 350.521 0.450013 350.242 0.252293 349.893C0.0545741 349.545 -0.0302122 349.143 0.00956965 348.744C0.0493515 348.346 0.211733 347.969 0.474426 347.666C1.30396 347.214 2.21213 346.925 3.15019 346.813C1.98682 347.065 3.15019 346.658 3.57676 346.464C5.05036 345.883 6.48517 345.223 7.91999 344.525C9.30277 343.927 10.6055 343.158 11.7979 342.237C10.7774 340.084 9.94694 337.846 9.31604 335.548C8.633 333.438 8.38903 331.211 8.59911 329.003C8.80919 326.796 9.46888 324.655 10.5376 322.712C10.5637 322.495 10.6294 322.285 10.7315 322.091C11.8572 320.382 13.2904 318.896 14.9584 317.709L15.1911 317.554L15.385 317.554L15.5789 317.554C15.8685 317.505 16.1663 317.545 16.432 317.671C16.6854 317.783 16.9117 317.949 17.0956 318.156C17.2796 318.363 17.4169 318.608 17.4984 318.873C19.5731 326.357 21.2794 336.789 16.2381 343.245C18.096 346.793 20.9726 349.703 24.4981 351.602C29.9077 354.162 34.5806 349.45 38.187 345.417C33.9989 340.182 33.2234 332.019 34.6388 325.523C35.8603 319.862 40.1454 315.131 45.8847 317.768C50.6545 319.9 50.3055 326.881 49.1421 331.34C47.9057 336.257 45.7619 340.899 42.8211 345.029C44.4168 347.075 46.4774 348.71 48.8319 349.799C54.0864 351.738 59.0114 350.109 63.6842 347.395C66.9036 345.512 69.7389 343.039 72.0411 340.104C68.9194 331.34 70.1022 314.898 80.9215 314.006C81.2316 313.999 81.5375 314.079 81.8046 314.237C82.0718 314.394 82.2897 314.623 82.4339 314.898C84.4892 318.776 83.9463 322.654 82.6278 326.803C81.2918 331.33 79.3342 335.65 76.811 339.639L76.1129 340.628C76.8456 341.971 77.9496 343.075 79.2928 343.808C81.8189 345.137 84.5902 345.936 87.4364 346.154C91.0515 346.357 94.67 345.82 98.0706 344.576C101.471 343.333 104.582 341.409 107.214 338.922C103.336 332.232 102.231 323.274 106.186 316.798C108.552 312.92 112.798 312.281 115.881 315.674C118.964 319.067 118.77 324.186 117.82 328.219C116.761 332.387 114.69 336.23 111.79 339.406C113.999 342.043 116.947 343.957 120.255 344.9C123.563 345.844 127.078 345.774 130.345 344.7C133.141 343.825 135.626 342.162 137.5 339.911C136.977 339.026 136.529 338.098 136.162 337.138C134.813 332.614 134.66 327.817 135.716 323.216C136.337 320.366 137.868 313.211 141.533 313.909C145.682 314.685 146.264 323.119 145.993 326.532C145.621 331.428 144.093 336.166 141.533 340.356C142.823 341.997 144.551 343.241 146.516 343.943C151.887 345.882 156.87 342.412 160.089 337.7C157.142 329.072 157.588 318.311 163.288 311.505C163.489 311.27 163.752 311.096 164.047 311.004C164.342 310.911 164.657 310.903 164.956 310.981C165.839 311.165 166.651 311.599 167.294 312.231C167.937 312.864 168.384 313.669 168.581 314.549C168.637 317.899 168.344 321.245 167.709 324.535C167.341 329.256 166.071 333.864 163.967 338.107C164.366 339.063 164.832 339.99 165.363 340.88C169.609 347.938 178.276 350.09 185.586 348.946C193.478 347.724 199.469 342.024 203.657 334.966C200.419 328.723 199.934 320.347 203.366 314.472C204.316 312.843 206.217 310.244 208.272 310.361C210.327 310.477 211.491 312.765 212.053 314.646C213.992 321.122 211.82 326.59 209.067 332.31C208.64 333.182 208.194 334.055 207.729 334.889C209.053 336.798 210.824 338.356 212.887 339.426C219.034 342.369 226.058 342.915 232.586 340.957C233.813 340.585 235.006 340.112 236.154 339.542C235.235 335.928 234.972 332.178 235.378 328.471C235.921 323.41 237.55 314.898 242.494 312.591C247.051 310.535 250.89 315.654 251.549 320.075C252.868 328.839 247.283 336.711 240.497 341.229C241.99 344.564 244.53 347.162 248.369 346.774C253.135 346.151 257.521 343.848 260.74 340.279C263.357 337.642 265.704 334.462 268.069 331.612C268.534 331.05 268.98 330.468 269.407 329.886C269.975 326.186 270.944 322.558 272.296 319.067L272.412 318.776L272.412 318.621C272.52 318.36 272.699 318.134 272.929 317.97C273.159 317.805 273.43 317.708 273.711 317.69C273.938 317.636 274.175 317.642 274.4 317.707C274.624 317.771 274.827 317.892 274.991 318.059C275.114 318.156 275.219 318.274 275.301 318.407C275.632 318.792 275.942 319.194 276.232 319.61C276.459 319.882 276.584 320.225 276.584 320.579C276.584 320.933 276.459 321.277 276.232 321.549C276.484 323.119 276.387 324.69 275.263 325.271C274.727 327.397 273.836 329.416 272.626 331.243C272.434 333.069 272.525 334.914 272.897 336.711C274.138 342.528 279.625 344.99 284.705 344.797C287.359 344.709 289.951 343.975 292.256 342.657C294.56 341.339 296.508 339.478 297.929 337.235L298.045 337.041C296.758 331.736 296.678 326.21 297.813 320.87C297.904 319.876 298.146 318.902 298.53 317.981L298.646 317.709C298.725 317.479 298.854 317.269 299.024 317.095C299.194 316.92 299.4 316.786 299.628 316.7C299.856 316.615 300.1 316.581 300.343 316.602C300.586 316.622 300.821 316.696 301.031 316.818C301.65 317.213 302.104 317.819 302.311 318.524C305.471 324.108 304.599 331.825 301.768 337.545C302.804 340.735 305.016 343.411 307.953 345.029C312.723 347.53 317.028 345.262 320.014 341.345C317.797 337.601 316.55 333.362 316.388 329.014C316.271 325.659 316.291 319.435 320.072 318.252C324.919 316.721 327.168 323.507 327.498 327.346C327.803 332.259 326.642 337.151 324.163 341.403C324.989 342.41 325.987 343.264 327.11 343.924C330.988 346.154 335.118 344.874 338.453 342.373C340.255 340.991 341.842 339.351 343.165 337.506C342.324 333.793 342.12 329.964 342.564 326.183C342.286 325.751 342.163 325.239 342.215 324.728C342.665 322.515 343.388 320.366 344.367 318.33C344.454 317.994 344.669 317.706 344.967 317.529C345.264 317.351 345.62 317.298 345.957 317.38C346.168 317.38 346.377 317.427 346.568 317.518C346.759 317.608 346.928 317.74 347.062 317.903C352.064 323.895 350.94 331.786 347.062 338.107C347.198 338.476 347.314 338.844 347.469 339.193C349.66 344.777 354.701 347.065 360.13 347.104C367.654 347.104 373.703 340.919 377.853 333.938C377.209 330.391 377.288 326.751 378.085 323.235C378.589 321.161 379.345 317.787 381.556 317.05C382.376 316.827 383.248 316.899 384.021 317.253C384.794 317.607 385.417 318.222 385.783 318.989C387.237 321.51 386.112 323.72 385.201 326.28C384.225 329.086 383.026 331.809 381.614 334.423C381.57 334.524 381.518 334.621 381.459 334.714C382.584 339.833 385.899 344.719 390.979 345.592C396.059 346.464 399.278 343.653 401.643 339.6C401.395 338.651 401.214 337.686 401.101 336.711C400.584 331.933 401.41 327.105 403.485 322.77C403.425 322.384 403.493 321.989 403.679 321.646C404.483 320.365 405.391 319.152 406.394 318.02C406.562 317.798 406.791 317.629 407.053 317.535L407.169 317.535L407.344 317.535L407.848 317.535C408.111 317.587 408.361 317.693 408.582 317.847C408.802 318 408.988 318.198 409.128 318.427C413.723 324.632 409.36 331.243 406.723 337.332C406.297 338.282 405.87 339.271 405.405 340.124C405.853 341.363 406.509 342.517 407.344 343.536C408.246 344.665 409.493 345.465 410.894 345.816C412.296 346.166 413.773 346.046 415.1 345.475C420.814 343.591 425.98 340.336 430.146 335.994C432.743 333.676 435.071 331.075 437.087 328.238C437.221 326.221 437.734 324.248 438.6 322.421C438.733 321.763 439.065 321.16 439.55 320.696C439.73 320.507 439.952 320.363 440.198 320.275C440.443 320.187 440.706 320.159 440.965 320.191C441.301 320.181 441.63 320.29 441.893 320.499C442.156 320.709 442.336 321.005 442.4 321.335C442.48 321.532 442.519 321.743 442.516 321.956C442.526 322.014 442.526 322.073 442.516 322.13C442.546 322.375 442.546 322.622 442.516 322.867C442.354 325.173 441.693 327.416 440.578 329.44C440.741 333.354 442.398 337.057 445.207 339.787C448.016 342.517 451.765 344.067 455.682 344.118C459.778 343.838 463.735 342.517 467.179 340.281C470.623 338.045 473.439 334.968 475.362 331.34C475.071 327.462 475.362 323.332 478.213 320.812C478.454 320.562 478.765 320.391 479.105 320.32C479.446 320.25 479.799 320.284 480.12 320.418C480.441 320.552 480.713 320.78 480.902 321.072C481.091 321.363 481.188 321.705 481.179 322.053C481.143 325.618 480.308 329.129 478.736 332.329C478.844 333.507 479.098 334.666 479.492 335.781C479.893 336.735 480.494 337.593 481.254 338.295C482.015 338.997 482.918 339.528 483.901 339.852C484.884 340.175 485.926 340.284 486.955 340.17C487.984 340.057 488.976 339.724 489.866 339.193C491.384 338.373 492.765 337.319 493.957 336.071C492.333 334.399 491.054 332.422 490.195 330.254C488.877 326.958 488.256 321.568 491.785 319.648C496.342 317.244 499.076 322.305 499.987 326.338C500.634 329.413 500.181 332.617 498.707 335.393C501.527 337.206 504.804 338.183 508.157 338.21C511.509 338.238 514.801 337.315 517.651 335.548C520.355 333.893 522.685 331.694 524.495 329.091C524.081 327.661 523.808 326.193 523.681 324.709C523.371 320.948 523.952 314.471 527.113 312.067C528.114 311.341 529.293 310.899 530.525 310.788C531.514 310.671 532.212 311.679 532.29 312.61C532.782 318.582 531.385 324.558 528.296 329.692C528.451 330.119 528.645 330.565 528.839 330.991C530.202 333.47 532.109 335.609 534.415 337.248C536.722 338.886 539.369 339.982 542.159 340.453C546.658 341.403 551.854 341.656 555.732 338.825C554.495 336.807 553.597 334.599 553.076 332.29C551.912 327.075 552.261 319.571 557.981 317.826C564.186 315.887 566.086 324.03 565.62 329.111C565.109 332.98 563.345 336.575 560.599 339.348C561.114 339.919 561.664 340.456 562.247 340.958C570.003 347.414 581.636 345.087 588.093 338.068C589.395 336.689 590.564 335.19 591.583 333.59C587.162 326.881 586.503 316.721 593.212 311.679C593.473 311.514 593.775 311.426 594.084 311.426C594.393 311.426 594.696 311.514 594.957 311.679C600.774 315.228 598.97 323.643 597.361 329.363C596.97 330.691 596.477 331.987 595.887 333.241C596.786 334.248 597.84 335.106 599.009 335.781C605.388 339.271 613.551 337.72 619.232 333.376C621.094 332.039 622.839 335.199 621.075 336.575ZM14.9584 323.565C14.4777 323.938 13.9576 324.256 13.4073 324.515C11.1581 328.393 11.6234 332.853 13.4073 337.661C13.6205 338.243 13.8532 338.825 14.1247 339.426C15.1018 337.689 15.672 335.753 15.7922 333.764C16.0384 330.342 15.7572 326.902 14.9584 323.565ZM37.7799 336.479C38.2073 338.603 39.1307 340.596 40.475 342.295C43.0147 338.396 44.8217 334.066 45.8071 329.518C46.6021 326.027 46.5246 318.504 41.0567 320.851C36.4808 322.983 36.9849 332.504 37.7799 336.537L37.7799 336.479ZM74.3679 336.479C74.8914 335.645 75.3955 334.792 75.8803 333.88C78.0907 329.828 81.4063 322.751 79.7582 317.826C73.9413 319.474 72.9718 330.351 74.077 335.431C74.1158 335.8 74.2709 336.168 74.3679 336.498L74.3679 336.479ZM107.33 328.626C107.537 331.267 108.275 333.839 109.502 336.188C110.241 335.289 110.921 334.344 111.538 333.357C113.845 329.634 115.939 324.341 114.194 319.784C113.651 318.369 112.255 316.585 110.626 316.953C109.482 317.205 108.687 318.892 108.222 319.939C107.221 322.726 106.915 325.714 107.33 328.645L107.33 328.626ZM139.536 336.498C139.988 335.66 140.383 334.791 140.719 333.9C142.658 328.878 143.647 323.061 141.107 318.233C138.375 323.933 137.816 330.435 139.536 336.517L139.536 336.498ZM162.357 333.163C162.474 332.814 162.61 332.465 162.706 332.116C163.613 328.992 164.191 325.782 164.432 322.537C164.607 320.87 164.723 319.203 164.859 317.554C164.859 316.585 165.285 315.615 164.859 315.053C161.562 319.959 160.981 326.939 162.357 333.26L162.357 333.163ZM205.771 331.224C207.553 328.243 208.763 324.955 209.338 321.529C209.52 319.791 209.369 318.034 208.892 316.352C208.543 315.131 208.524 314.277 207.38 315.034C205.926 315.984 205.189 318.737 204.898 320.405C204.239 324.019 204.54 327.743 205.771 331.204L205.771 331.224ZM239.256 337.739C241.723 336.13 243.804 333.995 245.35 331.488C246.895 328.981 247.867 326.162 248.195 323.235C248.369 321.296 248.02 317.748 246.101 316.643C242.611 314.704 241.215 319.203 240.284 321.898C238.625 326.583 238.178 331.613 238.985 336.517C239.082 336.886 239.159 337.293 239.256 337.72L239.256 337.739ZM300.527 330.739C300.952 328.731 301.03 326.666 300.76 324.632C300.499 326.65 300.421 328.687 300.527 330.72L300.527 330.739ZM322.069 338.088C323.482 335.265 324.219 332.151 324.221 328.994C324.221 327.055 324.008 323.895 322.418 322.46C320.828 321.025 320.479 322.673 320.149 324.147C319.602 327.33 319.727 330.593 320.518 333.725C320.885 335.222 321.404 336.678 322.069 338.068L322.069 338.088ZM345.918 332.736C347.133 330.034 347.399 327 346.674 324.128C346.5 324.457 346.306 324.787 346.112 325.097C345.691 327.615 345.625 330.18 345.918 332.717L345.918 332.736ZM380.974 327.811C381.284 327.094 381.575 326.377 381.827 325.659C382.38 324.528 382.778 323.328 383.01 322.092C383.107 319.629 382.234 321.626 381.789 323.061C381.336 324.601 381.062 326.189 380.974 327.792L380.974 327.811ZM407.557 322.887L407.266 323.197C405.428 326.48 404.454 330.176 404.435 333.938C405.056 332.426 405.657 330.875 406.374 329.363C407.363 326.842 408.139 324.961 407.615 322.867L407.557 322.887ZM494.151 330.449C494.692 331.4 495.343 332.285 496.09 333.085C496.928 331.337 497.16 329.358 496.749 327.462C496.458 325.989 494.093 319.901 492.677 324.283C492.018 326.105 493.278 328.936 494.151 330.429L494.151 330.449ZM527.113 324.341C528.239 321.565 528.856 318.61 528.936 315.616L528.548 315.616C527.268 317.283 527.074 321.432 527.055 322.635C527.055 323.177 527.074 323.74 527.113 324.321L527.113 324.341ZM556.197 329.712C556.496 332.086 557.275 334.375 558.485 336.44C560.036 334.848 561.157 332.889 561.744 330.746C562.33 328.602 562.363 326.345 561.839 324.186C561.374 322.576 560.87 320.986 559.047 321.452C558.268 321.707 557.589 322.202 557.108 322.867C556.039 324.973 555.705 327.375 556.158 329.692L556.197 329.712ZM593.541 329.712C593.983 328.511 594.307 327.271 594.511 326.008C595.054 322.731 596.857 318.136 594.259 315.577C590.536 319.183 591.06 325.097 593.503 329.75L593.541 329.712Z" fill="#2384C2"/>
</svg>
