<svg width="806" height="438" viewBox="0 0 806 438" fill="none" xmlns="http://www.w3.org/2000/svg">
<path d="M758.868 293.62L759.231 293.388C767.538 288.692 778.185 290.489 786.195 294.751C790.475 296.973 794.114 300.032 796.83 303.693C799.546 307.354 801.265 311.516 801.853 315.856C803.263 317.489 804.252 319.372 804.753 321.374C805.254 323.376 805.254 325.451 804.753 327.453C803.763 330.47 802.021 333.255 799.655 335.607C797.289 337.959 794.358 339.818 791.073 341.05C784.165 343.828 776.613 345.149 769.021 344.905C768.429 344.949 767.833 344.949 767.241 344.905L767.043 344.905C766.879 344.919 766.713 344.919 766.549 344.905C760.001 345.86 753.319 345.86 746.771 344.905C741.112 344.267 735.88 341.921 731.97 338.267C727.586 333.57 727.883 327.569 729.3 321.916C730.994 314.328 735.546 307.465 742.222 302.434C743.576 301.48 745.033 300.644 746.573 299.94C749.723 296.653 754.065 294.421 758.868 293.62ZM789.392 310.058C788.984 313.701 788.19 317.302 787.019 320.814C787.019 322.031 787.019 323.22 786.821 324.409C786.466 328.976 785.005 333.424 782.536 337.455C786.602 335.567 790.218 333.008 793.183 329.917C796.814 326.223 798.732 321.462 798.556 316.581C795.952 313.958 792.852 311.751 789.392 310.058ZM742.419 322.118C742.489 324.969 743.231 327.776 744.598 330.361C745.966 332.946 747.929 335.253 750.364 337.136C751.85 338.139 753.479 338.967 755.209 339.6L754.352 338.585C753.429 337.316 752.77 335.912 752.407 334.44C751.235 333.776 750.199 332.943 749.342 331.975C747.425 329.594 746.285 326.797 746.045 323.887C745.71 320.624 745.887 317.337 746.573 314.117C747.103 310.975 748.02 307.894 749.309 304.927C749.876 303.677 750.526 302.457 751.254 301.274C750.465 301.512 749.695 301.792 748.946 302.114C744.229 307.928 741.925 314.99 742.419 322.118ZM755.605 300.433L755.308 300.781C752.085 305.392 750.09 310.586 749.474 315.972C748.748 320.553 748.485 326.409 751.979 330.265C752.001 328.505 752.188 326.75 752.539 325.017C752.165 323.455 752.087 321.848 752.308 320.263C752.62 317.763 753.984 315.457 756.132 313.798L756.89 311.913C758.155 308.535 759.789 305.273 761.769 302.172L762.626 300.955C760.469 300.499 758.249 300.314 756.033 300.404C756.033 300.404 755.671 300.462 755.539 300.462L755.605 300.433ZM786.162 308.464L784.58 307.768C785.165 308.989 785.639 310.249 785.997 311.536C786.146 310.518 786.179 309.488 786.096 308.464L786.162 308.464ZM778.547 337.774C780.961 334.777 782.532 331.319 783.129 327.685C782.929 327.442 782.836 327.143 782.866 326.844C782.866 326.029 782.932 325.215 783.063 324.409C782.257 325.602 781.124 326.598 779.767 327.308C779.026 328.78 778.025 330.141 776.8 331.338C774.432 333.51 771.472 335.113 768.201 335.996C764.93 336.879 761.456 337.012 758.11 336.382C757.553 336.297 757.002 336.181 756.462 336.034L756.956 336.817C758.709 339.109 761.382 340.735 764.439 341.368C765.345 341.592 766.272 341.748 767.208 341.832C770.161 341.41 773.071 340.779 775.91 339.948C776.875 339.329 777.74 338.597 778.481 337.774L778.547 337.774ZM755.473 332.671C756.508 333.146 757.62 333.478 758.769 333.657C758.09 333.241 757.46 332.765 756.89 332.236C756.371 331.711 755.886 331.159 755.44 330.584C755.34 331.276 755.307 331.974 755.341 332.671L755.473 332.671ZM773.537 325.104L773.537 324.496C773.174 324.496 772.812 324.496 772.449 324.496C772.723 324.724 773.021 324.927 773.339 325.104L773.537 325.104ZM762.362 320.959C763.426 321.316 764.531 321.569 765.659 321.712L765.659 321.481C765.463 320.659 765.49 319.809 765.736 318.998C765.982 318.188 766.441 317.439 767.076 316.813L766.12 315.682C764.631 315.487 763.192 315.065 761.868 314.436C761.23 314.568 760.611 314.762 760.022 315.016L759.461 315.305L759.461 315.914C759.289 316.482 759.256 317.075 759.364 317.655C759.472 318.235 759.718 318.788 760.088 319.277C760.189 319.381 760.3 319.478 760.418 319.567L760.747 319.857C761.051 320.052 761.37 320.226 761.703 320.379C761.868 320.379 762 320.379 762.164 320.582L762.329 320.582L762.362 320.959ZM777.657 320.553C777.101 319.228 776.186 318.041 774.992 317.097C773.797 316.152 772.358 315.478 770.801 315.132L770.801 315.305C772.365 316.67 773.717 318.21 774.823 319.886L775.581 321.162C776.207 321.017 776.866 320.843 777.526 320.64L777.657 320.553ZM772.152 321.741C771.429 320.566 770.555 319.467 769.548 318.465C769.024 318.909 768.694 319.5 768.615 320.137C768.537 320.773 768.716 321.413 769.12 321.945C769.944 321.887 770.966 321.857 771.955 321.741L772.152 321.741ZM762 310.58C762.263 310.58 762.494 310.58 762.725 310.783L762.56 310.493L762.099 310.493L762 310.58ZM777.46 325.25C777.665 324.683 777.809 324.1 777.888 323.51L776.537 323.858C776.668 324.365 776.766 324.878 776.833 325.394C776.979 325.353 777.122 325.304 777.262 325.25L777.46 325.25ZM774.79 313.45C777.002 314.464 778.817 316.04 779.998 317.973C780.249 318.421 780.458 318.886 780.624 319.364L781.085 319.103C780.912 318.426 780.587 317.785 780.13 317.219C778.642 315.601 776.745 314.311 774.592 313.45L774.79 313.45ZM772.878 312.667L771.394 312.146C770.9 311.972 770.405 311.827 769.878 311.682L769.878 311.856C770.833 312.068 771.769 312.339 772.68 312.667L772.878 312.667ZM755.967 324.959C756.345 326.273 756.957 327.525 757.78 328.67C758.727 330.117 760.137 331.287 761.835 332.033C763.978 332.643 766.295 332.576 768.388 331.846C770.482 331.116 772.22 329.768 773.306 328.033C772.04 327.742 770.845 327.251 769.779 326.583C768.927 326.072 768.152 325.468 767.472 324.786C765.204 324.693 762.973 324.251 760.879 323.481C759.374 322.909 758.074 321.987 757.121 320.814C756.462 322.176 756.066 323.655 755.77 324.959L755.967 324.959ZM780.031 305.912C775.496 304.235 770.838 302.831 766.087 301.709C765.432 302.525 764.837 303.377 764.307 304.26C763.615 305.342 762.988 306.454 762.428 307.594C763.091 307.614 763.752 307.672 764.406 307.768C765.863 307.889 767.307 308.112 768.724 308.435C771.755 309.092 774.663 310.127 777.361 311.508C779.893 312.742 782 314.555 783.459 316.755L783.459 315.885L783.459 315.537L783.195 315.103C782.832 314.578 782.363 314.116 781.811 313.74C781.079 313.169 780.284 312.664 779.437 312.233C777.657 311.276 779.273 308.811 781.053 309.768C781.613 310.058 782.14 310.406 782.668 310.725C782.45 310.115 782.196 309.515 781.91 308.928C781.305 307.878 780.611 306.87 779.833 305.912L780.031 305.912ZM776.042 301.506C774.405 300.08 772.526 298.887 770.471 297.969C769.719 298.347 769.021 298.804 768.395 299.331C770.768 299.969 773.339 300.694 775.844 301.506L776.042 301.506ZM785.404 304.927C784.057 302.287 781.826 300.072 779.009 298.578C777.87 297.943 776.607 297.501 775.284 297.273C778.003 299.021 780.347 301.181 782.206 303.651C782.47 303.651 782.767 303.854 783.03 303.97C783.69 304.26 784.415 304.579 785.206 304.927L785.404 304.927ZM760.516 296.229C759.829 296.661 759.168 297.126 758.539 297.621C760.676 297.726 762.796 298.017 764.867 298.49C765.485 297.875 766.146 297.294 766.845 296.751C766.044 296.552 765.229 296.397 764.406 296.287C763.051 296.132 761.681 296.102 760.319 296.2L760.516 296.229ZM755.44 342.615C752.569 341.714 749.91 340.358 747.595 338.614C744.964 336.348 742.877 333.641 741.456 330.654C740.035 327.666 739.309 324.458 739.321 321.22C739.121 316.078 740.248 310.964 742.617 306.26C738.328 310.252 735.245 315.126 733.651 320.437C732.102 325.307 731.014 331.106 734.475 335.541C737.548 338.834 741.888 341.021 746.672 341.687C749.487 342.246 752.357 342.566 755.242 342.644L755.44 342.615ZM801.589 321.162C799.743 329.482 792.128 336.353 783.657 340.296C783.426 340.296 783.162 340.499 782.899 340.615C791.568 338.701 799.578 334.497 801.721 326.786C802.22 324.937 802.14 323.003 801.49 321.191L801.589 321.162ZM766.648 293.736C767.925 293.989 769.172 294.348 770.372 294.809C777.855 292.432 786.294 298.462 788.634 304.55C788.913 305.236 789.112 305.945 789.228 306.666C792.306 308.109 795.192 309.849 797.831 311.856C797.417 310.575 796.865 309.333 796.183 308.145C794.216 304.769 791.485 301.782 788.158 299.369C784.83 296.956 780.976 295.167 776.833 294.113C773.489 293.261 769.958 293.141 766.549 293.765L766.648 293.736Z" fill="#1BB6AC"/>
<path d="M539.728 17.3348C542.359 11.9766 546.514 7.30395 551.792 3.76684C556.003 0.954118 561.264 -0.360328 566.527 0.085086C573.055 1.08713 578.992 4.03556 583.338 8.43454C587.819 12.1143 590.99 16.8571 592.469 22.0892C593.312 26.0979 592.405 30.2386 589.931 33.6857L589.404 34.3526C591.605 38.807 591.817 43.8275 589.997 48.4132C586.932 55.748 579.086 59.8069 571.076 62.1552C557.166 66.2429 535.146 66.2427 530.201 51.0513C529.643 49.3533 529.333 47.5998 529.279 45.833C527.213 44.679 525.566 43.0293 524.532 41.0786C521.73 35.4833 525.686 29.4821 529.476 25.1044C531.821 21.9741 535.001 19.3961 538.739 17.5957C539.069 17.5377 539.398 17.4508 539.728 17.3348ZM558.913 51.1674C556.107 50.8105 553.332 50.2873 550.606 49.6018C549.529 49.6018 548.43 49.6018 547.309 49.6018C550.84 50.932 554.696 51.4508 558.517 51.1094C558.517 51.1094 558.781 51.1384 558.913 51.1384L558.913 51.1674ZM538.673 46.123C538.128 45.295 537.655 44.4325 537.256 43.5427C535.741 42.1559 534.514 40.5468 533.63 38.7882C533.023 40.5804 532.658 42.4293 532.542 44.2965C534.481 45.1501 536.544 45.7647 538.673 46.123ZM583.042 35.2223C581.881 33.8144 580.48 32.5724 578.889 31.5404C579.118 32.623 579.118 33.7337 578.889 34.8164C578.612 36.1569 578.041 37.4371 577.207 38.5852C577.343 39.0607 577.432 39.5457 577.471 40.0348C578.814 39.3588 580.102 38.6034 581.328 37.7735C582.153 37.2425 582.935 36.6612 583.668 36.034L583.042 35.2223ZM551.397 46.8188C550.339 46.4211 549.305 45.9759 548.298 45.4851C546.161 44.4853 544.25 43.1489 542.662 41.5423L542.991 44.0936C545.315 45.2463 547.796 46.1328 550.375 46.7317C550.573 46.7317 550.738 46.7317 550.936 46.7317C551.09 46.7377 551.245 46.7279 551.397 46.7027L551.397 46.8188ZM549.716 23.8288C550.539 24.0583 551.326 24.3797 552.056 24.7854C552.88 24.7854 553.704 24.7854 554.495 24.6115C556.297 24.6063 558.095 24.7422 559.869 25.0174L561.154 24.8434C561.154 24.8434 561.517 24.8434 561.681 24.8434C558.282 23.9102 554.723 23.508 551.166 23.6549C550.672 23.5679 550.177 23.6258 549.716 23.7127L549.716 23.8288ZM565.406 44.6444L565.67 44.3256C561.776 44.7324 557.833 44.5657 554.001 43.8326C552.232 43.494 550.5 43.0186 548.826 42.412C551.051 43.6765 553.471 44.6528 556.012 45.3112C557.087 45.6087 558.19 45.8222 559.308 45.9491C561.451 45.3402 563.429 45.0212 565.406 44.5283L565.406 44.6444ZM551.298 27.7135C549.8 27.9931 548.385 28.5462 547.145 29.337C546.212 29.8966 545.432 30.6318 544.862 31.4892C544.291 32.3467 543.945 33.305 543.848 34.2946C545.118 32.6082 546.637 31.0776 548.364 29.7429C549.281 29.0225 550.274 28.3818 551.331 27.8296L551.298 27.7135ZM557.198 36.9617C557.058 36.1132 556.827 35.2783 556.506 34.4685C555.867 32.8303 554.932 31.2934 553.737 29.9169C553.062 30.2463 552.413 30.6144 551.792 31.0186C549.29 32.733 547.205 34.8724 545.661 37.3096C546.054 37.6529 546.472 37.9726 546.914 38.2663C548.473 39.1915 550.171 39.9231 551.957 40.4407C551.88 40.1201 551.906 39.7867 552.035 39.479C552.163 39.1712 552.388 38.9017 552.683 38.7013C554.005 37.8435 555.564 37.3129 557.198 37.1647L557.198 36.9617ZM563.956 41.5714C562.727 40.8302 561.334 40.3263 559.869 40.0928C559.639 40.514 559.314 40.889 558.913 41.1945L558.319 41.5714C559.77 41.5714 561.187 41.5714 562.605 41.5714L563.956 41.5714ZM572.922 42.2091C573.351 42.0351 573.812 41.8612 574.241 41.6582L574.241 41.4553C573.988 41.6331 573.724 41.7978 573.449 41.9483L572.922 42.2091ZM573.647 38.1795C573.093 36.6944 572.318 35.2808 571.34 33.9757C569.685 31.9265 567.397 30.3369 564.747 29.3951C563.165 28.7468 561.507 28.251 559.803 27.9165C558.759 28.0926 557.733 28.3448 556.737 28.6703C558.703 31.0074 559.942 33.7555 560.33 36.6428L560.33 37.1356C563.268 37.6078 565.964 38.8747 568.044 40.7595C570.112 40.3141 572.003 39.3821 573.515 38.0634L573.647 38.1795ZM575.592 34.7874C575.999 33.7824 576.019 32.6879 575.65 31.6719C575.281 30.6558 574.542 29.7744 573.548 29.1631C571.897 28.3657 570.082 27.8632 568.208 27.6845C570.464 28.7944 572.402 30.341 573.878 32.2071C574.514 32.9924 575.087 33.8159 575.592 34.6715L575.592 34.7874ZM543.024 28.9891C543.443 28.5204 543.906 28.0839 544.409 27.6845C545.088 27.1716 545.829 26.7247 546.617 26.351C545.729 26.3936 544.873 26.6548 544.145 27.1048C544.049 27.164 543.961 27.2321 543.881 27.3078C543.881 27.4817 543.881 27.3078 543.881 27.4817C543.558 27.9473 543.324 28.4566 543.189 28.9891L543.024 28.9891ZM538.871 30.1198C538.343 33.0587 538.343 36.0523 538.871 38.9911L539.266 40.5566C539.009 37.9636 538.932 35.3592 539.036 32.758C539.087 31.6308 539.22 30.5077 539.431 29.3951L538.871 30.1198ZM536.201 27.3947C535.969 27.8862 535.771 28.3897 535.607 28.9023L535.607 29.1631L535.97 28.7573L536.201 27.3947ZM568.373 49.0511C570.283 48.2158 571.891 46.9312 573.021 45.3402C571.109 46.036 569.164 46.6448 567.22 47.1666C565.809 48.1788 564.061 48.7589 562.242 48.8191C564.282 48.956 566.33 48.9752 568.373 48.877L568.373 49.0511ZM574.406 48.4423C576.254 48.0593 578.03 47.4442 579.68 46.6158C582.027 45.4372 583.764 43.5045 584.525 41.2235C584.657 40.5617 584.657 39.8849 584.525 39.2231C582.239 40.9343 579.74 42.4124 577.076 43.6296C576.638 45.3385 575.72 46.9235 574.406 48.2393L574.406 48.4423ZM583.47 31.5114C582.466 30.4638 581.288 29.555 579.976 28.8152C579.185 28.3803 578.394 28.0035 577.57 27.6266C579.672 28.6598 581.63 29.9051 583.404 31.3374L583.47 31.5114ZM555.188 20.9587C556.078 20.9587 556.968 21.1616 557.858 21.2776L557.528 21.2776C556.671 21.0457 555.814 20.8426 554.924 20.6107C553.212 20.3494 551.484 20.1751 549.749 20.0889C546.903 19.8488 544.045 20.4288 541.607 21.7414C541.47 21.8449 541.327 21.9418 541.178 22.0314C540.783 23.0461 540.387 24.0608 540.057 25.1044C542.115 23.5201 544.517 22.3201 547.118 21.5775C549.719 20.8349 552.465 20.5653 555.188 20.7848L555.188 20.9587ZM529.476 42.644C529.85 39.7561 530.74 36.9382 532.113 34.2946C531.628 31.0869 532.284 27.8255 533.992 24.9593C531.597 27.3195 529.609 29.9765 528.092 32.845C527.391 34.0498 526.945 35.3562 526.773 36.7009C526.66 37.3543 526.66 38.0189 526.773 38.6723L527.103 39.6579L527.103 40.0057L527.103 40.2667C527.264 40.5687 527.452 40.8594 527.663 41.1364C527.663 41.1364 528.257 41.8902 528.059 41.6873L529.476 42.644ZM541.607 59.4008C541.488 59.1832 541.42 58.9464 541.409 58.705C541.344 56.3176 541.112 53.936 540.717 51.5733L540.42 49.4859C537.939 49.1954 535.505 48.6506 533.168 47.8624L532.641 47.6594C532.889 49.6865 533.571 51.6539 534.652 53.4577C536.271 55.9429 538.691 57.9504 541.607 59.2269L541.607 59.4008ZM587.756 40.8176C586.767 47.3406 579.449 50.6746 572.691 51.5153C571.538 51.5153 570.384 51.7472 569.395 51.8051C562.79 54.6626 555.187 55.1713 548.167 53.2257C546.623 52.7117 545.169 52.0091 543.848 51.1384C544.248 53.5488 544.468 55.9796 544.508 58.4152C544.508 58.762 544.359 59.096 544.089 59.3491C543.82 59.6023 543.451 59.7556 543.057 59.7777C545.287 60.6085 547.64 61.1554 550.045 61.4014C557.109 62.0667 564.251 61.2826 570.911 59.111C577.504 57.0816 584.097 53.6606 586.701 47.5145C587.654 45.3264 588.048 42.9806 587.854 40.6436L587.756 40.8176ZM543.848 16.494C547.37 16.2398 550.914 16.5144 554.331 17.3058C555.056 17.3058 555.781 17.6247 556.473 17.7986C559.045 18.2335 561.583 18.7553 564.121 19.2482C567.811 20.1356 571.605 20.6512 575.427 20.7848C576.772 20.9052 578.129 20.6985 579.35 20.1872C580.571 19.676 581.608 18.88 582.35 17.8857C583.371 16.2912 586.174 17.7407 585.152 19.3352C584.138 20.7261 582.712 21.8472 581.028 22.5778C579.343 23.3084 577.464 23.6206 575.592 23.4809C577.567 24.1515 579.474 24.966 581.295 25.9161C583.839 27.3329 586 29.2231 587.624 31.4535C587.888 30.9896 588.151 30.5547 588.382 30.0618C589.756 27.1063 589.885 23.8163 588.745 20.7848C586.935 16.3292 583.887 12.3426 579.877 9.18834C576.268 5.77795 571.506 3.48051 566.296 2.63632C557.166 1.67961 549.65 7.68077 545.101 14.2328L543.848 16.494Z" fill="#1BB6AC"/>
<path d="M544.837 212.068C551.236 210.067 558.098 209.49 564.813 210.387C573.053 211.575 581.888 216.011 584.591 223.288C588.052 231.985 581.294 241.32 574.108 246.8C571.34 248.956 568.159 250.663 564.714 251.844C560.545 256.116 555.044 259.22 548.891 260.773C540.055 262.69 530.863 262.976 521.894 261.614C517.522 261.07 513.318 259.759 509.533 257.758C506.116 255.812 503.575 252.88 502.347 249.467C501.051 245.392 500.716 241.127 501.363 236.935C502.009 232.742 503.623 228.71 506.105 225.085C508.368 221.451 511.604 218.356 515.532 216.069C518.801 214.294 522.538 213.295 526.377 213.17C526.794 212.983 527.223 212.818 527.663 212.677C531.772 211.447 536.147 211.06 540.453 211.546C542.002 211.662 543.419 211.836 544.837 212.068ZM554.264 217.431C553.638 217.431 553.012 217.258 552.418 217.229C554.179 217.951 555.609 219.177 556.473 220.707C557.773 221.57 558.976 222.541 560.066 223.607C561.22 224.708 563.626 226.912 562.604 228.477L562.176 229.057C563.44 230.064 564.49 231.261 565.274 232.594C566.198 234.24 566.629 236.066 566.527 237.899C568.349 234.519 568.78 230.686 567.746 227.057C567.546 226.428 567.281 225.817 566.955 225.23C564.675 222.834 561.873 220.863 558.714 219.432C557.264 218.62 555.781 218.011 554.264 217.431ZM569.889 238.015C569.463 239.008 568.968 239.976 568.406 240.914C566.134 244.653 562.921 247.886 559.011 250.365C560.384 250.148 561.739 249.848 563.066 249.467L563.066 249.322C566.326 246.082 568.665 242.206 569.889 238.015ZM524.07 218.359C520.025 222.865 517.317 228.185 516.191 233.841C515.236 237.812 514.28 244.045 517.84 247.06C520.413 248.882 523.501 250.055 526.773 250.452C524.551 249.293 522.612 247.759 521.068 245.938C519.523 244.117 518.404 242.045 517.774 239.842C517.345 237.084 517.62 234.277 518.578 231.625C519.536 228.972 521.153 226.54 523.312 224.506C524.337 223.477 525.438 222.508 526.608 221.606C527.791 220.162 529.382 219.013 531.223 218.272C532.278 217.635 533.332 216.997 534.519 216.446C532.228 216.152 529.911 216.045 527.597 216.127C526.281 216.683 525.087 217.438 524.07 218.359ZM558.714 246.887C559.896 245.996 560.998 245.027 562.011 243.987C561.047 244.477 560.017 244.857 558.945 245.118C553.913 246.23 548.629 246.089 543.683 244.712C540.568 244.905 537.448 244.397 534.618 243.234C532.637 242.297 531.028 240.852 530.003 239.092C528.978 237.331 528.588 235.337 528.883 233.377C526.942 231.604 525.675 229.345 525.256 226.912C524.367 227.936 523.573 229.022 522.883 230.159C521.875 231.649 521.213 233.3 520.936 235.017C520.658 236.734 520.771 238.482 521.268 240.16C523.048 244.184 526.517 247.454 530.959 249.293C532.9 250.218 534.958 250.938 537.09 251.438C541.284 251.67 545.489 251.67 549.682 251.438C553.042 250.474 556.147 248.927 558.813 246.887L558.714 246.887ZM544.969 218.649C544.211 218.649 543.485 218.649 542.793 218.649C542.41 218.796 542.036 218.96 541.672 219.142C540.703 219.619 539.777 220.162 538.903 220.766C541.112 221.693 543.32 222.737 545.496 223.867C546.617 223.867 547.705 223.868 548.792 224.071C550.558 224.276 552.301 224.615 554.001 225.085L554.001 224.215C554.015 223.613 553.903 223.014 553.671 222.447C551.293 221.042 548.738 219.885 546.056 218.997C545.826 218.881 545.43 218.765 545.068 218.649L544.969 218.649ZM536.958 223.143C537.233 223.702 537.588 224.228 538.013 224.708C538.574 224.708 539.167 224.447 539.727 224.331C538.903 223.926 537.98 223.52 537.057 223.143L536.958 223.143ZM539.2 233.812C537.565 232.604 536.23 231.114 535.277 229.434C534.419 229.939 533.708 230.614 533.201 231.405C533.592 232.184 534.079 232.922 534.651 233.608C535.373 233.911 536.156 234.083 536.955 234.113C537.753 234.143 538.551 234.03 539.299 233.783L539.2 233.812ZM547.54 228.535C546.749 228.535 545.957 228.245 545.232 228.158C543.759 227.968 542.269 227.91 540.782 227.984C541.436 228.467 542.003 229.034 542.463 229.666C543.106 230.557 543.574 231.537 543.848 232.565L543.848 232.884C544.895 233.367 546.001 233.746 547.144 234.014C548.534 233.082 549.776 231.99 550.836 230.767C549.821 229.969 548.753 229.223 547.639 228.535L547.54 228.535ZM543.419 236.102C543.024 235.928 542.628 235.783 542.233 235.58C541.591 235.978 540.893 236.299 540.156 236.537C540.988 236.561 541.821 236.483 542.628 236.305C543.024 236.247 543.255 236.16 543.518 236.102L543.419 236.102ZM555.286 231.086C555.198 231.081 555.11 231.081 555.023 231.086L555.286 231.086ZM534.453 225.085C534.096 225.558 533.776 226.052 533.497 226.564C533.961 226.276 534.446 226.014 534.948 225.781C534.794 225.559 534.661 225.327 534.552 225.085L534.453 225.085ZM544.013 241.842C546.191 241.645 548.33 241.197 550.375 240.508C552.988 239.668 555.275 238.19 556.967 236.247C554.152 237.374 551.016 237.728 547.968 237.261C545.648 238.701 542.862 239.443 540.024 239.378C538.572 239.312 537.154 238.966 535.871 238.363C537.764 239.641 539.894 240.622 542.167 241.262C542.87 241.513 543.518 241.707 544.112 241.842L544.013 241.842ZM557.956 234.623C558.167 234.072 558.278 233.494 558.286 232.913L557.33 233.522L557.89 234.305L557.956 234.623ZM533.102 220.302C531.787 221.143 530.522 222.043 529.311 222.998C528.728 223.839 528.397 224.796 528.351 225.78C528.305 226.764 528.545 227.742 529.047 228.622L529.245 228.97C529.474 227.84 529.862 226.74 530.399 225.694C531.147 224.211 532.123 222.827 533.3 221.577L533.3 220.766L533.3 220.186C533.268 220.225 533.235 220.264 533.201 220.302L533.102 220.302ZM561.714 240.595C562.306 240.045 562.745 239.382 562.997 238.658C563.249 237.934 563.306 237.168 563.164 236.421C563.023 235.091 562.477 233.819 561.582 232.739C561.567 233.265 561.501 233.789 561.384 234.305C560.996 235.747 560.282 237.106 559.286 238.301C558.289 239.496 557.03 240.503 555.583 241.262C554.444 241.924 553.242 242.496 551.99 242.973C553.593 243.018 555.197 242.901 556.769 242.625C558.632 242.412 560.385 241.727 561.813 240.653L561.714 240.595ZM557.231 225.027C557.208 225.378 557.153 225.727 557.066 226.071C557.72 226.332 558.358 226.622 558.978 226.941C558.49 226.282 557.938 225.662 557.33 225.085L557.231 225.027ZM558.648 253.149C556.638 253.468 554.594 253.7 552.583 253.874C551.726 253.874 550.869 253.873 550.045 254.076C545.74 255.125 541.203 255.195 536.86 254.279C533.404 254.144 529.966 253.776 526.575 253.177C523.165 252.712 519.907 251.615 517.016 249.959C515.689 249.055 514.597 247.913 513.813 246.608C513.029 245.303 512.569 243.866 512.467 242.393C512.079 238.407 512.56 234.392 513.884 230.565C515.089 226.531 516.979 222.68 519.488 219.142C520.08 218.35 520.718 217.586 521.4 216.852C517.337 218.122 513.808 220.447 511.28 223.52C507.143 228.453 504.768 234.356 504.456 240.48C504.226 245.553 505.445 251.235 510.225 254.511C515.415 257.557 521.49 259.227 527.729 259.324C534.082 259.789 540.478 259.437 546.716 258.28C549.6 257.778 552.372 256.868 554.924 255.584C556.263 254.876 557.541 254.081 558.747 253.206L558.648 253.149ZM551.429 213.489C552.913 213.895 554.33 214.358 555.748 214.88C558.61 215.358 561.325 216.364 563.711 217.834C566.098 219.303 568.103 221.202 569.592 223.404C575.724 230.333 574.339 239.233 569.263 246.597C579.152 240.596 587.986 227.81 578.031 219.113C571.043 213.054 560.791 211.894 551.429 213.489Z" fill="#1BB6AC"/>
<path d="M551.363 396.393C555.293 390.613 561.672 386.441 569.097 384.797C571.952 384.178 574.865 383.79 577.8 383.637C578.693 382.912 579.652 382.253 580.668 381.666C583.78 380.035 587.26 379.022 590.864 378.696C594.468 378.371 598.109 378.741 601.534 379.781C609.164 381.672 615.93 385.616 620.883 391.059C623.288 393.76 624.804 396.988 625.267 400.394C625.554 403.089 625.183 405.808 624.179 408.367C624.905 416.6 618.773 423.181 610.994 427.559C609.845 429.935 608.15 432.077 606.017 433.85C603.038 436.228 599.126 437.495 595.106 437.387C590.838 437.211 586.666 436.222 582.876 434.488C582.052 434.14 581.261 433.763 580.47 433.386C576.051 432.731 572.061 430.667 569.262 427.588L569.262 427.414C567.647 426.979 565.966 426.486 564.45 425.906C558.516 423.79 552.022 420.659 549.122 415.354C547.66 412.281 547.1 408.935 547.491 405.622C547.883 402.309 549.214 399.136 551.363 396.393ZM576.514 389.349L576.976 389.349C580.016 390.044 582.965 391.016 585.777 392.248C589.226 391.595 592.811 391.765 596.161 392.74C596.721 392.74 597.248 392.74 597.809 392.74C598.369 392.74 598.666 392.19 599.094 391.958C600.532 391.134 602.148 390.581 603.841 390.334C596.097 387.272 587.628 385.9 579.151 386.333C578.15 387.251 577.265 388.262 576.514 389.349ZM616.565 399.061C616.936 400.907 617.046 402.786 616.894 404.656L616.894 405.961C618.129 407.784 618.842 409.843 618.971 411.962C619.367 411.382 619.729 410.802 620.059 410.193C620.389 409.584 620.718 408.889 620.982 408.222C620.877 407.086 620.611 405.966 620.191 404.888C619.363 402.771 618.138 400.792 616.565 399.032L616.565 399.061ZM592.106 430.748C591.975 430.762 591.842 430.762 591.711 430.748C589.505 430.698 587.304 430.544 585.118 430.284C583.821 430.11 582.536 429.907 581.261 429.675L579.151 429.414C579.875 429.921 580.635 430.385 581.426 430.806C584.965 431.303 588.574 431.284 592.106 430.748ZM601.995 393.929C603.459 394.51 604.631 395.541 605.291 396.828C605.447 397.186 605.568 397.554 605.654 397.93L606.577 397.234C608.159 396.075 610.467 398.075 608.851 399.234C608.456 399.524 608.093 399.843 607.698 400.162C609.775 400.66 611.722 401.507 613.433 402.655C613.726 399.773 612.706 396.906 610.599 394.683C609.237 393.54 607.437 392.888 605.555 392.856C604.271 392.93 603.032 393.3 601.962 393.929L601.995 393.929ZM606.017 403.032L605.159 402.858L604.929 403.032C604.805 403.268 604.596 403.461 604.335 403.583L603.446 404.511L603.676 405.091C604.21 406.662 604.081 408.35 603.314 409.845C604.227 412.646 604.317 415.606 603.573 418.446C602.829 421.286 601.277 423.913 599.061 426.08C600.693 425.699 602.273 425.165 603.775 424.486C604.533 424.109 605.324 423.732 606.083 423.326C607.391 421.747 608.497 420.046 609.379 418.253L610.17 416.716C610.237 411.903 608.788 407.167 605.984 403.032L606.017 403.032ZM597.94 396.364C597.446 396.712 596.952 397.089 596.49 397.466C597.579 398.126 598.615 398.853 599.589 399.64L600.677 399.64C601.313 399.611 601.952 399.611 602.588 399.64L602.588 399.206C601.192 398.065 599.615 397.108 597.908 396.364L597.94 396.364ZM591.612 427.124C591.316 426.85 591.151 426.487 591.15 426.109C591.027 423.275 591.497 420.445 592.535 417.76L591.908 418.108L591.348 418.369C589.318 420.447 586.926 422.227 584.261 423.645C584.015 423.772 583.762 423.888 583.503 423.993C585.179 425.353 587.122 426.434 589.238 427.182C589.996 427.182 590.787 427.153 591.579 427.124L591.612 427.124ZM579.448 407.207C579.953 408.109 580.609 408.94 581.393 409.671C582.514 408.077 583.7 406.54 584.953 405.033C583.046 405.632 581.195 406.359 579.415 407.207L579.448 407.207ZM583.964 411.411C586.481 412.644 589.378 413.142 592.238 412.831L593.655 411.092L596.952 406.888C596.627 406.602 596.286 406.332 595.93 406.077C594.573 405.019 593.129 404.05 591.612 403.177L589.996 403.525C589.139 404.453 588.348 405.41 587.59 406.424C586.37 408.048 585.118 409.729 583.931 411.411L583.964 411.411ZM582.316 413.904C581.676 414.903 581.114 415.94 580.635 417.006C583.529 417.625 586.579 417.317 589.238 416.136L589.634 415.731C587.768 415.673 585.927 415.33 584.195 414.716C583.532 414.494 582.893 414.222 582.283 413.904L582.316 413.904ZM579.184 419.702L579.184 419.934C579.745 420.63 580.371 421.326 580.997 421.964C582.15 421.466 583.252 420.884 584.294 420.224C582.553 420.276 580.815 420.07 579.151 419.615L579.184 419.702ZM594.381 424.805C595.655 424.568 596.828 424.021 597.766 423.227C598.704 422.432 599.37 421.422 599.688 420.311C600.632 417.931 600.958 415.395 600.644 412.889C599.922 413.439 599.124 413.906 598.27 414.281C598.101 414.361 597.924 414.428 597.743 414.484C595.685 417.603 594.52 421.115 594.348 424.718L594.381 424.805ZM599.523 404.221C599.245 403.81 598.925 403.421 598.567 403.061L598.105 402.626C597.545 402.626 596.985 402.626 596.424 402.626C597.38 403.235 598.27 403.873 599.127 404.54L599.523 404.221ZM594.15 399.611L593.491 400.191C593.919 400.191 594.381 400.191 594.809 400.191L594.15 399.611ZM577.965 400.539C577.942 401.911 578.086 403.282 578.393 404.627C580.077 403.834 581.816 403.136 583.601 402.539C584.887 402.134 586.206 401.728 587.524 401.38C587.063 401.206 586.601 401.032 586.107 400.887C583.766 400.017 580.107 399.032 577.932 400.452L577.965 400.539ZM572.921 404.656C572.921 405.554 573.152 406.453 573.35 407.352C574.042 406.888 574.767 406.482 575.492 406.077C575.184 405.127 574.964 404.158 574.833 403.177L574.833 402.25C574.131 402.986 573.481 403.761 572.888 404.569L572.921 404.656ZM574.207 410.454C574.959 412.742 575.998 414.949 577.306 417.035C577.916 415.399 578.723 413.825 579.712 412.338C578.492 411.328 577.478 410.141 576.712 408.831C575.83 409.274 574.983 409.768 574.174 410.309L574.207 410.454ZM571.603 412.6C570.681 413.465 569.904 414.441 569.295 415.499C570.189 418.48 571.637 421.311 573.581 423.877C575.053 423.719 576.508 423.458 577.932 423.094C575.1 419.914 572.945 416.309 571.57 412.455L571.603 412.6ZM581.887 426.95C581.887 426.95 582.184 426.95 582.316 426.95C581.603 426.461 580.921 425.938 580.272 425.384C579.553 425.64 578.815 425.854 578.064 426.023C579.283 426.254 580.569 426.544 581.855 426.805L581.887 426.95ZM594.15 395.64C593.787 395.64 593.425 395.64 593.062 395.64L593.688 395.958L594.15 395.64ZM587.557 396.307L585.711 396.654C584.788 396.828 583.832 397.002 582.909 397.205C585.421 397.587 587.848 398.321 590.095 399.379L591.348 398.104C589.996 397.321 588.81 396.741 587.524 396.132L587.557 396.307ZM570.515 409.091L570.284 409.642L570.581 409.41L570.515 409.091ZM615.609 411.788C615.044 413.704 614.328 415.583 613.466 417.412L613.466 418.311C614.093 417.76 614.686 417.18 615.246 416.6C615.455 415.867 615.598 415.121 615.675 414.368C615.735 413.459 615.702 412.547 615.576 411.643L615.609 411.788ZM613.433 406.859L613.17 406.54C612.41 405.813 611.532 405.187 610.566 404.685C610.976 405.469 611.339 406.273 611.653 407.091C612.074 408.185 612.427 409.298 612.708 410.425C613.071 409.121 613.071 407.903 613.4 406.714L613.433 406.859ZM618.147 418.079L618.378 417.76L618.18 417.963L618.147 418.079ZM574.932 391.987C574.49 392.862 574.116 393.763 573.811 394.683C573.556 395.495 573.347 396.317 573.185 397.147C574.782 396.415 576.447 395.804 578.162 395.321C579.2 394.68 580.303 394.127 581.459 393.668C580.264 393.231 579.043 392.854 577.8 392.538C576.848 392.29 575.879 392.096 574.899 391.958L574.932 391.987ZM571.636 391.987C571.444 392.017 571.256 392.066 571.075 392.132C566.493 393.842 564.219 399.061 562.999 402.945C561.3 407.322 561.208 412.059 562.736 416.484C563.342 417.565 564.156 418.546 565.142 419.383C565.054 418.029 565.255 416.672 565.735 415.383L565.735 414.31C565.538 413.44 565.373 412.57 565.274 411.701C564.896 409.44 565.1 407.133 565.87 404.951C566.64 402.768 567.957 400.765 569.724 399.09C569.924 396.68 570.512 394.308 571.471 392.045L571.636 391.987ZM605.489 430.197C603.214 431.124 600.855 431.881 598.435 432.458C595.565 433.138 592.63 433.584 589.667 433.792C591.955 434.432 594.359 434.687 596.754 434.546C598.442 434.39 600.075 433.928 601.55 433.189C603.025 432.451 604.31 431.452 605.324 430.255L605.489 430.197ZM583.404 383.637C585.744 383.637 588.084 383.898 590.392 384.188C602.819 385.725 616.763 391.146 622.136 401.583L622.136 400.771C621.755 397.778 620.392 394.948 618.213 392.625C613.626 387.701 607.401 384.163 600.413 382.507C597.635 381.691 594.699 381.371 591.779 381.565C588.858 381.759 586.011 382.463 583.404 383.637ZM554.264 397.698C550.77 402.569 548.726 409.12 552.055 414.484C554.989 418.376 559.298 421.311 564.318 422.833C562.772 421.71 561.437 420.38 560.362 418.89C558.791 416.263 558.105 413.296 558.384 410.338C558.489 406.593 559.303 402.89 560.791 399.379C561.995 396.185 564.119 393.319 566.955 391.059C568.673 389.806 570.822 389.101 573.053 389.059C573.53 388.288 574.058 387.542 574.636 386.826C573.119 387.029 571.603 387.261 570.119 387.58C563.514 388.98 557.804 392.616 554.231 397.698L554.264 397.698Z" fill="#1BB6AC"/>
<path d="M689.612 110.628C693.552 104.856 699.927 100.688 707.347 99.0315C710.202 98.4221 713.115 98.0436 716.049 97.9008C716.925 97.1583 717.886 96.4975 718.917 95.9293C722.026 94.2909 725.506 93.273 729.112 92.9473C732.717 92.6217 736.36 92.9967 739.783 94.0451C747.418 95.9251 754.188 99.8703 759.132 105.322C761.542 108.02 763.06 111.251 763.516 114.658C763.801 117.353 763.43 120.071 762.429 122.63C763.154 130.864 757.023 137.445 749.243 141.822C748.094 144.198 746.399 146.34 744.266 148.113C741.28 150.48 737.373 151.747 733.355 151.65C729.1 151.465 724.94 150.477 721.158 148.751C720.334 148.403 719.51 148.027 718.752 147.621C714.314 146.988 710.305 144.92 707.512 141.822L707.512 141.648C705.863 141.184 704.215 140.692 702.666 140.141C696.732 138.024 690.239 134.894 687.338 129.559C685.887 126.488 685.335 123.146 685.732 119.838C686.13 116.531 687.464 113.365 689.612 110.628ZM714.763 103.612C714.763 103.612 715.06 103.612 715.225 103.612C718.266 104.303 721.216 105.275 724.026 106.511C727.474 105.845 731.063 106.015 734.41 107.004C734.958 106.974 735.509 106.974 736.058 107.004C736.486 106.743 736.915 106.453 737.376 106.221C738.792 105.381 740.402 104.826 742.09 104.598C734.346 101.536 725.877 100.164 717.401 100.597C716.408 101.521 715.524 102.531 714.763 103.612ZM754.814 113.295C755.183 115.141 755.294 117.02 755.144 118.89L755.144 120.195C756.374 122.019 757.087 124.078 757.22 126.196C757.622 125.636 757.985 125.055 758.308 124.457C758.671 123.819 758.967 123.152 759.264 122.485C759.132 121.341 758.856 120.213 758.44 119.122C757.594 117.021 756.37 115.054 754.814 113.295ZM730.355 145.011C730.224 144.997 730.091 144.997 729.96 145.011C727.754 144.964 725.553 144.809 723.367 144.547C722.081 144.373 720.763 144.171 719.477 143.91C718.785 143.91 718.06 143.91 717.368 143.678C718.103 144.175 718.874 144.63 719.675 145.04C723.211 145.566 726.823 145.556 730.355 145.011ZM740.244 108.193C741.708 108.774 742.88 109.805 743.541 111.092C743.685 111.45 743.795 111.819 743.87 112.194L744.76 111.469C746.342 110.309 748.65 112.338 747.035 113.498C746.639 113.788 746.276 114.107 745.881 114.426C747.965 114.929 749.923 115.775 751.649 116.919C751.908 114.03 750.893 111.165 748.815 108.918C747.42 107.802 745.622 107.156 743.738 107.091C742.487 107.194 741.285 107.573 740.244 108.193ZM744.266 117.296L743.376 117.122L743.178 117.325C743.021 117.549 742.807 117.738 742.552 117.876L741.662 118.803L741.892 119.383C742.427 120.945 742.298 122.624 741.53 124.109C742.049 125.582 742.305 127.118 742.288 128.66C742.401 130.792 742.015 132.922 741.153 134.917C740.291 136.911 738.972 138.729 737.277 140.257C738.907 139.858 740.487 139.314 741.991 138.633C742.749 138.286 743.54 137.909 744.299 137.503C745.657 135.927 746.818 134.226 747.76 132.429C748.023 131.936 748.32 131.415 748.551 130.893C748.583 126.099 747.099 121.391 744.266 117.296ZM736.157 110.628C735.662 110.976 735.168 111.324 734.706 111.701C735.789 112.38 736.823 113.116 737.805 113.904L738.893 113.904C739.519 113.904 740.178 113.904 740.805 113.904L740.805 113.498C739.42 112.35 737.855 111.383 736.157 110.628ZM729.861 141.358C729.701 141.236 729.575 141.084 729.489 140.914C729.404 140.743 729.362 140.559 729.366 140.373C729.243 137.539 729.713 134.709 730.751 132.023L730.124 132.371L729.564 132.632C727.524 134.701 725.134 136.481 722.477 137.909L721.752 138.257C723.411 139.614 725.346 140.686 727.454 141.417C728.278 141.417 729.07 141.416 729.861 141.358ZM717.664 121.471C718.177 122.368 718.832 123.198 719.609 123.935C720.73 122.34 721.917 120.775 723.169 119.267C721.279 119.889 719.439 120.626 717.664 121.471ZM722.18 125.674C724.705 126.915 727.62 127.404 730.487 127.066L731.904 125.355C733.025 123.935 734.179 122.456 735.365 121.123L734.311 120.34C732.954 119.282 731.51 118.313 729.992 117.441C729.447 117.529 728.908 117.645 728.377 117.789C727.553 118.716 726.729 119.644 725.971 120.688C724.652 122.311 723.367 123.964 722.18 125.674ZM720.565 128.167C719.912 129.161 719.35 130.198 718.884 131.27C721.768 131.871 724.801 131.563 727.454 130.4L727.85 129.994C725.986 129.919 724.149 129.577 722.411 128.979C721.773 128.75 721.156 128.478 720.565 128.167ZM717.269 133.966L717.466 134.227C718.02 134.929 718.615 135.606 719.247 136.256C720.399 135.759 721.502 135.177 722.543 134.517C720.799 134.535 719.064 134.31 717.401 133.85L717.269 133.966ZM732.465 139.068C733.741 138.846 734.919 138.308 735.86 137.517C736.8 136.726 737.463 135.715 737.772 134.604C738.714 132.223 739.04 129.687 738.728 127.182C738.011 127.737 737.213 128.205 736.355 128.573C736.185 128.653 736.009 128.721 735.827 128.776C733.833 131.89 732.724 135.381 732.597 138.952L732.465 139.068ZM737.607 118.484C737.332 118.081 737.011 117.702 736.651 117.354C736.515 117.186 736.361 117.031 736.19 116.89C735.629 116.89 735.069 116.89 734.509 116.89C735.453 117.49 736.355 118.138 737.211 118.832L737.607 118.484ZM732.234 113.875L731.575 114.484L732.893 114.31L732.234 113.875ZM716.082 114.803C716.032 116.184 716.165 117.565 716.477 118.919C718.164 118.131 719.903 117.434 721.686 116.832C722.971 116.397 724.29 116.02 725.608 115.672C725.147 115.498 724.685 115.324 724.224 115.179C721.85 114.281 718.554 113.266 716.214 114.687L716.082 114.803ZM711.006 118.948C711.006 119.847 711.269 120.746 711.434 121.616L713.577 120.369C713.267 119.422 713.057 118.451 712.95 117.47L712.95 116.542C712.294 117.273 711.689 118.038 711.137 118.832L711.006 118.948ZM712.291 124.747C713.049 127.033 714.088 129.239 715.39 131.328C716.008 129.694 716.814 128.121 717.796 126.631C716.578 125.608 715.564 124.412 714.796 123.094C714.071 123.442 713.214 123.993 712.423 124.573L712.291 124.747ZM709.687 126.892C708.768 127.759 707.992 128.735 707.38 129.791C708.293 132.766 709.739 135.595 711.665 138.17C713.148 137.999 714.614 137.728 716.049 137.358C713.263 134.169 711.152 130.565 709.819 126.718L709.687 126.892ZM719.972 141.387C720.114 141.372 720.258 141.372 720.4 141.387C719.699 140.897 719.028 140.374 718.389 139.822C717.631 140.054 716.906 140.286 716.148 140.46C717.565 140.518 718.818 140.808 720.103 141.011L719.972 141.387ZM732.234 110.077C731.872 110.077 731.509 110.077 731.146 110.077C731.366 110.166 731.576 110.273 731.773 110.396L732.234 110.077ZM725.641 110.744C725.015 110.744 724.389 110.947 723.762 111.063C723.136 111.179 721.916 111.44 720.96 111.643C723.473 112.025 725.899 112.759 728.146 113.817C728.575 113.382 728.971 112.947 729.432 112.541C728.443 111.585 727.059 110.976 725.806 110.425L725.641 110.744ZM708.566 123.529L708.368 124.051L708.665 123.616L708.566 123.529ZM753.66 126.196C753.108 128.172 752.392 130.11 751.518 131.994L751.518 132.864C752.145 132.332 752.739 131.771 753.298 131.183C753.525 130.443 753.669 129.686 753.726 128.921C753.874 127.912 753.908 126.892 753.825 125.877L753.66 126.196ZM751.485 121.296L751.221 120.978C750.47 120.242 749.591 119.615 748.617 119.122C749.042 119.901 749.405 120.706 749.705 121.529C750.126 122.622 750.478 123.735 750.76 124.863C751.107 123.583 751.36 122.286 751.518 120.978L751.485 121.296ZM756.198 132.516L756.429 132.197L756.231 132.4L756.198 132.516ZM713.016 106.424C712.555 107.306 712.169 108.217 711.863 109.149C711.603 109.96 711.394 110.783 711.236 111.614C712.836 110.886 714.501 110.275 716.214 109.787C717.199 109.154 718.247 108.601 719.345 108.135C718.151 107.698 716.929 107.32 715.686 107.004C714.87 106.7 714.033 106.439 713.181 106.221L713.016 106.424ZM709.72 106.424L709.16 106.598C704.578 108.309 702.303 113.527 701.084 117.412C699.384 121.789 699.292 126.525 700.82 130.951C701.426 132.032 702.24 133.013 703.226 133.85C703.149 132.494 703.361 131.137 703.852 129.849L703.852 128.776C703.655 127.907 703.49 127.037 703.391 126.167C703.013 123.906 703.217 121.6 703.987 119.417C704.757 117.234 706.074 115.232 707.841 113.556C708.058 111.044 708.691 108.573 709.72 106.221L709.72 106.424ZM743.606 144.664C741.314 145.569 738.944 146.315 736.519 146.896C733.664 147.596 730.739 148.052 727.784 148.258C730.067 148.87 732.455 149.125 734.838 149.012C736.578 148.852 738.259 148.368 739.771 147.593C741.282 146.818 742.59 145.77 743.606 144.518L743.606 144.664ZM721.62 98.0459C723.969 98.1046 726.314 98.2786 728.641 98.5676C741.068 100.133 755.012 105.554 760.352 115.962L760.352 115.15C759.944 112.15 758.572 109.314 756.396 106.975C751.809 102.051 745.585 98.5134 738.596 96.8572C735.829 96.0319 732.903 95.6991 729.989 95.8783C727.074 96.0575 724.229 96.745 721.62 97.9008L721.62 98.0459ZM692.513 112.078C688.986 116.948 686.942 123.674 690.271 128.892C693.205 132.785 697.514 135.719 702.534 137.242C700.988 136.119 699.653 134.788 698.578 133.299C696.995 130.623 696.31 127.607 696.601 124.602C696.7 120.863 697.525 117.166 699.04 113.672C700.224 110.476 702.337 107.607 705.171 105.351C706.894 104.102 709.038 103.388 711.269 103.322C711.746 102.56 712.274 101.825 712.852 101.119C711.335 101.322 709.819 101.554 708.336 101.873C701.745 103.284 696.056 106.932 692.513 112.019L692.513 112.078Z" fill="#1BB6AC"/>
<path d="M369.965 159.478C365.766 161.469 361.162 162.711 356.416 163.134C351.671 163.557 346.876 163.152 342.309 161.942C337.322 160.487 333.105 157.49 330.442 153.506C328.173 149.478 327.401 144.924 328.233 140.489C328.977 135.834 330.699 131.342 333.31 127.24C335.189 123.996 337.777 121.11 340.924 118.746C345.147 115.753 350.37 114.062 355.791 113.933C361.922 110.831 370.262 111.382 377.349 111.614C379.426 111.614 379.426 114.513 377.349 114.513C372.735 114.107 368.086 114.107 363.472 114.513C368.805 115.503 373.881 117.361 378.437 119.992C382.768 120.578 386.944 121.845 390.765 123.732C392.147 124.4 393.32 125.358 394.177 126.522C395.034 127.686 395.549 129.018 395.677 130.4C395.686 131.689 395.464 132.971 395.017 134.198C396.2 135.443 396.999 136.933 397.34 138.527C397.68 140.12 397.551 141.764 396.962 143.301C396.469 144.625 395.794 145.891 394.952 147.07L394.952 147.302C393.515 150.016 391.393 152.405 388.749 154.289C386.104 156.173 383.006 157.501 379.69 158.174C376.524 158.969 373.256 159.407 369.965 159.478ZM377.283 122.746C375.336 122.423 373.363 122.23 371.383 122.167C372.635 122.602 373.888 123.065 375.075 123.587C377.51 124.618 379.828 125.851 381.997 127.269C382.887 127.501 383.744 127.762 384.601 128.052C382.394 126.05 379.939 124.27 377.283 122.746ZM380.579 129.82C378.552 129.32 376.494 128.923 374.415 128.632C374.661 128.686 374.904 128.754 375.141 128.835C379.722 130.255 385.03 132.604 387.106 136.72L387.469 136.227C385.604 133.753 383.262 131.584 380.547 129.82L380.579 129.82ZM342.77 143.91C343.526 145.307 344.657 146.521 346.067 147.447C346.018 147.042 346.018 146.634 346.067 146.23C346.067 145.534 346.232 144.838 346.364 144.171C344.882 142.458 343.693 140.563 342.836 138.547C342.265 140.182 342.174 141.917 342.573 143.591L342.77 143.91ZM345.111 135.213L345.605 136.981C345.66 136.64 345.842 136.324 346.122 136.083C346.403 135.842 346.765 135.689 347.155 135.648C349.146 135.444 351.15 135.357 353.154 135.387C352.114 134.621 351.174 133.756 350.352 132.807C350.058 132.487 349.794 132.148 349.561 131.792C347.884 132.698 346.4 133.856 345.177 135.213L345.111 135.213ZM360.34 136.198C361.065 136.372 361.757 136.546 362.449 136.778C363.817 137.211 365.132 137.764 366.372 138.431C369.898 139.543 373.604 140.15 377.349 140.228L377.646 140.228C375.168 138.611 372.359 137.43 369.372 136.749C366.463 136.009 363.417 135.773 360.406 136.054L360.34 136.198ZM382.426 145.795C382.093 144.749 381.546 143.767 380.81 142.895C378.36 143.185 375.877 143.185 373.426 142.895C372.932 142.895 372.437 142.895 371.976 142.692C372.409 143.109 372.74 143.599 372.95 144.133C373.159 144.666 373.243 145.232 373.196 145.795C372.921 147.282 372.194 148.677 371.092 149.83C369.989 150.984 368.552 151.853 366.933 152.347C369.397 152.415 371.864 152.337 374.316 152.114C375.656 151.417 376.934 150.632 378.14 149.766C378.915 149.205 379.652 148.605 380.349 147.969C380.714 147.671 381.056 147.351 381.371 147.012L381.832 146.519L382.063 146.287L382.426 145.795ZM384.304 142.49L384.304 142.171L384.041 142.171L384.304 142.49ZM346.067 138.112C346.492 139.025 346.999 139.907 347.583 140.75C348.025 139.91 348.567 139.113 349.198 138.373C348.506 138.373 347.781 138.373 347.089 138.373C346.725 138.387 346.365 138.296 346.067 138.112ZM349.956 143.533C352.971 146.379 356.602 148.666 360.637 150.259C362.608 150.583 364.646 150.252 366.357 149.331C368.068 148.41 369.33 146.964 369.899 145.273C368.635 143.484 366.907 141.983 364.856 140.895C363.34 140.431 361.856 139.88 360.373 139.301L359.582 138.953C357.78 138.54 355.936 138.287 354.077 138.199C352.121 139.534 350.719 141.398 350.088 143.504L349.956 143.533ZM382.129 135.619C380.511 134.284 378.636 133.214 376.591 132.459C371.283 130.416 365.496 129.521 359.714 129.849C357.324 129.947 354.95 130.248 352.626 130.748C353.655 132.005 354.913 133.102 356.351 133.995C360.487 132.9 364.881 132.8 369.075 133.705C373.952 134.563 378.441 136.648 381.997 139.707C382.825 139.502 383.622 139.21 384.37 138.837C384.028 137.614 383.323 136.494 382.327 135.59L382.129 135.619ZM387.831 140.576L388.359 139.764L387.831 140.199L387.831 140.576ZM371.679 125.385C370.389 124.896 369.068 124.47 367.724 124.109C365.68 123.546 363.584 123.139 361.461 122.892C357.701 123.52 354.103 124.748 350.846 126.515C350.88 126.915 350.946 127.313 351.044 127.704C354.653 126.337 358.497 125.513 362.417 125.269C365.544 125.03 368.69 125.059 371.811 125.356L371.679 125.385ZM348.012 128.429C347.451 128.893 346.891 129.357 346.396 129.849L346.99 129.589L348.143 128.98L348.012 128.429ZM361.658 156.115C363.245 155.893 364.81 155.564 366.339 155.13L366.043 155.13C362.426 155.031 358.828 154.632 355.296 153.941C353.584 153.605 351.899 153.17 350.253 152.636C352.315 153.735 354.531 154.593 356.846 155.188C358.472 155.575 360.123 155.875 361.79 156.086L361.658 156.115ZM391.886 145.824C392.529 143.831 392.597 141.728 392.084 139.707C390.273 142.839 388.155 145.827 385.755 148.636L385.755 149.389C385.603 150.312 385.244 151.199 384.7 151.999C387.097 150.793 389.185 149.165 390.831 147.215C391.254 146.76 391.65 146.286 392.018 145.795L391.886 145.824ZM388.985 133.155L388.59 132.951C388.967 133.339 389.319 133.746 389.644 134.169L388.985 133.155ZM384.898 124.457C387.346 126.437 389.505 128.677 391.326 131.125L392.183 131.734C392.468 130.514 392.233 129.245 391.523 128.168C389.821 126.408 387.56 125.137 385.03 124.515L384.898 124.457ZM356.648 116.687C355.104 117.66 353.793 118.892 352.791 120.311C354.756 119.907 356.773 119.732 358.791 119.79C359.636 119.745 360.484 119.745 361.329 119.79C362.021 119.79 362.713 119.557 363.373 119.499C365.556 119.223 367.759 119.087 369.965 119.094C365.795 117.537 361.31 116.738 356.78 116.745L356.648 116.687ZM362.384 159.043C362.032 159.06 361.68 159.06 361.329 159.043C353.418 159.913 345.243 158.203 341.221 151.419C339.399 148.239 338.482 144.717 338.551 141.156C338.516 140.312 338.582 139.466 338.749 138.634C339.086 136.032 339.993 133.511 341.419 131.212L341.65 130.835C341.95 128.252 343.227 125.833 345.276 123.964C346.249 123.111 347.36 122.388 348.572 121.819C348.936 120.87 349.411 119.956 349.989 119.094C350.363 118.477 350.805 117.895 351.308 117.354C348.225 117.975 345.348 119.215 342.902 120.978C337.509 125.307 333.748 130.981 332.123 137.242C330.145 143.968 330.574 151.738 337.266 156.463C344.616 161.305 353.879 161.508 362.548 159.101L362.384 159.043Z" fill="#1BB6AC"/>
<path d="M374.251 309.71C376.983 304.777 381.06 300.515 386.118 297.302C388.437 295.81 391.088 294.762 393.897 294.229C396.382 293.838 398.927 293.838 401.413 294.229C407.267 295.248 412.856 297.214 417.894 300.027C422.692 302.267 426.747 305.563 429.662 309.594C431.681 313.344 431.964 317.637 430.453 321.568C431.053 322.677 431.539 323.832 431.904 325.018C432.517 326.913 432.684 328.898 432.394 330.852C432.105 332.806 431.367 334.688 430.223 336.382C427.688 339.82 424.116 342.571 419.905 344.326C415.88 346.131 411.568 347.392 407.115 348.066C404.775 348.724 402.317 348.999 399.863 348.877C399.567 348.877 399.27 348.877 398.94 348.877C395.493 348.942 392.047 348.699 388.656 348.152C386.012 347.737 383.434 347.046 380.975 346.094C376.494 345.679 372.223 344.206 368.614 341.833C367.167 340.611 366.008 339.149 365.205 337.532C364.401 335.915 363.969 334.175 363.933 332.41C363.954 329.255 365.305 326.218 367.724 323.887C368.504 323.123 369.353 322.415 370.262 321.771L371.317 319.77C371.177 318.808 371.177 317.834 371.317 316.871C371.654 314.317 372.658 311.866 374.251 309.71ZM381.569 343.34C382.261 343.34 382.953 343.514 383.645 343.572C380.733 341.819 378.374 339.445 376.789 336.672C375.439 334.615 374.397 332.413 373.69 330.12L373.196 328.033C372.755 327.246 372.38 326.432 372.075 325.598C371.203 327.736 370.939 330.03 371.306 332.279C371.674 334.528 372.663 336.663 374.185 338.499C376.199 340.582 378.724 342.237 381.569 343.34ZM402.369 309.014C400.168 308.906 397.96 308.984 395.776 309.247C392.343 309.524 389.017 310.444 386.021 311.944C383.025 313.444 380.428 315.489 378.404 317.944C381.726 316.944 385.211 316.425 388.722 316.407C390.652 316.385 392.578 316.57 394.457 316.958C398.056 316.391 401.718 316.196 405.368 316.378C410.938 316.336 416.346 318.031 420.63 321.162C421.674 322.029 422.504 323.074 423.07 324.235C423.557 322.019 423.375 319.73 422.542 317.596C422.174 316.852 421.686 316.158 421.092 315.537C417.891 313.055 414.093 311.242 409.983 310.232C409.841 310.249 409.697 310.249 409.555 310.232L409.06 310.232C406.863 309.728 404.627 309.369 402.369 309.16L402.369 309.014ZM400.358 319.075L400.885 319.422C404.24 319.559 407.563 320.065 410.774 320.93C412.984 321.441 415.071 322.295 416.938 323.452C418.47 324.475 419.767 325.744 420.762 327.192C420.666 326.159 420.281 325.163 419.641 324.293C417.164 321.647 413.622 319.944 409.752 319.538C406.653 319.058 403.499 318.902 400.358 319.075ZM383.151 328.903C383.513 329.106 383.876 329.25 384.239 329.424L384.239 328.352C384.389 327.994 384.442 327.611 384.393 327.233C384.344 326.855 384.195 326.491 383.958 326.173C383.721 325.854 383.402 325.589 383.027 325.398C382.652 325.208 382.232 325.097 381.799 325.076C381.465 325.374 381.156 325.693 380.876 326.032C380.582 326.372 380.318 326.73 380.085 327.105C381.067 327.755 382.091 328.355 383.151 328.903ZM411.236 329.366C410.033 327.553 408.124 326.183 405.863 325.511L405.863 325.771C405.974 326.133 405.919 326.518 405.709 326.844C405.499 327.17 405.152 327.409 404.742 327.511C399.151 329.314 393.069 329.577 387.304 328.265L387.304 329.076C392.507 331.664 398.245 333.31 404.182 333.918C405.573 333.991 406.969 333.903 408.335 333.657L409.159 333.454L410.346 332.265L411.565 330.99L411.565 330.816C411.525 330.351 411.414 329.892 411.236 329.453L411.236 329.366ZM388.161 325.511C389.805 325.914 391.499 326.138 393.205 326.177C396.222 326.241 399.232 325.909 402.138 325.192C402.015 324.932 401.872 324.68 401.709 324.438C398.563 323.816 395.339 323.553 392.117 323.655C391.556 323.655 390.996 323.655 390.436 323.655C389.56 324.11 388.824 324.747 388.293 325.511L388.161 325.511ZM390.436 320.611L389.645 320.843L389.843 320.843L390.436 320.611ZM412.093 324.438C410.826 323.987 409.526 323.61 408.203 323.307C409.82 324.023 411.264 325.007 412.455 326.206C413.174 326.903 413.744 327.708 414.137 328.583C414.697 328.062 415.224 327.511 415.818 326.989L416.048 326.989C415 325.904 413.695 325.033 412.225 324.438L412.093 324.438ZM385.425 319.306C384.667 319.306 383.909 319.48 383.184 319.625C380.908 320.046 378.696 320.698 376.591 321.568C376.406 322.254 376.285 322.952 376.229 323.655C376.623 324.203 377.076 324.718 377.58 325.192C379.58 322.605 382.367 320.566 385.623 319.306L385.425 319.306ZM392.018 336.701C393.798 337.139 395.618 337.44 397.457 337.6C396.336 337.252 395.216 336.904 394.161 336.527C390.692 335.366 387.302 334.031 384.008 332.527C382.239 331.722 380.522 330.831 378.866 329.859L378.866 330.294C382.451 333.533 387.034 335.78 392.051 336.759L392.018 336.701ZM409.456 337.194C410.962 337.339 412.487 337.17 413.906 336.701C414.749 336.356 415.545 335.928 416.279 335.426C416.123 335.081 416.123 334.697 416.279 334.353C416.784 333.107 416.887 331.762 416.576 330.468L415.06 331.976L415.06 332.41C415.066 332.832 414.959 333.248 414.747 333.626C414.535 334.004 414.224 334.333 413.84 334.585C413.043 335.09 412.18 335.508 411.269 335.831C410.577 336.382 410.016 336.817 409.489 337.252L409.456 337.194ZM379.789 335.599C381.744 338.635 384.762 341.035 388.392 342.441C391.93 343.505 395.698 343.841 399.406 343.424C403.115 343.007 406.666 341.848 409.785 340.035C408.245 339.965 406.713 339.79 405.203 339.513C403.741 340.068 402.179 340.392 400.588 340.47C394.381 340.635 388.24 339.312 382.821 336.643C381.598 336.058 380.43 335.39 379.327 334.643L379.789 335.599ZM426.3 323.104L426.761 321.887L426.366 321.278L426.3 323.104ZM371.976 340.499C369.069 337.62 367.565 333.85 367.79 330.004L367.988 328.265L367.724 328.699C367.161 329.927 366.896 331.245 366.947 332.569C366.998 333.892 367.364 335.191 368.021 336.382C368.881 338.091 370.29 339.542 372.075 340.557L371.976 340.499ZM428.838 326.554L428.607 325.8C426.977 329.012 424.895 332.032 422.41 334.788C421.856 337.438 420.449 339.893 418.356 341.862C422.093 340.326 425.242 337.868 427.421 334.788C429.067 332.302 429.574 329.357 428.838 326.554ZM423.696 307.623C423.548 307.833 423.342 308.006 423.097 308.126C422.852 308.246 422.576 308.309 422.295 308.309C422.014 308.309 421.738 308.246 421.493 308.126C421.248 308.006 421.042 307.833 420.894 307.623C418.715 304.213 415.2 301.616 411.005 300.317C402.303 297.708 392.315 300.317 384.898 304.608C381.64 306.483 378.848 308.919 376.69 311.769C376.294 312.523 375.965 313.276 375.668 314.03C376.692 313 377.793 312.032 378.964 311.131C381.576 309.11 384.693 307.659 388.062 306.898C391.411 306.213 394.844 305.901 398.281 305.971C400.762 305.998 403.238 306.153 405.698 306.435C410.685 306.942 415.481 308.417 419.74 310.754C421.047 311.5 422.234 312.397 423.267 313.421C424.97 314.743 426.496 316.232 427.816 317.857L427.816 316.813C427.923 315.111 427.611 313.408 426.899 311.822C426.188 310.235 425.095 308.803 423.696 307.623ZM386.777 300.375C388.828 299.424 390.967 298.629 393.172 297.998C394.962 297.505 396.791 297.127 398.644 296.867C397.548 296.759 396.443 296.759 395.347 296.867C392.162 297.33 389.191 298.577 386.777 300.462L386.777 300.375Z" fill="#1BB6AC"/>
<path d="M220.542 68.5333C210.478 74.7354 198.448 77.9915 186.161 77.8393C176.272 77.6654 164.669 74.3605 162.032 64.8514C160.741 58.4464 162.023 51.8461 165.657 46.1811L165.855 45.2533C166.87 42.1464 168.725 39.3017 171.261 36.9619C172.053 34.6724 173 32.4264 174.096 30.236C176.033 26.2951 178.925 22.7731 182.568 19.9151C185.993 17.28 190.348 15.7646 194.896 15.6245C200.538 15.7863 205.976 17.5225 210.422 20.5821C212.173 21.6627 213.777 22.9176 215.202 24.3218C215.465 24.3218 215.729 24.5828 215.96 24.7278C216.751 25.1336 217.542 25.5685 218.3 26.0324C222.618 26.2933 226.904 26.8151 231.222 26.8441C231.659 26.8441 232.078 26.9967 232.387 27.2686C232.696 27.5404 232.87 27.9092 232.87 28.2936C232.87 28.6781 232.696 29.0468 232.387 29.3187C232.078 29.5905 231.659 29.7432 231.222 29.7432C228.688 29.7128 226.157 29.5676 223.64 29.3082C224.08 29.7453 224.466 30.2215 224.794 30.7289C228.842 34.0671 231.791 38.3035 233.332 42.9921C234.8 47.8344 234.238 52.9796 231.749 57.4877C229.114 61.9308 225.262 65.7269 220.542 68.5333ZM211.971 50.7908C208.87 50.8292 205.824 50.0738 203.203 48.6164C202.448 49.5364 201.536 50.3482 200.5 51.0227C197.263 52.8363 193.458 53.7034 189.628 53.5004C185.797 53.2973 182.138 52.0343 179.172 49.892C177.906 49.084 176.924 47.9777 176.341 46.7006C175.758 45.4235 175.597 44.0274 175.876 42.6733C176.069 42.0111 176.369 41.3765 176.766 40.7888L176.173 39.8032L175.942 39.2812C174.756 40.0719 173.652 40.9549 172.646 41.9195C172.059 43.488 171.846 45.1459 172.019 46.79C172.347 48.9969 173.141 51.1306 174.36 53.081C175.382 54.6465 176.898 55.9801 177.656 57.5746C177.913 58.0605 178.123 58.5649 178.282 59.0822C183.992 61.0484 190.203 61.6098 196.248 60.7058C198.966 60.4831 201.602 59.7678 203.99 58.6053C206.378 57.4428 208.467 55.8579 210.125 53.9507C210.964 53.0106 211.59 51.938 211.971 50.7908ZM211.971 47.8916C211.64 46.0277 210.728 44.2812 209.334 42.8472C207.747 43.5301 206.092 44.0833 204.389 44.4997C204.439 44.9722 204.439 45.4478 204.389 45.9203C206.643 47.2657 209.314 47.9645 212.037 47.9207L211.971 47.8916ZM180.854 40.9047C181.609 41.6718 182.539 42.2904 183.584 42.72C184.629 43.1496 185.765 43.3807 186.919 43.3981C189.85 43.5378 192.789 43.4017 195.687 42.9921L197.039 42.8182C196.286 41.5513 195.795 40.1771 195.588 38.7594C194.863 38.3921 194.138 38.0443 193.412 37.7157C192.584 37.3493 191.724 37.0391 190.842 36.788C187.695 37.0418 184.687 38.044 182.139 39.6871C181.694 40.0719 181.286 40.4889 180.92 40.9337L180.854 40.9047ZM180.458 37.4838C181.009 37.1379 181.582 36.8186 182.172 36.5272C181.83 36.6487 181.499 36.794 181.183 36.9619C180.942 37.1248 180.721 37.3094 180.524 37.5128L180.458 37.4838ZM190.314 33.2802C190.083 33.2802 189.82 33.2801 189.589 33.4251C190.215 33.4251 190.808 33.7149 191.435 33.8889C191.577 33.8745 191.721 33.8745 191.863 33.8889C191.435 33.7439 190.907 33.744 190.38 33.4251L190.314 33.2802ZM203.928 41.5426C204.892 41.2908 205.838 40.9907 206.763 40.6439C205.955 40.1108 205.107 39.6265 204.225 39.1943C204.4 39.5987 204.47 40.0325 204.431 40.4639C204.391 40.8953 204.242 41.3134 203.994 41.6875L203.928 41.5426ZM196.808 32.8452L197.072 32.3815L196.05 32.3815L196.808 32.8452ZM179.04 43.4271C178.976 43.724 178.976 44.0289 179.04 44.3258C179.568 48.2686 185.897 50.124 189.754 50.4719C192.503 50.7061 195.27 50.2114 197.698 49.0514C198.758 48.5468 199.689 47.8561 200.434 47.0219L200.665 46.7319L200.17 46.2972C199.358 46.9228 198.461 47.4583 197.5 47.8916C195.726 48.6073 193.803 48.9922 191.851 49.0222C189.9 49.0521 187.962 48.7264 186.161 48.0656C183.419 47.1237 180.993 45.5881 179.106 43.601L179.04 43.4271ZM209.894 39.1653C210.044 39.109 210.187 39.041 210.323 38.9623C212.63 37.7087 214.376 35.7942 215.267 33.541C210.607 32.6141 205.838 32.1762 201.06 32.2364C200.768 32.526 200.503 32.8363 200.269 33.1641C199.959 33.5609 199.704 33.9892 199.511 34.4397L199.511 34.5846C202.617 35.2872 205.553 36.4755 208.18 38.0926C208.939 38.6145 209.466 38.9623 209.96 39.3392L209.894 39.1653ZM215.498 30.7289L215.498 30.265C215.315 29.6169 215.061 28.9859 214.74 28.3807C212.788 28.3521 210.836 28.4685 208.905 28.7286C207.775 28.8869 206.669 29.1591 205.609 29.5402C208.663 29.7273 211.701 30.0758 214.707 30.5839C214.971 30.8448 215.267 30.8448 215.564 30.8448L215.498 30.7289ZM202.939 27.4529C200.274 27.72 197.632 28.1364 195.028 28.6995C193.204 29.0861 191.424 29.521 189.688 30.0042C189.985 30.0042 190.281 30.178 190.578 30.294C193.607 29.7581 196.685 29.467 199.775 29.4243C200.272 29.0069 200.8 28.6194 201.357 28.2646C201.95 28.1486 202.477 27.9458 203.005 27.6269L202.939 27.4529ZM215.235 47.2249C215.235 47.2249 215.234 47.2249 215.432 47.2249C217.875 46.3613 219.952 44.8508 221.375 42.903C222.799 40.9551 223.498 38.6662 223.376 36.3532C221.939 35.5161 220.374 34.862 218.729 34.4107L218.399 34.4107C217.564 36.6947 215.981 38.7114 213.85 40.2089C213.323 40.5858 212.762 40.9337 212.202 41.2816C213.556 42.7162 214.525 44.4008 215.037 46.2101L215.235 47.2249ZM222.19 32.1495C221.01 31.1125 219.755 30.1441 218.432 29.2504C218.592 29.7434 218.702 30.2477 218.762 30.7578L218.762 31.3667C220.006 31.7021 221.227 32.0991 222.42 32.5554L222.19 32.1495ZM190.908 23.0172C187.687 24.0692 184.803 25.79 182.502 28.0328C183.26 28.2067 184.018 28.4385 184.743 28.6125C188.198 27.3681 191.772 26.3979 195.424 25.7134C199.61 24.8565 203.884 24.3708 208.18 24.2638C202.758 22.1695 196.678 21.7905 190.973 23.1911L190.908 23.0172ZM200.335 63.605C206.877 63.2976 213.301 61.9415 219.289 59.604C222.115 58.5964 224.597 56.9653 226.497 54.868C228.396 52.7707 229.649 50.278 230.134 47.6306C230.326 45.9718 230.094 44.2962 229.456 42.7262C228.817 41.1562 227.787 39.7315 226.442 38.5564C226.289 39.7994 225.946 41.0185 225.42 42.1803C224.563 44.0794 223.228 45.7831 221.515 47.1639C219.802 48.5446 217.757 49.5664 215.531 50.1529C215.531 50.1529 215.333 50.1529 215.235 50.1529C214.968 52.2404 214.107 54.2348 212.729 55.9511C210.521 58.2715 207.784 60.1593 204.696 61.4926C201.607 62.8258 198.235 63.5748 194.797 63.6917C196.742 63.9236 198.588 63.8657 200.401 63.7497L200.335 63.605ZM180.029 26.3222C182.455 23.9894 185.378 22.0983 188.633 20.756C193.339 19.1744 198.485 18.9111 203.367 20.0022C201.157 18.9975 198.726 18.4231 196.24 18.318C193.755 18.213 191.273 18.5797 188.962 19.3933C185.313 20.9756 182.241 23.4263 180.095 26.4672L180.029 26.3222ZM205.939 71.8093C214.188 69.5053 221.452 65.0581 226.772 59.0532L227.299 58.3574C224.588 60.4582 221.443 62.0822 218.036 63.141C209.62 65.9059 200.63 67.0623 191.666 66.5331C187.486 66.3771 183.354 65.6834 179.403 64.4745L178.612 64.1846C178.15 65.9821 175.019 65.1993 175.316 63.4308L175.316 62.7931C172.73 61.3768 170.49 59.5244 168.723 57.3428C167.514 55.9405 166.599 54.36 166.02 52.6752C164.549 56.3511 164.242 60.309 165.13 64.1266C165.93 66.8154 167.743 69.1865 170.272 70.8527C173.215 72.6748 176.602 73.866 180.161 74.3315C188.865 75.4927 197.762 74.6744 206.005 71.9544L205.939 71.8093Z" fill="#1BB6AC"/>
<path d="M195.423 392.19C197.299 389.23 199.914 386.682 203.071 384.739C205.098 383.586 207.369 382.805 209.748 382.441C212.127 382.077 214.564 382.139 216.915 382.623C218.848 382.999 220.728 383.563 222.519 384.304C224.903 384.504 227.243 384.992 229.475 385.754C231.113 386.334 232.7 387.022 234.221 387.812C238.556 388.333 242.759 389.5 246.648 391.262C249.906 392.701 252.653 394.897 254.593 397.611C256.667 400.801 257.577 404.475 257.197 408.135C257.064 411.408 255.837 414.574 253.67 417.238C253.232 418.763 252.507 420.213 251.527 421.529C247.341 427.327 237.979 427.646 230.991 427.617C225.722 431.407 219.472 433.995 212.795 435.154C210.4 435.579 207.931 435.564 205.543 435.11C203.155 434.656 200.899 433.773 198.917 432.516C195.221 429.854 192.579 426.231 191.369 422.166C190.593 419.881 190.096 417.529 189.885 415.151C187.994 413.26 186.658 410.991 185.996 408.541C185.526 406.217 185.777 403.824 186.723 401.615C187.668 399.406 189.273 397.462 191.369 395.987L191.666 395.524C192.712 394.246 193.98 393.121 195.423 392.19ZM215.202 387.377C215.894 387.377 216.586 387.377 217.278 387.377C218.795 387.377 220.344 387.174 221.86 387.145C221.86 387.145 221.564 387.145 221.399 386.942C220.301 386.883 219.2 386.883 218.102 386.942C217.179 387.055 216.265 387.219 215.366 387.435L215.202 387.377ZM250.769 414.165C250.597 410.411 248.847 406.847 245.857 404.163L245.857 404.511C245.622 410.385 243.176 416.024 238.902 420.543C241.295 420.379 243.638 419.85 245.824 418.978C247.67 418.231 249.295 417.12 250.571 415.731C250.74 415.218 250.861 414.695 250.934 414.165L250.769 414.165ZM231.65 423.239C230.431 423.239 229.244 422.949 228.057 422.746L228.683 424.428L228.683 424.805L229.442 424.805C230.43 424.312 231.123 423.79 231.815 423.239L231.65 423.239ZM216.19 394.248C216.586 394.422 216.948 394.567 217.344 394.712C219.219 395.486 220.98 396.459 222.585 397.611C223.532 397.779 224.467 397.992 225.387 398.249C225.624 398.309 225.843 398.415 226.027 398.56C226.211 398.704 226.356 398.884 226.451 399.084C226.546 399.284 226.588 399.501 226.575 399.717C226.562 399.934 226.494 400.146 226.376 400.336L225.882 401.148C226.152 401.566 226.383 402.002 226.574 402.453C227.188 404.16 227.188 405.992 226.574 407.7L226.936 407.7C229.036 406.801 230.9 405.527 232.408 403.96C232.735 403.582 233.033 403.185 233.298 402.772C233.41 402.541 233.543 402.318 233.694 402.105C233.179 401.153 232.537 400.257 231.782 399.438C229.81 397.749 227.471 396.427 224.906 395.551C222.34 394.674 219.601 394.261 216.85 394.335L216.19 394.248ZM212.63 422.659C211.062 422.371 209.51 422.013 207.982 421.587C207.026 421.326 206.104 421.007 205.181 420.688C207.475 421.868 210.072 422.517 212.729 422.572L212.63 422.659ZM213.026 418.572C212.128 418.838 211.215 419.06 210.29 419.238C213.089 419.967 215.978 420.395 218.893 420.514C217.015 419.818 215.07 419.325 213.125 418.485L213.026 418.572ZM208.213 416.716C206.203 415.904 204.192 415.006 202.247 414.049C200.4 413.181 198.616 412.213 196.907 411.15C197.039 411.742 197.226 412.324 197.467 412.889C199.305 414.594 201.456 416.015 203.829 417.093C205.337 417.075 206.84 416.92 208.312 416.629L208.213 416.716ZM200.599 406.917C202.348 407.368 204.151 407.64 205.972 407.729C209.631 407.932 213.257 407.729 216.883 407.729L215.927 406.366C212.27 406.429 208.668 405.575 205.543 403.902C205.148 403.902 204.785 403.902 204.389 403.902C202.901 404.76 201.5 405.73 200.203 406.801L200.599 406.917ZM221.761 409.439C221.914 409.456 222.07 409.456 222.223 409.439C221.893 409.149 221.563 408.86 221.168 408.57L221.168 408.831L221.761 409.439ZM212.07 401.728L211.312 401.032C210.883 401.032 210.488 401.235 210.092 401.351C210.587 401.351 211.081 401.525 211.575 401.641L212.07 401.728ZM199.708 398.626C199.545 398.36 199.476 398.057 199.511 397.756C198.645 399.167 197.949 400.653 197.434 402.192C198.767 401.576 200.221 401.192 201.719 401.061C200.973 400.288 200.331 399.442 199.807 398.539L199.708 398.626ZM213.125 415.527C214.363 415.092 215.563 414.578 216.718 413.991C217.311 413.663 217.905 413.315 218.498 412.947C216.772 413.157 215.031 413.254 213.289 413.237C210.442 413.259 207.607 412.898 204.884 412.165C207.62 413.324 210.487 414.426 213.223 415.441L213.125 415.527ZM223.772 406.598C224.04 405.646 224.04 404.651 223.772 403.699C223.088 404.213 222.335 404.651 221.53 405.004C222.356 405.45 223.139 405.954 223.871 406.511L223.772 406.598ZM221.992 401.09L221.234 400.394C219.222 400.148 217.181 400.148 215.169 400.394C216.06 401.315 216.885 402.283 217.641 403.293C219.359 402.955 220.914 402.155 222.091 401.003L221.992 401.09ZM208.411 398.857C207.206 398.118 205.853 397.587 204.422 397.292C203.994 397.553 203.598 397.843 203.203 398.133C203.786 398.855 204.473 399.508 205.247 400.075C206.3 399.577 207.39 399.142 208.51 398.771L208.411 398.857ZM194.335 414.107L194.072 414.716C194.376 414.884 194.696 415.029 195.028 415.151C194.876 414.908 194.744 414.656 194.632 414.397L194.335 414.107ZM222.651 418.137C222.157 417.006 221.629 415.876 221.069 414.774C219.875 415.611 218.595 416.349 217.245 416.977C218.893 417.557 220.541 418.079 222.288 418.572L222.651 418.137ZM224.497 414.542C224.641 413.695 224.55 412.829 224.234 412.02L223.574 412.715L224.497 414.542ZM209.136 395.263L208.411 395.466C209.848 396.109 211.188 396.907 212.399 397.843C213.659 397.603 214.937 397.448 216.223 397.379C215.292 396.964 214.335 396.596 213.355 396.278C212.014 395.822 210.637 395.454 209.235 395.176L209.136 395.263ZM219.421 424.254C221.398 424.515 223.409 424.689 225.42 424.834L224.827 423.326C223.514 423.466 222.193 423.534 220.871 423.529C220.433 423.726 219.981 423.9 219.52 424.051L219.421 424.254ZM233.694 420.775C234.024 420.775 234.353 420.775 234.683 420.775L236.232 419.123C235.653 419.57 235.036 419.977 234.386 420.34C234.192 420.424 233.994 420.502 233.793 420.572L233.694 420.775ZM239.397 404.221C238.687 401.407 237.242 398.777 235.177 396.538C231.232 394.284 226.934 392.545 222.42 391.378C220.749 390.964 219.039 390.683 217.311 390.537C213.79 390.8 210.304 391.344 206.895 392.161C207.587 392.161 208.246 392.335 208.905 392.451C213.479 391.362 218.283 391.253 222.915 392.132C227.062 392.806 230.892 394.54 233.925 397.118C235.417 398.374 236.547 399.924 237.221 401.641C237.682 403.061 235.969 405.004 234.98 406.048C232.881 408.197 230.239 409.885 227.266 410.976C227.79 412.222 227.982 413.557 227.828 414.879C227.673 416.201 227.176 417.474 226.376 418.601L226.87 419.818L227.266 419.818L227.398 419.818L228.453 419.557C232.152 418.627 235.329 416.523 237.368 413.653C239.408 410.784 240.166 407.351 239.496 404.018L239.397 404.221ZM242.165 401.09L241.506 400.626C242.025 401.756 242.401 402.932 242.627 404.134C242.635 403.044 242.514 401.955 242.264 400.887L242.165 401.09ZM238.869 395.292C237.343 393.578 235.505 392.099 233.43 390.914C234.71 391.934 235.911 393.028 237.023 394.19C237.847 394.364 238.441 394.741 239.067 395.118L238.869 395.292ZM189.424 409.787C189.424 408.83 189.424 407.903 189.688 406.888L189.292 405.497C189.129 404.868 189.029 404.227 188.995 403.583L188.995 403.844C188.515 405.81 188.794 407.86 189.786 409.671L189.424 409.787ZM223.112 428.66C223.805 428.342 224.464 427.965 225.156 427.588C218.436 427.334 211.784 426.291 205.378 424.486C200.934 423.129 196.796 421.098 193.149 418.485C193.38 419.499 193.643 420.514 193.973 421.384C194.897 424.482 196.766 427.299 199.379 429.53C201.905 431.541 205.202 432.639 208.609 432.603C213.884 432.422 219.011 431.022 223.475 428.545L223.112 428.66ZM246.879 421.732C245.468 422.273 243.999 422.69 242.495 422.978C240.325 423.367 238.117 423.571 235.902 423.587L234.485 424.834C236.232 424.728 237.971 424.534 239.693 424.254C242.4 423.941 244.973 423.034 247.176 421.616L246.879 421.732ZM243.253 393.233C242.103 392.782 240.925 392.385 239.726 392.045C242.014 394.147 243.737 396.673 244.77 399.438C245.594 400.133 246.418 400.858 247.209 401.583C249.979 404.069 252.035 407.101 253.208 410.425C253.655 408.45 253.755 406.426 253.505 404.424C253.105 401.963 251.983 399.637 250.249 397.675C248.514 395.712 246.228 394.181 243.616 393.233L243.253 393.233ZM204.554 387.203C203.538 387.787 202.598 388.467 201.752 389.233C202.609 388.943 203.532 388.711 204.422 388.479C206.864 386.991 209.571 385.874 212.432 385.174C211.326 385.16 210.222 385.248 209.136 385.435C207.628 385.757 206.198 386.317 204.917 387.087L204.554 387.203Z" fill="#1BB6AC"/>
<path d="M237.288 250.221C236.466 251.16 235.413 251.924 234.209 252.456C233.005 252.988 231.68 253.274 230.333 253.294C230.245 253.306 230.156 253.306 230.069 253.294C229.113 254.163 228.124 254.975 227.102 255.758C224.405 257.89 221.333 259.623 218.004 260.889C208.507 263.998 198.022 263.822 188.667 260.397C185.807 259.164 183.469 257.161 181.993 254.679C180.517 252.197 179.979 249.366 180.459 246.597C180.796 244.366 181.759 242.244 183.261 240.422C182.495 237.791 182.304 235.056 182.7 232.362C182.837 231.306 183.058 230.26 183.36 229.231C182.768 228.155 182.304 227.028 181.975 225.868C181.17 223.333 181.322 220.636 182.41 218.184C183.498 215.732 185.463 213.657 188.008 212.271C190.887 211.001 194.051 210.309 197.271 210.244C200.492 210.179 203.689 210.742 206.632 211.894C207.575 210.859 208.686 209.951 209.928 209.198C217.444 204.965 228.19 208.444 234.783 212.503C238.098 214.668 240.741 217.53 242.469 220.828C244.197 224.126 244.955 227.754 244.672 231.376C244.272 237.221 241.753 242.799 237.486 247.293C237.85 248.255 237.779 249.303 237.288 250.221ZM186.821 241.088C187.758 243.5 189.341 245.677 191.436 247.437C196.609 251.435 203.18 253.757 210.06 254.018C214.043 254.331 218.057 254.037 221.927 253.149C221.432 253.149 220.938 253.149 220.444 252.946C217.173 252.284 214.103 251.008 211.445 249.206C209.467 250.278 207.357 251.177 205.511 252.105C203.665 253.033 202.215 250.481 203.896 249.641C205.577 248.8 207.192 248.104 208.807 247.264C207.701 246.289 206.708 245.221 205.841 244.075L205.313 243.871C204.621 243.611 203.863 243.321 203.105 243.002C200.713 242.339 198.387 241.505 196.149 240.508C194.728 239.852 193.362 239.106 192.062 238.276C190.096 238.873 188.298 239.831 186.788 241.088L186.821 241.088ZM192.622 234.942C192.622 234.942 192.919 234.942 193.084 234.942C192.258 234.112 191.488 233.241 190.776 232.333C190.418 232.284 190.093 232.121 189.863 231.875C189.632 231.629 189.511 231.318 189.524 231L189.524 230.507C188.778 229.307 188.202 228.032 187.81 226.709C187.415 227.463 187.074 228.237 186.788 229.028C188.299 231.292 190.264 233.296 192.589 234.942L192.622 234.942ZM196.116 233.522C196.536 231.572 197.304 229.694 198.391 227.955C199.336 226.12 200.172 224.243 200.896 222.331C200.446 222.301 199.995 222.301 199.545 222.331C197.589 222.527 195.794 223.378 194.534 224.708C193.434 226.13 192.827 227.802 192.787 229.521C193.721 230.954 194.826 232.295 196.083 233.522L196.116 233.522ZM207.456 215.866C208.148 215.866 208.84 216.098 209.499 216.243L209.928 216.243L208.972 215.779L208.511 215.605C208.192 215.591 207.873 215.591 207.555 215.605L207.456 215.866ZM223.443 240.19L222.322 239.813C221.176 240.552 219.937 241.175 218.63 241.668C218.581 241.954 218.504 242.235 218.4 242.509C219.497 242.571 220.599 242.571 221.696 242.509C222.385 241.808 222.962 241.028 223.41 240.19L223.443 240.19ZM200.369 236.682C201.322 237.278 202.324 237.812 203.368 238.276C203.286 237.718 203.286 237.153 203.368 236.595C202.357 236.653 201.325 236.682 200.27 236.682L200.369 236.682ZM215.07 237.841C212.575 237.327 210.042 236.968 207.489 236.769C207.225 236.769 206.961 236.769 206.698 236.769C206.456 237.737 206.548 238.746 206.962 239.668C209.773 240.378 212.754 240.378 215.565 239.668C215.446 239.041 215.247 238.429 214.971 237.841L215.07 237.841ZM209.401 234.101C210.719 234.246 212.005 234.421 213.323 234.652C212.895 234.015 212.433 233.406 212.005 232.855C210.951 233.149 209.943 233.558 209.005 234.072C209.005 234.072 209.17 234.101 209.302 234.101L209.401 234.101ZM226.179 228.883L226.179 228.506C225.992 227.961 225.714 227.444 225.355 226.97C225.624 227.524 225.844 228.096 226.014 228.68L226.179 228.883ZM206.039 218.533L205.511 219.664C208.746 220.177 211.892 221.054 214.872 222.273C216.764 223.026 218.602 223.878 220.378 224.824C219.52 223.711 218.584 222.646 217.576 221.635C215.054 220.584 212.413 219.767 209.697 219.2C208.379 218.939 207.192 218.707 205.94 218.533L206.039 218.533ZM204.39 222.389L203.171 225.288C202.413 227.085 201.489 228.796 200.566 230.536C199.986 231.526 199.596 232.593 199.413 233.696C201.213 233.608 203.018 233.608 204.819 233.696C206.727 231.696 209.336 230.309 212.236 229.753C212.584 229.681 212.949 229.706 213.28 229.826C213.611 229.945 213.891 230.153 214.081 230.42C215.331 231.991 216.434 233.649 217.378 235.377C218.828 235.696 220.246 236.073 221.63 236.479C222.415 235.586 222.951 234.544 223.197 233.437C223.443 232.33 223.392 231.187 223.048 230.101C220.389 228.068 217.414 226.38 214.213 225.085C211.099 223.734 207.762 222.824 204.324 222.389L204.39 222.389ZM214.279 247.466C216.653 248.915 219.35 249.903 222.191 250.365C224.268 250.69 226.381 250.797 228.486 250.684C230.136 249.125 231.636 247.447 232.969 245.669C232.074 244.827 231.093 244.06 230.036 243.379L229.014 242.77C228.754 242.988 228.479 243.192 228.19 243.379C226.641 244.339 224.857 244.964 222.982 245.205C221.977 246.027 220.751 246.612 219.42 246.906C218.089 247.2 216.695 247.194 215.367 246.887C215.29 246.89 215.213 246.89 215.136 246.887L214.279 247.466ZM237.65 228.883C236.665 226.149 234.714 223.762 232.08 222.07C227.185 218.747 221.37 216.635 215.235 215.953C216.789 216.977 218.234 218.122 219.553 219.374C220.048 219.606 220.575 219.809 221.07 220.07C224.356 221.516 227.026 223.853 228.684 226.738C229.574 228.666 229.847 230.771 229.475 232.826C230.964 235.088 231.39 237.772 230.662 240.306C232.102 241.148 233.439 242.12 234.651 243.205C235.803 241.37 236.71 239.425 237.354 237.406C238.352 234.644 238.444 231.69 237.617 228.883L237.65 228.883ZM190.743 222.534C190.691 223.006 190.691 223.482 190.743 223.955C190.697 224.379 190.697 224.806 190.743 225.23C191.34 223.939 192.27 222.787 193.46 221.867C194.65 220.946 196.067 220.281 197.6 219.925C199.063 219.586 200.57 219.421 202.083 219.432L202.643 218.185C201.786 218.185 200.962 218.185 200.105 218.185C198.237 218.082 196.373 218.437 194.72 219.21C193.067 219.982 191.691 221.143 190.743 222.563L190.743 222.534ZM210.225 212.735C218.783 212.743 227.104 215.207 233.925 219.751C236.957 221.74 239.251 224.474 240.518 227.607C241.199 229.538 241.456 231.565 241.276 233.58C241.857 230.625 241.669 227.593 240.727 224.71C239.785 221.828 238.114 219.171 235.838 216.939C232.838 214.419 229.216 212.544 225.256 211.46C221.704 210.178 217.786 209.904 214.048 210.677C212.605 211.102 211.287 211.805 210.192 212.735L210.225 212.735ZM185.074 225.056C185.834 223.653 186.774 222.33 187.876 221.113C188.277 220.008 188.992 219.01 189.952 218.214C191.443 217.027 193.243 216.181 195.193 215.75C197.283 214.78 199.496 214.03 201.786 213.518C197.707 212.501 193.339 212.906 189.59 214.649C187.657 215.727 186.17 217.325 185.351 219.205C184.531 221.085 184.423 223.147 185.041 225.085L185.074 225.056ZM185.964 237.957C186.986 237.247 188.091 236.635 189.26 236.131C188.059 235.122 186.956 234.026 185.964 232.855C185.705 234.548 185.694 236.262 185.931 237.957L185.964 237.957ZM209.038 260.02C213.154 259.548 217.109 258.313 220.641 256.396C218.024 256.836 215.361 257.03 212.697 256.975C204.758 257.077 197.004 254.865 190.644 250.684C188.066 248.843 185.993 246.515 184.579 243.871C183.956 245.099 183.587 246.414 183.492 247.756C182.668 259.44 199.248 261.179 209.071 260.02L209.038 260.02Z" fill="#1BB6AC"/>
<path d="M16.8279 162.58C23.4206 157.246 32.848 157.681 41.0559 159.681C49.4441 157.727 58.311 158.071 66.471 160.667C74.0526 163.131 81.1724 168.146 82.1943 175.626C82.2538 180.049 80.5905 184.356 77.4807 187.832C74.7966 191.651 71.1829 194.898 66.8996 197.341C65.2926 198.141 63.5595 198.727 61.7571 199.08C60.0472 200.986 57.9024 202.557 55.4609 203.69C52.0871 206.087 48.1793 207.835 43.9897 208.821C42.9349 209.082 41.8471 209.285 40.6934 209.459L40.6934 211.662C40.6934 212.047 40.5196 212.415 40.2105 212.687C39.9014 212.959 39.4823 213.112 39.0452 213.112C38.6081 213.112 38.189 212.959 37.8799 212.687C37.5708 212.415 37.397 212.047 37.397 211.662L37.397 209.894C27.8587 210.971 18.1957 209.029 10.1362 204.415C4.73018 201.081 -1.30214 195.891 0.247147 189.484C1.4668 184.498 6.8399 181.048 11.8503 178.845C10.9056 175.993 10.8703 172.967 11.7481 170.099C12.626 167.231 14.3831 164.63 16.8279 162.58ZM30.5078 196.906C29.7167 196.403 28.9583 195.881 28.2331 195.34L28.2331 195.862L28.9916 196.297C29.4799 196.531 29.9865 196.735 30.5078 196.906ZM51.1099 177.25C50.2529 177.047 49.4287 176.873 48.5717 176.728C44.7861 177.169 41.1227 178.21 37.7596 179.801C37.7596 179.801 37.4299 179.801 37.298 180.033C39.6588 179.729 42.0575 179.729 44.4183 180.033L44.9788 179.569C45.8532 178.864 46.9145 178.361 48.0659 178.108C49.2173 177.855 50.4223 177.859 51.5715 178.12L51.1099 177.25ZM30.5078 186.179C31.1841 187.922 32.2703 189.52 33.6959 190.868C35.1215 192.217 36.8546 193.287 38.7816 194.007C39.1681 191.422 39.8077 188.871 40.6934 186.382C41.1198 185.147 41.66 183.945 42.3086 182.787C41.3867 182.729 40.4615 182.729 39.5397 182.787C38.4293 182.79 37.3231 182.907 36.2434 183.135C34.2263 183.511 32.3735 184.386 30.9033 185.657L30.5078 186.179ZM50.2859 191.223C51.5786 189.479 52.3912 187.494 52.6591 185.425C50.4493 184.382 48.0867 183.612 45.6379 183.135C44.537 184.78 43.7152 186.558 43.1986 188.411C42.5509 190.516 42.0665 192.657 41.7484 194.819C42.941 195.112 44.1695 195.277 45.4073 195.311C47.3987 194.289 49.1095 192.893 50.4178 191.223L50.2859 191.223ZM53.9118 197.022C55.2962 197.022 56.6807 197.022 58.0322 196.819C58.823 195.728 59.4127 194.535 59.7793 193.282C58.1088 194.753 56.1702 195.968 54.0437 196.877L53.9118 197.022ZM55.9885 187.397L55.7579 187.223C55.2081 189.554 54.0828 191.752 52.4616 193.659L51.2745 194.876C54.3151 193.939 56.9519 192.197 58.8233 189.89C58.0128 188.948 57.059 188.11 55.9885 187.397ZM28.6286 189.6C28.6286 190.035 28.398 190.441 28.3321 190.876L28.3321 191.398C29.288 191.861 30.244 192.267 31.2329 192.644C30.2283 191.705 29.354 190.663 28.6286 189.542L28.6286 189.6ZM56.7136 184.324L56.1204 183.802L56.1204 183.976L56.7136 184.324ZM52.6921 181.599C52.1556 181.355 51.5923 181.161 51.011 181.019C50.2391 180.801 49.4095 180.801 48.6377 181.019C50.0519 181.4 51.4389 181.854 52.7911 182.381L52.6921 181.599ZM44.6162 198.993C45.7056 199.164 46.8069 199.271 47.9126 199.312C46.8248 199.312 45.704 199.08 44.6162 198.935L44.6162 198.993ZM63.4712 190.76C63.6963 189.973 63.807 189.164 63.8008 188.353L63.3063 189.136C63.4156 189.701 63.4709 190.273 63.4712 190.847L63.4712 190.76ZM62.3176 183.918C60.5773 181.535 58.094 179.643 55.1644 178.468C55.3267 178.846 55.4589 179.233 55.5599 179.627C58.0847 181.127 60.1918 183.109 61.7241 185.425C61.956 184.963 62.1544 184.489 62.3176 184.005L62.3176 183.918ZM31.958 176.409C31.1032 177.778 30.492 179.255 30.1452 180.787C32.8808 178.776 35.9486 177.144 39.2432 175.945C37.5291 175.945 35.9467 175.945 34.1667 176.177C33.4415 176.322 32.7161 176.409 31.958 176.496L31.958 176.409ZM30.4748 201.11C32.703 202.308 35.1788 203.106 37.7596 203.458L37.9576 200.559C35.0662 200.797 32.1516 200.429 29.4527 199.486C29.728 200.085 30.0705 200.658 30.4748 201.197L30.4748 201.11ZM40.9569 203.748C42.6889 203.817 44.4244 203.72 46.1324 203.458C48.0243 203.161 49.8715 202.675 51.6375 202.008C50.6981 202.123 49.7506 202.181 48.8023 202.182C46.2174 202.149 43.6479 201.827 41.1549 201.226L40.9569 203.748ZM47.5496 172.93C45.6999 171.445 43.4175 170.442 40.9569 170.031C39.3399 170.228 37.8076 170.787 36.507 171.654C35.7522 172.163 35.0566 172.736 34.4302 173.365C34.8258 173.365 35.2543 173.365 35.6829 173.365C39.8864 173.087 44.1128 173.242 48.2751 173.829L47.5496 172.93ZM32.2879 171.307C30.7247 172.108 29.2844 173.082 28.0025 174.206C28.6948 174.206 29.387 173.974 30.0792 173.887C30.7195 173.009 31.4359 172.175 32.2219 171.394L32.2879 171.307ZM23.4536 182.149C23.4441 182.771 23.4994 183.392 23.6185 184.005C23.8224 184.876 24.143 185.722 24.5742 186.527C25.2354 185.511 25.985 184.542 26.8159 183.628L26.8159 182.497C26.8549 180.502 27.3362 178.532 28.2331 176.699C27.2442 176.699 26.2882 177.047 25.2993 177.25C24.5218 178.868 23.8828 180.535 23.3876 182.236L23.4536 182.149ZM63.0097 177.134C62.7488 176.002 62.3047 174.908 61.6911 173.887C61.2955 173.887 60.9 173.626 60.5044 173.51C57.2081 172.553 53.5164 171.712 49.9893 170.959L50.912 171.771C51.516 172.357 52.0776 172.977 52.5931 173.626C54.4963 173.681 56.3774 174.004 58.1642 174.583C59.8858 175.218 61.4691 176.111 62.8447 177.221L63.0097 177.134ZM58.3617 170.031C53.4655 166.288 47.5857 163.677 41.2539 162.435C38.1665 163.19 35.3071 164.537 32.8811 166.378C31.8335 167.247 30.9045 168.22 30.1122 169.277C33.4582 167.299 37.5558 166.559 41.5175 167.219C43.3699 167.101 45.2321 167.199 47.0555 167.509C49.6596 167.944 52.2306 168.639 54.7688 169.248C55.7907 169.567 57.0105 169.828 58.1972 170.002L58.3617 170.031ZM20.9813 178.525C19.3247 178.993 17.6965 179.535 16.1028 180.149C16.3328 180.665 16.597 181.168 16.8939 181.657C17.6734 182.952 18.613 184.167 19.6957 185.28C19.7891 184.145 19.9989 183.02 20.3222 181.917C20.3188 180.83 20.4849 179.747 20.8163 178.699L20.9813 178.525ZM34.6612 207.053C32.1403 206.313 29.9412 204.905 28.3651 203.023C26.6249 202.112 25.1596 200.846 24.0925 199.333C23.0254 197.819 22.3879 196.102 22.2339 194.326C21.1407 192.895 20.3788 191.29 19.9922 189.6C17.0625 187.411 14.721 184.679 13.136 181.599C8.98258 183.512 4.66435 186.295 3.64248 190.296C3.23025 192.189 3.65463 194.148 4.82912 195.775C6.68506 198.316 9.13486 200.48 12.0153 202.124C18.6962 205.888 26.5832 207.648 34.4962 207.14L34.6612 207.053ZM47.8466 161.305C54.3865 163.1 60.0883 166.711 64.0973 171.597C66.1469 172.128 68.0093 173.109 69.5086 174.448C71.008 175.787 72.0953 177.44 72.6682 179.25C73.0637 181.019 69.9652 181.801 69.3718 180.004C69.1796 179.126 68.7885 178.292 68.2222 177.55C67.6559 176.808 66.926 176.173 66.0755 175.684C66.5639 177.339 66.7418 179.053 66.6026 180.758C67.5974 182.187 68.2688 183.772 68.5803 185.425C69.2041 188.436 68.5094 191.543 66.6356 194.123C70.2553 191.771 73.313 188.816 75.6346 185.425C78.2337 182.411 79.4141 178.632 78.9309 174.873C77.3487 168.669 70.9537 164.842 64.4599 162.986C59.0149 161.363 53.2365 160.789 47.517 161.305L47.8466 161.305ZM15.3117 177.424C17.8266 176.487 20.4154 175.712 23.058 175.105L23.3216 174.757C24.9405 170.909 27.4427 167.396 30.6724 164.436C32.2124 163.194 33.9437 162.15 35.8148 161.334C29.2222 160.493 22.6294 161.16 18.0805 165.77C16.5475 167.373 15.4675 169.272 14.929 171.313C14.3905 173.354 14.4088 175.477 14.9821 177.511L15.3117 177.424Z" fill="#1BB6AC"/>
<path d="M64.7572 385.174C60.0874 386.986 54.9774 387.743 49.8906 387.378C45.8363 387.034 41.9189 385.905 38.4194 384.072C38.1227 384.072 37.826 384.072 37.5293 384.072C32.0259 383.39 26.9602 381.055 23.1903 377.463C20.1392 374.408 18.4523 370.483 18.4433 366.417C18.4938 364.169 18.9731 361.944 19.8609 359.836C19.3695 356.49 19.9479 353.09 21.5316 350.017C23.1154 346.945 25.6418 344.321 28.8269 342.441C32.4818 340.692 36.6008 339.831 40.7597 339.948C47.1345 336.449 54.2794 334.176 61.7244 333.28C71.053 332.265 80.7114 334.846 85.2933 342.557C88.2106 347.837 89.2007 353.781 88.1281 359.575C87.3534 363.895 85.5567 368.023 82.8541 371.693C82.5556 373.623 81.8179 375.481 80.6852 377.154C79.5525 378.828 78.048 380.284 76.2614 381.435C72.8804 383.571 68.9053 384.863 64.7572 385.174ZM63.9001 382.275C66.1396 381.407 68.2713 380.338 70.2618 379.086C74.0564 376.675 77.2997 373.655 79.8213 370.186C80.0323 365.195 78.2346 360.298 74.7448 356.357C74.7667 357.915 74.5337 359.467 74.0527 360.967C74.8046 363.01 75.0641 365.169 74.8144 367.305C74.5647 369.442 73.8114 371.509 72.6025 373.375C70.6873 376.183 67.6385 378.254 64.0646 379.173C63.5702 379.173 63.0759 379.376 62.5485 379.463C61.3318 380.674 59.8527 381.66 58.1975 382.362C60.09 382.574 62.0048 382.584 63.9001 382.391L63.9001 382.275ZM39.474 381.231C41.6525 381.548 43.8588 381.694 46.0667 381.666C42.9073 380.201 40.0179 378.325 37.4963 376.1C36.926 375.952 36.3648 375.778 35.8151 375.578C33.9717 374.956 32.1955 374.19 30.5081 373.288L31.0682 374.042C33.2726 376.967 36.1469 379.455 39.507 381.347L39.474 381.231ZM60.7353 376.593C61.2001 376.002 61.546 375.345 61.7574 374.65L61.7574 374.215C61.5045 374.324 61.2621 374.45 61.0323 374.592C59.4498 375.359 57.7818 375.981 56.0547 376.448C57.597 376.703 59.1688 376.791 60.7353 376.709L60.7353 376.593ZM44.056 349.892C43.7879 350.466 43.4448 351.011 43.0339 351.516C46.7405 350.392 50.6541 349.89 54.5712 350.037C51.0945 349.491 47.5365 349.481 44.056 350.008L44.056 349.892ZM61.4608 369.084C60.9764 368.18 60.3182 367.356 59.5157 366.649C59.1895 366.835 58.7988 366.915 58.4127 366.872C58.0266 366.83 57.6703 366.668 57.4064 366.417C55.5134 367.219 53.5514 367.887 51.5388 368.417C49.7266 368.872 47.8739 369.192 46.0007 369.374C44.055 370.026 42.0121 370.427 39.9356 370.563C42.6839 372.273 45.6762 373.657 48.8355 374.679C53.5706 374.534 58.1538 373.173 62.0209 370.766C61.9033 370.227 61.7155 369.701 61.4608 369.2L61.4608 369.084ZM36.4087 347.602C35.1041 348.553 34.1323 349.809 33.6064 351.226C35.8366 349.352 38.6064 348.048 41.6167 347.457L41.6167 347.109C40.7608 346.815 39.8343 346.717 38.9236 346.824C38.0128 346.93 37.1477 347.238 36.4087 347.718L36.4087 347.602ZM34.4305 355.487C34.4305 355.487 34.1998 355.487 34.068 355.487L33.8704 355.806C34.0682 355.835 34.2328 355.748 34.4305 355.545L34.4305 355.487ZM35.3206 358.386C34.3891 359.065 33.5584 359.845 32.8484 360.706C32.8517 361.679 32.9621 362.65 33.1779 363.605L33.6394 364.533C34.4391 364.993 35.2895 365.382 36.1777 365.692C39.0853 366.583 42.1826 366.89 45.2426 366.591C48.3082 365.605 51.2089 364.272 54.1426 363.025C50.0905 360.878 45.6191 359.413 40.9572 358.705C39.0927 358.44 37.1946 358.411 35.3206 358.619L35.3206 358.386ZM59.1861 362.155C61.4856 360.861 63.4782 359.187 65.0537 357.227C63.4285 355.31 61.099 353.948 58.461 353.371C52.4629 352.098 46.144 352.767 40.6607 355.255L39.9686 355.545C45.2824 356.17 50.3962 357.738 54.9997 360.155C55.8567 360.59 56.7139 361.053 57.5379 361.546C57.8941 361.495 58.2598 361.55 58.5765 361.702C58.8932 361.854 59.1426 362.096 59.2851 362.387L59.1861 362.155ZM28.4974 352.269L29.75 352.443C29.8293 352.13 29.9282 351.82 30.0465 351.516L30.5411 350.211C29.8159 351.11 29.1566 351.805 28.4974 352.646L28.4974 352.269ZM64.7572 375.462C66.2386 374.907 67.5654 374.076 68.6466 373.027C70.6477 370.966 71.6844 368.313 71.5474 365.605C69.875 367.988 67.7449 370.097 65.2517 371.838C65.3747 373.184 65.2296 374.538 64.8231 375.839L64.7572 375.462ZM70.5917 360.677C70.328 360.068 70.0643 359.459 69.7677 358.908C69.471 358.358 68.9766 357.604 68.548 356.966C68.5823 357.257 68.513 357.551 68.3501 357.807C66.5678 360.316 64.1965 362.46 61.3948 364.098L62.4165 365.084C63.4012 366.107 64.1514 367.288 64.6252 368.562C67.2789 366.511 69.3453 363.939 70.6573 361.054L70.5917 360.677ZM70.5917 351.979C67.594 349.554 64.1496 347.593 60.4057 346.181C55.2807 344.159 49.8333 342.839 44.2536 342.268C42.6593 342.517 41.085 342.856 39.54 343.282L39.1115 343.543C40.881 343.557 42.6255 343.913 44.221 344.587C44.471 344.71 44.6772 344.891 44.8169 345.111C44.9566 345.332 45.0242 345.582 45.0121 345.833L45.0121 346.558C47.4111 346.326 49.8318 346.326 52.2309 346.558C56.153 346.807 59.9988 347.64 63.6035 349.022C66.7735 350.442 69.4409 352.597 71.3168 355.255L71.5144 355.545C71.4531 354.561 71.254 353.587 70.9213 352.646L70.5917 351.979ZM27.3107 367.084C28.9955 368.735 30.9913 370.118 33.2109 371.172L32.6508 370.331L31.8267 368.91C31.0402 368.579 30.2801 368.201 29.552 367.779C28.7609 367.287 27.5085 366.707 27.3437 365.779C27.3166 365.244 27.3718 364.707 27.5083 364.185L27.7063 363.373C27.3468 362.966 27.0163 362.54 26.7172 362.097C25.8601 360.793 27.0469 359.198 28.0358 358.242L28.8599 357.517C28.8877 356.692 28.9645 355.87 29.0905 355.052C28.2993 355.052 27.5084 354.82 26.7502 354.675L26.5196 355.4C25.492 359.42 25.789 363.614 27.3763 367.49L27.3107 367.084ZM52.4288 380.652C54.0335 380.323 55.5839 379.817 57.0434 379.144C55.612 378.997 54.1923 378.775 52.7914 378.477C51.2284 378.148 49.6877 377.741 48.1764 377.26C46.9106 377.283 45.6443 377.235 44.3856 377.115C45.1437 377.549 45.8691 377.955 46.6272 378.332C48.4775 379.407 50.4424 380.319 52.4944 381.058L52.4288 380.652ZM48.1434 339.078C52.6223 338.856 57.1063 339.428 61.3288 340.76C63.9421 341.562 66.342 342.824 68.3822 344.469C70.4225 346.114 72.0603 348.107 73.1956 350.327C77.8656 354.365 81.0962 359.514 82.4915 365.142C85.4519 359.18 85.8731 352.481 83.6781 346.268C82.5863 343.055 80.3719 340.225 77.349 338.18C74.4185 336.432 70.9967 335.429 67.46 335.281C60.7453 335.251 54.1286 336.696 48.2094 339.484L48.1434 339.078ZM23.4209 353.168L24.3109 352.067C25.6063 348.724 28.0915 345.836 31.3982 343.833C29.3357 344.668 27.5613 345.968 26.2557 347.602C24.8838 349.408 23.9421 351.439 23.4868 353.574L23.4209 353.168ZM31.7607 379.028C30.5658 377.911 29.4642 376.719 28.4644 375.462C26.7743 373.292 25.4219 370.932 24.4429 368.446C23.3782 367.344 22.46 366.137 21.7067 364.851L21.7067 366.301C21.8046 369.369 23.0696 372.319 25.2996 374.679C27.0034 376.707 29.244 378.339 31.8267 379.434L31.7607 379.028ZM54.3736 384.16C53.5825 383.986 52.7914 383.812 52.0003 383.58C51.2092 383.348 49.7588 383.899 48.704 383.986C48.704 383.986 48.7038 383.986 48.9015 383.986C50.7173 384.356 52.5757 384.541 54.4396 384.536L54.3736 384.16Z" fill="#1BB6AC"/>
</svg>
