<?xml version="1.0" encoding="utf-8"?>
<!-- Generator: Adobe Illustrator 26.0.3, SVG Export Plug-In . SVG Version: 6.00 Build 0)  -->
<svg version="1.1" id="Layer_1" xmlns="http://www.w3.org/2000/svg" xmlns:xlink="http://www.w3.org/1999/xlink" x="0px" y="0px"
	 viewBox="0 0 150 80" style="enable-background:new 0 0 150 80;" xml:space="preserve">
<style type="text/css">
	.st0{fill-rule:evenodd;clip-rule:evenodd;}
	.st1{fill:#FFCD05;}
</style>
<path class="st0" d="M52,26.3l-5.3,0c0,1.4,0.7,2.1,2.2,2.1c0.9,0,1.8-0.2,2.2-0.3l0.3-0.1v1.4c-0.7,0.3-1.6,0.5-2.8,0.5
	c-2.8,0-4-1.6-4-4.4c0-2.7,1.4-4.4,3.8-4.4c2.4,0,3.5,1.5,3.5,4.4C52.1,25.9,52.1,26.1,52,26.3z M50.2,25.1c0-1.6-0.6-2.5-1.7-2.5
	c-1.2,0-1.8,0.9-1.8,2.5H50.2z"/>
<path d="M37.6,21.4v1.5h2.6v6.8h2v-6.8h2.6v-1.5H37.6z"/>
<path class="st0" d="M88.2,48.2c-4.4,0-6.7-2.7-6.7-8.1c0-5.3,2.1-8.1,6.7-8.1c4.4,0,6.7,2.7,6.7,8.1C94.9,45.5,92.7,48.2,88.2,48.2
	z M88.2,34.6c-2.2,0-3,2-3,5.5c0,3.6,0.9,5.5,3,5.5c2.2,0,3-1.9,3-5.5C91.2,36.4,90.2,34.6,88.2,34.6z"/>
<path d="M60.9,45.5c1.2,0,2.4-0.2,3-0.4l0.4-0.1v2.4c-0.8,0.5-2.1,0.7-4,0.7c-4.5,0-6.7-2.7-6.7-8c0-5.1,2.3-8,6.7-8
	c1.6,0,3,0.2,3.6,0.5l0.4,0.2v2.5c-0.9-0.3-2-0.5-3.4-0.5c-2.5,0-3.8,1.8-3.8,5.4C57.2,43.7,58.4,45.5,60.9,45.5z"/>
<path class="st0" d="M42.3,47.9l0.8-2.8h5l0.9,2.8h3.5l-4.8-15.6h-4l-4.8,15.6H42.3z M45.7,35.1l0.2,1.4l1.7,6.1h-3.8l1.7-6
	L45.7,35.1z"/>
<path d="M20.6,41l4.1,6.9h-3.9l-3.1-5.4c-0.5-0.9-0.9-1.1-1.5-1.1h-1v6.5h-3.4V32.4h3.4v6.5h1l4.2-6.5h4L19,39.5
	C19.6,39.7,20.1,40.2,20.6,41z"/>
<path class="st0" d="M36.4,41.4c-1,1-2.5,1.5-4.4,1.5h-2.3v5h-3.3V32.4H32c2,0,3.5,0.5,4.4,1.5c1,1,1.5,2.3,1.5,3.7
	C37.9,39.1,37.4,40.4,36.4,41.4z M31.6,34.9h-2v5.5h2.1c1.8,0,2.7-1.2,2.6-3C34.4,36,33.1,34.9,31.6,34.9z"/>
<path d="M70.2,41.5h5.5v6.4H79V32.4h-3.3v6.4h-5.5v-6.4h-3.4v15.5h3.4V41.5z"/>
<path class="st0" d="M98.2,41.2c-0.2,2.6-1,4-2.2,4l0.3,5.9h2.6l0.2-3.2h8.7l0.2,3.2h2.6l0.3-5.9l-2.1-0.1V32.4H99L98.2,41.2z
	 M105.4,45.1h-5c0.5-0.9,0.9-2,1-3.5l0.5-6.5h3.5V45.1z"/>
<path class="st0" d="M116.1,45.1l-0.8,2.8h-3.5l4.8-15.6h4l4.8,15.6H122l-0.9-2.8H116.1z M118.9,36.5l-0.2-1.4l-0.3,1.4l-1.7,6h3.8
	L118.9,36.5z"/>
<path class="st0" d="M133.1,42.9c2,0,3.4-0.5,4.4-1.5c1-1,1.5-2.3,1.5-3.8c0-1.5-0.5-2.7-1.5-3.7c-1-1-2.4-1.5-4.4-1.5h-5.6v15.5
	h3.3v-5H133.1z M130.8,34.9h2c1.5,0,2.7,1.1,2.8,2.6c0.1,1.8-0.8,3-2.6,3h-2.1V34.9z"/>
<path d="M58.9,22.9v6.8h2v-8.3h-6.3l-0.4,4.6c0,0.2,0,0.4-0.1,0.6l0,0.1l0,0.1l0,0.1l0,0.1c-0.1,0.4-0.2,0.6-0.3,0.8
	c-0.2,0.3-0.5,0.5-0.9,0.5l0,1.5c1.1,0,1.9-0.3,2.4-0.8c0.5-0.6,0.8-1.5,0.9-2.8l0.3-3.1H58.9z"/>
<path class="st0" d="M68.8,26.3l-5.3,0c0,1.4,0.7,2.1,2.2,2.1c0.9,0,1.8-0.2,2.2-0.3l0.3-0.1v1.4c-0.7,0.3-1.6,0.5-2.8,0.5
	c-2.8,0-4-1.6-4-4.4c0-2.7,1.4-4.4,3.8-4.4c2.4,0,3.5,1.5,3.5,4.4C68.8,25.9,68.8,26.1,68.8,26.3z M66.9,25.1c0-1.6-0.6-2.5-1.7-2.5
	c-1.2,0-1.8,0.9-1.8,2.5H66.9z"/>
<path d="M74.3,26.7l1.7,3v0h2.3l-2.3-3.9c-0.2-0.3-0.4-0.6-0.7-0.7l2.6-3.7h-2.2l-2.1,3.4h-1.1l0-1v-2.4h-2v8.3h2v-3.5h1.2
	c0,0,0,0,0,0c0,0,0,0,0,0c0,0,0,0,0,0l0,0c0.1,0,0.1,0.1,0.2,0.1C74.1,26.4,74.2,26.5,74.3,26.7z"/>
<path class="st0" d="M86.2,29.7h-1.4L84.5,29c-0.7,0.6-1.5,0.9-2.5,0.9c-1.9,0-3-1-3-2.6c0-1.8,1.5-2.7,3.9-2.7h1.3v-0.2
	c0-1.2-0.4-1.7-1.6-1.7c-0.4,0-0.8,0-1.3,0.1c-0.2,0-0.4,0.1-0.6,0.1c-0.2,0-0.4,0.1-0.5,0.1L79.7,23v-1.4c1-0.3,2-0.4,3-0.4
	c2.5,0,3.4,1.1,3.4,3.3V29.7z M84.2,27.7v-2h-1.1c-1.4,0-2.1,0.4-2.1,1.3c0,0.8,0.6,1.2,1.5,1.2C83.1,28.3,83.7,28.1,84.2,27.7z"/>
<path d="M95.3,21.4h-1.9v3.3h-3.2v-3.3h-1.9v8.3h1.9v-3.5h3.2v3.5h1.9V21.4z"/>
<path class="st0" d="M104.1,29.7h-1.4l-0.2-0.7c-0.7,0.6-1.5,0.9-2.5,0.9c-1.9,0-3-1-3-2.6c0-1.8,1.5-2.7,3.9-2.7h1.3v-0.2
	c0-1.2-0.4-1.7-1.6-1.7c-0.4,0-0.8,0-1.3,0.1c-0.5,0.1-0.8,0.1-1.1,0.2L97.7,23v-1.4c1-0.3,2-0.4,3-0.4c2.5,0,3.4,1.1,3.4,3.3V29.7z
	 M102.1,27.7v-2h-1.1c-1.4,0-2.1,0.4-2.1,1.3c0,0.8,0.6,1.2,1.5,1.2c0.2,0,0.4,0,0.6-0.1C101.4,28.2,101.8,28,102.1,27.7z"/>
<path d="M111.4,22.9v6.8h2v-8.3h-6.3l-0.4,4.6c-0.1,0.9-0.2,1.5-0.4,1.8c-0.2,0.3-0.5,0.5-0.9,0.5l0,1.5c1.1,0,1.9-0.3,2.4-0.8
	c0.5-0.6,0.8-1.5,0.9-2.8l0.3-3.1H111.4z"/>
<path class="st1" d="M11,26.1h26.8c0.3,0,0.6-0.3,0.6-0.6c0-0.3-0.3-0.6-0.6-0.6H11c-0.2,0-0.4,0.1-0.5,0.2
	c-0.1,0.1-0.1,0.2-0.1,0.3C10.4,25.9,10.7,26.1,11,26.1z"/>
<path class="st1" d="M115.4,26.1h24.2c0.3,0,0.6-0.3,0.6-0.6c0-0.3-0.3-0.6-0.6-0.6h-24.2c-0.3,0-0.6,0.3-0.6,0.6
	C114.8,25.9,115.1,26.1,115.4,26.1z"/>
<path class="st1" d="M139.6,54.6H11c-0.3,0-0.6-0.3-0.6-0.6c0-0.3,0.3-0.6,0.6-0.6h128.6c0.3,0,0.6,0.3,0.6,0.6
	C140.2,54.3,139.9,54.6,139.6,54.6z"/>
<path class="st1" d="M11,59.1h128.6c0.3,0,0.6-0.3,0.6-0.6c0-0.3-0.3-0.6-0.6-0.6H11c-0.3,0-0.6,0.3-0.6,0.6
	C10.4,58.8,10.7,59.1,11,59.1z"/>
</svg>
